G04*
G04 #@! TF.GenerationSoftware,Altium Limited,Altium Designer,20.1.7 (139)*
G04*
G04 Layer_Physical_Order=2*
G04 Layer_Color=16711680*
%FSLAX25Y25*%
%MOIN*%
G70*
G04*
G04 #@! TF.SameCoordinates,5ECA0F7F-463D-40B6-9D18-12E9E7DCF4CC*
G04*
G04*
G04 #@! TF.FilePolarity,Positive*
G04*
G01*
G75*
%ADD10C,0.00787*%
%ADD37R,0.05315X0.16535*%
%ADD38C,0.01968*%
%ADD39R,0.05906X0.05906*%
%ADD40C,0.05906*%
%ADD41C,0.03543*%
%ADD42C,0.04724*%
%ADD43O,0.03543X0.06693*%
%ADD44O,0.03543X0.07874*%
%ADD45C,0.02362*%
%ADD46C,0.02500*%
%ADD47R,0.03740X0.05118*%
%ADD48R,0.23622X0.09449*%
%ADD49R,0.05118X0.03740*%
%ADD50R,0.07874X0.11811*%
%ADD51O,0.07874X0.02362*%
%ADD52R,0.07870X0.04720*%
%ADD53R,0.04528X0.06890*%
%ADD54R,0.25591X0.22835*%
%ADD55R,0.07874X0.03740*%
%ADD56R,0.07087X0.07874*%
%ADD57R,0.03150X0.03543*%
%ADD58R,0.02100X0.07100*%
%ADD59O,0.05512X0.02362*%
%ADD60R,0.03150X0.03937*%
%ADD61R,0.07087X0.07087*%
%ADD62R,0.04000X0.04500*%
%ADD63R,0.05906X0.05906*%
%ADD64R,0.07874X0.04724*%
G04:AMPARAMS|DCode=65|XSize=61.81mil|YSize=16.14mil|CornerRadius=2.02mil|HoleSize=0mil|Usage=FLASHONLY|Rotation=90.000|XOffset=0mil|YOffset=0mil|HoleType=Round|Shape=RoundedRectangle|*
%AMROUNDEDRECTD65*
21,1,0.06181,0.01211,0,0,90.0*
21,1,0.05778,0.01614,0,0,90.0*
1,1,0.00404,0.00605,0.02889*
1,1,0.00404,0.00605,-0.02889*
1,1,0.00404,-0.00605,-0.02889*
1,1,0.00404,-0.00605,0.02889*
%
%ADD65ROUNDEDRECTD65*%
%ADD66R,0.07000X0.03000*%
%ADD67R,0.06000X0.04000*%
%ADD68R,0.08000X0.06000*%
%ADD69R,0.04500X0.04000*%
%ADD70R,0.01000X0.03543*%
%ADD71R,0.03543X0.01000*%
%ADD72R,0.12205X0.12205*%
%ADD73R,0.14488X0.05000*%
%ADD74R,0.02362X0.04488*%
%ADD75R,0.01181X0.04488*%
%ADD76R,0.03937X0.05512*%
%ADD77R,0.05906X0.03543*%
%ADD78R,0.03543X0.05906*%
%ADD79R,0.03543X0.03543*%
%ADD80R,0.04134X0.08661*%
%ADD81R,0.03937X0.04134*%
%ADD82R,0.05000X0.14173*%
%ADD83C,0.03937*%
G36*
X405991Y670998D02*
X405998Y670998D01*
X407048Y670998D01*
X409127Y670725D01*
X411152Y670182D01*
X413090Y669380D01*
X414905Y668332D01*
X416569Y667056D01*
X418052Y665574D01*
X419329Y663910D01*
X420377Y662095D01*
X421180Y660158D01*
X421724Y658133D01*
X421998Y656054D01*
X421998Y655505D01*
X421999Y655005D01*
X421999Y655004D01*
X421999Y654503D01*
Y632465D01*
X414665D01*
Y624559D01*
X421999D01*
Y604906D01*
X414272D01*
Y597000D01*
X421999D01*
X421999Y460236D01*
X420331D01*
Y457267D01*
X419831D01*
D01*
X420331D01*
Y454299D01*
X421999D01*
Y431889D01*
X420331D01*
Y428921D01*
Y425952D01*
X421999D01*
Y415106D01*
X414744D01*
Y407201D01*
X421999D01*
Y387547D01*
X414350D01*
Y380077D01*
X413630Y379779D01*
X412928Y379240D01*
X412389Y378537D01*
X412050Y377719D01*
X411934Y376842D01*
X412050Y375964D01*
X412389Y375146D01*
X412928Y374444D01*
X413630Y373905D01*
X414448Y373566D01*
X415326Y373451D01*
X416203Y373566D01*
X417021Y373905D01*
X417724Y374444D01*
X418262Y375146D01*
X418601Y375964D01*
X418717Y376842D01*
X418601Y377719D01*
X418262Y378537D01*
X417799Y379142D01*
X417951Y379642D01*
X421999D01*
Y292504D01*
X421999Y291523D01*
X421743Y289585D01*
X421238Y287697D01*
X420490Y285891D01*
X419512Y284198D01*
X418322Y282648D01*
X416940Y281265D01*
X415389Y280076D01*
X413697Y279098D01*
X411891Y278350D01*
X410003Y277844D01*
X408065Y277589D01*
X407088D01*
X407050Y277589D01*
X407050Y277589D01*
X406975Y277583D01*
X406974Y277583D01*
X406900Y277572D01*
X406899Y277571D01*
X406826Y277554D01*
X406790Y277544D01*
X406790Y277544D01*
Y277544D01*
X372316Y277544D01*
X266772D01*
X231500Y277544D01*
X231000Y277544D01*
X231000Y277544D01*
X231000Y277544D01*
X229951D01*
X227872Y277818D01*
X225846Y278360D01*
X223909Y279163D01*
X222093Y280212D01*
X220429Y281488D01*
X218946Y282971D01*
X217669Y284635D01*
X216621Y286451D01*
X215818Y288389D01*
X215275Y290415D01*
X215002Y292494D01*
Y293542D01*
X215001Y293553D01*
X215001Y293560D01*
X215002Y600646D01*
X222335D01*
Y608551D01*
X215002D01*
X215002Y628205D01*
X222728D01*
Y636110D01*
X215002D01*
X215002Y655031D01*
X215003Y656078D01*
X215281Y658154D01*
X215826Y660177D01*
X216630Y662111D01*
X217680Y663923D01*
X218957Y665584D01*
X220440Y667063D01*
X222102Y668337D01*
X223917Y669383D01*
X225852Y670184D01*
X227876Y670725D01*
X229953Y670998D01*
X231002D01*
X231008Y670998D01*
X231012Y670998D01*
X231013Y670999D01*
X240220D01*
Y663213D01*
X247535D01*
Y670999D01*
X251500D01*
Y655413D01*
X252006D01*
Y644906D01*
X252031Y644711D01*
Y643936D01*
X249686D01*
Y639106D01*
X252253D01*
Y641839D01*
X257733D01*
Y639106D01*
X260300D01*
Y643936D01*
X257968D01*
Y644711D01*
X257994Y644906D01*
Y655413D01*
X258500D01*
Y670999D01*
X262464D01*
Y663213D01*
X269779D01*
Y670999D01*
X405986Y670999D01*
X405991Y670998D01*
D02*
G37*
%LPC*%
G36*
X358008Y668653D02*
X354555D01*
Y666382D01*
X358008D01*
Y668653D01*
D02*
G37*
G36*
X289110D02*
X285657D01*
Y666382D01*
X289110D01*
Y668653D01*
D02*
G37*
G36*
X353555D02*
X350102D01*
Y666382D01*
X353555D01*
Y668653D01*
D02*
G37*
G36*
X284657D02*
X281205D01*
Y666382D01*
X284657D01*
Y668653D01*
D02*
G37*
G36*
X372559Y666484D02*
X369500D01*
Y664114D01*
X372559D01*
Y666484D01*
D02*
G37*
G36*
X368500D02*
X365441D01*
Y664114D01*
X368500D01*
Y666484D01*
D02*
G37*
G36*
X391559Y666484D02*
X384441D01*
Y660744D01*
X391559D01*
Y666484D01*
D02*
G37*
G36*
X382059D02*
X374941D01*
Y660744D01*
X382059D01*
Y666484D01*
D02*
G37*
G36*
X372559Y663114D02*
X369500D01*
Y660744D01*
X372559D01*
Y663114D01*
D02*
G37*
G36*
X368500D02*
X365441D01*
Y660744D01*
X368500D01*
Y663114D01*
D02*
G37*
G36*
X279059Y665957D02*
X271941D01*
Y660216D01*
X279059D01*
Y660278D01*
X279521Y660469D01*
X280113Y659877D01*
X280574Y659569D01*
X281118Y659461D01*
X281205D01*
Y658110D01*
Y653110D01*
Y647303D01*
X276382D01*
X275838Y647195D01*
X275377Y646887D01*
X272995Y644505D01*
X272687Y644044D01*
X272579Y643500D01*
Y624089D01*
X248495Y600005D01*
X248187Y599544D01*
X248079Y599000D01*
Y572500D01*
X248187Y571956D01*
X248495Y571495D01*
X253995Y565995D01*
X254456Y565687D01*
X255000Y565579D01*
X272823D01*
X315946Y522456D01*
X302995Y509505D01*
X302921Y509394D01*
X302421Y509545D01*
Y520493D01*
X302622Y520628D01*
X303119Y521372D01*
X303294Y522250D01*
X303119Y523128D01*
X302622Y523872D01*
X301878Y524369D01*
X301000Y524544D01*
X300122Y524369D01*
X299378Y523872D01*
X298881Y523128D01*
X298706Y522250D01*
X298881Y521372D01*
X299378Y520628D01*
X299579Y520493D01*
Y480589D01*
X293495Y474505D01*
X293187Y474044D01*
X293079Y473500D01*
Y469270D01*
X292579Y469151D01*
X291878Y469619D01*
X291000Y469794D01*
X290122Y469619D01*
X289378Y469122D01*
X288880Y468378D01*
X288847Y468208D01*
X273662Y453023D01*
X271568D01*
Y454250D01*
X265568D01*
Y448023D01*
X265568Y447750D01*
X265162Y447523D01*
X237522D01*
X237378Y447619D01*
X236500Y447794D01*
X235622Y447619D01*
X234878Y447122D01*
X234381Y446378D01*
X234206Y445500D01*
X234381Y444622D01*
X234878Y443878D01*
X235622Y443381D01*
X236500Y443206D01*
X237378Y443381D01*
X237522Y443477D01*
X279500D01*
X280274Y443631D01*
X280931Y444069D01*
X291208Y454347D01*
X291378Y454381D01*
X292122Y454878D01*
X292312Y455162D01*
X292978Y455259D01*
X293079Y455176D01*
Y374589D01*
X277554Y359063D01*
X277261Y359051D01*
X276964Y359110D01*
X276622Y359622D01*
X275878Y360120D01*
X275000Y360294D01*
X274122Y360120D01*
X273378Y359622D01*
X272881Y358878D01*
X272706Y358000D01*
X272881Y357122D01*
X273378Y356378D01*
X273579Y356243D01*
Y345730D01*
X273132Y345602D01*
Y345602D01*
X268061D01*
X267588Y345621D01*
X267569Y346094D01*
Y351165D01*
X252758D01*
Y346094D01*
X252739Y345621D01*
X252266Y345602D01*
X247195D01*
Y342602D01*
Y338665D01*
Y335022D01*
X246695Y334815D01*
X242505Y339005D01*
X242044Y339313D01*
X241500Y339421D01*
X239155D01*
Y341406D01*
X232037D01*
Y340559D01*
X229655D01*
Y341406D01*
X222537D01*
Y335665D01*
X229655D01*
Y336512D01*
X232037D01*
Y335665D01*
X239155D01*
Y336579D01*
X240911D01*
X245126Y332364D01*
X244880Y331903D01*
X244555Y331968D01*
X239155D01*
Y332815D01*
X232037D01*
Y331968D01*
X229655D01*
Y332815D01*
X222537D01*
Y327075D01*
X229655D01*
Y327922D01*
X232037D01*
Y327075D01*
X239155D01*
Y327922D01*
X243717D01*
X245069Y326569D01*
X245726Y326131D01*
X246500Y325977D01*
X252758D01*
Y325228D01*
X256774D01*
Y321805D01*
X256882Y321261D01*
X257190Y320800D01*
X260753Y317237D01*
X260706Y317000D01*
X260880Y316122D01*
X261378Y315378D01*
X262122Y314880D01*
X263000Y314706D01*
X263878Y314880D01*
X264622Y315378D01*
X265120Y316122D01*
X265222Y316638D01*
X265765Y316803D01*
X272160Y310407D01*
X271969Y309945D01*
X265093D01*
Y306701D01*
X264093D01*
Y309945D01*
X262411D01*
Y308982D01*
X261912Y308735D01*
X261561Y309004D01*
X260887Y309283D01*
X260663Y309313D01*
Y304417D01*
Y299522D01*
X260887Y299552D01*
X261561Y299831D01*
X262140Y300275D01*
X262584Y300854D01*
X262864Y301529D01*
X262959Y302252D01*
Y303060D01*
X263268Y303168D01*
X263648Y302784D01*
X263589Y302488D01*
X263758Y301637D01*
X264241Y300916D01*
X264962Y300434D01*
X265813Y300264D01*
X266664Y300434D01*
X267386Y300916D01*
X267867Y301637D01*
X268037Y302488D01*
X267944Y302957D01*
X268345Y303457D01*
X268880D01*
Y297882D01*
X266915Y295917D01*
X255371D01*
Y297366D01*
X248253D01*
Y291626D01*
X255371D01*
Y293075D01*
X267504D01*
X268048Y293183D01*
X268048Y293183D01*
X268048Y293183D01*
X268233Y293307D01*
X268509Y293491D01*
X268509Y293491D01*
X271306Y296289D01*
X271306Y296289D01*
X271614Y296750D01*
X271614Y296750D01*
X271673Y297047D01*
X271722Y297293D01*
Y303457D01*
X272817D01*
Y303063D01*
X272925Y302519D01*
X273233Y302058D01*
X273796Y301495D01*
X274257Y301187D01*
X274801Y301079D01*
X277500D01*
X278044Y301187D01*
X278505Y301495D01*
X279180Y302170D01*
X279488Y302631D01*
X279596Y303175D01*
Y303457D01*
X280691D01*
Y297388D01*
X280799Y296844D01*
X281107Y296383D01*
X283999Y293491D01*
X284460Y293183D01*
X285004Y293075D01*
X298646D01*
Y291626D01*
X305765D01*
Y297366D01*
X298646D01*
Y295917D01*
X285593D01*
X283533Y297976D01*
Y303457D01*
X286037D01*
X286438Y302957D01*
X286345Y302488D01*
X286514Y301637D01*
X286996Y300916D01*
X287718Y300434D01*
X288569Y300264D01*
X289420Y300434D01*
X290141Y300916D01*
X290623Y301637D01*
X290793Y302488D01*
X290734Y302785D01*
X291113Y303169D01*
X291423Y303060D01*
Y302252D01*
X291518Y301529D01*
X291798Y300854D01*
X292242Y300275D01*
X292821Y299831D01*
X293495Y299552D01*
X293719Y299522D01*
Y304417D01*
Y309313D01*
X293495Y309283D01*
X292821Y309004D01*
X292471Y308735D01*
X291970Y308982D01*
Y309945D01*
X290289D01*
Y306701D01*
X289289D01*
Y309945D01*
X289224D01*
X289017Y310445D01*
X291541Y312969D01*
X348959D01*
X351483Y310445D01*
X351276Y309945D01*
X351211D01*
Y306701D01*
X350211D01*
Y309945D01*
X348530D01*
Y308982D01*
X348029Y308735D01*
X347679Y309004D01*
X347005Y309283D01*
X346782Y309313D01*
Y304417D01*
Y299522D01*
X347005Y299552D01*
X347679Y299831D01*
X348258Y300275D01*
X348703Y300854D01*
X348982Y301529D01*
X349077Y302252D01*
Y303060D01*
X349386Y303168D01*
X349766Y302784D01*
X349707Y302488D01*
X349877Y301637D01*
X350359Y300916D01*
X351080Y300434D01*
X351931Y300264D01*
X352782Y300434D01*
X353504Y300916D01*
X353986Y301637D01*
X354155Y302488D01*
X354062Y302957D01*
X354463Y303457D01*
X354998D01*
Y301008D01*
X349907Y295917D01*
X341868D01*
Y297366D01*
X334750D01*
Y291626D01*
X341868D01*
Y293075D01*
X350496D01*
X351040Y293183D01*
X351501Y293491D01*
X357424Y299414D01*
X357732Y299875D01*
X357840Y300419D01*
Y303457D01*
X360904D01*
Y302961D01*
X361012Y302417D01*
X361320Y301956D01*
X361781Y301495D01*
X362242Y301187D01*
X362786Y301079D01*
X365699D01*
X366243Y301187D01*
X366309Y301232D01*
X366809Y300965D01*
Y300270D01*
X366918Y299726D01*
X367226Y299265D01*
X372999Y293491D01*
X373460Y293183D01*
X374004Y293075D01*
X384750D01*
Y291626D01*
X391868D01*
Y297366D01*
X384750D01*
Y295917D01*
X374593D01*
X369651Y300858D01*
Y303457D01*
X372155D01*
X372556Y302957D01*
X372463Y302488D01*
X372633Y301637D01*
X373114Y300916D01*
X373836Y300434D01*
X374687Y300264D01*
X375538Y300434D01*
X376259Y300916D01*
X376742Y301637D01*
X376911Y302488D01*
X376852Y302784D01*
X377232Y303168D01*
X377541Y303060D01*
Y302252D01*
X377636Y301529D01*
X377916Y300854D01*
X378360Y300275D01*
X378939Y299831D01*
X379613Y299552D01*
X379837Y299522D01*
Y304417D01*
Y309313D01*
X379613Y309283D01*
X378939Y309004D01*
X378589Y308735D01*
X378088Y308982D01*
Y309945D01*
X376407D01*
Y306701D01*
X375407D01*
Y309945D01*
X369108D01*
X368916Y310407D01*
X376589Y318079D01*
X381743D01*
X381878Y317878D01*
X382622Y317380D01*
X383500Y317206D01*
X384378Y317380D01*
X385122Y317878D01*
X385619Y318622D01*
X385794Y319500D01*
X385619Y320378D01*
X385122Y321122D01*
X384466Y321561D01*
X384374Y321645D01*
X384300Y322145D01*
X384619Y322622D01*
X384794Y323500D01*
X384619Y324378D01*
X384122Y325122D01*
X383378Y325620D01*
X382500Y325794D01*
X381622Y325620D01*
X380878Y325122D01*
X380743Y324921D01*
X376132D01*
X375588Y324813D01*
X375127Y324505D01*
X363043Y312421D01*
X361000D01*
X360456Y312313D01*
X359995Y312005D01*
X359321Y311331D01*
X359013Y310870D01*
X358905Y310326D01*
Y309945D01*
X355883D01*
Y310929D01*
X355729Y311703D01*
X355291Y312360D01*
X352658Y314993D01*
X372610Y334945D01*
X372780Y334979D01*
X373524Y335476D01*
X374022Y336220D01*
X374196Y337098D01*
X374022Y337976D01*
X373524Y338720D01*
X372780Y339217D01*
X371902Y339392D01*
X371024Y339217D01*
X370280Y338720D01*
X369783Y337976D01*
X369749Y337806D01*
X348959Y317016D01*
X296241D01*
X296049Y317478D01*
X310545Y331973D01*
X323563D01*
Y331126D01*
X337681D01*
Y336866D01*
X329145D01*
Y339878D01*
X328991Y340652D01*
X328553Y341309D01*
X325121Y344740D01*
Y345272D01*
X325854D01*
X326705Y345442D01*
X327427Y345924D01*
X327909Y346645D01*
X328078Y347496D01*
X327909Y348347D01*
X327427Y349069D01*
X326705Y349551D01*
X325854Y349720D01*
X323813D01*
X323625Y350220D01*
X323684Y350272D01*
X325854D01*
X326705Y350442D01*
X327427Y350924D01*
X327909Y351645D01*
X328078Y352496D01*
X327909Y353347D01*
X327427Y354069D01*
X326705Y354551D01*
X325854Y354720D01*
X323738D01*
X323529Y355220D01*
X323580Y355272D01*
X325854D01*
X326705Y355441D01*
X327427Y355924D01*
X327909Y356645D01*
X328078Y357496D01*
X327909Y358347D01*
X327427Y359069D01*
X326705Y359551D01*
X325854Y359720D01*
X323836D01*
X323776Y359772D01*
X323965Y360272D01*
X325854D01*
X326705Y360441D01*
X327427Y360924D01*
X327909Y361645D01*
X328078Y362496D01*
X327909Y363347D01*
X327427Y364069D01*
X326705Y364551D01*
X325854Y364720D01*
X320980D01*
X318769Y366931D01*
X318113Y367369D01*
X317338Y367523D01*
X315628D01*
Y369263D01*
X312884D01*
X312639Y369762D01*
X312806Y369977D01*
X343978D01*
X344122Y369881D01*
X345000Y369706D01*
X345878Y369881D01*
X346622Y370378D01*
X347119Y371122D01*
X347294Y372000D01*
X347119Y372878D01*
X346622Y373622D01*
X345878Y374119D01*
X345000Y374294D01*
X344122Y374119D01*
X343978Y374023D01*
X311819D01*
X311045Y373869D01*
X310388Y373431D01*
X307254Y370296D01*
X307153Y370145D01*
X306271Y369263D01*
X304777D01*
X304586Y369724D01*
X310838Y375977D01*
X334500D01*
X335274Y376131D01*
X335931Y376569D01*
X340764Y381402D01*
X341202Y382059D01*
X341356Y382833D01*
Y386266D01*
X344268D01*
Y392986D01*
X342327D01*
Y396681D01*
X342597D01*
Y405571D01*
X342327D01*
Y409627D01*
X344270D01*
Y415367D01*
X340161D01*
X340108Y415389D01*
X339333Y415491D01*
X338558Y415389D01*
X338505Y415367D01*
X334396D01*
Y409627D01*
X336339D01*
Y405571D01*
X336069D01*
Y396681D01*
X336339D01*
Y392986D01*
X334398D01*
Y386266D01*
X337310D01*
Y383671D01*
X333662Y380023D01*
X310000D01*
X309226Y379869D01*
X308569Y379431D01*
X300050Y370911D01*
X299661Y371230D01*
X299813Y371456D01*
X299921Y372000D01*
Y471911D01*
X305005Y476995D01*
X305313Y477456D01*
X305421Y478000D01*
Y507911D01*
X318500Y520991D01*
X354268D01*
Y518912D01*
X370756D01*
Y525912D01*
X354268D01*
Y523833D01*
X318589D01*
X274416Y568005D01*
X274305Y568079D01*
X274457Y568579D01*
X276411D01*
X317753Y527237D01*
X317706Y527000D01*
X317881Y526122D01*
X318378Y525378D01*
X319122Y524881D01*
X320000Y524706D01*
X320878Y524881D01*
X321622Y525378D01*
X321757Y525579D01*
X347500D01*
X348044Y525687D01*
X348505Y525995D01*
X353500Y530991D01*
X354268D01*
Y528912D01*
X370756D01*
Y535912D01*
X354268D01*
Y533833D01*
X352912D01*
X352368Y533724D01*
X351907Y533416D01*
X346911Y528421D01*
X321757D01*
X321622Y528622D01*
X320878Y529119D01*
X320000Y529294D01*
X319763Y529247D01*
X278005Y571005D01*
X277544Y571313D01*
X277000Y571421D01*
X256589D01*
X256124Y571886D01*
X256331Y572386D01*
X257319D01*
X257788Y572479D01*
X257993Y572616D01*
X258199Y572479D01*
X258667Y572386D01*
X259878D01*
X260347Y572479D01*
X260552Y572616D01*
X260758Y572479D01*
X261227Y572386D01*
X262437D01*
X262906Y572479D01*
X263111Y572616D01*
X263317Y572479D01*
X263786Y572386D01*
X264996D01*
X265465Y572479D01*
X265670Y572616D01*
X265876Y572479D01*
X266345Y572386D01*
X267555D01*
X268024Y572479D01*
X268230Y572616D01*
X268435Y572479D01*
X268904Y572386D01*
X270114D01*
X270583Y572479D01*
X270789Y572616D01*
X270994Y572479D01*
X271463Y572386D01*
X272673D01*
X273142Y572479D01*
X273348Y572616D01*
X273553Y572479D01*
X274022Y572386D01*
X275233D01*
X275701Y572479D01*
X276099Y572745D01*
X276365Y573142D01*
X276458Y573611D01*
Y574967D01*
X276958Y575033D01*
X300253Y551737D01*
X300206Y551500D01*
X300380Y550622D01*
X300878Y549878D01*
X301622Y549381D01*
X302500Y549206D01*
X303378Y549381D01*
X304122Y549878D01*
X304620Y550622D01*
X304794Y551500D01*
X304620Y552378D01*
X304122Y553122D01*
X303378Y553619D01*
X302500Y553794D01*
X302263Y553747D01*
X278505Y577505D01*
X278044Y577813D01*
X277500Y577921D01*
X276458D01*
Y579389D01*
X276421Y579574D01*
Y596743D01*
X276622Y596878D01*
X277119Y597622D01*
X277294Y598500D01*
X277119Y599378D01*
X276622Y600122D01*
X275878Y600619D01*
X275000Y600794D01*
X274122Y600619D01*
X273378Y600122D01*
X272881Y599378D01*
X272706Y598500D01*
X272881Y597622D01*
X273378Y596878D01*
X273579Y596743D01*
Y593795D01*
X273138Y593559D01*
X272946Y593687D01*
X272068Y593862D01*
X271345Y593718D01*
X270845Y594013D01*
Y600836D01*
X274470Y604461D01*
X281205D01*
Y603110D01*
Y598110D01*
X288835D01*
X289110Y598110D01*
X289335Y597703D01*
Y592008D01*
X295083D01*
Y565894D01*
X295237Y565119D01*
X295676Y564463D01*
X329347Y530792D01*
X329380Y530622D01*
X329878Y529878D01*
X330622Y529381D01*
X331500Y529206D01*
X332378Y529381D01*
X333122Y529878D01*
X333619Y530622D01*
X333794Y531500D01*
X333619Y532378D01*
X333122Y533122D01*
X332378Y533619D01*
X332208Y533653D01*
X299130Y566732D01*
Y592008D01*
X300083D01*
Y567894D01*
X300237Y567119D01*
X300676Y566463D01*
X329347Y537792D01*
X329380Y537622D01*
X329878Y536878D01*
X330622Y536381D01*
X331500Y536206D01*
X332378Y536381D01*
X333122Y536878D01*
X333619Y537622D01*
X333794Y538500D01*
X333619Y539378D01*
X333122Y540122D01*
X332378Y540619D01*
X332208Y540653D01*
X304130Y568732D01*
Y592008D01*
X305083D01*
Y569894D01*
X305237Y569119D01*
X305676Y568463D01*
X329847Y544292D01*
X329880Y544122D01*
X330378Y543378D01*
X331122Y542881D01*
X332000Y542706D01*
X332878Y542881D01*
X333622Y543378D01*
X334120Y544122D01*
X334294Y545000D01*
X334120Y545878D01*
X333622Y546622D01*
X332878Y547119D01*
X332708Y547153D01*
X309130Y570732D01*
Y592008D01*
X310083D01*
Y571894D01*
X310237Y571119D01*
X310676Y570463D01*
X329347Y551792D01*
X329380Y551622D01*
X329878Y550878D01*
X330622Y550381D01*
X331500Y550206D01*
X332378Y550381D01*
X333122Y550878D01*
X333619Y551622D01*
X333794Y552500D01*
X333619Y553378D01*
X333478Y553589D01*
X333878Y553878D01*
X334622Y553381D01*
X334792Y553347D01*
X347158Y540981D01*
X347814Y540543D01*
X348588Y540388D01*
X354268D01*
Y538912D01*
X370756D01*
Y545912D01*
X354268D01*
Y544435D01*
X349426D01*
X337653Y556208D01*
X337619Y556378D01*
X337122Y557122D01*
X336378Y557619D01*
X336208Y557653D01*
X319129Y574732D01*
Y592008D01*
X320083D01*
Y577394D01*
X320237Y576619D01*
X320676Y575963D01*
X340347Y556292D01*
X340381Y556122D01*
X340878Y555378D01*
X341622Y554881D01*
X341792Y554847D01*
X345658Y550981D01*
X346314Y550542D01*
X347088Y550388D01*
X354268D01*
Y548912D01*
X370756D01*
Y555912D01*
X354268D01*
Y554435D01*
X347926D01*
X344653Y557708D01*
X344619Y557878D01*
X344122Y558622D01*
X343378Y559119D01*
X343208Y559153D01*
X324130Y578232D01*
Y592008D01*
X325083D01*
Y579894D01*
X325237Y579119D01*
X325676Y578463D01*
X343158Y560981D01*
X343814Y560542D01*
X344588Y560389D01*
X354268D01*
Y558912D01*
X355355D01*
X355378Y558878D01*
X356122Y558381D01*
X357000Y558206D01*
X357878Y558381D01*
X358622Y558878D01*
X358645Y558912D01*
X370756D01*
Y565343D01*
X371256Y565551D01*
X373756Y563051D01*
Y558912D01*
X390244D01*
Y565912D01*
X376617D01*
X369598Y572931D01*
X368942Y573369D01*
X368167Y573523D01*
X347838D01*
X334130Y587232D01*
Y592008D01*
X335083D01*
Y588894D01*
X335237Y588119D01*
X335676Y587463D01*
X347069Y576069D01*
X347726Y575631D01*
X348500Y575477D01*
X361478D01*
X361622Y575381D01*
X362500Y575206D01*
X363378Y575381D01*
X364122Y575878D01*
X364619Y576622D01*
X364794Y577500D01*
X364619Y578378D01*
X364122Y579122D01*
X363378Y579619D01*
X362500Y579794D01*
X361622Y579619D01*
X361478Y579523D01*
X349338D01*
X339129Y589732D01*
Y592008D01*
X349878D01*
Y593477D01*
X386978D01*
X387122Y593381D01*
X388000Y593206D01*
X388878Y593381D01*
X389622Y593878D01*
X390120Y594622D01*
X390294Y595500D01*
X390120Y596378D01*
X389622Y597122D01*
X388878Y597619D01*
X388000Y597794D01*
X387122Y597619D01*
X386978Y597523D01*
X350350D01*
X350298Y597610D01*
X350315Y597717D01*
X350584Y598110D01*
X358008D01*
Y603110D01*
Y608110D01*
Y613110D01*
Y618110D01*
Y623110D01*
Y628859D01*
X360780D01*
X391477Y598162D01*
Y519338D01*
X388051Y515912D01*
X373756D01*
Y508912D01*
X389676D01*
X389883Y508412D01*
X387383Y505912D01*
X373756D01*
Y498912D01*
X389676D01*
X389883Y498412D01*
X387383Y495912D01*
X373756D01*
Y488912D01*
X389676D01*
X389883Y488412D01*
X387383Y485912D01*
X373756D01*
Y478912D01*
X389676D01*
X389883Y478412D01*
X387383Y475912D01*
X373756D01*
Y468912D01*
X390244D01*
Y473050D01*
X414431Y497237D01*
X414869Y497893D01*
X415023Y498667D01*
Y569478D01*
X415119Y569622D01*
X415294Y570500D01*
X415119Y571378D01*
X414622Y572122D01*
X413878Y572619D01*
X413000Y572794D01*
X412122Y572619D01*
X411378Y572122D01*
X410881Y571378D01*
X410706Y570500D01*
X410881Y569622D01*
X410977Y569478D01*
Y499506D01*
X390744Y479273D01*
X390244Y479480D01*
Y483050D01*
X409431Y502237D01*
X409869Y502893D01*
X410023Y503667D01*
Y584478D01*
X410119Y584622D01*
X410294Y585500D01*
X410119Y586378D01*
X409622Y587122D01*
X408878Y587619D01*
X408000Y587794D01*
X407122Y587619D01*
X406378Y587122D01*
X406023Y586591D01*
X405523Y586743D01*
Y597478D01*
X405619Y597622D01*
X405794Y598500D01*
X405619Y599378D01*
X405122Y600122D01*
X404378Y600619D01*
X403500Y600794D01*
X402622Y600619D01*
X401878Y600122D01*
X401523Y599591D01*
X401023Y599743D01*
Y614500D01*
X400869Y615274D01*
X400431Y615931D01*
X385511Y630850D01*
X385758Y631311D01*
X386268Y631209D01*
X392114D01*
Y629673D01*
X397854D01*
Y636791D01*
X392114D01*
Y635255D01*
X387106D01*
X386409Y635952D01*
X386511Y636157D01*
X386704Y636364D01*
X387500Y636206D01*
X388378Y636381D01*
X389122Y636878D01*
X389619Y637622D01*
X389794Y638500D01*
X389619Y639378D01*
X389523Y639522D01*
Y654248D01*
X391559D01*
Y655697D01*
X394648D01*
X395122Y655381D01*
X396000Y655206D01*
X396878Y655381D01*
X397622Y655878D01*
X398119Y656622D01*
X398294Y657500D01*
X398119Y658378D01*
X397622Y659122D01*
X396878Y659619D01*
X396000Y659794D01*
X395122Y659619D01*
X394378Y659122D01*
X393988Y658539D01*
X391559D01*
Y659988D01*
X384441D01*
Y659141D01*
X382059D01*
Y659988D01*
X374941D01*
Y654248D01*
X382059D01*
Y655095D01*
X384441D01*
Y654248D01*
X385477D01*
Y639522D01*
X385381Y639378D01*
X385206Y638500D01*
X385364Y637704D01*
X385157Y637511D01*
X384952Y637409D01*
X371023Y651338D01*
Y654248D01*
X372559D01*
Y659988D01*
X365441D01*
Y659244D01*
X364941Y659184D01*
X361812Y662312D01*
X361156Y662751D01*
X360382Y662905D01*
X358008D01*
Y663110D01*
Y665382D01*
X354055D01*
X350102D01*
Y662905D01*
X349382D01*
X348608Y662751D01*
X347951Y662312D01*
X344951Y659312D01*
X344513Y658656D01*
X344359Y657882D01*
Y638720D01*
X334257Y628618D01*
X333795Y628810D01*
Y629476D01*
X331024D01*
Y630476D01*
X333795D01*
Y632717D01*
Y634988D01*
X331024D01*
Y635988D01*
X333795D01*
Y638228D01*
Y640500D01*
X331024D01*
Y641000D01*
X330524D01*
Y643772D01*
X326012D01*
Y641000D01*
X325012D01*
Y643772D01*
X320500D01*
Y641000D01*
X320000D01*
Y640500D01*
X317228D01*
Y638228D01*
Y635988D01*
X320000D01*
Y634988D01*
X317228D01*
Y632717D01*
Y630476D01*
X320000D01*
Y629476D01*
X317228D01*
Y627205D01*
X316804Y627023D01*
X300522D01*
X300378Y627119D01*
X299500Y627294D01*
X298622Y627119D01*
X297878Y626622D01*
X297380Y625878D01*
X297206Y625000D01*
X297380Y624122D01*
X297486Y623964D01*
X297250Y623523D01*
X293522D01*
X293378Y623619D01*
X292500Y623794D01*
X291622Y623619D01*
X290878Y623122D01*
X290381Y622378D01*
X290206Y621500D01*
X290381Y620622D01*
X290878Y619878D01*
X291622Y619381D01*
X292500Y619206D01*
X293378Y619381D01*
X293522Y619477D01*
X335500D01*
X336274Y619631D01*
X336931Y620069D01*
X338452Y621591D01*
X338657Y621489D01*
X338864Y621296D01*
X338706Y620500D01*
X338880Y619622D01*
X339378Y618878D01*
X340122Y618381D01*
X341000Y618206D01*
X341878Y618381D01*
X342622Y618878D01*
X342757Y619079D01*
X350102D01*
Y617303D01*
X295875D01*
X295740Y617504D01*
X294996Y618001D01*
X294118Y618176D01*
X293240Y618001D01*
X292496Y617504D01*
X291999Y616760D01*
X291824Y615882D01*
X291829Y615857D01*
X291388Y615622D01*
X290123Y616887D01*
X289662Y617195D01*
X289118Y617303D01*
X289110D01*
Y623110D01*
Y628110D01*
Y633110D01*
Y638110D01*
Y643110D01*
Y648110D01*
Y653110D01*
Y658110D01*
Y663110D01*
Y665382D01*
X285157D01*
X281205D01*
Y663512D01*
X280705Y663305D01*
X279918Y664091D01*
X279457Y664399D01*
X279059Y664479D01*
Y665957D01*
D02*
G37*
G36*
Y659460D02*
X271941D01*
Y653720D01*
X279059D01*
Y659460D01*
D02*
G37*
G36*
X269779Y662213D02*
X266622D01*
Y653445D01*
X269779D01*
Y662213D01*
D02*
G37*
G36*
X265622D02*
X262464D01*
Y653445D01*
X265622D01*
Y662213D01*
D02*
G37*
G36*
X247535D02*
X244378D01*
Y653445D01*
X247535D01*
Y662213D01*
D02*
G37*
G36*
X243378D02*
X240220D01*
Y653445D01*
X243378D01*
Y662213D01*
D02*
G37*
G36*
X412430Y666633D02*
X411266D01*
X411168Y666613D01*
X411067D01*
X409926Y666387D01*
X409834Y666348D01*
X409735Y666328D01*
X408660Y665883D01*
X408577Y665828D01*
X408484Y665789D01*
X407517Y665143D01*
X407446Y665072D01*
X407362Y665016D01*
X406540Y664193D01*
X406484Y664110D01*
X406413Y664039D01*
X405767Y663072D01*
X405728Y662979D01*
X405673Y662895D01*
X405227Y661821D01*
X405208Y661722D01*
X405169Y661629D01*
X404942Y660489D01*
Y660388D01*
X404923Y660290D01*
Y659126D01*
X404942Y659028D01*
Y658927D01*
X405169Y657787D01*
X405208Y657694D01*
X405227Y657595D01*
X405673Y656521D01*
X405728Y656437D01*
X405767Y656344D01*
X406413Y655377D01*
X406484Y655306D01*
X406540Y655223D01*
X407362Y654400D01*
X407446Y654344D01*
X407517Y654273D01*
X408484Y653627D01*
X408577Y653588D01*
X408660Y653533D01*
X409735Y653087D01*
X409834Y653068D01*
X409926Y653029D01*
X411067Y652803D01*
X411168D01*
X411266Y652783D01*
X412430D01*
X412528Y652803D01*
X412628D01*
X413769Y653029D01*
X413862Y653068D01*
X413961Y653087D01*
X415035Y653533D01*
X415119Y653588D01*
X415212Y653627D01*
X416179Y654273D01*
X416250Y654344D01*
X416333Y654400D01*
X417156Y655223D01*
X417212Y655306D01*
X417283Y655377D01*
X417929Y656344D01*
X417968Y656437D01*
X418023Y656521D01*
X418468Y657595D01*
X418488Y657694D01*
X418527Y657787D01*
X418753Y658927D01*
Y659028D01*
X418773Y659126D01*
Y660290D01*
X418753Y660388D01*
Y660489D01*
X418527Y661629D01*
X418488Y661722D01*
X418468Y661821D01*
X418023Y662895D01*
X417968Y662979D01*
X417929Y663072D01*
X417283Y664039D01*
X417212Y664110D01*
X417156Y664193D01*
X416333Y665016D01*
X416250Y665072D01*
X416179Y665143D01*
X415212Y665789D01*
X415119Y665828D01*
X415035Y665883D01*
X413961Y666328D01*
X413862Y666348D01*
X413769Y666387D01*
X412628Y666613D01*
X412528D01*
X412430Y666633D01*
D02*
G37*
G36*
X225734Y666633D02*
X224570D01*
X224472Y666613D01*
X224372D01*
X223231Y666387D01*
X223138Y666348D01*
X223039Y666328D01*
X221965Y665883D01*
X221881Y665828D01*
X221788Y665789D01*
X220821Y665143D01*
X220750Y665072D01*
X220667Y665016D01*
X219844Y664193D01*
X219788Y664110D01*
X219717Y664039D01*
X219071Y663072D01*
X219033Y662979D01*
X218977Y662895D01*
X218532Y661821D01*
X218512Y661722D01*
X218474Y661629D01*
X218247Y660489D01*
Y660388D01*
X218227Y660290D01*
Y659126D01*
X218247Y659028D01*
Y658927D01*
X218474Y657787D01*
X218512Y657694D01*
X218532Y657595D01*
X218977Y656521D01*
X219033Y656437D01*
X219071Y656344D01*
X219717Y655377D01*
X219788Y655306D01*
X219844Y655223D01*
X220667Y654400D01*
X220750Y654344D01*
X220821Y654273D01*
X221788Y653627D01*
X221881Y653588D01*
X221965Y653533D01*
X223039Y653087D01*
X223138Y653068D01*
X223231Y653029D01*
X224372Y652803D01*
X224472D01*
X224570Y652783D01*
X225734D01*
X225832Y652803D01*
X225933D01*
X227074Y653029D01*
X227166Y653068D01*
X227265Y653087D01*
X228340Y653533D01*
X228423Y653588D01*
X228516Y653627D01*
X229483Y654273D01*
X229554Y654344D01*
X229638Y654400D01*
X230460Y655223D01*
X230516Y655306D01*
X230587Y655377D01*
X231233Y656344D01*
X231272Y656437D01*
X231328Y656521D01*
X231773Y657595D01*
X231792Y657694D01*
X231831Y657787D01*
X232058Y658927D01*
Y659028D01*
X232077Y659126D01*
Y660290D01*
X232058Y660388D01*
Y660489D01*
X231831Y661629D01*
X231792Y661722D01*
X231773Y661821D01*
X231328Y662895D01*
X231272Y662979D01*
X231233Y663072D01*
X230587Y664039D01*
X230516Y664110D01*
X230460Y664193D01*
X229638Y665016D01*
X229554Y665072D01*
X229483Y665143D01*
X228516Y665789D01*
X228423Y665828D01*
X228340Y665883D01*
X227265Y666328D01*
X227166Y666348D01*
X227074Y666387D01*
X225933Y666613D01*
X225832D01*
X225734Y666633D01*
D02*
G37*
G36*
X394516Y650179D02*
Y648484D01*
X396210D01*
X396135Y648862D01*
X395638Y649607D01*
X394894Y650104D01*
X394516Y650179D01*
D02*
G37*
G36*
X393516D02*
X393138Y650104D01*
X392393Y649607D01*
X391896Y648862D01*
X391821Y648484D01*
X393516D01*
Y650179D01*
D02*
G37*
G36*
X415326Y648934D02*
X414448Y648818D01*
X413630Y648480D01*
X412928Y647940D01*
X412389Y647238D01*
X412050Y646420D01*
X411934Y645543D01*
X412050Y644665D01*
X412389Y643847D01*
X412928Y643145D01*
X413630Y642606D01*
X414448Y642267D01*
X415326Y642151D01*
X416203Y642267D01*
X417021Y642606D01*
X417724Y643145D01*
X418262Y643847D01*
X418601Y644665D01*
X418717Y645543D01*
X418601Y646420D01*
X418262Y647238D01*
X417724Y647940D01*
X417021Y648480D01*
X416203Y648818D01*
X415326Y648934D01*
D02*
G37*
G36*
X222019D02*
X221141Y648818D01*
X220323Y648480D01*
X219621Y647940D01*
X219082Y647238D01*
X218743Y646420D01*
X218627Y645543D01*
X218743Y644665D01*
X219082Y643847D01*
X219621Y643145D01*
X220323Y642606D01*
X221141Y642267D01*
X222019Y642151D01*
X222896Y642267D01*
X223714Y642606D01*
X224417Y643145D01*
X224956Y643847D01*
X225294Y644665D01*
X225410Y645543D01*
X225294Y646420D01*
X224956Y647238D01*
X224417Y647940D01*
X223714Y648480D01*
X222896Y648818D01*
X222019Y648934D01*
D02*
G37*
G36*
X396210Y647484D02*
X391821D01*
X391896Y647106D01*
X392393Y646362D01*
X392595Y646228D01*
Y645059D01*
X392130D01*
Y642000D01*
X395000D01*
X397870D01*
Y645059D01*
X395437D01*
Y646228D01*
X395638Y646362D01*
X396135Y647106D01*
X396210Y647484D01*
D02*
G37*
G36*
X333795Y643772D02*
X331524D01*
Y641500D01*
X333795D01*
Y643772D01*
D02*
G37*
G36*
X319500D02*
X317228D01*
Y641500D01*
X319500D01*
Y643772D01*
D02*
G37*
G36*
X263867Y643936D02*
X261300D01*
Y639106D01*
X263867D01*
Y643936D01*
D02*
G37*
G36*
X248686D02*
X246119D01*
Y639106D01*
X248686D01*
Y643936D01*
D02*
G37*
G36*
X397870Y641000D02*
X395500D01*
Y637941D01*
X397870D01*
Y641000D01*
D02*
G37*
G36*
X394500D02*
X392130D01*
Y637941D01*
X394500D01*
Y641000D01*
D02*
G37*
G36*
X263867Y638106D02*
X261300D01*
Y633275D01*
X263867D01*
Y638106D01*
D02*
G37*
G36*
X260300D02*
X257733D01*
Y633275D01*
X260300D01*
Y638106D01*
D02*
G37*
G36*
X252253D02*
X249686D01*
Y633275D01*
X252253D01*
Y638106D01*
D02*
G37*
G36*
X248686D02*
X246119D01*
Y633275D01*
X248686D01*
Y638106D01*
D02*
G37*
G36*
X303500Y634695D02*
Y633000D01*
X305195D01*
X305119Y633378D01*
X304622Y634122D01*
X303878Y634619D01*
X303500Y634695D01*
D02*
G37*
G36*
X302500D02*
X302122Y634619D01*
X301378Y634122D01*
X300881Y633378D01*
X300805Y633000D01*
X302500D01*
Y634695D01*
D02*
G37*
G36*
X305195Y632000D02*
X303500D01*
Y630305D01*
X303878Y630381D01*
X304622Y630878D01*
X305119Y631622D01*
X305195Y632000D01*
D02*
G37*
G36*
X302500D02*
X300805D01*
X300881Y631622D01*
X301378Y630878D01*
X302122Y630381D01*
X302500Y630305D01*
Y632000D01*
D02*
G37*
G36*
X266500Y633294D02*
X265622Y633119D01*
X264878Y632622D01*
X264381Y631878D01*
X264206Y631000D01*
X264253Y630763D01*
X251518Y618027D01*
X244059D01*
Y619476D01*
X236941D01*
Y613736D01*
X244059D01*
Y615185D01*
X252106D01*
X252650Y615293D01*
X253111Y615601D01*
X266263Y628753D01*
X266500Y628706D01*
X267378Y628881D01*
X268122Y629378D01*
X268619Y630122D01*
X268794Y631000D01*
X268619Y631878D01*
X268122Y632622D01*
X267378Y633119D01*
X266500Y633294D01*
D02*
G37*
G36*
X233161Y630008D02*
X228724D01*
Y627146D01*
X233161D01*
Y630008D01*
D02*
G37*
G36*
X227724D02*
X223287D01*
Y627146D01*
X227724D01*
Y630008D01*
D02*
G37*
G36*
Y626146D02*
X223287D01*
Y625267D01*
X222787Y625000D01*
X222428Y625240D01*
X221500Y625424D01*
X220572Y625240D01*
X219786Y624714D01*
X219260Y623928D01*
X219075Y623000D01*
X219260Y622072D01*
X219786Y621286D01*
X220572Y620760D01*
X221500Y620576D01*
X222428Y620760D01*
X223214Y621286D01*
X223740Y622072D01*
X223924Y623000D01*
X224157Y623283D01*
X227724D01*
Y626146D01*
D02*
G37*
G36*
X233161D02*
X228724D01*
Y623283D01*
X233161D01*
Y626146D01*
D02*
G37*
G36*
X404366Y645059D02*
X398626D01*
Y637941D01*
X399457D01*
Y636791D01*
X398610D01*
Y629673D01*
X399457D01*
Y628520D01*
X399611Y627745D01*
X400050Y627089D01*
X403839Y623300D01*
Y619638D01*
X412734D01*
X413044Y619260D01*
X413229Y618332D01*
X413754Y617545D01*
X414541Y617020D01*
X415469Y616835D01*
X416396Y617020D01*
X417183Y617545D01*
X417709Y618332D01*
X417893Y619260D01*
X417709Y620188D01*
X417183Y620974D01*
X416396Y621500D01*
X415469Y621684D01*
X414541Y621500D01*
X414213Y621280D01*
X413713Y621548D01*
Y626362D01*
X406499D01*
X403688Y629173D01*
X403895Y629673D01*
X404351D01*
Y636791D01*
X403504D01*
Y637941D01*
X404366D01*
Y645059D01*
D02*
G37*
G36*
X415500Y612535D02*
X414572Y612350D01*
X413786Y611825D01*
X413260Y611038D01*
X413075Y610110D01*
X412843Y609827D01*
X409276D01*
Y606965D01*
X413713D01*
Y607843D01*
X414213Y608111D01*
X414572Y607870D01*
X415500Y607686D01*
X416428Y607870D01*
X417214Y608396D01*
X417740Y609182D01*
X417924Y610110D01*
X417740Y611038D01*
X417214Y611825D01*
X416428Y612350D01*
X415500Y612535D01*
D02*
G37*
G36*
X408276Y609827D02*
X403839D01*
Y606965D01*
X408276D01*
Y609827D01*
D02*
G37*
G36*
X413713Y605965D02*
X409276D01*
Y603102D01*
X413713D01*
Y605965D01*
D02*
G37*
G36*
X408276D02*
X403839D01*
Y603102D01*
X408276D01*
Y605965D01*
D02*
G37*
G36*
X234250Y589544D02*
X233372Y589369D01*
X232628Y588872D01*
X232326Y588421D01*
X227757D01*
X227622Y588622D01*
X226878Y589119D01*
X226000Y589294D01*
X225122Y589119D01*
X224378Y588622D01*
X223881Y587878D01*
X223706Y587000D01*
X223881Y586122D01*
X224378Y585378D01*
X225122Y584881D01*
X226000Y584706D01*
X226878Y584881D01*
X227622Y585378D01*
X227757Y585579D01*
X232701D01*
X233372Y585131D01*
X234250Y584956D01*
X235128Y585131D01*
X235872Y585628D01*
X236369Y586372D01*
X236544Y587250D01*
X236369Y588128D01*
X235872Y588872D01*
X235128Y589369D01*
X234250Y589544D01*
D02*
G37*
G36*
X351000Y586695D02*
Y585000D01*
X352695D01*
X352620Y585378D01*
X352122Y586122D01*
X351378Y586619D01*
X351000Y586695D01*
D02*
G37*
G36*
X350000D02*
X349622Y586619D01*
X348878Y586122D01*
X348380Y585378D01*
X348305Y585000D01*
X350000D01*
Y586695D01*
D02*
G37*
G36*
X360500Y588294D02*
X359622Y588119D01*
X358878Y587622D01*
X358381Y586878D01*
X358206Y586000D01*
X358381Y585122D01*
X358878Y584378D01*
X359622Y583881D01*
X360500Y583706D01*
X361378Y583881D01*
X362122Y584378D01*
X362619Y585122D01*
X362794Y586000D01*
X362619Y586878D01*
X362122Y587622D01*
X361378Y588119D01*
X360500Y588294D01*
D02*
G37*
G36*
X352695Y584000D02*
X351000D01*
Y582305D01*
X351378Y582381D01*
X352122Y582878D01*
X352620Y583622D01*
X352695Y584000D01*
D02*
G37*
G36*
X350000D02*
X348305D01*
X348380Y583622D01*
X348878Y582878D01*
X349622Y582381D01*
X350000Y582305D01*
Y584000D01*
D02*
G37*
G36*
X221531Y616275D02*
X220604Y616090D01*
X219817Y615565D01*
X219291Y614778D01*
X219107Y613850D01*
X219291Y612923D01*
X219817Y612136D01*
X220604Y611610D01*
X221531Y611426D01*
X222459Y611610D01*
X222787Y611830D01*
X223287Y611562D01*
Y606748D01*
X233161D01*
Y608087D01*
X236941D01*
Y607240D01*
X238477D01*
Y579022D01*
X238381Y578878D01*
X238206Y578000D01*
X238381Y577122D01*
X238878Y576378D01*
X239622Y575881D01*
X240500Y575706D01*
X241378Y575881D01*
X242122Y576378D01*
X242619Y577122D01*
X242794Y578000D01*
X242619Y578878D01*
X242523Y579022D01*
Y607240D01*
X244059D01*
Y612980D01*
X236941D01*
Y612133D01*
X233161D01*
Y613472D01*
X224266D01*
X223956Y613850D01*
X223771Y614778D01*
X223246Y615565D01*
X222459Y616090D01*
X221531Y616275D01*
D02*
G37*
G36*
X240469Y566319D02*
X238000D01*
Y563063D01*
X240469D01*
Y566319D01*
D02*
G37*
G36*
X237000D02*
X234531D01*
Y563063D01*
X237000D01*
Y566319D01*
D02*
G37*
G36*
X249520Y563268D02*
X246461D01*
Y560898D01*
X249520D01*
Y563268D01*
D02*
G37*
G36*
X245461D02*
X242402D01*
Y560898D01*
X245461D01*
Y563268D01*
D02*
G37*
G36*
X240469Y562063D02*
X238000D01*
Y558807D01*
X240469D01*
Y562063D01*
D02*
G37*
G36*
X272000Y563294D02*
X271122Y563119D01*
X270378Y562622D01*
X269881Y561878D01*
X269706Y561000D01*
X269881Y560122D01*
X270378Y559378D01*
X271122Y558881D01*
X272000Y558706D01*
X272014Y558709D01*
X272187Y558516D01*
X271963Y558016D01*
X271463D01*
X270994Y557922D01*
X270789Y557785D01*
X270583Y557922D01*
X270114Y558016D01*
X268904D01*
X268435Y557922D01*
X268230Y557785D01*
X268024Y557922D01*
X267555Y558016D01*
X266345D01*
X265876Y557922D01*
X265670Y557785D01*
X265465Y557922D01*
X264996Y558016D01*
X263786D01*
X263317Y557922D01*
X263111Y557785D01*
X262906Y557922D01*
X262437Y558016D01*
X262332D01*
Y553902D01*
Y549788D01*
X262437D01*
X262453Y549791D01*
X262953Y549380D01*
Y543624D01*
X262734Y543478D01*
X262237Y542734D01*
X262062Y541856D01*
X262237Y540978D01*
X262734Y540234D01*
X263478Y539737D01*
X264356Y539562D01*
X265234Y539737D01*
X265979Y540234D01*
X266476Y540978D01*
X266650Y541856D01*
X266582Y542202D01*
X267042Y542448D01*
X268079Y541411D01*
Y540257D01*
X267878Y540122D01*
X267380Y539378D01*
X267206Y538500D01*
X267380Y537622D01*
X267878Y536878D01*
X268622Y536381D01*
X269500Y536206D01*
X270378Y536381D01*
X271122Y536878D01*
X271620Y537622D01*
X271794Y538500D01*
X271620Y539378D01*
X271122Y540122D01*
X270921Y540257D01*
Y542000D01*
X270886Y542177D01*
X271089Y542362D01*
X271329Y542512D01*
X272144Y542350D01*
X273022Y542524D01*
X273766Y543021D01*
X274263Y543766D01*
X274438Y544644D01*
X274263Y545522D01*
X273766Y546266D01*
X273565Y546400D01*
Y549484D01*
X273951Y549802D01*
X274022Y549788D01*
X275233D01*
X275701Y549881D01*
X276099Y550146D01*
X276365Y550544D01*
X276458Y551013D01*
Y556790D01*
X276365Y557259D01*
X276099Y557657D01*
X276048Y557691D01*
Y558373D01*
X275940Y558917D01*
X275632Y559378D01*
X274247Y560763D01*
X274294Y561000D01*
X274119Y561878D01*
X273622Y562622D01*
X272878Y563119D01*
X272000Y563294D01*
D02*
G37*
G36*
X261332Y558016D02*
X261227D01*
X260758Y557922D01*
X260552Y557785D01*
X260347Y557922D01*
X259878Y558016D01*
X259773D01*
Y553902D01*
Y549788D01*
X259878D01*
X260347Y549881D01*
X260552Y550018D01*
X260758Y549881D01*
X261227Y549788D01*
X261332D01*
Y553902D01*
Y558016D01*
D02*
G37*
G36*
X258773D02*
X258667D01*
X258199Y557922D01*
X257993Y557785D01*
X257788Y557922D01*
X257319Y558016D01*
X257214D01*
Y553902D01*
X256714D01*
Y553402D01*
X254883D01*
Y551013D01*
X254977Y550544D01*
X255242Y550146D01*
X255293Y550112D01*
Y547470D01*
X255092Y547336D01*
X254594Y546592D01*
X254519Y546214D01*
X258908D01*
X258833Y546592D01*
X258336Y547336D01*
X258135Y547470D01*
Y549384D01*
X258635Y549794D01*
X258667Y549788D01*
X258773D01*
Y553902D01*
Y558016D01*
D02*
G37*
G36*
X249520Y559898D02*
X246461D01*
Y557527D01*
X249520D01*
Y559898D01*
D02*
G37*
G36*
X245461D02*
X242402D01*
Y557527D01*
X245461D01*
Y559898D01*
D02*
G37*
G36*
X226319Y556772D02*
X223260D01*
Y554402D01*
X226319D01*
Y556772D01*
D02*
G37*
G36*
X256214Y558016D02*
X256108D01*
X255640Y557922D01*
X255242Y557657D01*
X254977Y557259D01*
X254883Y556790D01*
Y554402D01*
X256214D01*
Y558016D01*
D02*
G37*
G36*
X222260Y556772D02*
X219201D01*
Y554402D01*
X222260D01*
Y556772D01*
D02*
G37*
G36*
X232988Y566319D02*
X227051D01*
Y565023D01*
X226051D01*
X225277Y564869D01*
X224621Y564431D01*
X223458Y563268D01*
X219201D01*
Y557527D01*
X226319D01*
Y560218D01*
X226551Y560395D01*
X227051Y560148D01*
Y558807D01*
X230771D01*
Y557051D01*
X230791Y556951D01*
Y550146D01*
X235269D01*
X235434Y549646D01*
X235003Y549000D01*
X234828Y548122D01*
X234876Y547885D01*
X219495Y532505D01*
X219187Y532044D01*
X219079Y531500D01*
Y384500D01*
X219187Y383956D01*
X219495Y383495D01*
X222319Y380671D01*
X222098Y380223D01*
X222019Y380233D01*
X221141Y380118D01*
X220323Y379779D01*
X219621Y379240D01*
X219082Y378537D01*
X218743Y377719D01*
X218627Y376842D01*
X218743Y375964D01*
X219082Y375146D01*
X219621Y374444D01*
X220323Y373905D01*
X221141Y373566D01*
X222019Y373451D01*
X222896Y373566D01*
X223714Y373905D01*
X224417Y374444D01*
X224956Y375146D01*
X225294Y375964D01*
X225410Y376842D01*
X225399Y376922D01*
X225848Y377143D01*
X235137Y367853D01*
X235598Y367545D01*
X236142Y367437D01*
X238358D01*
Y365858D01*
X244858D01*
Y371858D01*
X238358D01*
Y370279D01*
X236730D01*
X221921Y385089D01*
Y530911D01*
X227646Y536636D01*
X228108Y536445D01*
Y533694D01*
X232608D01*
Y537194D01*
X228856D01*
X228665Y537655D01*
X236885Y545876D01*
X237122Y545828D01*
X238000Y546003D01*
X238745Y546500D01*
X239242Y547245D01*
X239417Y548122D01*
X239242Y549000D01*
X238745Y549745D01*
X238000Y550242D01*
X237122Y550417D01*
X237115Y550415D01*
X236728Y550732D01*
Y551878D01*
X242402D01*
Y551031D01*
X249520D01*
Y556772D01*
X242402D01*
Y555925D01*
X236728D01*
Y556951D01*
X236748Y557051D01*
Y558807D01*
X237000D01*
Y562063D01*
X234531D01*
Y560433D01*
X232988D01*
Y566319D01*
D02*
G37*
G36*
X226319Y553402D02*
X223260D01*
Y551031D01*
X226319D01*
Y553402D01*
D02*
G37*
G36*
X222260D02*
X219201D01*
Y551031D01*
X222260D01*
Y553402D01*
D02*
G37*
G36*
X390244Y555912D02*
X373756D01*
Y548912D01*
X390244D01*
Y555912D01*
D02*
G37*
G36*
X258908Y545214D02*
X257214D01*
Y543519D01*
X257592Y543594D01*
X258336Y544092D01*
X258833Y544836D01*
X258908Y545214D01*
D02*
G37*
G36*
X256214D02*
X254519D01*
X254594Y544836D01*
X255092Y544092D01*
X255836Y543594D01*
X256214Y543519D01*
Y545214D01*
D02*
G37*
G36*
X390244Y545912D02*
X373756D01*
Y538912D01*
X390244D01*
Y545912D01*
D02*
G37*
G36*
X238108Y537194D02*
X233608D01*
Y533694D01*
X238108D01*
Y537194D01*
D02*
G37*
G36*
X274708Y533394D02*
X270208D01*
Y529894D01*
X274708D01*
Y533394D01*
D02*
G37*
G36*
X269208D02*
X264708D01*
Y529894D01*
X269208D01*
Y533394D01*
D02*
G37*
G36*
X238108Y532694D02*
X233608D01*
Y529194D01*
X238108D01*
Y532694D01*
D02*
G37*
G36*
X232608D02*
X228108D01*
Y529194D01*
X232608D01*
Y532694D01*
D02*
G37*
G36*
X390244Y535912D02*
X373756D01*
Y528912D01*
X390244D01*
Y535912D01*
D02*
G37*
G36*
X274708Y528894D02*
X270208D01*
Y525394D01*
X274708D01*
Y528894D01*
D02*
G37*
G36*
X269208D02*
X264708D01*
Y525394D01*
X269208D01*
Y528894D01*
D02*
G37*
G36*
X287323Y526799D02*
X284953D01*
Y523740D01*
X287323D01*
Y526799D01*
D02*
G37*
G36*
X283953D02*
X281583D01*
Y523740D01*
X283953D01*
Y526799D01*
D02*
G37*
G36*
X287323Y522740D02*
X284953D01*
Y519681D01*
X287323D01*
Y522740D01*
D02*
G37*
G36*
X283953D02*
X281583D01*
Y519681D01*
X283953D01*
Y522740D01*
D02*
G37*
G36*
X390244Y525912D02*
X373756D01*
Y518912D01*
X390244D01*
Y525912D01*
D02*
G37*
G36*
X230953Y518329D02*
X230024Y518207D01*
X229158Y517848D01*
X228415Y517278D01*
X227844Y516535D01*
X227485Y515669D01*
X227363Y514740D01*
X227485Y513810D01*
X227844Y512945D01*
X228415Y512201D01*
X229158Y511631D01*
X230024Y511272D01*
X230953Y511150D01*
X231882Y511272D01*
X232748Y511631D01*
X233491Y512201D01*
X234062Y512945D01*
X234420Y513810D01*
X234543Y514740D01*
X234420Y515669D01*
X234062Y516535D01*
X233491Y517278D01*
X232748Y517848D01*
X231882Y518207D01*
X230953Y518329D01*
D02*
G37*
G36*
X370756Y515912D02*
X354268D01*
Y513833D01*
X313912D01*
X313368Y513724D01*
X312907Y513416D01*
X306495Y507005D01*
X306187Y506544D01*
X306079Y506000D01*
Y477257D01*
X305878Y477122D01*
X305381Y476378D01*
X305206Y475500D01*
X305381Y474622D01*
X305878Y473878D01*
X306622Y473381D01*
X307500Y473206D01*
X308378Y473381D01*
X309122Y473878D01*
X309619Y474622D01*
X309794Y475500D01*
X309619Y476378D01*
X309122Y477122D01*
X308921Y477257D01*
Y505411D01*
X314500Y510991D01*
X354268D01*
Y508912D01*
X370756D01*
Y515912D01*
D02*
G37*
G36*
X293819Y526799D02*
X288079D01*
Y519681D01*
X288926D01*
Y512146D01*
X288079D01*
Y505027D01*
X288926D01*
Y503421D01*
X288079D01*
Y496920D01*
X287323D01*
Y503421D01*
X281583D01*
Y502932D01*
X281121Y502740D01*
X279762Y504099D01*
X279134Y504519D01*
X279118Y504640D01*
X279168Y505035D01*
X279805Y505162D01*
X280462Y505601D01*
X281083Y506222D01*
X281583Y506014D01*
Y505027D01*
X287323D01*
Y512146D01*
X281583D01*
Y510610D01*
X280587D01*
X279812Y510456D01*
X279208Y510052D01*
X278864Y510138D01*
X278708Y510203D01*
Y513894D01*
X269708D01*
Y508894D01*
Y504531D01*
Y500169D01*
Y495806D01*
Y491444D01*
Y490081D01*
X274208D01*
X278708D01*
Y490278D01*
X279170Y490469D01*
X280069Y489569D01*
X280726Y489131D01*
X281500Y488977D01*
X281583D01*
Y487577D01*
X287323D01*
Y494078D01*
X288079D01*
Y487577D01*
X288926D01*
Y485971D01*
X288079D01*
Y478853D01*
X293819D01*
Y485971D01*
X292972D01*
Y487577D01*
X293819D01*
Y494696D01*
X292972D01*
Y496303D01*
X293819D01*
Y503421D01*
X292972D01*
Y505027D01*
X293819D01*
Y512146D01*
X292972D01*
Y519681D01*
X293819D01*
Y526799D01*
D02*
G37*
G36*
X370756Y505912D02*
X354268D01*
Y498912D01*
X370756D01*
Y505912D01*
D02*
G37*
G36*
X343650Y502150D02*
X334563D01*
Y493063D01*
X343650D01*
Y502150D01*
D02*
G37*
G36*
X319437D02*
X310350D01*
Y493063D01*
X319437D01*
Y502150D01*
D02*
G37*
G36*
X370756Y495912D02*
X363012D01*
Y492912D01*
X370756D01*
Y495912D01*
D02*
G37*
G36*
X362012D02*
X354268D01*
Y492912D01*
X362012D01*
Y495912D01*
D02*
G37*
G36*
X370756Y491912D02*
X363012D01*
Y488912D01*
X370756D01*
Y491912D01*
D02*
G37*
G36*
X362012D02*
X354268D01*
Y488912D01*
X362012D01*
Y491912D01*
D02*
G37*
G36*
X230953Y486636D02*
X230024Y486514D01*
X229158Y486155D01*
X228415Y485585D01*
X227844Y484841D01*
X227485Y483976D01*
X227363Y483047D01*
X227485Y482118D01*
X227844Y481252D01*
X228415Y480508D01*
X229158Y479938D01*
X230024Y479579D01*
X230953Y479457D01*
X231882Y479579D01*
X232748Y479938D01*
X233491Y480508D01*
X234062Y481252D01*
X234420Y482118D01*
X234543Y483047D01*
X234420Y483976D01*
X234062Y484841D01*
X233491Y485585D01*
X232748Y486155D01*
X231882Y486514D01*
X230953Y486636D01*
D02*
G37*
G36*
X313000Y489794D02*
X312122Y489619D01*
X311378Y489122D01*
X310880Y488378D01*
X310706Y487500D01*
X310880Y486622D01*
X311378Y485878D01*
X312122Y485381D01*
X312292Y485347D01*
X316658Y480981D01*
X317314Y480543D01*
X318088Y480388D01*
X354268D01*
Y478912D01*
X370756D01*
Y485912D01*
X354268D01*
Y484435D01*
X318926D01*
X315153Y488208D01*
X315120Y488378D01*
X314622Y489122D01*
X313878Y489619D01*
X313000Y489794D01*
D02*
G37*
G36*
X278708Y489081D02*
X274208D01*
X269708D01*
Y487081D01*
Y482719D01*
Y478356D01*
Y474694D01*
X266708D01*
Y468694D01*
X274708D01*
Y473994D01*
X278708D01*
Y478356D01*
Y481278D01*
X279170Y481469D01*
X280069Y480569D01*
X280726Y480131D01*
X281500Y479977D01*
X281583D01*
Y478853D01*
X287323D01*
Y485971D01*
X281583D01*
Y485432D01*
X281121Y485240D01*
X279712Y486649D01*
X279056Y487088D01*
X278708Y487157D01*
Y489081D01*
D02*
G37*
G36*
X237808Y476594D02*
X233308D01*
Y473094D01*
X237808D01*
Y476594D01*
D02*
G37*
G36*
X232308D02*
X227808D01*
Y473094D01*
X232308D01*
Y476594D01*
D02*
G37*
G36*
X319437Y477937D02*
X310350D01*
Y471711D01*
X308162Y469523D01*
X304022D01*
X303878Y469619D01*
X303000Y469794D01*
X302122Y469619D01*
X301378Y469122D01*
X300881Y468378D01*
X300706Y467500D01*
X300881Y466622D01*
X301378Y465878D01*
X302122Y465381D01*
X303000Y465206D01*
X303878Y465381D01*
X304022Y465477D01*
X309000D01*
X309774Y465631D01*
X310431Y466069D01*
X313211Y468850D01*
X319437D01*
Y477937D01*
D02*
G37*
G36*
X343650D02*
X334563D01*
Y468850D01*
X336227D01*
Y456671D01*
X334402D01*
Y449951D01*
X336341D01*
Y446256D01*
X336069D01*
Y437366D01*
X336341D01*
Y433359D01*
X334396D01*
Y427619D01*
X338505D01*
X338558Y427597D01*
X339333Y427495D01*
X340108Y427597D01*
X340161Y427619D01*
X344270D01*
Y433359D01*
X342329D01*
Y437366D01*
X342597D01*
Y446256D01*
X342329D01*
Y449951D01*
X344272D01*
Y451977D01*
X385384D01*
X385434Y451477D01*
X384753Y451342D01*
X384097Y450903D01*
X379450Y446256D01*
X376043D01*
Y449170D01*
X366957D01*
Y439296D01*
X376043D01*
Y442210D01*
X380288D01*
X381062Y442364D01*
X381719Y442802D01*
X383106Y444190D01*
X383518Y443894D01*
X383518Y443510D01*
Y438433D01*
X388667D01*
Y443976D01*
X384010D01*
X383600Y443976D01*
X383304Y444388D01*
X386366Y447449D01*
X387258D01*
Y446701D01*
X392407D01*
Y447449D01*
X393190D01*
X396173Y444466D01*
X395955Y443976D01*
X395727Y443976D01*
X390998D01*
Y438433D01*
X391550D01*
Y437559D01*
X390703D01*
Y430559D01*
X390703Y430441D01*
Y430059D01*
X390703Y429941D01*
Y427000D01*
X393573D01*
Y426500D01*
D01*
Y427000D01*
X396443D01*
Y429941D01*
X396443Y430059D01*
Y430441D01*
X396443Y430559D01*
Y437559D01*
X395596D01*
Y438433D01*
X396148D01*
Y443522D01*
X396148Y443784D01*
X396637Y444002D01*
X401928Y438711D01*
X402585Y438272D01*
X403359Y438118D01*
X405547D01*
X405594Y438087D01*
X405997Y438007D01*
Y436370D01*
X405594Y436290D01*
X404872Y435808D01*
X404390Y435087D01*
X404221Y434236D01*
X404390Y433385D01*
X404872Y432663D01*
X405594Y432181D01*
X406445Y432012D01*
X408145D01*
X408595Y431889D01*
X408595Y431512D01*
Y429421D01*
X411169D01*
X413744D01*
Y431889D01*
X410909D01*
X410757Y432389D01*
X411167Y432663D01*
X411649Y433385D01*
X411818Y434236D01*
X411649Y435087D01*
X411167Y435808D01*
X410445Y436290D01*
X410043Y436370D01*
Y438007D01*
X410445Y438087D01*
X411167Y438569D01*
X411649Y439290D01*
X411818Y440141D01*
X411649Y440992D01*
X411167Y441714D01*
X410445Y442196D01*
X409594Y442365D01*
X406445D01*
X405594Y442196D01*
X405547Y442164D01*
X404197D01*
X395458Y450903D01*
X394802Y451342D01*
X394122Y451477D01*
X394171Y451977D01*
X397162D01*
X398617Y450522D01*
X399273Y450083D01*
X400048Y449929D01*
X405547D01*
X405594Y449898D01*
X406445Y449728D01*
X409594D01*
X410445Y449898D01*
X411167Y450380D01*
X411649Y451101D01*
X411818Y451952D01*
X411649Y452803D01*
X411167Y453525D01*
X410757Y453799D01*
X410909Y454299D01*
X413744D01*
Y456767D01*
X411169D01*
X408595D01*
X408595Y454299D01*
X408145Y454176D01*
X406445D01*
X405594Y454007D01*
X405547Y453975D01*
X400886D01*
X399431Y455431D01*
X398774Y455869D01*
X398000Y456023D01*
X344272D01*
Y456671D01*
X342216D01*
Y468850D01*
X343650D01*
Y469417D01*
X354268D01*
Y468912D01*
X370756D01*
Y475912D01*
X354268D01*
Y475406D01*
X343650D01*
Y477937D01*
D02*
G37*
G36*
X237808Y472094D02*
X233308D01*
Y468594D01*
X237808D01*
Y472094D01*
D02*
G37*
G36*
X232308D02*
X227808D01*
Y468594D01*
X232308D01*
Y472094D01*
D02*
G37*
G36*
X359000Y466794D02*
X358122Y466619D01*
X357378Y466122D01*
X356880Y465378D01*
X356706Y464500D01*
X356880Y463622D01*
X357378Y462878D01*
X358122Y462381D01*
X358198Y462365D01*
X358149Y461865D01*
X356462D01*
X356327Y462067D01*
X355583Y462564D01*
X354705Y462739D01*
X353827Y462564D01*
X353083Y462067D01*
X352586Y461322D01*
X352411Y460444D01*
X352586Y459566D01*
X353083Y458822D01*
X353827Y458325D01*
X354705Y458150D01*
X355583Y458325D01*
X356327Y458822D01*
X356462Y459023D01*
X391281D01*
X391378Y458878D01*
X392122Y458381D01*
X393000Y458206D01*
X393878Y458381D01*
X394622Y458878D01*
X395120Y459622D01*
X395294Y460500D01*
X395120Y461378D01*
X394622Y462122D01*
X394338Y462312D01*
X394241Y462978D01*
X394316Y463069D01*
X394801Y463056D01*
X395003Y462753D01*
X395747Y462256D01*
X396625Y462081D01*
X397503Y462256D01*
X398247Y462753D01*
X398745Y463497D01*
X398919Y464375D01*
X398745Y465253D01*
X398247Y465997D01*
X397503Y466494D01*
X396625Y466669D01*
X395747Y466494D01*
X395003Y465997D01*
X394952Y465921D01*
X360757D01*
X360622Y466122D01*
X359878Y466619D01*
X359000Y466794D01*
D02*
G37*
G36*
X268068Y462250D02*
X262068D01*
Y461023D01*
X260621D01*
Y461870D01*
X253503D01*
Y457660D01*
X253041Y457469D01*
X252167Y458343D01*
Y461870D01*
X238049D01*
Y456130D01*
X249947D01*
X250084Y456103D01*
X250268D01*
X250447Y455874D01*
X250209Y455374D01*
X242108D01*
Y452504D01*
Y449634D01*
X252167D01*
Y453671D01*
X252629Y453862D01*
X253503Y452987D01*
Y449634D01*
X260621D01*
Y455374D01*
X255201D01*
X254977Y455653D01*
X255188Y456130D01*
X260621D01*
Y456977D01*
X262068D01*
Y455750D01*
X268068D01*
Y462250D01*
D02*
G37*
G36*
X275068D02*
X272568D01*
Y459500D01*
X275068D01*
Y462250D01*
D02*
G37*
G36*
X271568D02*
X269068D01*
Y459500D01*
X271568D01*
Y462250D01*
D02*
G37*
G36*
X413744Y460236D02*
X411669D01*
Y457767D01*
X413744D01*
Y460236D01*
D02*
G37*
G36*
X410669D02*
X408595D01*
Y457767D01*
X410669D01*
Y460236D01*
D02*
G37*
G36*
X419331D02*
X417256D01*
Y457767D01*
X419331D01*
Y460236D01*
D02*
G37*
G36*
X275068Y458500D02*
X272568D01*
Y455750D01*
X275068D01*
Y458500D01*
D02*
G37*
G36*
X271568D02*
X269068D01*
Y455750D01*
X271568D01*
Y458500D01*
D02*
G37*
G36*
X419331Y456767D02*
X417256D01*
Y454299D01*
X419331D01*
Y456767D01*
D02*
G37*
G36*
X333250Y456671D02*
X328815D01*
Y453811D01*
X333250D01*
Y456671D01*
D02*
G37*
G36*
X327815D02*
X323380D01*
Y453811D01*
X327815D01*
Y456671D01*
D02*
G37*
G36*
X241108Y455374D02*
X238049D01*
Y453004D01*
X241108D01*
Y455374D01*
D02*
G37*
G36*
X333250Y452811D02*
X328815D01*
Y449951D01*
X333250D01*
Y452811D01*
D02*
G37*
G36*
X327815D02*
X323380D01*
Y449951D01*
X327815D01*
Y452811D01*
D02*
G37*
G36*
X241108Y452004D02*
X238049D01*
Y449634D01*
X241108D01*
Y452004D01*
D02*
G37*
G36*
X415500Y451796D02*
X414777Y451700D01*
X414102Y451421D01*
X413523Y450977D01*
X413079Y450398D01*
X412800Y449723D01*
X412704Y449000D01*
X412800Y448277D01*
X413079Y447602D01*
X413523Y447023D01*
X414102Y446579D01*
X414777Y446300D01*
X415500Y446204D01*
X416223Y446300D01*
X416898Y446579D01*
X417477Y447023D01*
X417921Y447602D01*
X418200Y448277D01*
X418296Y449000D01*
X418200Y449723D01*
X417921Y450398D01*
X417477Y450977D01*
X416898Y451421D01*
X416223Y451700D01*
X415500Y451796D01*
D02*
G37*
G36*
X332164Y446256D02*
X329400D01*
Y442311D01*
X332164D01*
Y446256D01*
D02*
G37*
G36*
X328400D02*
X325636D01*
Y442311D01*
X328400D01*
Y446256D01*
D02*
G37*
G36*
X332164Y441311D02*
X329400D01*
Y437366D01*
X332164D01*
Y441311D01*
D02*
G37*
G36*
X328400D02*
X325636D01*
Y437366D01*
X328400D01*
Y441311D01*
D02*
G37*
G36*
X285500Y441794D02*
X284622Y441619D01*
X284326Y441421D01*
X282067D01*
X281293Y441267D01*
X280636Y440829D01*
X279168Y439361D01*
X279159Y439359D01*
X275599D01*
Y432241D01*
Y425241D01*
X276461D01*
Y422999D01*
X276380Y422878D01*
X276206Y422000D01*
X276380Y421122D01*
X276878Y420378D01*
X277622Y419881D01*
X278500Y419706D01*
X279378Y419881D01*
X280122Y420378D01*
X280620Y421122D01*
X280794Y422000D01*
X280620Y422878D01*
X280507Y423046D01*
Y425241D01*
X281339D01*
Y432241D01*
Y435854D01*
X281474Y435944D01*
X282905Y437375D01*
X284649D01*
X285500Y437206D01*
X286378Y437381D01*
X287122Y437878D01*
X287619Y438622D01*
X287794Y439500D01*
X287619Y440378D01*
X287122Y441122D01*
X286378Y441619D01*
X285500Y441794D01*
D02*
G37*
G36*
X244158Y440350D02*
X240058D01*
Y436782D01*
X239988Y436678D01*
X239862Y436046D01*
X239353D01*
X239227Y436678D01*
X239158Y436782D01*
Y440350D01*
X235058D01*
Y436782D01*
X234988Y436678D01*
X234862Y436046D01*
X234353D01*
X234227Y436678D01*
X234158Y436782D01*
Y440350D01*
X230058D01*
Y436782D01*
X229988Y436678D01*
X229862Y436046D01*
X229353D01*
X229227Y436678D01*
X229158Y436782D01*
Y440350D01*
X225058D01*
Y436782D01*
X224988Y436678D01*
X224814Y435800D01*
X224988Y434922D01*
X225058Y434818D01*
Y431250D01*
X225687D01*
Y427392D01*
X225795Y426849D01*
X226103Y426388D01*
X239995Y412495D01*
X240456Y412187D01*
X241000Y412079D01*
X252743D01*
X252878Y411878D01*
X253622Y411381D01*
X254500Y411206D01*
X255378Y411381D01*
X256122Y411878D01*
X256620Y412622D01*
X256794Y413500D01*
X256620Y414378D01*
X256122Y415122D01*
X255378Y415619D01*
X254500Y415794D01*
X253622Y415619D01*
X252878Y415122D01*
X252743Y414921D01*
X241589D01*
X228529Y427981D01*
Y431250D01*
X229158D01*
Y434818D01*
X229227Y434922D01*
X229353Y435554D01*
X229862D01*
X229988Y434922D01*
X230058Y434818D01*
Y431250D01*
X230687D01*
Y428392D01*
X230795Y427849D01*
X231103Y427388D01*
X237759Y420731D01*
X237880Y420122D01*
X238378Y419378D01*
X239122Y418881D01*
X240000Y418706D01*
X240878Y418881D01*
X241622Y419378D01*
X242120Y420122D01*
X242294Y421000D01*
X242120Y421878D01*
X241622Y422622D01*
X241090Y422978D01*
X241230Y423397D01*
X241269Y423460D01*
X242128Y423631D01*
X242872Y424128D01*
X243370Y424872D01*
X243544Y425750D01*
X243370Y426628D01*
X242872Y427372D01*
X242128Y427869D01*
X241250Y428044D01*
X241013Y427997D01*
X238529Y430481D01*
Y431250D01*
X239158D01*
Y434818D01*
X239227Y434922D01*
X239353Y435554D01*
X239862D01*
X239988Y434922D01*
X240058Y434818D01*
Y431250D01*
X244158D01*
Y434818D01*
X244227Y434922D01*
X244402Y435800D01*
X244227Y436678D01*
X244158Y436782D01*
Y440350D01*
D02*
G37*
G36*
X415500Y439984D02*
X414777Y439888D01*
X414102Y439609D01*
X413523Y439165D01*
X413079Y438586D01*
X412800Y437912D01*
X412704Y437188D01*
X412800Y436465D01*
X413079Y435790D01*
X413523Y435211D01*
X414102Y434767D01*
X414777Y434488D01*
X415500Y434392D01*
X416223Y434488D01*
X416898Y434767D01*
X417477Y435211D01*
X417921Y435790D01*
X418200Y436465D01*
X418296Y437188D01*
X418200Y437912D01*
X417921Y438586D01*
X417477Y439165D01*
X416898Y439609D01*
X416223Y439888D01*
X415500Y439984D01*
D02*
G37*
G36*
X249158Y440350D02*
X245058D01*
Y431250D01*
X249158D01*
Y440350D01*
D02*
G37*
G36*
X270500Y442921D02*
X258215D01*
X257671Y442813D01*
X257210Y442505D01*
X256103Y441397D01*
X255795Y440936D01*
X255687Y440392D01*
Y440350D01*
X255058D01*
Y431250D01*
X259158D01*
Y440079D01*
X260058D01*
Y436782D01*
X259988Y436678D01*
X259813Y435800D01*
X259988Y434922D01*
X260058Y434818D01*
Y431250D01*
X264158D01*
Y434818D01*
X264227Y434922D01*
X264402Y435800D01*
X264227Y436678D01*
X264158Y436782D01*
Y440079D01*
X269698D01*
X269864Y439859D01*
X269616Y439359D01*
X269103D01*
Y432241D01*
Y430221D01*
X253789D01*
X253421Y430589D01*
Y431250D01*
X254158D01*
Y440350D01*
X250058D01*
Y431250D01*
X250579D01*
Y430000D01*
X250687Y429456D01*
X250995Y428995D01*
X252195Y427795D01*
X252656Y427487D01*
X253200Y427379D01*
X269103D01*
Y425241D01*
X274843D01*
Y432241D01*
Y439359D01*
X273394D01*
Y440027D01*
X273285Y440571D01*
X272977Y441032D01*
X271505Y442505D01*
X271044Y442813D01*
X270500Y442921D01*
D02*
G37*
G36*
X419331Y431889D02*
X417256D01*
Y429421D01*
X419331D01*
Y431889D01*
D02*
G37*
G36*
X389947Y437559D02*
X384207D01*
Y430441D01*
X384207D01*
Y430059D01*
X384207D01*
Y428523D01*
X382338D01*
X380631Y430231D01*
X379974Y430669D01*
X379200Y430823D01*
X376043D01*
Y433737D01*
X366957D01*
Y423863D01*
X376043D01*
Y426777D01*
X378362D01*
X380069Y425069D01*
X380726Y424631D01*
X381500Y424477D01*
X384207D01*
Y422941D01*
X389947D01*
Y430059D01*
X389947D01*
Y430441D01*
X389947D01*
Y437559D01*
D02*
G37*
G36*
X419331Y428421D02*
X417256D01*
Y425952D01*
X419331D01*
Y428421D01*
D02*
G37*
G36*
X413744D02*
X411669D01*
Y425952D01*
X413744D01*
Y428421D01*
D02*
G37*
G36*
X410669D02*
X408595D01*
Y425952D01*
X410669D01*
Y428421D01*
D02*
G37*
G36*
X396443Y426000D02*
X394073D01*
Y422941D01*
X396443D01*
Y426000D01*
D02*
G37*
G36*
X393073D02*
X390703D01*
Y422941D01*
X393073D01*
Y426000D01*
D02*
G37*
G36*
X328325Y433910D02*
X315030D01*
Y421993D01*
X328325D01*
Y433910D01*
D02*
G37*
G36*
X314030D02*
X300735D01*
Y421993D01*
X314030D01*
Y433910D01*
D02*
G37*
G36*
X281339Y417059D02*
X278969D01*
Y414000D01*
X281339D01*
Y417059D01*
D02*
G37*
G36*
X277969D02*
X275599D01*
Y414000D01*
X277969D01*
Y417059D01*
D02*
G37*
G36*
X378311Y416035D02*
X352689D01*
Y412023D01*
X349522D01*
X349378Y412119D01*
X348500Y412294D01*
X347622Y412119D01*
X346878Y411622D01*
X346380Y410878D01*
X346206Y410000D01*
X346380Y409122D01*
X346878Y408378D01*
X347622Y407880D01*
X348500Y407706D01*
X349378Y407880D01*
X349522Y407977D01*
X352689D01*
Y404587D01*
X378311D01*
Y416035D01*
D02*
G37*
G36*
X328325Y420993D02*
X315030D01*
Y409076D01*
X328325D01*
Y420993D01*
D02*
G37*
G36*
X314030D02*
X300735D01*
Y409076D01*
X314030D01*
Y420993D01*
D02*
G37*
G36*
X281339Y413000D02*
X278469D01*
X275599D01*
Y410059D01*
X275599Y409941D01*
Y409559D01*
X275599Y409441D01*
Y406500D01*
X278469D01*
X281339D01*
Y409441D01*
X281339Y409559D01*
Y409941D01*
X281339Y410059D01*
Y413000D01*
D02*
G37*
G36*
X389211Y409201D02*
X386841D01*
Y406142D01*
X389211D01*
Y409201D01*
D02*
G37*
G36*
X385841D02*
X383471D01*
Y406142D01*
X385841D01*
Y409201D01*
D02*
G37*
G36*
X413791Y409004D02*
X409354D01*
Y406142D01*
X413791D01*
Y409004D01*
D02*
G37*
G36*
X408354D02*
X403917D01*
Y406142D01*
X408354D01*
Y409004D01*
D02*
G37*
G36*
X281339Y405500D02*
X278969D01*
Y402441D01*
X281339D01*
Y405500D01*
D02*
G37*
G36*
X277969D02*
X275599D01*
Y402441D01*
X277969D01*
Y405500D01*
D02*
G37*
G36*
X274843Y417059D02*
X269103D01*
Y414921D01*
X262000D01*
X261456Y414813D01*
X260995Y414505D01*
X251103Y404612D01*
X250795Y404151D01*
X250687Y403608D01*
Y402750D01*
X250058D01*
Y393650D01*
X254158D01*
Y402750D01*
X253967D01*
X253760Y403250D01*
X262589Y412079D01*
X269103D01*
Y410059D01*
X269103Y409941D01*
Y409559D01*
X269103Y409441D01*
Y407421D01*
X259500D01*
X258956Y407313D01*
X258495Y407005D01*
X256103Y404612D01*
X255795Y404151D01*
X255687Y403608D01*
Y402750D01*
X255058D01*
Y393650D01*
X259158D01*
Y402750D01*
X258967D01*
X258760Y403250D01*
X260089Y404579D01*
X269103D01*
Y402441D01*
X274843D01*
Y409441D01*
X274843Y409559D01*
Y409941D01*
X274843Y410059D01*
Y417059D01*
D02*
G37*
G36*
X408354Y405142D02*
X403917D01*
Y402280D01*
X408354D01*
Y405142D01*
D02*
G37*
G36*
X332164Y405571D02*
X329400D01*
Y401626D01*
X332164D01*
Y405571D01*
D02*
G37*
G36*
X328400D02*
X325636D01*
Y401626D01*
X328400D01*
Y405571D01*
D02*
G37*
G36*
X413791Y405142D02*
X409354D01*
Y402280D01*
X412813D01*
X413123Y401902D01*
X413307Y400974D01*
X413833Y400187D01*
X414619Y399662D01*
X415547Y399477D01*
X416475Y399662D01*
X417262Y400187D01*
X417787Y400974D01*
X417972Y401902D01*
X417787Y402829D01*
X417262Y403616D01*
X416475Y404142D01*
X415547Y404326D01*
X414619Y404142D01*
X414291Y403922D01*
X413791Y404190D01*
Y405142D01*
D02*
G37*
G36*
X229158Y402750D02*
X227608D01*
Y398700D01*
X229158D01*
Y402750D01*
D02*
G37*
G36*
X281339Y401759D02*
X278969D01*
Y398700D01*
X281339D01*
Y401759D01*
D02*
G37*
G36*
X277969D02*
X275599D01*
Y398700D01*
X277969D01*
Y401759D01*
D02*
G37*
G36*
X226608Y402750D02*
X225058D01*
Y398700D01*
X226608D01*
Y402750D01*
D02*
G37*
G36*
X332164Y400626D02*
X329400D01*
Y396681D01*
X332164D01*
Y400626D01*
D02*
G37*
G36*
X328400D02*
X325636D01*
Y396681D01*
X328400D01*
Y400626D01*
D02*
G37*
G36*
X281339Y397700D02*
X278969D01*
Y394641D01*
X281339D01*
Y397700D01*
D02*
G37*
G36*
X277969D02*
X275599D01*
Y394641D01*
X277969D01*
Y397700D01*
D02*
G37*
G36*
X264158Y402750D02*
X260058D01*
Y393650D01*
X264158D01*
Y396779D01*
X269103D01*
Y394641D01*
X274843D01*
Y401759D01*
X269103D01*
Y399621D01*
X264158D01*
Y402750D01*
D02*
G37*
G36*
X249158D02*
X245058D01*
Y393650D01*
X249158D01*
Y402750D01*
D02*
G37*
G36*
X244158D02*
X240058D01*
Y393650D01*
X244158D01*
Y402750D01*
D02*
G37*
G36*
X239158D02*
X235058D01*
Y393650D01*
X239158D01*
Y402750D01*
D02*
G37*
G36*
X234158D02*
X230058D01*
Y399182D01*
X229988Y399078D01*
X229814Y398200D01*
X229988Y397322D01*
X230058Y397218D01*
Y393650D01*
X234158D01*
Y397218D01*
X234227Y397322D01*
X234402Y398200D01*
X234227Y399078D01*
X234158Y399182D01*
Y402750D01*
D02*
G37*
G36*
X229158Y397700D02*
X227608D01*
Y393650D01*
X229158D01*
Y397700D01*
D02*
G37*
G36*
X226608D02*
X225058D01*
Y393650D01*
X226608D01*
Y397700D01*
D02*
G37*
G36*
X395707Y409201D02*
X389967D01*
Y402083D01*
X389967D01*
X389963Y401769D01*
X389963D01*
Y394701D01*
X389963Y394652D01*
X389963Y394201D01*
X389963Y394151D01*
Y391142D01*
X392833D01*
X395703D01*
Y394151D01*
X395703Y394201D01*
X395703Y394652D01*
X395703Y394701D01*
Y401769D01*
X395703D01*
X395707Y402083D01*
X395707D01*
X395707Y402268D01*
Y409201D01*
D02*
G37*
G36*
X415579Y395177D02*
X414651Y394992D01*
X413864Y394466D01*
X413339Y393680D01*
X413154Y392752D01*
X412922Y392469D01*
X403917D01*
Y392100D01*
X402106D01*
X401331Y391998D01*
X400609Y391699D01*
X399989Y391224D01*
X396203Y387437D01*
X395703Y387644D01*
Y390142D01*
X393333D01*
Y387083D01*
X395141D01*
X395348Y386583D01*
X377463Y368698D01*
X366624D01*
Y369263D01*
X360884D01*
Y366532D01*
X360862Y366478D01*
X360760Y365704D01*
X360862Y364929D01*
X360884Y364875D01*
Y362407D01*
X360884Y362144D01*
X360884Y361644D01*
Y358848D01*
X363754D01*
X366624D01*
Y361644D01*
X366624Y361907D01*
X366624Y362356D01*
X366978Y362709D01*
X378703D01*
X379478Y362811D01*
X380201Y363110D01*
X380821Y363586D01*
X403346Y386112D01*
X403917D01*
Y385744D01*
X413791D01*
Y390485D01*
X414291Y390752D01*
X414651Y390512D01*
X415579Y390327D01*
X416507Y390512D01*
X417293Y391038D01*
X417819Y391824D01*
X418003Y392752D01*
X417819Y393680D01*
X417293Y394466D01*
X416507Y394992D01*
X415579Y395177D01*
D02*
G37*
G36*
X333246Y392986D02*
X328811D01*
Y390126D01*
X333246D01*
Y392986D01*
D02*
G37*
G36*
X327811D02*
X323376D01*
Y390126D01*
X327811D01*
Y392986D01*
D02*
G37*
G36*
X389211Y405142D02*
X386341D01*
X383471D01*
Y402268D01*
X383467Y401770D01*
X383467Y401584D01*
Y394652D01*
X383467D01*
X383467Y394201D01*
X383467D01*
Y392665D01*
X382642D01*
X381868Y392511D01*
X381211Y392072D01*
X379162Y390023D01*
X378311D01*
Y392413D01*
X352689D01*
Y380965D01*
X378311D01*
Y385977D01*
X380000D01*
X380774Y386131D01*
X381431Y386569D01*
X383005Y388143D01*
X383467Y387952D01*
Y387083D01*
X389207D01*
Y394201D01*
X389207D01*
X389207Y394652D01*
X389207D01*
Y401585D01*
X389211Y402083D01*
X389211Y402268D01*
Y405142D01*
D02*
G37*
G36*
X392333Y390142D02*
X389963D01*
Y387083D01*
X392333D01*
Y390142D01*
D02*
G37*
G36*
X333246Y389126D02*
X328811D01*
Y386266D01*
X333246D01*
Y389126D01*
D02*
G37*
G36*
X327811D02*
X323376D01*
Y386266D01*
X327811D01*
Y389126D01*
D02*
G37*
G36*
X259482Y375917D02*
X253742D01*
Y374381D01*
X252858D01*
Y375358D01*
X246358D01*
Y369358D01*
X252858D01*
Y370335D01*
X253742D01*
Y367381D01*
X252858D01*
Y368358D01*
X246358D01*
Y362358D01*
X252858D01*
Y363335D01*
X253742D01*
Y361799D01*
X259482D01*
Y368799D01*
Y375917D01*
D02*
G37*
G36*
X290000Y448794D02*
X289122Y448619D01*
X288378Y448122D01*
X287880Y447378D01*
X287706Y446500D01*
X287880Y445622D01*
X288378Y444878D01*
X288579Y444743D01*
Y375589D01*
X283270Y370279D01*
X281858D01*
Y371858D01*
X275358D01*
Y365858D01*
X281858D01*
Y367437D01*
X283858D01*
X284402Y367545D01*
X284863Y367853D01*
X291005Y373995D01*
X291313Y374456D01*
X291421Y375000D01*
Y444743D01*
X291622Y444878D01*
X292120Y445622D01*
X292294Y446500D01*
X292120Y447378D01*
X291622Y448122D01*
X290878Y448619D01*
X290000Y448794D01*
D02*
G37*
G36*
X265978Y375917D02*
X260238D01*
Y368799D01*
Y361799D01*
X265978D01*
Y363335D01*
X267358D01*
Y362358D01*
X273858D01*
Y368358D01*
X267358D01*
Y367381D01*
X265978D01*
Y370335D01*
X267358D01*
Y369358D01*
X273858D01*
Y375358D01*
X267358D01*
Y374381D01*
X265978D01*
Y375917D01*
D02*
G37*
G36*
X360128Y369263D02*
X354388D01*
Y367727D01*
X352703D01*
X351929Y367573D01*
X351273Y367134D01*
X348700Y364561D01*
X347902Y364720D01*
X342390D01*
X341539Y364551D01*
X340817Y364069D01*
X340335Y363347D01*
X340166Y362496D01*
X340335Y361645D01*
X340817Y360924D01*
X341539Y360441D01*
X342390Y360272D01*
X344431D01*
X344619Y359772D01*
X344560Y359720D01*
X342390D01*
X341539Y359551D01*
X340817Y359069D01*
X340335Y358347D01*
X340166Y357496D01*
X340335Y356645D01*
X340817Y355924D01*
X341539Y355441D01*
X342390Y355272D01*
X344268D01*
X344465Y354772D01*
X344408Y354720D01*
X342390D01*
X341539Y354551D01*
X340817Y354069D01*
X340335Y353347D01*
X340166Y352496D01*
X340335Y351645D01*
X340817Y350924D01*
X341539Y350442D01*
X342390Y350272D01*
X344560D01*
X344619Y350220D01*
X344431Y349720D01*
X342390D01*
X341539Y349551D01*
X340817Y349069D01*
X340335Y348347D01*
X340166Y347496D01*
X340335Y346645D01*
X340817Y345924D01*
X341539Y345442D01*
X342390Y345272D01*
X347902D01*
X348753Y345442D01*
X348800Y345473D01*
X349166D01*
X352569Y342069D01*
X353226Y341631D01*
X354000Y341477D01*
X354388D01*
Y340077D01*
X360128D01*
Y347196D01*
X360128D01*
Y347433D01*
X360128D01*
Y354551D01*
X360128D01*
Y354789D01*
X360128D01*
Y361644D01*
X360128Y361907D01*
X360128Y362407D01*
Y369263D01*
D02*
G37*
G36*
X339059Y361902D02*
X334622D01*
Y355496D01*
X339059D01*
Y361902D01*
D02*
G37*
G36*
X333622D02*
X329185D01*
Y355496D01*
X333622D01*
Y361902D01*
D02*
G37*
G36*
X366624Y357848D02*
X363754D01*
X360884D01*
Y355051D01*
X360884Y354789D01*
X360884Y354289D01*
Y351492D01*
X363754D01*
X366624D01*
Y354289D01*
X366624Y354551D01*
X366624Y355051D01*
Y357848D01*
D02*
G37*
G36*
X339059Y354496D02*
X334622D01*
Y348091D01*
X339059D01*
Y354496D01*
D02*
G37*
G36*
X333622D02*
X329185D01*
Y348091D01*
X333622D01*
Y354496D01*
D02*
G37*
G36*
X239155Y347902D02*
X236096D01*
Y345532D01*
X239155D01*
Y347902D01*
D02*
G37*
G36*
X235096D02*
X232037D01*
Y345532D01*
X235096D01*
Y347902D01*
D02*
G37*
G36*
X229655Y347902D02*
X226596D01*
Y345532D01*
X229655D01*
Y347902D01*
D02*
G37*
G36*
X225596D02*
X222537D01*
Y345532D01*
X225596D01*
Y347902D01*
D02*
G37*
G36*
X395829Y348875D02*
X392376D01*
Y345422D01*
X395829D01*
Y348875D01*
D02*
G37*
G36*
X391376D02*
X387923D01*
Y345422D01*
X391376D01*
Y348875D01*
D02*
G37*
G36*
X366624Y350492D02*
X363754D01*
X360884D01*
Y347696D01*
X360884Y347433D01*
X360884Y346933D01*
Y344137D01*
X363754D01*
X366624D01*
Y346933D01*
X366624Y347196D01*
X366624Y347696D01*
Y350492D01*
D02*
G37*
G36*
X229655Y344532D02*
X226596D01*
Y342162D01*
X229655D01*
Y344532D01*
D02*
G37*
G36*
X225596D02*
X222537D01*
Y342162D01*
X225596D01*
Y344532D01*
D02*
G37*
G36*
X239155Y344532D02*
X236096D01*
Y342161D01*
X239155D01*
Y344532D01*
D02*
G37*
G36*
X235096D02*
X232037D01*
Y342161D01*
X235096D01*
Y344532D01*
D02*
G37*
G36*
X395829Y344422D02*
X392376D01*
Y340969D01*
X395829D01*
Y344422D01*
D02*
G37*
G36*
X391376D02*
X387923D01*
Y340969D01*
X391376D01*
Y344422D01*
D02*
G37*
G36*
X366624Y343137D02*
X364254D01*
Y340077D01*
X366624D01*
Y343137D01*
D02*
G37*
G36*
X363254D02*
X360884D01*
Y340077D01*
X363254D01*
Y343137D01*
D02*
G37*
G36*
X345553Y336866D02*
X342494D01*
Y334496D01*
X345553D01*
Y336866D01*
D02*
G37*
G36*
X341494D02*
X338435D01*
Y334496D01*
X341494D01*
Y336866D01*
D02*
G37*
G36*
X345553Y333496D02*
X342494D01*
Y331126D01*
X345553D01*
Y333496D01*
D02*
G37*
G36*
X341494D02*
X338435D01*
Y331126D01*
X341494D01*
Y333496D01*
D02*
G37*
G36*
X372500Y354794D02*
X371622Y354620D01*
X370878Y354122D01*
X370380Y353378D01*
X370206Y352500D01*
X370380Y351622D01*
X370477Y351478D01*
Y346000D01*
X370631Y345226D01*
X371069Y344569D01*
X381569Y334069D01*
X382226Y333631D01*
X383000Y333477D01*
X388261D01*
X388423Y333085D01*
X389057Y332260D01*
X389882Y331626D01*
X390844Y331228D01*
X391876Y331092D01*
X392908Y331228D01*
X393869Y331626D01*
X394695Y332260D01*
X395329Y333085D01*
X395727Y334047D01*
X395863Y335079D01*
X395727Y336111D01*
X395329Y337072D01*
X394695Y337898D01*
X393869Y338532D01*
X392908Y338930D01*
X391876Y339066D01*
X390844Y338930D01*
X389882Y338532D01*
X389057Y337898D01*
X388769Y337523D01*
X383838D01*
X374523Y346838D01*
Y351478D01*
X374620Y351622D01*
X374794Y352500D01*
X374620Y353378D01*
X374122Y354122D01*
X373378Y354620D01*
X372500Y354794D01*
D02*
G37*
G36*
X337681Y330370D02*
X334622D01*
Y328000D01*
X337681D01*
Y330370D01*
D02*
G37*
G36*
Y327000D02*
X334622D01*
Y324630D01*
X337681D01*
Y327000D01*
D02*
G37*
G36*
X239155Y326319D02*
X236096D01*
Y323949D01*
X239155D01*
Y326319D01*
D02*
G37*
G36*
X235096D02*
X232037D01*
Y323949D01*
X235096D01*
Y326319D01*
D02*
G37*
G36*
X229655D02*
X226596D01*
Y323949D01*
X229655D01*
Y326319D01*
D02*
G37*
G36*
X225596D02*
X222537D01*
Y323949D01*
X225596D01*
Y326319D01*
D02*
G37*
G36*
X345553Y330370D02*
X338435D01*
Y324630D01*
X339116D01*
X339307Y324168D01*
X338162Y323023D01*
X330338D01*
X329231Y324130D01*
X329438Y324630D01*
X333622D01*
Y327500D01*
Y330370D01*
X323563D01*
Y324630D01*
X324977D01*
Y323500D01*
X325131Y322726D01*
X325569Y322069D01*
X328069Y319569D01*
X328726Y319131D01*
X329500Y318977D01*
X339000D01*
X339774Y319131D01*
X340431Y319569D01*
X343431Y322569D01*
X343869Y323226D01*
X344023Y324000D01*
Y324630D01*
X345553D01*
Y330370D01*
D02*
G37*
G36*
X239155Y322949D02*
X236096D01*
Y320579D01*
X239155D01*
Y322949D01*
D02*
G37*
G36*
X235096D02*
X232037D01*
Y320579D01*
X235096D01*
Y322949D01*
D02*
G37*
G36*
X229655D02*
X226596D01*
Y320579D01*
X229655D01*
Y322949D01*
D02*
G37*
G36*
X225596D02*
X222537D01*
Y320579D01*
X225596D01*
Y322949D01*
D02*
G37*
G36*
X380837Y309313D02*
Y304917D01*
X383132D01*
Y306583D01*
X383037Y307306D01*
X382758Y307980D01*
X382313Y308559D01*
X381734Y309004D01*
X381060Y309283D01*
X380837Y309313D01*
D02*
G37*
G36*
X294719D02*
Y304917D01*
X297014D01*
Y306583D01*
X296919Y307306D01*
X296640Y307980D01*
X296195Y308559D01*
X295616Y309004D01*
X294942Y309283D01*
X294719Y309313D01*
D02*
G37*
G36*
X259663D02*
X259440Y309283D01*
X258766Y309004D01*
X258187Y308559D01*
X257742Y307980D01*
X257463Y307306D01*
X257368Y306583D01*
Y304917D01*
X259663D01*
Y309313D01*
D02*
G37*
G36*
X345782D02*
X345558Y309283D01*
X344884Y309004D01*
X344305Y308559D01*
X343861Y307980D01*
X343581Y307306D01*
X343486Y306583D01*
Y304917D01*
X345782D01*
Y309313D01*
D02*
G37*
G36*
X383132Y303917D02*
X380837D01*
Y299522D01*
X381060Y299552D01*
X381734Y299831D01*
X382313Y300275D01*
X382758Y300854D01*
X383037Y301529D01*
X383132Y302252D01*
Y303917D01*
D02*
G37*
G36*
X297014D02*
X294719D01*
Y299522D01*
X294942Y299552D01*
X295616Y299831D01*
X296195Y300275D01*
X296640Y300854D01*
X296919Y301529D01*
X297014Y302252D01*
Y303917D01*
D02*
G37*
G36*
X345782D02*
X343486D01*
Y302252D01*
X343581Y301529D01*
X343861Y300854D01*
X344305Y300275D01*
X344884Y299831D01*
X345558Y299552D01*
X345782Y299522D01*
Y303917D01*
D02*
G37*
G36*
X259663D02*
X257368D01*
Y302252D01*
X257463Y301529D01*
X257742Y300854D01*
X258187Y300275D01*
X258766Y299831D01*
X259440Y299552D01*
X259663Y299522D01*
Y303917D01*
D02*
G37*
G36*
X305765Y290870D02*
X302706D01*
Y288500D01*
X305765D01*
Y290870D01*
D02*
G37*
G36*
X391868D02*
X388809D01*
Y288500D01*
X391868D01*
Y290870D01*
D02*
G37*
G36*
X341868D02*
X338809D01*
Y288500D01*
X341868D01*
Y290870D01*
D02*
G37*
G36*
X255371D02*
X252312D01*
Y288500D01*
X255371D01*
Y290870D01*
D02*
G37*
G36*
X380837Y292304D02*
Y288500D01*
X383132D01*
Y289575D01*
X383037Y290298D01*
X382758Y290973D01*
X382313Y291552D01*
X381734Y291996D01*
X381060Y292275D01*
X380837Y292304D01*
D02*
G37*
G36*
X346782D02*
Y288500D01*
X349077D01*
Y289575D01*
X348982Y290298D01*
X348703Y290973D01*
X348258Y291552D01*
X347679Y291996D01*
X347005Y292275D01*
X346782Y292304D01*
D02*
G37*
G36*
X294719D02*
Y288500D01*
X297014D01*
Y289575D01*
X296919Y290298D01*
X296640Y290973D01*
X296195Y291552D01*
X295616Y291996D01*
X294942Y292275D01*
X294719Y292304D01*
D02*
G37*
G36*
X260663D02*
Y288500D01*
X262959D01*
Y289575D01*
X262864Y290298D01*
X262584Y290973D01*
X262140Y291552D01*
X261561Y291996D01*
X260887Y292275D01*
X260663Y292304D01*
D02*
G37*
G36*
X379837D02*
X379613Y292275D01*
X378939Y291996D01*
X378360Y291552D01*
X377916Y290973D01*
X377636Y290298D01*
X377541Y289575D01*
Y288500D01*
X379837D01*
Y292304D01*
D02*
G37*
G36*
X345782D02*
X345558Y292275D01*
X344884Y291996D01*
X344305Y291552D01*
X343861Y290973D01*
X343581Y290298D01*
X343486Y289575D01*
Y288500D01*
X345782D01*
Y292304D01*
D02*
G37*
G36*
X293719D02*
X293495Y292275D01*
X292821Y291996D01*
X292242Y291552D01*
X291798Y290973D01*
X291518Y290298D01*
X291423Y289575D01*
Y288500D01*
X293719D01*
Y292304D01*
D02*
G37*
G36*
X259663D02*
X259440Y292275D01*
X258766Y291996D01*
X258187Y291552D01*
X257742Y290973D01*
X257463Y290298D01*
X257368Y289575D01*
Y288500D01*
X259663D01*
Y292304D01*
D02*
G37*
G36*
X301706Y290870D02*
X298646D01*
Y288500D01*
X301706D01*
Y290870D01*
D02*
G37*
G36*
X337809D02*
X334750D01*
Y288500D01*
X337809D01*
Y290870D01*
D02*
G37*
G36*
X387809D02*
X384750D01*
Y288500D01*
X387809D01*
Y290870D01*
D02*
G37*
G36*
X251312D02*
X248253D01*
Y288500D01*
X251312D01*
Y290870D01*
D02*
G37*
G36*
X391868Y287500D02*
X388809D01*
Y285130D01*
X391868D01*
Y287500D01*
D02*
G37*
G36*
X387809D02*
X384750D01*
Y285130D01*
X387809D01*
Y287500D01*
D02*
G37*
G36*
X341868D02*
X338809D01*
Y285130D01*
X341868D01*
Y287500D01*
D02*
G37*
G36*
X337809D02*
X334750D01*
Y285130D01*
X337809D01*
Y287500D01*
D02*
G37*
G36*
X305765D02*
X302706D01*
Y285130D01*
X305765D01*
Y287500D01*
D02*
G37*
G36*
X301706D02*
X298646D01*
Y285130D01*
X301706D01*
Y287500D01*
D02*
G37*
G36*
X255371D02*
X252312D01*
Y285130D01*
X255371D01*
Y287500D01*
D02*
G37*
G36*
X251312D02*
X248253D01*
Y285130D01*
X251312D01*
Y287500D01*
D02*
G37*
G36*
X383132D02*
X380837D01*
Y283696D01*
X381060Y283725D01*
X381734Y284004D01*
X382313Y284448D01*
X382758Y285027D01*
X383037Y285702D01*
X383132Y286425D01*
Y287500D01*
D02*
G37*
G36*
X349077D02*
X346782D01*
Y283696D01*
X347005Y283725D01*
X347679Y284004D01*
X348258Y284448D01*
X348703Y285027D01*
X348982Y285702D01*
X349077Y286425D01*
Y287500D01*
D02*
G37*
G36*
X297014D02*
X294719D01*
Y283696D01*
X294942Y283725D01*
X295616Y284004D01*
X296195Y284448D01*
X296640Y285027D01*
X296919Y285702D01*
X297014Y286425D01*
Y287500D01*
D02*
G37*
G36*
X262959D02*
X260663D01*
Y283696D01*
X260887Y283725D01*
X261561Y284004D01*
X262140Y284448D01*
X262584Y285027D01*
X262864Y285702D01*
X262959Y286425D01*
Y287500D01*
D02*
G37*
G36*
X379837D02*
X377541D01*
Y286425D01*
X377636Y285702D01*
X377916Y285027D01*
X378360Y284448D01*
X378939Y284004D01*
X379613Y283725D01*
X379837Y283696D01*
Y287500D01*
D02*
G37*
G36*
X293719D02*
X291423D01*
Y286425D01*
X291518Y285702D01*
X291798Y285027D01*
X292242Y284448D01*
X292821Y284004D01*
X293495Y283725D01*
X293719Y283696D01*
Y287500D01*
D02*
G37*
G36*
X259663D02*
X257368D01*
Y286425D01*
X257463Y285702D01*
X257742Y285027D01*
X258187Y284448D01*
X258766Y284004D01*
X259440Y283725D01*
X259663Y283696D01*
Y287500D01*
D02*
G37*
G36*
X345782D02*
X343486D01*
Y286425D01*
X343581Y285702D01*
X343861Y285027D01*
X344305Y284448D01*
X344884Y284004D01*
X345558Y283725D01*
X345782Y283696D01*
Y287500D01*
D02*
G37*
G36*
X225734Y295760D02*
X224570D01*
X224472Y295740D01*
X224372D01*
X223231Y295513D01*
X223138Y295475D01*
X223039Y295455D01*
X221965Y295010D01*
X221881Y294954D01*
X221788Y294916D01*
X220821Y294269D01*
X220750Y294198D01*
X220667Y294143D01*
X219844Y293320D01*
X219788Y293236D01*
X219717Y293165D01*
X219071Y292198D01*
X219033Y292106D01*
X218977Y292022D01*
X218532Y290947D01*
X218512Y290849D01*
X218474Y290756D01*
X218247Y289615D01*
Y289515D01*
X218227Y289416D01*
Y288253D01*
X218247Y288154D01*
Y288054D01*
X218474Y286913D01*
X218512Y286820D01*
X218532Y286722D01*
X218977Y285647D01*
X219033Y285563D01*
X219071Y285471D01*
X219717Y284504D01*
X219788Y284433D01*
X219844Y284349D01*
X220667Y283526D01*
X220750Y283471D01*
X220821Y283400D01*
X221788Y282753D01*
X221881Y282715D01*
X221965Y282659D01*
X223039Y282214D01*
X223138Y282194D01*
X223231Y282156D01*
X224372Y281929D01*
X224472D01*
X224570Y281909D01*
X225734D01*
X225832Y281929D01*
X225933D01*
X227074Y282156D01*
X227166Y282194D01*
X227265Y282214D01*
X228340Y282659D01*
X228423Y282715D01*
X228516Y282753D01*
X229483Y283400D01*
X229554Y283471D01*
X229638Y283526D01*
X230460Y284349D01*
X230516Y284433D01*
X230587Y284504D01*
X231233Y285471D01*
X231272Y285563D01*
X231328Y285647D01*
X231773Y286722D01*
X231792Y286820D01*
X231831Y286913D01*
X232058Y288054D01*
Y288154D01*
X232077Y288253D01*
Y289416D01*
X232058Y289515D01*
Y289615D01*
X231831Y290756D01*
X231792Y290849D01*
X231773Y290947D01*
X231328Y292022D01*
X231272Y292106D01*
X231233Y292198D01*
X230587Y293165D01*
X230516Y293236D01*
X230460Y293320D01*
X229638Y294143D01*
X229554Y294198D01*
X229483Y294269D01*
X228516Y294916D01*
X228423Y294954D01*
X228340Y295010D01*
X227265Y295455D01*
X227166Y295475D01*
X227074Y295513D01*
X225933Y295740D01*
X225832D01*
X225734Y295760D01*
D02*
G37*
G36*
X412430Y295760D02*
X411266D01*
X411168Y295740D01*
X411067D01*
X409926Y295513D01*
X409834Y295475D01*
X409735Y295455D01*
X408660Y295010D01*
X408577Y294954D01*
X408484Y294916D01*
X407517Y294269D01*
X407446Y294198D01*
X407362Y294143D01*
X406540Y293320D01*
X406484Y293236D01*
X406413Y293165D01*
X405767Y292198D01*
X405728Y292106D01*
X405673Y292022D01*
X405227Y290947D01*
X405208Y290849D01*
X405169Y290756D01*
X404942Y289615D01*
Y289515D01*
X404923Y289416D01*
Y288253D01*
X404942Y288154D01*
Y288054D01*
X405169Y286913D01*
X405208Y286820D01*
X405227Y286722D01*
X405673Y285647D01*
X405728Y285563D01*
X405767Y285471D01*
X406413Y284504D01*
X406484Y284433D01*
X406540Y284349D01*
X407362Y283526D01*
X407446Y283471D01*
X407517Y283400D01*
X408484Y282753D01*
X408577Y282715D01*
X408660Y282659D01*
X409735Y282214D01*
X409834Y282194D01*
X409926Y282156D01*
X411067Y281929D01*
X411168D01*
X411266Y281909D01*
X412430D01*
X412528Y281929D01*
X412628D01*
X413769Y282156D01*
X413862Y282194D01*
X413961Y282214D01*
X415035Y282659D01*
X415119Y282715D01*
X415212Y282753D01*
X416179Y283400D01*
X416250Y283471D01*
X416333Y283526D01*
X417156Y284349D01*
X417212Y284433D01*
X417283Y284504D01*
X417929Y285471D01*
X417968Y285563D01*
X418023Y285647D01*
X418468Y286722D01*
X418488Y286820D01*
X418526Y286913D01*
X418753Y288054D01*
Y288154D01*
X418773Y288253D01*
Y289416D01*
X418753Y289515D01*
Y289615D01*
X418526Y290756D01*
X418488Y290849D01*
X418468Y290947D01*
X418023Y292022D01*
X417968Y292106D01*
X417929Y292198D01*
X417283Y293165D01*
X417212Y293236D01*
X417156Y293320D01*
X416333Y294143D01*
X416250Y294198D01*
X416179Y294269D01*
X415212Y294916D01*
X415119Y294954D01*
X415035Y295010D01*
X413961Y295455D01*
X413862Y295475D01*
X413769Y295513D01*
X412628Y295740D01*
X412528D01*
X412430Y295760D01*
D02*
G37*
%LPD*%
G36*
X362715Y655688D02*
X363371Y655249D01*
X364145Y655095D01*
X365441D01*
Y654248D01*
X366977D01*
Y650500D01*
X367078Y649990D01*
X366617Y649744D01*
X364049Y652312D01*
X363392Y652751D01*
X362618Y652905D01*
X358008D01*
Y658859D01*
X359544D01*
X362715Y655688D01*
D02*
G37*
G36*
X349867Y658208D02*
X350102Y658034D01*
Y653110D01*
Y648110D01*
Y643110D01*
Y637905D01*
X349882D01*
X349108Y637751D01*
X348855Y637582D01*
X348405Y637882D01*
Y657044D01*
X349656Y658295D01*
X349867Y658208D01*
D02*
G37*
G36*
X350102Y632534D02*
Y628110D01*
Y621921D01*
X342757D01*
X342622Y622122D01*
X341878Y622619D01*
X341000Y622794D01*
X340204Y622636D01*
X340011Y622843D01*
X339909Y623048D01*
X349602Y632741D01*
X350102Y632534D01*
D02*
G37*
G36*
X392722Y617916D02*
X392721Y617847D01*
X392503Y617428D01*
X392418Y617443D01*
X362549Y647312D01*
X361892Y647751D01*
X361118Y647905D01*
X358008D01*
Y648859D01*
X361780D01*
X392722Y617916D01*
D02*
G37*
G36*
X281205Y643110D02*
Y638110D01*
Y633110D01*
Y628110D01*
Y623110D01*
Y617303D01*
X275382D01*
X274930Y617213D01*
X274708Y617470D01*
X274635Y617625D01*
X278505Y621495D01*
X278813Y621956D01*
X278921Y622500D01*
Y639243D01*
X279122Y639378D01*
X279620Y640122D01*
X279794Y641000D01*
X279620Y641878D01*
X279122Y642622D01*
X278378Y643119D01*
X277500Y643294D01*
X276622Y643119D01*
X276324Y642920D01*
X275744Y643134D01*
X275722Y643212D01*
X276970Y644461D01*
X281205D01*
Y643110D01*
D02*
G37*
G36*
X350102Y613110D02*
Y608110D01*
Y603110D01*
Y600320D01*
X349878Y599913D01*
X349602Y599913D01*
X289610D01*
X289335Y599913D01*
X289110Y600320D01*
Y604461D01*
X324030D01*
X324753Y603737D01*
X324706Y603500D01*
X324881Y602622D01*
X325378Y601878D01*
X326122Y601381D01*
X327000Y601206D01*
X327878Y601381D01*
X328622Y601878D01*
X329119Y602622D01*
X329294Y603500D01*
X329119Y604378D01*
X328622Y605122D01*
X327878Y605619D01*
X327000Y605794D01*
X326763Y605747D01*
X325623Y606887D01*
X325162Y607195D01*
X324618Y607303D01*
X289110D01*
Y613227D01*
X289572Y613418D01*
X292495Y610495D01*
X292956Y610187D01*
X293500Y610079D01*
X306243D01*
X306378Y609878D01*
X307122Y609381D01*
X308000Y609206D01*
X308878Y609381D01*
X309622Y609878D01*
X310120Y610622D01*
X310294Y611500D01*
X310120Y612378D01*
X309622Y613122D01*
X308878Y613619D01*
X308000Y613794D01*
X307122Y613619D01*
X306378Y613122D01*
X306243Y612921D01*
X294302D01*
X294169Y613107D01*
X294400Y613644D01*
X294996Y613762D01*
X295740Y614260D01*
X295875Y614461D01*
X350102D01*
Y613110D01*
D02*
G37*
G36*
X389847Y614292D02*
X389880Y614122D01*
X390378Y613378D01*
X391122Y612881D01*
X392000Y612706D01*
X392878Y612881D01*
X393622Y613378D01*
X394120Y614122D01*
X394294Y615000D01*
X394136Y615796D01*
X394343Y615989D01*
X394548Y616091D01*
X396977Y613662D01*
Y515506D01*
X390744Y509273D01*
X390244Y509480D01*
Y512383D01*
X394931Y517069D01*
X395369Y517726D01*
X395523Y518500D01*
Y599000D01*
X395369Y599774D01*
X394931Y600431D01*
X363049Y632312D01*
X362392Y632751D01*
X361618Y632905D01*
X358008D01*
Y638424D01*
X358508Y638631D01*
X391347Y605792D01*
X391381Y605622D01*
X391878Y604878D01*
X392622Y604381D01*
X393500Y604206D01*
X394378Y604381D01*
X395122Y604878D01*
X395620Y605622D01*
X395794Y606500D01*
X395620Y607378D01*
X395122Y608122D01*
X394378Y608619D01*
X394208Y608653D01*
X360549Y642312D01*
X359892Y642751D01*
X359118Y642905D01*
X358008D01*
Y643859D01*
X360280D01*
X389847Y614292D01*
D02*
G37*
G36*
X262803Y605565D02*
X263060Y605343D01*
X262970Y604891D01*
Y581018D01*
X262470Y580608D01*
X262437Y580614D01*
X261227D01*
X260758Y580521D01*
X260552Y580384D01*
X260347Y580521D01*
X259878Y580614D01*
X259379D01*
X259227Y581114D01*
X259622Y581378D01*
X260120Y582122D01*
X260294Y583000D01*
X260120Y583878D01*
X259622Y584622D01*
X258878Y585119D01*
X258000Y585294D01*
X257122Y585119D01*
X256378Y584622D01*
X255880Y583878D01*
X255819Y583567D01*
X255283Y583032D01*
X254845Y582376D01*
X254691Y581601D01*
Y576500D01*
X254845Y575726D01*
X254883Y575668D01*
Y573834D01*
X254383Y573626D01*
X253921Y574089D01*
Y596911D01*
X262648Y605638D01*
X262803Y605565D01*
D02*
G37*
G36*
X281205Y613110D02*
Y607303D01*
X273882D01*
X273338Y607195D01*
X272877Y606887D01*
X268420Y602429D01*
X268111Y601968D01*
X268003Y601424D01*
Y580919D01*
X267617Y580602D01*
X267555Y580614D01*
X266345D01*
X266312Y580608D01*
X265812Y581018D01*
Y604302D01*
X275970Y614461D01*
X281205D01*
Y613110D01*
D02*
G37*
G36*
X330083Y586394D02*
X330237Y585619D01*
X330676Y584963D01*
X345569Y570069D01*
X346226Y569631D01*
X347000Y569477D01*
X367330D01*
X370395Y566412D01*
X370188Y565912D01*
X354268D01*
Y564435D01*
X345426D01*
X329130Y580732D01*
Y592008D01*
X330083D01*
Y586394D01*
D02*
G37*
G36*
X315083Y573894D02*
X315237Y573119D01*
X315676Y572463D01*
X333305Y554834D01*
X333337Y554580D01*
X332870Y554291D01*
X332378Y554619D01*
X332208Y554653D01*
X314129Y572732D01*
Y592008D01*
X315083D01*
Y573894D01*
D02*
G37*
G36*
X401477Y514386D02*
Y510006D01*
X390744Y499273D01*
X390244Y499480D01*
Y503051D01*
X400431Y513237D01*
X400869Y513893D01*
X400977Y514435D01*
X401477Y514386D01*
D02*
G37*
G36*
X405977Y508886D02*
Y504505D01*
X390744Y489273D01*
X390244Y489480D01*
Y493050D01*
X404931Y507737D01*
X405369Y508393D01*
X405477Y508935D01*
X405977Y508886D01*
D02*
G37*
G36*
X293079Y465730D02*
Y457824D01*
X292978Y457741D01*
X292312Y457838D01*
X292122Y458122D01*
X291378Y458619D01*
X290500Y458794D01*
X289622Y458619D01*
X288878Y458122D01*
X288381Y457378D01*
X288347Y457208D01*
X278662Y447523D01*
X271974D01*
X271568Y447750D01*
X271568Y448023D01*
Y448977D01*
X274500D01*
X275274Y449131D01*
X275931Y449569D01*
X291708Y465347D01*
X291878Y465381D01*
X292579Y465849D01*
X293079Y465730D01*
D02*
G37*
G36*
X303392Y367877D02*
Y362144D01*
X303392D01*
X303392Y361907D01*
X303392D01*
Y354789D01*
X303392D01*
X303392Y354551D01*
X303392D01*
Y353237D01*
X302277D01*
X300523Y354991D01*
Y365662D01*
X302930Y368069D01*
X303392Y367877D01*
D02*
G37*
G36*
X302287Y478824D02*
X302433Y478735D01*
X302470Y478480D01*
X297495Y473505D01*
X297187Y473044D01*
X297079Y472500D01*
Y372589D01*
X283076Y358586D01*
X282768Y358125D01*
X282660Y357581D01*
Y345595D01*
X280522D01*
Y339854D01*
X287640D01*
Y345595D01*
X285502D01*
Y356992D01*
X296524Y368015D01*
X296913Y367696D01*
X296631Y367274D01*
X296477Y366500D01*
Y354153D01*
X296631Y353379D01*
X297069Y352723D01*
X300008Y349784D01*
X300665Y349345D01*
X301439Y349191D01*
X303392D01*
Y347433D01*
X303392D01*
Y347196D01*
X303392D01*
Y340077D01*
X303563D01*
X303754Y339616D01*
X286662Y322523D01*
X275522D01*
X275378Y322620D01*
X274500Y322794D01*
X273622Y322620D01*
X272878Y322122D01*
X272380Y321378D01*
X272206Y320500D01*
X272380Y319622D01*
X272878Y318878D01*
X273622Y318380D01*
X274500Y318206D01*
X275378Y318380D01*
X275522Y318477D01*
X287500D01*
X288274Y318631D01*
X288931Y319069D01*
X307692Y337831D01*
X308131Y338488D01*
X308285Y339262D01*
Y340077D01*
X309132D01*
Y347196D01*
X309132D01*
Y347433D01*
X309132D01*
Y354551D01*
X309132D01*
X309132Y354789D01*
X309132D01*
Y361907D01*
X309132D01*
X309132Y362144D01*
X309132D01*
Y366336D01*
X309411Y366560D01*
X309888Y366350D01*
Y362407D01*
X309888Y362144D01*
X309888Y361644D01*
Y354789D01*
X309888D01*
X309888Y354551D01*
X309888D01*
Y347433D01*
X309888D01*
Y347196D01*
X309888D01*
Y340077D01*
X315628D01*
Y341977D01*
X316000D01*
X316774Y342131D01*
X317431Y342569D01*
X318431Y343569D01*
X318869Y344226D01*
X319023Y345000D01*
Y345224D01*
X319415Y345434D01*
X319523Y345435D01*
X320342Y345272D01*
X321075D01*
Y343902D01*
X321229Y343127D01*
X321668Y342471D01*
X325099Y339040D01*
Y336866D01*
X323563D01*
Y336019D01*
X309707D01*
X308932Y335865D01*
X308276Y335427D01*
X289273Y316423D01*
X285209Y312360D01*
X284771Y311703D01*
X284617Y310929D01*
Y309945D01*
X281565D01*
Y310339D01*
X281457Y310882D01*
X281149Y311343D01*
X280487Y312005D01*
X280026Y312313D01*
X279482Y312421D01*
X277628D01*
Y312793D01*
X277519Y313337D01*
X277211Y313798D01*
X269747Y321263D01*
X269794Y321500D01*
X269619Y322378D01*
X269122Y323122D01*
X268378Y323620D01*
X267500Y323794D01*
X266622Y323620D01*
X265878Y323122D01*
X265381Y322378D01*
X265303Y321990D01*
X264761Y321826D01*
X261858Y324728D01*
X262065Y325228D01*
X267569D01*
Y330299D01*
X267588Y330772D01*
X268061Y330791D01*
X272699D01*
X274753Y328737D01*
X274706Y328500D01*
X274881Y327622D01*
X275378Y326878D01*
X276122Y326380D01*
X277000Y326206D01*
X277878Y326380D01*
X278622Y326878D01*
X279119Y327622D01*
X279294Y328500D01*
X279119Y329378D01*
X278622Y330122D01*
X277878Y330620D01*
X277000Y330794D01*
X276763Y330747D01*
X274213Y333296D01*
X273752Y333604D01*
X273209Y333712D01*
X273132D01*
Y334807D01*
X280522D01*
Y333358D01*
X287640D01*
Y339099D01*
X280522D01*
Y337649D01*
X277812D01*
X277621Y338111D01*
X279505Y339995D01*
X279813Y340456D01*
X279921Y341000D01*
Y357411D01*
X295505Y372995D01*
X295813Y373456D01*
X295921Y374000D01*
Y472911D01*
X301904Y478894D01*
X302287Y478824D01*
D02*
G37*
G36*
X391759Y462978D02*
X391662Y462312D01*
X391378Y462122D01*
X391206Y461865D01*
X359851D01*
X359802Y462365D01*
X359878Y462381D01*
X360622Y462878D01*
X360757Y463079D01*
X391676D01*
X391759Y462978D01*
D02*
G37*
G36*
X354388Y362407D02*
X354388Y362144D01*
X354388Y361644D01*
Y354789D01*
X354388D01*
Y354551D01*
X354388D01*
Y347433D01*
X354388D01*
Y347196D01*
X354388D01*
Y346627D01*
X353926Y346435D01*
X351434Y348927D01*
X350778Y349365D01*
X350004Y349519D01*
X348800D01*
X348753Y349551D01*
X347902Y349720D01*
X345861D01*
X345672Y350220D01*
X345731Y350272D01*
X347902D01*
X348753Y350442D01*
X349474Y350924D01*
X349956Y351645D01*
X350125Y352496D01*
X349956Y353347D01*
X349474Y354069D01*
X348753Y354551D01*
X347902Y354720D01*
X346023D01*
X345827Y355220D01*
X345883Y355272D01*
X347902D01*
X348753Y355441D01*
X349474Y355924D01*
X349956Y356645D01*
X350125Y357496D01*
X349956Y358347D01*
X349474Y359069D01*
X348753Y359551D01*
X347902Y359720D01*
X345731D01*
X345672Y359772D01*
X345861Y360272D01*
X347902D01*
X348753Y360441D01*
X348805Y360477D01*
X349500D01*
X350274Y360631D01*
X350931Y361069D01*
X353541Y363680D01*
X354388D01*
Y362407D01*
D02*
G37*
D10*
X320000Y527000D02*
X347500D01*
X277000Y570000D02*
X320000Y527000D01*
X256000Y570000D02*
X277000D01*
X290000Y375000D02*
Y446500D01*
X283858Y368858D02*
X290000Y375000D01*
X271973Y435800D02*
Y440027D01*
X270500Y441500D02*
X271973Y440027D01*
X258215Y441500D02*
X270500D01*
X257108Y440392D02*
X258215Y441500D01*
X257108Y435800D02*
Y440392D01*
X252000Y435692D02*
X252108Y435800D01*
X252000Y430000D02*
Y435692D01*
Y430000D02*
X253200Y428800D01*
X271973D01*
X247209Y332291D02*
X249967D01*
X241500Y338000D02*
X247209Y332291D01*
X236132Y338000D02*
X241500D01*
X235596Y338536D02*
X236132Y338000D01*
X304000Y508500D02*
X317956Y522456D01*
X304000Y478000D02*
Y508500D01*
X273412Y567000D02*
X317956Y522456D01*
X284081Y342724D02*
X284189D01*
X285500Y344035D01*
X318000Y522412D02*
X362512D01*
X237108Y429892D02*
X241250Y425750D01*
X241000Y413500D02*
X254500D01*
X227108Y427392D02*
X241000Y413500D01*
X394016Y641500D02*
Y647984D01*
X239500Y421000D02*
X240000D01*
X257108Y403608D02*
X259500Y406000D01*
X227108Y427392D02*
Y435800D01*
X232108Y428392D02*
Y435800D01*
X252108Y398200D02*
Y403608D01*
X257108Y398200D02*
Y403608D01*
X262108Y398200D02*
X271973D01*
X259500Y406000D02*
X271973D01*
X262000Y413500D02*
X271973D01*
X237108Y429892D02*
Y435800D01*
X232108Y428392D02*
X239500Y421000D01*
X252108Y403608D02*
X262000Y413500D01*
X359000Y464500D02*
X396500D01*
X354705Y460444D02*
X392944D01*
X393000Y460500D01*
X255996Y452504D02*
X257062D01*
X281118Y660882D02*
X285157D01*
X278913Y663087D02*
X281118Y660882D01*
X275500Y663087D02*
X278913D01*
X388000Y657118D02*
X395618D01*
X396000Y657500D01*
X236142Y368858D02*
X241608D01*
X220500Y384500D02*
X236142Y368858D01*
X220500Y384500D02*
Y531500D01*
X293500Y611500D02*
X308000D01*
X289118Y615882D02*
X293500Y611500D01*
X285157Y615882D02*
X289118D01*
X324618Y605882D02*
X327000Y603500D01*
X285157Y605882D02*
X324618D01*
X220500Y531500D02*
X237122Y548122D01*
X259000Y337000D02*
X261360D01*
X262132Y336228D01*
X396500Y464500D02*
X396625Y464375D01*
X307500Y475500D02*
Y506000D01*
X275000Y341500D02*
Y358000D01*
X273209Y332291D02*
X277000Y328500D01*
X270360Y332291D02*
X273209D01*
X250976Y457524D02*
X255996Y452504D01*
X250084Y457524D02*
X250976D01*
X248608Y459000D02*
X250084Y457524D01*
X282112Y297388D02*
X285004Y294496D01*
X282112Y297388D02*
Y306701D01*
X285004Y294496D02*
X302206D01*
X294500Y374000D02*
Y473500D01*
X278500Y358000D02*
X294500Y374000D01*
X278500Y341000D02*
Y358000D01*
X278608Y368858D02*
X283858D01*
X313912Y512412D02*
X362512D01*
X307500Y506000D02*
X313912Y512412D01*
X298500Y472500D02*
X304000Y478000D01*
X301000Y480000D02*
Y522250D01*
X294500Y473500D02*
X301000Y480000D01*
X376000Y319500D02*
X383500D01*
X366262Y309762D02*
X376000Y319500D01*
X366262Y306701D02*
Y309762D01*
X273665Y340165D02*
X275000Y341500D01*
X270360Y340165D02*
X273665D01*
X275697Y338197D02*
X278500Y341000D01*
X270360Y338197D02*
X275697D01*
X284081Y342724D02*
Y357581D01*
X298500Y372000D01*
X270360Y336228D02*
X284081D01*
X258195Y321805D02*
X263000Y317000D01*
X258195Y321805D02*
Y328000D01*
X260163Y324413D02*
X274238Y310339D01*
X260163Y324413D02*
Y328000D01*
X274238Y306701D02*
Y310339D01*
X276207Y311000D02*
Y312793D01*
Y306701D02*
Y311000D01*
X279482D02*
X280144Y310339D01*
X276207Y311000D02*
X279482D01*
X280144Y306701D02*
Y310339D01*
X267500Y321500D02*
X276207Y312793D01*
X298500Y372000D02*
Y472500D01*
X226000Y587000D02*
X234000D01*
X278175Y303175D02*
Y306701D01*
X277500Y302500D02*
X278175Y303175D01*
X274801Y302500D02*
X277500D01*
X274238Y303063D02*
X274801Y302500D01*
X274238Y303063D02*
Y306701D01*
X260163Y328000D02*
X260164Y328000D01*
X234000Y587000D02*
X234250Y587250D01*
X275382Y615882D02*
X285157D01*
X264391Y604891D02*
X275382Y615882D01*
X264391Y576500D02*
Y604891D01*
X272068Y576500D02*
Y591568D01*
X294118Y615882D02*
X354055D01*
X362325Y303864D02*
Y306701D01*
Y303864D02*
X362325Y303864D01*
Y302961D02*
Y303864D01*
Y302961D02*
X362786Y302500D01*
X365699D01*
X366262Y303063D01*
Y306701D01*
X360326Y309568D02*
Y310326D01*
Y309568D02*
X360356Y309538D01*
X360326Y310326D02*
X361000Y311000D01*
X363632D02*
X376132Y323500D01*
X382500D01*
X363632Y311000D02*
X364293Y310339D01*
Y306701D02*
Y310339D01*
X360356Y306701D02*
Y309538D01*
X361000Y311000D02*
X363632D01*
X356419Y300419D02*
Y303864D01*
X350496Y294496D02*
X356419Y300419D01*
X338309Y294496D02*
X350496D01*
X356419Y303864D02*
Y306701D01*
X356419Y303864D02*
X356419D01*
X368230Y300270D02*
X374004Y294496D01*
X368230Y300270D02*
Y306701D01*
X374004Y294496D02*
X388309D01*
X270301Y303864D02*
Y303864D01*
Y306701D01*
Y297293D02*
Y303864D01*
X267504Y294496D02*
X270301Y297293D01*
X251812Y294496D02*
X267504D01*
X264374Y541874D02*
Y553884D01*
X264356Y541856D02*
X264374Y541874D01*
Y553884D02*
X264391Y553902D01*
X269504Y553897D02*
X269509Y553902D01*
X269504Y547505D02*
Y553897D01*
X269500Y547500D02*
X269504Y547505D01*
X272068Y553902D02*
X272144Y553826D01*
Y544644D02*
Y553826D01*
X266856Y553808D02*
X266950Y553902D01*
X266856Y544644D02*
Y553808D01*
Y544644D02*
X269500Y542000D01*
Y538500D02*
Y542000D01*
X252500Y573500D02*
X256000Y570000D01*
X252500Y597500D02*
X277500Y622500D01*
X252500Y573500D02*
Y597500D01*
X277500Y622500D02*
Y641000D01*
X347500Y527000D02*
X352912Y532412D01*
X362512D01*
X255000Y567000D02*
X273412D01*
X249500Y572500D02*
Y599000D01*
Y572500D02*
X255000Y567000D01*
X249500Y599000D02*
X274000Y623500D01*
Y643500D02*
X276382Y645882D01*
X274000Y623500D02*
Y643500D01*
X276382Y645882D02*
X285157D01*
X277500Y576500D02*
X302500Y551500D01*
X274627Y576500D02*
X277500D01*
X275000Y576873D02*
Y598500D01*
X274627Y576500D02*
X275000Y576873D01*
X269424Y601424D02*
X273882Y605882D01*
X269424Y576585D02*
Y601424D01*
Y576585D02*
X269509Y576500D01*
X273882Y605882D02*
X285157D01*
X353673Y620500D02*
X354055Y620882D01*
X341000Y620500D02*
X353673D01*
X256714Y545714D02*
Y553902D01*
X259273D02*
X261832D01*
X256714D02*
X259273D01*
X262132Y328000D02*
Y336228D01*
X279500Y498000D02*
X282001Y495499D01*
X290949D01*
X256714Y576500D02*
X259273D01*
X240500Y616606D02*
X252106D01*
X266500Y631000D01*
X274361Y498153D02*
X274514Y498000D01*
X272000Y561000D02*
X274627Y558373D01*
X274514Y498000D02*
X279500D01*
X274627Y553902D02*
Y558373D01*
D37*
X266122Y662713D02*
D03*
X243878D02*
D03*
D38*
X398000Y454000D02*
X400048Y451952D01*
X340026Y454000D02*
X398000D01*
X339337Y453311D02*
X340026Y454000D01*
X401480Y633232D02*
Y642732D01*
X347827Y595500D02*
X388000D01*
X347106Y594779D02*
X347827Y595500D01*
X386744Y472412D02*
X413000Y498667D01*
Y570500D01*
X278469Y435800D02*
Y436489D01*
X279354Y437375D01*
X280043D01*
X282067Y439398D01*
X285398D01*
X285500Y439500D01*
X327000Y327378D02*
X327122Y327500D01*
X327000Y323500D02*
Y327378D01*
Y323500D02*
X329500Y321000D01*
X339000D02*
X342000Y324000D01*
X329500Y321000D02*
X339000D01*
X341994Y327500D02*
X342000Y327494D01*
Y324000D02*
Y327494D01*
X278469Y428800D02*
X278484Y428784D01*
Y422016D02*
Y428784D01*
Y422016D02*
X278500Y422000D01*
X236500Y445500D02*
X279500D01*
X290500Y456500D01*
X323061Y357534D02*
X323098Y357496D01*
X323023Y357571D02*
X323061Y357534D01*
X318088Y482412D02*
X362512D01*
X313000Y487500D02*
X318088Y482412D01*
X287500Y320500D02*
X306262Y339262D01*
X274500Y320500D02*
X287500D01*
X306262Y339262D02*
Y343636D01*
X309707Y333996D02*
X327122D01*
X290703Y314993D02*
X309707Y333996D01*
X349797Y314993D02*
X353860Y310929D01*
X290703Y314993D02*
X349797D01*
X353860Y306701D02*
Y310929D01*
X349797Y314993D02*
X371902Y337098D01*
X298500Y354153D02*
Y366500D01*
X306040Y351214D02*
X306262Y350992D01*
X301439Y351214D02*
X306040D01*
X298500Y354153D02*
X301439Y351214D01*
X298500Y366500D02*
X310000Y378000D01*
X334500D01*
X339333Y382833D02*
Y389626D01*
X334500Y378000D02*
X339333Y382833D01*
X311819Y372000D02*
X345000D01*
X308685Y368866D02*
X311819Y372000D01*
X308685Y368815D02*
Y368866D01*
X306262Y366392D02*
X308685Y368815D01*
X306262Y365704D02*
Y366392D01*
X365189Y410000D02*
X365500Y410311D01*
X348500Y410000D02*
X365189D01*
X381500Y426500D02*
X387077D01*
X379200Y428800D02*
X381500Y426500D01*
X371500Y428800D02*
X379200D01*
X372500Y346000D02*
Y352500D01*
Y346000D02*
X383000Y335500D01*
X254258Y328000D02*
X255711D01*
X246500D02*
X254258D01*
X235596Y329945D02*
X244555D01*
X246500Y328000D01*
X226096Y329945D02*
X235596D01*
X235596Y338536D02*
X235596Y338536D01*
X226096Y338536D02*
X235596D01*
X226096Y338536D02*
X226096Y338536D01*
X391455Y335500D02*
X391876Y335079D01*
X383000Y335500D02*
X391455D01*
X327122Y333996D02*
Y339878D01*
X323098Y343902D02*
X327122Y339878D01*
X323098Y343902D02*
Y347496D01*
X327122Y333996D02*
X334122D01*
X306262Y343636D02*
Y350992D01*
Y365704D02*
X306262Y365704D01*
Y358348D02*
Y365704D01*
Y358348D02*
X306262Y358348D01*
X312758Y343636D02*
X313121Y344000D01*
X316000D01*
X317000Y345000D02*
Y350000D01*
X316000Y344000D02*
X317000Y345000D01*
Y350000D02*
X319500Y352500D01*
X323094D01*
X323098Y352496D01*
X312758Y358348D02*
X312758Y358348D01*
X312758Y350992D02*
Y358348D01*
X312758Y350992D02*
X312758Y350992D01*
X313534Y357571D02*
X323023D01*
X312758Y358348D02*
X313534Y357571D01*
X312758Y365704D02*
X312961Y365500D01*
X320342Y362496D02*
X323098D01*
X317338Y365500D02*
X320342Y362496D01*
X312961Y365500D02*
X317338D01*
X354000Y343500D02*
X357121D01*
X350004Y347496D02*
X354000Y343500D01*
X345146Y347496D02*
X350004D01*
X357121Y343500D02*
X357258Y343636D01*
Y350992D02*
Y358348D01*
Y343636D02*
Y350992D01*
X352703Y365704D02*
X357258D01*
X349500Y362500D02*
X352703Y365704D01*
X345146Y362496D02*
X345150Y362500D01*
X349500D01*
X339335Y453309D02*
X339337Y453311D01*
X400048Y451952D02*
X408020D01*
X386337Y398211D02*
X386337Y398211D01*
Y390642D02*
Y398211D01*
Y390642D02*
X386337Y390642D01*
X392835Y405640D02*
X392837Y405642D01*
X392835Y398213D02*
Y405640D01*
X392833Y398211D02*
X392835Y398213D01*
X365500Y386689D02*
X366811Y388000D01*
X380000D01*
X382642Y390642D02*
X386337D01*
X380000Y388000D02*
X382642Y390642D01*
X371500Y444233D02*
X380288D01*
X385528Y449472D01*
X389833D01*
X387077Y426500D02*
Y434000D01*
X393573D02*
Y441205D01*
X403359Y440141D02*
X408020D01*
X394028Y449472D02*
X403359Y440141D01*
X389833Y449472D02*
X394028D01*
X408020Y434236D02*
Y440141D01*
X364145Y657118D02*
X369000D01*
X360382Y660882D02*
X364145Y657118D01*
X354055Y660882D02*
X360382D01*
X369000Y650500D02*
Y657118D01*
X274500Y451000D02*
X291000Y467500D01*
X268568Y451000D02*
X274500D01*
X278469Y428800D02*
Y435800D01*
X286640Y306701D02*
Y310929D01*
X290703Y314993D01*
X240500Y578000D02*
Y610110D01*
X409591Y388866D02*
X409709Y388748D01*
X322106Y577394D02*
X342500Y557000D01*
X347088Y552412D01*
X322106Y577394D02*
Y595961D01*
X347088Y552412D02*
X362512D01*
X241608Y459000D02*
X248608D01*
X257062D02*
X265068D01*
X303000Y467500D02*
X309000D01*
X314894Y473394D01*
X249608Y365358D02*
X256612D01*
X403500Y509167D02*
Y598500D01*
X386744Y492412D02*
X403500Y509167D01*
X297106Y565894D02*
X331500Y531500D01*
X297106Y565894D02*
Y595961D01*
X302106Y567894D02*
X331500Y538500D01*
X302106Y567894D02*
Y595961D01*
X307106Y569894D02*
X332000Y545000D01*
X307106Y569894D02*
Y595961D01*
X344588Y562412D02*
X362512D01*
X327106Y579894D02*
Y595961D01*
Y579894D02*
X344588Y562412D01*
X278331Y502669D02*
X281500Y499500D01*
X274208Y502669D02*
X278331D01*
X281500Y499500D02*
X284091D01*
X284453Y499862D01*
X229583Y563000D02*
X230020Y562563D01*
X349882Y635882D02*
X354055D01*
X335500Y621500D02*
X349882Y635882D01*
X292500Y621500D02*
X335500D01*
X226051Y563000D02*
X229583D01*
X222760Y560398D02*
X223449D01*
X226051Y563000D01*
X359118Y640882D02*
X393500Y606500D01*
X354055Y640882D02*
X359118D01*
X408000Y503667D02*
Y585500D01*
X382000Y482412D02*
X386744D01*
X408000Y503667D01*
X361118Y645882D02*
X392000Y615000D01*
X354055Y645882D02*
X361118D01*
X382000Y492412D02*
X386744D01*
X347106Y594779D02*
Y595961D01*
X382000Y472412D02*
X386744D01*
X263108Y372358D02*
X270608D01*
X249608D02*
X256612D01*
X263108Y365358D02*
X270608D01*
X377256Y562412D02*
X382000D01*
X368167Y571500D02*
X377256Y562412D01*
X347000Y571500D02*
X368167D01*
X332106Y586394D02*
X347000Y571500D01*
X332106Y586394D02*
Y595961D01*
X279031Y507031D02*
X280587Y508587D01*
X274208Y507031D02*
X279031D01*
X280587Y508587D02*
X284453D01*
X284384Y491068D02*
X284453Y491137D01*
X284316Y491000D02*
X284384Y491068D01*
X281500Y491000D02*
X284316D01*
X278556Y493944D02*
X281500Y491000D01*
X274208Y493944D02*
X278556D01*
X233760Y553902D02*
X245961D01*
X407000Y623000D02*
X408776D01*
X401480Y628520D02*
X407000Y623000D01*
X401480Y628520D02*
Y633232D01*
X348500Y577500D02*
X362500D01*
X337106Y588894D02*
X348500Y577500D01*
X337106Y588894D02*
Y595961D01*
X335500Y555500D02*
X348588Y542412D01*
X317106Y573894D02*
Y595961D01*
Y573894D02*
X335500Y555500D01*
X348588Y542412D02*
X362512D01*
X274208Y485219D02*
X278281D01*
X284041Y482000D02*
X284453Y482412D01*
X278281Y485219D02*
X281500Y482000D01*
X284041D01*
X361618Y630882D02*
X393500Y599000D01*
X354055Y630882D02*
X361618D01*
X393500Y518500D02*
Y599000D01*
X382000Y512412D02*
X387412D01*
X393500Y518500D01*
X312106Y571894D02*
X331500Y552500D01*
X312106Y571894D02*
Y595961D01*
X362618Y650882D02*
X399000Y614500D01*
X354055Y650882D02*
X362618D01*
X399000Y514668D02*
Y614500D01*
X382000Y502412D02*
X386744D01*
X399000Y514668D01*
X228224Y610110D02*
X240500D01*
X375923Y305740D02*
Y306701D01*
X380337Y304417D02*
Y304832D01*
X379609Y305559D02*
X380337Y304832D01*
X376104Y305559D02*
X379609D01*
X375923Y305740D02*
X376104Y305559D01*
X350695Y305740D02*
Y306701D01*
X346282Y304417D02*
Y304832D01*
X347009Y305559D01*
X350514D01*
X350695Y305740D01*
X289805D02*
Y306701D01*
X294219Y304417D02*
Y304832D01*
X293491Y305559D02*
X294219Y304832D01*
X289986Y305559D02*
X293491D01*
X289805Y305740D02*
X289986Y305559D01*
X264577Y305740D02*
Y306701D01*
X260163Y304417D02*
Y304832D01*
X260891Y305559D01*
X264396D01*
X264577Y305740D01*
X256714Y576500D02*
Y581601D01*
X258000Y582888D02*
Y583000D01*
X256714Y581601D02*
X258000Y582888D01*
X290949Y491137D02*
Y495499D01*
Y482412D02*
Y491137D01*
Y495499D02*
Y499862D01*
Y508587D02*
Y523240D01*
Y499862D02*
Y508587D01*
X299500Y625000D02*
X333500D01*
X346382Y637882D01*
Y657882D01*
X369000Y650500D02*
X386268Y633232D01*
X394984D01*
X346382Y657882D02*
X349382Y660882D01*
X354055D01*
X387488Y657118D02*
X388000D01*
X378500D02*
X387488D01*
X387500Y657106D01*
Y638500D02*
Y657106D01*
D39*
X391876Y344922D02*
D03*
D40*
Y335079D02*
D03*
D41*
X415500Y449000D02*
D03*
Y437188D02*
D03*
D42*
X415326Y376842D02*
D03*
X222019D02*
D03*
Y645543D02*
D03*
X415326D02*
D03*
D43*
X346282Y288000D02*
D03*
X380337D02*
D03*
X294219D02*
D03*
X260163D02*
D03*
D44*
X346282Y304417D02*
D03*
X380337D02*
D03*
X294219D02*
D03*
X260163D02*
D03*
D45*
X351931Y302488D02*
D03*
X374687D02*
D03*
X288569D02*
D03*
X265813D02*
D03*
D46*
X278469Y413500D02*
D03*
X336500Y350500D02*
D03*
X319000Y425500D02*
D03*
X320000Y527000D02*
D03*
X388000Y595500D02*
D03*
X413000Y570500D02*
D03*
X285500Y439500D02*
D03*
X290000Y446500D02*
D03*
X339333Y389626D02*
D03*
X278500Y422000D02*
D03*
X262108Y435800D02*
D03*
X306500Y366000D02*
D03*
X248608Y452504D02*
D03*
X236500Y445500D02*
D03*
X339500Y458500D02*
D03*
X290500Y456500D02*
D03*
X226096Y338536D02*
D03*
X323098Y352496D02*
D03*
X323061Y357534D02*
D03*
X290949Y482412D02*
D03*
X313000Y487500D02*
D03*
X271973Y435800D02*
D03*
X226096Y329945D02*
D03*
X274500Y320500D02*
D03*
X371902Y337098D02*
D03*
X371500Y428800D02*
D03*
X345000Y372000D02*
D03*
X348500Y410000D02*
D03*
X345146Y352496D02*
D03*
X386000Y441000D02*
D03*
X357258Y358348D02*
D03*
X372500Y352500D02*
D03*
X365500Y386689D02*
D03*
X360500Y586000D02*
D03*
X354055Y610882D02*
D03*
X362512Y502412D02*
D03*
X345146Y357496D02*
D03*
X241250Y425750D02*
D03*
X254500Y413500D02*
D03*
X394016Y647984D02*
D03*
X227108Y435800D02*
D03*
X232108Y398200D02*
D03*
Y435800D02*
D03*
X240000Y421000D02*
D03*
X242108Y435800D02*
D03*
X271973Y428800D02*
D03*
X237108Y435800D02*
D03*
X359000Y464500D02*
D03*
X354705Y460444D02*
D03*
X240500Y578000D02*
D03*
X275500Y656500D02*
D03*
X396000Y657500D02*
D03*
X259000Y337000D02*
D03*
X396625Y464375D02*
D03*
X307500Y475500D02*
D03*
X277000Y328500D02*
D03*
X256612Y365358D02*
D03*
X275000Y358000D02*
D03*
X342500Y557000D02*
D03*
X257000Y452500D02*
D03*
X303000Y467500D02*
D03*
X291000D02*
D03*
X301000Y522250D02*
D03*
X383500Y319500D02*
D03*
X263000Y317000D02*
D03*
X267500Y321500D02*
D03*
X230000Y563000D02*
D03*
X226000Y587000D02*
D03*
X403500Y598500D02*
D03*
X331500Y531500D02*
D03*
X382000Y522412D02*
D03*
X331500Y538500D02*
D03*
X382000Y532412D02*
D03*
X234250Y587250D02*
D03*
X274208Y476494D02*
D03*
X285157Y620882D02*
D03*
X308000Y611500D02*
D03*
X332000Y545000D02*
D03*
X382000Y542412D02*
D03*
X272068Y591568D02*
D03*
X294118Y615882D02*
D03*
X357000Y560500D02*
D03*
X284453Y499862D02*
D03*
X292500Y621500D02*
D03*
X408000Y585500D02*
D03*
X393500Y606500D02*
D03*
X392000Y615000D02*
D03*
X354055Y605882D02*
D03*
X382500Y323500D02*
D03*
X354055Y600882D02*
D03*
X393000Y460500D02*
D03*
X263108Y372358D02*
D03*
X388000Y663614D02*
D03*
X378500D02*
D03*
X377500Y562000D02*
D03*
X284453Y508587D02*
D03*
X284384Y491068D02*
D03*
X264356Y541856D02*
D03*
X269500Y547500D02*
D03*
X272144Y544644D02*
D03*
X269500Y538500D02*
D03*
X246000Y553500D02*
D03*
X277500Y641000D02*
D03*
X285157Y650882D02*
D03*
Y645882D02*
D03*
X354055Y655882D02*
D03*
X401496Y641500D02*
D03*
X302500Y551500D02*
D03*
X275000Y598500D02*
D03*
X285157Y610882D02*
D03*
X327000Y603500D02*
D03*
X362512Y512412D02*
D03*
X362500Y577500D02*
D03*
X335500Y555500D02*
D03*
X284453Y482412D02*
D03*
X341000Y620500D02*
D03*
X354000Y626000D02*
D03*
X331500Y552500D02*
D03*
X382000Y552412D02*
D03*
X285157Y655882D02*
D03*
X237122Y548122D02*
D03*
X285157Y600882D02*
D03*
X354055Y665882D02*
D03*
X325512Y635488D02*
D03*
X285157Y665882D02*
D03*
X303000Y632500D02*
D03*
X350500Y584500D02*
D03*
X256714Y545714D02*
D03*
X274208Y489581D02*
D03*
X362512Y492412D02*
D03*
X274361Y498153D02*
D03*
X240500Y616606D02*
D03*
X258000Y583000D02*
D03*
X266500Y631000D02*
D03*
X272000Y561000D02*
D03*
X299500Y625000D02*
D03*
X362512Y472412D02*
D03*
X387500Y638500D02*
D03*
D47*
X392833Y390642D02*
D03*
X386337D02*
D03*
X392833Y398211D02*
D03*
X386337D02*
D03*
X386340Y405642D02*
D03*
X392837D02*
D03*
X363754Y358348D02*
D03*
X357258D02*
D03*
Y365704D02*
D03*
X363754D02*
D03*
Y350992D02*
D03*
X357258D02*
D03*
X363754Y343636D02*
D03*
X357258D02*
D03*
X312758Y358348D02*
D03*
X306262D02*
D03*
X312758Y365704D02*
D03*
X306262D02*
D03*
X312758Y350992D02*
D03*
X306262D02*
D03*
X312758Y343636D02*
D03*
X306262D02*
D03*
X387077Y434000D02*
D03*
X393573D02*
D03*
Y426500D02*
D03*
X387077D02*
D03*
X395000Y641500D02*
D03*
X401496D02*
D03*
X290949Y523240D02*
D03*
X284453D02*
D03*
X271973Y428800D02*
D03*
X278469D02*
D03*
Y435800D02*
D03*
X271973D02*
D03*
X278469Y413500D02*
D03*
X271973D02*
D03*
X278469Y406000D02*
D03*
X271973D02*
D03*
X278469Y398200D02*
D03*
X271973D02*
D03*
X284453Y508587D02*
D03*
X290949D02*
D03*
X284453Y499862D02*
D03*
X290949D02*
D03*
X284453Y491137D02*
D03*
X290949D02*
D03*
X284453Y482412D02*
D03*
X290949D02*
D03*
X401480Y633232D02*
D03*
X394984D02*
D03*
X263108Y372358D02*
D03*
X256612D02*
D03*
Y365358D02*
D03*
X263108D02*
D03*
D48*
X365500Y386689D02*
D03*
Y410311D02*
D03*
D49*
X334122Y327500D02*
D03*
Y333996D02*
D03*
X341994D02*
D03*
Y327500D02*
D03*
X327122D02*
D03*
Y333996D02*
D03*
X369000Y663614D02*
D03*
Y657118D02*
D03*
X235596Y323449D02*
D03*
Y329945D02*
D03*
X226096Y323449D02*
D03*
Y329945D02*
D03*
Y345032D02*
D03*
Y338536D02*
D03*
X235596Y345032D02*
D03*
Y338536D02*
D03*
X275500Y663087D02*
D03*
Y656591D02*
D03*
X241608Y459000D02*
D03*
Y452504D02*
D03*
X248608D02*
D03*
Y459000D02*
D03*
X257062Y452504D02*
D03*
Y459000D02*
D03*
X222760Y553902D02*
D03*
Y560398D02*
D03*
X388309Y294496D02*
D03*
Y288000D02*
D03*
X338309Y294496D02*
D03*
Y288000D02*
D03*
X240500Y610110D02*
D03*
Y616606D02*
D03*
X245961Y553902D02*
D03*
Y560398D02*
D03*
X251812Y294496D02*
D03*
Y288000D02*
D03*
X302206Y294496D02*
D03*
Y288000D02*
D03*
X388000Y657118D02*
D03*
Y663614D02*
D03*
X378500Y657118D02*
D03*
Y663614D02*
D03*
X284081Y342724D02*
D03*
Y336228D02*
D03*
D50*
X334122Y354996D02*
D03*
D51*
X323098Y347496D02*
D03*
Y352496D02*
D03*
Y357496D02*
D03*
Y362496D02*
D03*
X345146Y347496D02*
D03*
Y352496D02*
D03*
Y357496D02*
D03*
Y362496D02*
D03*
D52*
X328315Y453311D02*
D03*
X339337D02*
D03*
X339333Y389626D02*
D03*
X328311D02*
D03*
D53*
X328900Y441811D02*
D03*
X339333D02*
D03*
Y401126D02*
D03*
X328900D02*
D03*
D54*
X314530Y421493D02*
D03*
D55*
X339333Y430489D02*
D03*
X339333Y412497D02*
D03*
D56*
X371500Y444233D02*
D03*
Y428800D02*
D03*
D57*
X389833Y449472D02*
D03*
X386092Y441205D02*
D03*
X393573D02*
D03*
D58*
X262108Y398200D02*
D03*
X257108D02*
D03*
X252108D02*
D03*
X247108D02*
D03*
X242108D02*
D03*
X237108D02*
D03*
X232108D02*
D03*
X227108D02*
D03*
Y435800D02*
D03*
X232108D02*
D03*
X237108D02*
D03*
X242108D02*
D03*
X247108D02*
D03*
X252108D02*
D03*
X257108D02*
D03*
X262108D02*
D03*
D59*
X408020Y434236D02*
D03*
Y440141D02*
D03*
Y451952D02*
D03*
D60*
X411169Y457267D02*
D03*
X419831D02*
D03*
Y428921D02*
D03*
X411169D02*
D03*
D61*
X339106Y473394D02*
D03*
Y497606D02*
D03*
X314894D02*
D03*
Y473394D02*
D03*
D62*
X268568Y451000D02*
D03*
X272068Y459000D02*
D03*
X265068D02*
D03*
D63*
X418303Y383594D02*
D03*
X418697Y411154D02*
D03*
X418224Y600953D02*
D03*
X418618Y628512D02*
D03*
X218382Y604598D02*
D03*
X218776Y632157D02*
D03*
D64*
X408854Y389106D02*
D03*
Y405642D02*
D03*
X408776Y606465D02*
D03*
Y623000D02*
D03*
X228224Y610110D02*
D03*
Y626646D02*
D03*
D65*
X274627Y553902D02*
D03*
X272068D02*
D03*
X269509D02*
D03*
X266950D02*
D03*
X264391D02*
D03*
X261832D02*
D03*
X259273D02*
D03*
X256714D02*
D03*
Y576500D02*
D03*
X259273D02*
D03*
X261832D02*
D03*
X264391D02*
D03*
X266950D02*
D03*
X269509D02*
D03*
X272068D02*
D03*
X274627D02*
D03*
D66*
X274208Y480856D02*
D03*
Y511394D02*
D03*
Y502669D02*
D03*
Y493944D02*
D03*
Y476494D02*
D03*
Y485219D02*
D03*
Y489581D02*
D03*
Y498306D02*
D03*
Y507031D02*
D03*
D67*
X270708Y471694D02*
D03*
D68*
X232808Y472594D02*
D03*
X269708Y529394D02*
D03*
X233108Y533194D02*
D03*
D69*
X241608Y368858D02*
D03*
X249608Y365358D02*
D03*
Y372358D02*
D03*
X270608Y365358D02*
D03*
Y372358D02*
D03*
X278608Y368858D02*
D03*
D70*
X266069Y328000D02*
D03*
X264100D02*
D03*
X262132D02*
D03*
X260163D02*
D03*
X258195D02*
D03*
X256226D02*
D03*
X254258D02*
D03*
Y348394D02*
D03*
X256226D02*
D03*
X258195D02*
D03*
X260163D02*
D03*
X262132D02*
D03*
X264100D02*
D03*
X266069D02*
D03*
D71*
X249967Y332291D02*
D03*
Y334260D02*
D03*
Y336228D02*
D03*
Y338197D02*
D03*
Y340165D02*
D03*
Y342134D02*
D03*
Y344102D02*
D03*
X270360D02*
D03*
Y342134D02*
D03*
Y340165D02*
D03*
Y338197D02*
D03*
Y336228D02*
D03*
Y334260D02*
D03*
Y332291D02*
D03*
D72*
X260163Y338197D02*
D03*
D73*
X362512Y472412D02*
D03*
X382000D02*
D03*
X362512Y482412D02*
D03*
X382000D02*
D03*
X362512Y492412D02*
D03*
X382000D02*
D03*
X362512Y502412D02*
D03*
X382000D02*
D03*
X362512Y512412D02*
D03*
X382000D02*
D03*
X362512Y522412D02*
D03*
X382000D02*
D03*
X362512Y532412D02*
D03*
X382000D02*
D03*
X362512Y542412D02*
D03*
X382000D02*
D03*
X362512Y552412D02*
D03*
X382000D02*
D03*
X362512Y562412D02*
D03*
X382000D02*
D03*
D74*
X350711Y306701D02*
D03*
X353860D02*
D03*
X372758D02*
D03*
X375907D02*
D03*
X289789D02*
D03*
X286640D02*
D03*
X267742D02*
D03*
X264593D02*
D03*
D75*
X356419D02*
D03*
X358388D02*
D03*
X360356D02*
D03*
X362325D02*
D03*
X370199D02*
D03*
X368230D02*
D03*
X366262D02*
D03*
X364293D02*
D03*
X278175D02*
D03*
X280144D02*
D03*
X282112D02*
D03*
X284081D02*
D03*
X276207D02*
D03*
X274238D02*
D03*
X272270D02*
D03*
X270301D02*
D03*
D76*
X230020Y562563D02*
D03*
X237500D02*
D03*
X233760Y553902D02*
D03*
D77*
X285157Y665882D02*
D03*
Y660882D02*
D03*
Y655882D02*
D03*
Y650882D02*
D03*
Y645882D02*
D03*
Y640882D02*
D03*
Y635882D02*
D03*
Y630882D02*
D03*
Y625882D02*
D03*
Y620882D02*
D03*
Y615882D02*
D03*
Y610882D02*
D03*
Y605882D02*
D03*
Y600882D02*
D03*
X354055D02*
D03*
Y605882D02*
D03*
Y610882D02*
D03*
Y615882D02*
D03*
Y620882D02*
D03*
Y625882D02*
D03*
Y630882D02*
D03*
Y635882D02*
D03*
Y640882D02*
D03*
Y645882D02*
D03*
Y650882D02*
D03*
Y655882D02*
D03*
Y660882D02*
D03*
Y665882D02*
D03*
D78*
X292106Y595961D02*
D03*
X297106D02*
D03*
X302106D02*
D03*
X307106D02*
D03*
X312106D02*
D03*
X317106D02*
D03*
X322106D02*
D03*
X327106D02*
D03*
X332106D02*
D03*
X337106D02*
D03*
X342106D02*
D03*
X347106D02*
D03*
D79*
X320000Y641000D02*
D03*
X325512D02*
D03*
X331024D02*
D03*
X320000Y629976D02*
D03*
X325512D02*
D03*
X331024D02*
D03*
X320000Y635488D02*
D03*
X331024D02*
D03*
X325512D02*
D03*
D80*
X249186Y638606D02*
D03*
X260800D02*
D03*
D81*
X255000Y644906D02*
D03*
D82*
Y663500D02*
D03*
D83*
X339222Y453426D02*
Y473278D01*
X339335Y430491D02*
Y453309D01*
X339333Y389626D02*
Y412497D01*
X402106Y389106D02*
X408854D01*
X378703Y365704D02*
X402106Y389106D01*
X363754Y365704D02*
X378703D01*
X339222Y453426D02*
X339337Y453311D01*
X339222Y473278D02*
X340088Y472412D01*
X339106Y473394D02*
X339222Y473278D01*
X339333Y389626D02*
X339333Y389626D01*
Y430489D02*
X339335Y430491D01*
X340088Y472412D02*
X362512D01*
X255000Y644906D02*
Y663500D01*
M02*
