G04*
G04 #@! TF.GenerationSoftware,Altium Limited,Altium Designer,20.1.7 (139)*
G04*
G04 Layer_Physical_Order=1*
G04 Layer_Color=255*
%FSLAX25Y25*%
%MOIN*%
G70*
G04*
G04 #@! TF.SameCoordinates,5ECA0F7F-463D-40B6-9D18-12E9E7DCF4CC*
G04*
G04*
G04 #@! TF.FilePolarity,Positive*
G04*
G01*
G75*
%ADD10C,0.00787*%
%ADD32R,0.02756X0.02756*%
%ADD33R,0.07874X0.07874*%
%ADD34R,0.07874X0.07874*%
%ADD35R,0.03150X0.03150*%
%ADD36R,0.01575X0.17717*%
%ADD37R,0.05315X0.16535*%
%ADD38C,0.01968*%
%ADD39R,0.05906X0.05906*%
%ADD40C,0.05906*%
%ADD41C,0.03543*%
%ADD42C,0.04724*%
%ADD43O,0.03543X0.06693*%
%ADD44O,0.03543X0.07874*%
%ADD45C,0.02362*%
%ADD46C,0.02500*%
G36*
X405991Y670998D02*
X405998Y670998D01*
X407048Y670998D01*
X409127Y670725D01*
X411152Y670182D01*
X413090Y669380D01*
X414905Y668332D01*
X416569Y667056D01*
X418052Y665574D01*
X419329Y663910D01*
X420377Y662095D01*
X421180Y660158D01*
X421724Y658133D01*
X421998Y656054D01*
X421998Y655505D01*
X421999Y655005D01*
X421999Y655004D01*
X421999Y654503D01*
X421999Y292504D01*
X421999Y291523D01*
X421743Y289585D01*
X421238Y287697D01*
X420490Y285891D01*
X419512Y284198D01*
X418322Y282648D01*
X416940Y281265D01*
X415389Y280076D01*
X413697Y279098D01*
X411891Y278350D01*
X410003Y277844D01*
X408065Y277589D01*
X407088D01*
X407050Y277589D01*
X407050Y277589D01*
X406975Y277583D01*
X406974Y277583D01*
X406900Y277572D01*
X406899Y277571D01*
X406826Y277554D01*
X406790Y277544D01*
X406790Y277544D01*
Y277544D01*
X372316Y277544D01*
X266772D01*
X231500Y277544D01*
X231000Y277544D01*
X231000Y277544D01*
X231000Y277544D01*
X229951D01*
X227872Y277818D01*
X225846Y278360D01*
X223909Y279163D01*
X222093Y280212D01*
X220429Y281488D01*
X218946Y282971D01*
X217669Y284635D01*
X216621Y286451D01*
X215818Y288389D01*
X215275Y290415D01*
X215002Y292494D01*
Y293542D01*
X215001Y293553D01*
X215001Y293560D01*
X215002Y655031D01*
X215003Y656078D01*
X215281Y658154D01*
X215826Y660177D01*
X216630Y662111D01*
X217680Y663923D01*
X218957Y665584D01*
X220440Y667063D01*
X222102Y668337D01*
X223917Y669383D01*
X225852Y670184D01*
X227876Y670725D01*
X229953Y670998D01*
X231002D01*
X231008Y670998D01*
X231012Y670998D01*
X231013Y670999D01*
X240220D01*
Y663213D01*
X247535D01*
Y670999D01*
X262464D01*
Y663213D01*
X269779D01*
Y670999D01*
X405986Y670999D01*
X405991Y670998D01*
D02*
G37*
%LPC*%
G36*
X285657Y668076D02*
Y666382D01*
X287352D01*
X287277Y666760D01*
X286780Y667504D01*
X286035Y668001D01*
X285657Y668076D01*
D02*
G37*
G36*
X284657D02*
X284279Y668001D01*
X283535Y667504D01*
X283038Y666760D01*
X282963Y666382D01*
X284657D01*
Y668076D01*
D02*
G37*
G36*
X287352Y665382D02*
X285657D01*
Y663687D01*
X286035Y663762D01*
X286780Y664260D01*
X287277Y665004D01*
X287352Y665382D01*
D02*
G37*
G36*
X284657D02*
X282963D01*
X283038Y665004D01*
X283535Y664260D01*
X284279Y663762D01*
X284657Y663687D01*
Y665382D01*
D02*
G37*
G36*
X319500Y665464D02*
X317622D01*
Y663587D01*
X319500D01*
Y665464D01*
D02*
G37*
G36*
X332038D02*
X330160D01*
Y663587D01*
X332038D01*
Y665464D01*
D02*
G37*
G36*
X306962D02*
X305084D01*
Y663587D01*
X306962D01*
Y665464D01*
D02*
G37*
G36*
X294424D02*
X292546D01*
Y663587D01*
X294424D01*
Y665464D01*
D02*
G37*
G36*
X319500Y662586D02*
X317622D01*
Y660709D01*
X319500D01*
Y662586D01*
D02*
G37*
G36*
X306962Y662586D02*
X305084D01*
Y660709D01*
X306962D01*
Y662586D01*
D02*
G37*
G36*
X332038D02*
X330160D01*
Y660709D01*
X332038D01*
Y662586D01*
D02*
G37*
G36*
X390500Y670421D02*
X349987D01*
X349443Y670313D01*
X348982Y670005D01*
X339747Y660769D01*
X339247Y660977D01*
X339247Y661094D01*
X339247Y661094D01*
X339247Y661098D01*
Y665464D01*
X333038D01*
Y663087D01*
Y660709D01*
X338858Y660709D01*
X338861D01*
X338861D01*
X338979Y660709D01*
X339060Y660513D01*
X339186Y660209D01*
X337237Y658260D01*
X331691D01*
X331554Y658287D01*
X331140D01*
X326709Y662718D01*
Y665464D01*
X320500D01*
Y663087D01*
Y660709D01*
X324699D01*
X326648Y658760D01*
X326441Y658260D01*
X326323Y658260D01*
X326323Y658260D01*
X326320Y658260D01*
X319153D01*
X319016Y658287D01*
X318602D01*
X314171Y662718D01*
Y665464D01*
X307962D01*
Y663087D01*
Y660709D01*
X312161D01*
X314110Y658760D01*
X313903Y658260D01*
X313785Y658260D01*
X313785Y658260D01*
X313782Y658260D01*
X306615D01*
X306478Y658287D01*
X306064D01*
X301632Y662718D01*
Y665464D01*
X295424D01*
Y663087D01*
X294924D01*
Y662586D01*
X292546D01*
Y661098D01*
X292546Y660949D01*
X292061Y660671D01*
X291849Y660813D01*
X291306Y660921D01*
X278500D01*
X277956Y660813D01*
X277495Y660505D01*
X275737Y658747D01*
X275500Y658794D01*
X274622Y658619D01*
X273878Y658122D01*
X273380Y657378D01*
X273206Y656500D01*
X273380Y655622D01*
X273878Y654878D01*
X274622Y654381D01*
X275500Y654206D01*
X276378Y654381D01*
X277122Y654878D01*
X277620Y655622D01*
X277794Y656500D01*
X277747Y656737D01*
X279089Y658079D01*
X283496D01*
X283647Y657579D01*
X283535Y657504D01*
X283038Y656760D01*
X282863Y655882D01*
X282910Y655645D01*
X243163Y615897D01*
X242702Y616143D01*
X242794Y616606D01*
X242619Y617484D01*
X242122Y618228D01*
X241378Y618726D01*
X240500Y618900D01*
X239622Y618726D01*
X238878Y618228D01*
X238381Y617484D01*
X238206Y616606D01*
X238381Y615728D01*
X238878Y614984D01*
X239622Y614487D01*
X240500Y614312D01*
X240963Y614404D01*
X241209Y613943D01*
X221495Y594229D01*
X221187Y593768D01*
X221079Y593224D01*
Y529500D01*
X221187Y528956D01*
X221495Y528495D01*
X231219Y518772D01*
X230997Y518324D01*
X230953Y518329D01*
X230024Y518207D01*
X229158Y517848D01*
X228415Y517278D01*
X227844Y516535D01*
X227485Y515669D01*
X227363Y514740D01*
X227485Y513810D01*
X227844Y512945D01*
X228415Y512201D01*
X229158Y511631D01*
X230024Y511272D01*
X230953Y511150D01*
X231882Y511272D01*
X232748Y511631D01*
X233491Y512201D01*
X234062Y512945D01*
X234420Y513810D01*
X234543Y514740D01*
X234537Y514784D01*
X234985Y515005D01*
X255579Y494411D01*
Y454257D01*
X255378Y454122D01*
X254880Y453378D01*
X254706Y452500D01*
X254880Y451622D01*
X255378Y450878D01*
X256122Y450381D01*
X257000Y450206D01*
X257878Y450381D01*
X258622Y450878D01*
X259120Y451622D01*
X259294Y452500D01*
X259120Y453378D01*
X258622Y454122D01*
X258421Y454257D01*
Y495000D01*
X258313Y495544D01*
X258005Y496005D01*
X223921Y530089D01*
Y584769D01*
X224421Y585015D01*
X224579Y584893D01*
Y532500D01*
X224687Y531956D01*
X224995Y531495D01*
X272787Y483704D01*
Y478250D01*
X272585Y478116D01*
X272088Y477372D01*
X271914Y476494D01*
X272088Y475616D01*
X272585Y474871D01*
X273330Y474374D01*
X274208Y474199D01*
X275085Y474374D01*
X275830Y474871D01*
X276327Y475616D01*
X276502Y476494D01*
X276327Y477372D01*
X275830Y478116D01*
X275629Y478250D01*
Y484292D01*
X275520Y484836D01*
X275212Y485297D01*
X273614Y486895D01*
X273708Y487070D01*
Y489081D01*
X271696D01*
X271522Y488988D01*
X227421Y533089D01*
Y561676D01*
X227522Y561759D01*
X228188Y561662D01*
X228378Y561378D01*
X229122Y560881D01*
X230000Y560706D01*
X230878Y560881D01*
X231622Y561378D01*
X232119Y562122D01*
X232294Y563000D01*
X232119Y563878D01*
X232023Y564022D01*
Y585633D01*
X232523Y585785D01*
X232628Y585628D01*
X233372Y585131D01*
X234250Y584956D01*
X235128Y585131D01*
X235872Y585628D01*
X236369Y586372D01*
X236544Y587250D01*
X236497Y587487D01*
X268470Y619461D01*
X283401D01*
X283535Y619260D01*
X284279Y618762D01*
X285157Y618588D01*
X286035Y618762D01*
X286780Y619260D01*
X287277Y620004D01*
X287452Y620882D01*
X287277Y621760D01*
X286798Y622477D01*
X286858Y622762D01*
X286923Y622977D01*
X288162D01*
X290347Y620792D01*
X290381Y620622D01*
X290878Y619878D01*
X291622Y619381D01*
X292500Y619206D01*
X293378Y619381D01*
X294122Y619878D01*
X294619Y620622D01*
X294794Y621500D01*
X294619Y622378D01*
X294122Y623122D01*
X293378Y623619D01*
X293208Y623653D01*
X290431Y626431D01*
X289774Y626869D01*
X289000Y627023D01*
X262500D01*
X261726Y626869D01*
X261069Y626431D01*
X228569Y593931D01*
X228131Y593274D01*
X227977Y592500D01*
Y588923D01*
X227477Y588719D01*
X226878Y589119D01*
X226000Y589294D01*
X225122Y589119D01*
X224421Y588651D01*
X223921Y588770D01*
Y592636D01*
X282154Y650869D01*
X282686Y650694D01*
X282722Y650456D01*
X276495Y644229D01*
X276187Y643768D01*
X276079Y643224D01*
Y642757D01*
X275878Y642622D01*
X275380Y641878D01*
X275206Y641000D01*
X275380Y640122D01*
X275878Y639378D01*
X276622Y638881D01*
X277500Y638706D01*
X278378Y638881D01*
X279122Y639378D01*
X279620Y640122D01*
X279794Y641000D01*
X279620Y641878D01*
X279122Y642622D01*
X279103Y642818D01*
X282427Y646142D01*
X282868Y645906D01*
X282863Y645882D01*
X283038Y645004D01*
X283535Y644260D01*
X284279Y643762D01*
X285157Y643588D01*
X285395Y643635D01*
X288534Y640495D01*
X288995Y640187D01*
X289539Y640079D01*
X335500D01*
X336044Y640187D01*
X336505Y640495D01*
X351408Y655398D01*
X351886Y655253D01*
X351936Y655004D01*
X352433Y654260D01*
X353177Y653762D01*
X353347Y653728D01*
X365774Y641302D01*
X365784Y641295D01*
Y631793D01*
X338743Y604753D01*
X338435Y604292D01*
X338327Y603748D01*
Y587858D01*
X334870D01*
Y604860D01*
X353763Y623753D01*
X354000Y623706D01*
X354878Y623881D01*
X355622Y624378D01*
X356119Y625122D01*
X356294Y626000D01*
X356119Y626878D01*
X355622Y627622D01*
X354878Y628119D01*
X354000Y628294D01*
X353122Y628119D01*
X352378Y627622D01*
X351881Y626878D01*
X351706Y626000D01*
X351753Y625763D01*
X332444Y606454D01*
X332220Y606119D01*
X331720Y606270D01*
Y609211D01*
X340763Y618253D01*
X341000Y618206D01*
X341878Y618381D01*
X342622Y618878D01*
X343120Y619622D01*
X343294Y620500D01*
X343120Y621378D01*
X342622Y622122D01*
X341878Y622619D01*
X341000Y622794D01*
X340122Y622619D01*
X339378Y622122D01*
X338880Y621378D01*
X338706Y620500D01*
X338753Y620263D01*
X329294Y610804D01*
X328986Y610343D01*
X328878Y609799D01*
Y605552D01*
X328378Y605285D01*
X327878Y605619D01*
X327000Y605794D01*
X326122Y605619D01*
X325378Y605122D01*
X324881Y604378D01*
X324706Y603500D01*
X324881Y602622D01*
X325378Y601878D01*
X325579Y601743D01*
Y596545D01*
X325079Y596394D01*
X325005Y596505D01*
X310247Y611263D01*
X310294Y611500D01*
X310120Y612378D01*
X309622Y613122D01*
X308878Y613619D01*
X308000Y613794D01*
X307122Y613619D01*
X306378Y613122D01*
X305880Y612378D01*
X305706Y611500D01*
X305880Y610622D01*
X306378Y609878D01*
X307122Y609381D01*
X308000Y609206D01*
X308237Y609253D01*
X322579Y594911D01*
Y592971D01*
X322079Y592819D01*
X321855Y593154D01*
X304421Y610589D01*
Y630743D01*
X304622Y630878D01*
X305119Y631622D01*
X305195Y632000D01*
X300805D01*
X300881Y631622D01*
X301378Y630878D01*
X301579Y630743D01*
Y626770D01*
X301079Y626651D01*
X300378Y627119D01*
X299500Y627294D01*
X299263Y627247D01*
X294505Y632005D01*
X294044Y632313D01*
X293500Y632421D01*
X268257D01*
X268122Y632622D01*
X267378Y633119D01*
X266500Y633294D01*
X265622Y633119D01*
X264878Y632622D01*
X264381Y631878D01*
X264206Y631000D01*
X264381Y630122D01*
X264878Y629378D01*
X265622Y628881D01*
X266500Y628706D01*
X267378Y628881D01*
X268122Y629378D01*
X268257Y629579D01*
X292911D01*
X297253Y625237D01*
X297206Y625000D01*
X297380Y624122D01*
X297477Y623978D01*
Y596523D01*
X292000D01*
X291226Y596369D01*
X290569Y595931D01*
X279662Y585023D01*
X277782D01*
X277732Y585523D01*
X278274Y585631D01*
X278931Y586069D01*
X286588Y593727D01*
X287027Y594383D01*
X287180Y595157D01*
Y599860D01*
X287277Y600004D01*
X287452Y600882D01*
X287277Y601760D01*
X286780Y602504D01*
X286035Y603001D01*
X285157Y603176D01*
X284279Y603001D01*
X283535Y602504D01*
X283038Y601760D01*
X282863Y600882D01*
X283038Y600004D01*
X283134Y599860D01*
Y595995D01*
X276662Y589523D01*
X273889D01*
X273742Y590023D01*
X274187Y590690D01*
X274362Y591568D01*
X274187Y592446D01*
X273690Y593190D01*
X273489Y593325D01*
Y596273D01*
X273930Y596509D01*
X274122Y596381D01*
X275000Y596206D01*
X275878Y596381D01*
X276622Y596878D01*
X277119Y597622D01*
X277294Y598500D01*
X277119Y599378D01*
X276622Y600122D01*
X276421Y600257D01*
Y607411D01*
X278470Y609461D01*
X283401D01*
X283535Y609260D01*
X284279Y608762D01*
X285157Y608588D01*
X286035Y608762D01*
X286780Y609260D01*
X287277Y610004D01*
X287452Y610882D01*
X287277Y611760D01*
X286780Y612504D01*
X286035Y613001D01*
X285157Y613176D01*
X284279Y613001D01*
X283535Y612504D01*
X283401Y612303D01*
X277882D01*
X277338Y612195D01*
X276877Y611887D01*
X274207Y609216D01*
X273673Y609389D01*
X273635Y609625D01*
X278470Y614461D01*
X292362D01*
X292496Y614260D01*
X293240Y613762D01*
X294118Y613588D01*
X294996Y613762D01*
X295740Y614260D01*
X296238Y615004D01*
X296412Y615882D01*
X296238Y616760D01*
X295740Y617504D01*
X294996Y618001D01*
X294118Y618176D01*
X293240Y618001D01*
X292496Y617504D01*
X292362Y617303D01*
X277882D01*
X277338Y617195D01*
X276877Y616887D01*
X271063Y611073D01*
X270755Y610612D01*
X270647Y610068D01*
Y593325D01*
X270446Y593190D01*
X269949Y592446D01*
X269774Y591568D01*
X269949Y590690D01*
X270394Y590023D01*
X270247Y589523D01*
X250000D01*
X249226Y589369D01*
X248569Y588931D01*
X239792Y580153D01*
X239622Y580119D01*
X238878Y579622D01*
X238381Y578878D01*
X238206Y578000D01*
X238253Y577763D01*
X236118Y575627D01*
X235810Y575166D01*
X235701Y574622D01*
Y560433D01*
X231791D01*
X231401Y560355D01*
X231070Y560134D01*
X230849Y559804D01*
X230771Y559413D01*
Y557051D01*
X230849Y556661D01*
X231070Y556330D01*
X231401Y556109D01*
X231791Y556032D01*
X235701D01*
Y549879D01*
X235500Y549745D01*
X235003Y549000D01*
X234828Y548122D01*
X235003Y547245D01*
X235500Y546500D01*
X236245Y546003D01*
X237122Y545828D01*
X238000Y546003D01*
X238745Y546500D01*
X238977Y546848D01*
X239477Y546696D01*
Y525000D01*
X239631Y524226D01*
X240069Y523569D01*
X266916Y496723D01*
X267573Y496284D01*
X268347Y496130D01*
X273339D01*
X273483Y496034D01*
X274361Y495859D01*
X275239Y496034D01*
X275983Y496531D01*
X276480Y497275D01*
X276655Y498153D01*
X276480Y499031D01*
X275983Y499775D01*
X275239Y500273D01*
X274361Y500447D01*
X273483Y500273D01*
X273339Y500176D01*
X269185D01*
X243523Y525838D01*
Y552257D01*
X244023Y552409D01*
X244378Y551878D01*
X244579Y551743D01*
Y549000D01*
X244687Y548456D01*
X244995Y547995D01*
X258995Y533995D01*
X259456Y533687D01*
X260000Y533579D01*
X281500D01*
X282044Y533687D01*
X282505Y533995D01*
X299748Y551238D01*
X300291Y551074D01*
X300380Y550622D01*
X300878Y549878D01*
X301622Y549381D01*
X302074Y549291D01*
X302238Y548748D01*
X283495Y530005D01*
X283187Y529544D01*
X283079Y529000D01*
Y522690D01*
X283032Y522453D01*
Y510343D01*
X282831Y510209D01*
X282333Y509465D01*
X282159Y508587D01*
X282333Y507709D01*
X282831Y506964D01*
X283575Y506467D01*
X284453Y506292D01*
X285331Y506467D01*
X285579Y506633D01*
X286079Y506366D01*
Y503497D01*
X284690Y502108D01*
X284453Y502156D01*
X283575Y501981D01*
X282831Y501484D01*
X282333Y500739D01*
X282159Y499862D01*
X282333Y498984D01*
X282831Y498239D01*
X283575Y497742D01*
X284453Y497568D01*
X285331Y497742D01*
X286075Y498239D01*
X286572Y498984D01*
X286747Y499862D01*
X286700Y500099D01*
X288505Y501904D01*
X288579Y502015D01*
X289079Y501863D01*
Y496589D01*
X285512Y493021D01*
X285262Y493188D01*
X284384Y493362D01*
X283507Y493188D01*
X282762Y492691D01*
X282265Y491946D01*
X282090Y491068D01*
X282265Y490190D01*
X282762Y489446D01*
X283507Y488949D01*
X284384Y488774D01*
X285262Y488949D01*
X286007Y489446D01*
X286295Y489878D01*
X286573Y490063D01*
X291505Y494995D01*
X291813Y495456D01*
X291921Y496000D01*
Y525411D01*
X292757Y526247D01*
X292912Y526174D01*
X293169Y525952D01*
X293079Y525500D01*
Y493047D01*
X284690Y484658D01*
X284453Y484706D01*
X283575Y484531D01*
X282831Y484034D01*
X282333Y483289D01*
X282159Y482412D01*
X282333Y481534D01*
X282831Y480789D01*
X283575Y480292D01*
X284453Y480118D01*
X285244Y480275D01*
X285451Y480043D01*
X285539Y479862D01*
X260677Y455001D01*
X260239Y454345D01*
X260085Y453570D01*
Y436822D01*
X259988Y436678D01*
X259813Y435800D01*
X259988Y434922D01*
X260085Y434778D01*
Y431392D01*
X260239Y430618D01*
X260677Y429962D01*
X270069Y420569D01*
X270726Y420131D01*
X271500Y419977D01*
X277478D01*
X277622Y419881D01*
X278500Y419706D01*
X279378Y419881D01*
X280122Y420378D01*
X280620Y421122D01*
X280794Y422000D01*
X280620Y422878D01*
X280122Y423622D01*
X279378Y424119D01*
X278500Y424294D01*
X277622Y424119D01*
X277478Y424023D01*
X272338D01*
X264131Y432230D01*
Y434778D01*
X264227Y434922D01*
X264402Y435800D01*
X264227Y436678D01*
X264131Y436822D01*
Y452732D01*
X291657Y480258D01*
X291827Y480292D01*
X292571Y480789D01*
X293068Y481534D01*
X293102Y481704D01*
X296875Y485477D01*
X311978D01*
X312122Y485381D01*
X313000Y485206D01*
X313878Y485381D01*
X314622Y485878D01*
X315120Y486622D01*
X315294Y487500D01*
X315120Y488378D01*
X314622Y489122D01*
X313878Y489619D01*
X313000Y489794D01*
X312122Y489619D01*
X311978Y489523D01*
X296037D01*
X295263Y489369D01*
X294607Y488931D01*
X290241Y484565D01*
X290071Y484531D01*
X289327Y484034D01*
X288829Y483289D01*
X288795Y483119D01*
X287002Y481326D01*
X286822Y481413D01*
X286590Y481621D01*
X286747Y482412D01*
X286700Y482649D01*
X295505Y491454D01*
X295813Y491915D01*
X295921Y492459D01*
Y524911D01*
X325089Y554079D01*
X329319D01*
X329554Y553638D01*
X329380Y553378D01*
X329206Y552500D01*
X329380Y551622D01*
X329878Y550878D01*
X330622Y550381D01*
X330792Y550347D01*
X332069Y549069D01*
X332726Y548631D01*
X333500Y548477D01*
X380088D01*
X380863Y548631D01*
X381519Y549069D01*
X382708Y550258D01*
X382878Y550292D01*
X383622Y550789D01*
X384120Y551534D01*
X384294Y552412D01*
X384120Y553290D01*
X383622Y554034D01*
X382878Y554531D01*
X382000Y554706D01*
X381122Y554531D01*
X380378Y554034D01*
X379880Y553290D01*
X379847Y553119D01*
X379250Y552523D01*
X334338D01*
X333695Y553166D01*
X333663Y553420D01*
X334130Y553709D01*
X334622Y553381D01*
X335500Y553206D01*
X336378Y553381D01*
X337122Y553878D01*
X337619Y554622D01*
X337794Y555500D01*
X337650Y556223D01*
X337945Y556723D01*
X340261D01*
X340381Y556122D01*
X340878Y555378D01*
X341622Y554881D01*
X342500Y554706D01*
X343378Y554881D01*
X344122Y555378D01*
X344619Y556122D01*
X344794Y557000D01*
X344619Y557878D01*
X344151Y558579D01*
X344270Y559079D01*
X355243D01*
X355378Y558878D01*
X356122Y558381D01*
X357000Y558206D01*
X357878Y558381D01*
X358622Y558878D01*
X359120Y559622D01*
X359294Y560500D01*
X359120Y561378D01*
X358946Y561638D01*
X359181Y562079D01*
X375141D01*
X375206Y562000D01*
X375380Y561122D01*
X375878Y560378D01*
X376622Y559881D01*
X377500Y559706D01*
X378378Y559881D01*
X379122Y560378D01*
X379620Y561122D01*
X379794Y562000D01*
X379620Y562878D01*
X379122Y563622D01*
X378378Y564119D01*
X377500Y564294D01*
X377263Y564247D01*
X377005Y564505D01*
X376544Y564813D01*
X376000Y564921D01*
X335638D01*
X335431Y565421D01*
X337603Y567594D01*
X337911Y568055D01*
X337929Y568142D01*
X342398D01*
Y578000D01*
Y587858D01*
X341169D01*
Y603159D01*
X347257Y609247D01*
X347412Y609174D01*
X347669Y608952D01*
X347579Y608500D01*
Y593000D01*
X347687Y592456D01*
X347995Y591995D01*
X354995Y584995D01*
X355456Y584687D01*
X356000Y584579D01*
X358743D01*
X358878Y584378D01*
X359622Y583881D01*
X360500Y583706D01*
X361378Y583881D01*
X362122Y584378D01*
X362257Y584579D01*
X367911D01*
X392579Y559911D01*
Y514089D01*
X382323Y503833D01*
X364268D01*
X364134Y504034D01*
X363390Y504531D01*
X362512Y504706D01*
X361634Y504531D01*
X360890Y504034D01*
X360755Y503833D01*
X344912D01*
X344368Y503724D01*
X343907Y503416D01*
X304411Y463921D01*
X287500D01*
X286956Y463813D01*
X286495Y463505D01*
X270968Y447977D01*
X270660Y447516D01*
X270552Y446973D01*
Y437557D01*
X270350Y437422D01*
X269853Y436678D01*
X269678Y435800D01*
X269853Y434922D01*
X270350Y434178D01*
X271095Y433681D01*
X271973Y433506D01*
X272850Y433681D01*
X273595Y434178D01*
X273729Y434379D01*
X280611D01*
X321640Y393351D01*
Y359290D01*
X321439Y359156D01*
X320941Y358412D01*
X320767Y357534D01*
X320772Y357509D01*
X320331Y357274D01*
X319921Y357683D01*
Y392500D01*
X319813Y393044D01*
X319505Y393505D01*
X283205Y429805D01*
X282744Y430113D01*
X282200Y430221D01*
X273729D01*
X273595Y430422D01*
X272850Y430919D01*
X271973Y431094D01*
X271735Y431047D01*
X268921Y433861D01*
Y450911D01*
X292089Y474079D01*
X305743D01*
X305878Y473878D01*
X306622Y473381D01*
X307500Y473206D01*
X308378Y473381D01*
X309122Y473878D01*
X309619Y474622D01*
X309794Y475500D01*
X309619Y476378D01*
X309122Y477122D01*
X308378Y477619D01*
X307500Y477794D01*
X306622Y477619D01*
X305878Y477122D01*
X305743Y476921D01*
X291500D01*
X290956Y476813D01*
X290495Y476505D01*
X266495Y452505D01*
X266187Y452044D01*
X266079Y451500D01*
Y433273D01*
X266187Y432729D01*
X266495Y432268D01*
X269726Y429037D01*
X269678Y428800D01*
X269853Y427922D01*
X270350Y427178D01*
X271095Y426681D01*
X271973Y426506D01*
X272850Y426681D01*
X273595Y427178D01*
X273729Y427379D01*
X281611D01*
X317079Y391911D01*
Y357094D01*
X317187Y356551D01*
X317495Y356090D01*
X320851Y352733D01*
X320804Y352496D01*
X320979Y351618D01*
X321476Y350874D01*
X322220Y350377D01*
X323098Y350202D01*
X323976Y350377D01*
X324721Y350874D01*
X325218Y351618D01*
X325393Y352496D01*
X325218Y353374D01*
X324721Y354118D01*
X323976Y354615D01*
X323231Y354764D01*
Y355274D01*
X323939Y355414D01*
X324683Y355912D01*
X325180Y356656D01*
X325355Y357534D01*
X325180Y358412D01*
X324683Y359156D01*
X324482Y359290D01*
Y393939D01*
X324374Y394483D01*
X324065Y394944D01*
X282205Y436805D01*
X281744Y437113D01*
X281200Y437221D01*
X273729D01*
X273595Y437422D01*
X273394Y437557D01*
Y446384D01*
X288089Y461079D01*
X305000D01*
X305544Y461187D01*
X306005Y461495D01*
X345500Y500991D01*
X360755D01*
X360890Y500789D01*
X361634Y500292D01*
X362512Y500117D01*
X363390Y500292D01*
X364134Y500789D01*
X364268Y500991D01*
X382912D01*
X383455Y501099D01*
X383916Y501407D01*
X395005Y512495D01*
X395313Y512956D01*
X395421Y513500D01*
Y560500D01*
X395313Y561044D01*
X395005Y561505D01*
X369505Y587005D01*
X369044Y587313D01*
X368500Y587421D01*
X362257D01*
X362122Y587622D01*
X361378Y588119D01*
X360500Y588294D01*
X359622Y588119D01*
X358878Y587622D01*
X358743Y587421D01*
X356589D01*
X350421Y593589D01*
Y607911D01*
X351851Y609342D01*
X352405Y609302D01*
X352433Y609260D01*
X353177Y608762D01*
X353809Y608637D01*
Y608127D01*
X353177Y608001D01*
X352433Y607504D01*
X351936Y606760D01*
X351761Y605882D01*
X351936Y605004D01*
X352433Y604260D01*
X353177Y603762D01*
X353809Y603637D01*
Y603127D01*
X353177Y603001D01*
X352433Y602504D01*
X351936Y601760D01*
X351761Y600882D01*
X351936Y600004D01*
X352433Y599260D01*
X353177Y598762D01*
X354055Y598588D01*
X354933Y598762D01*
X355677Y599260D01*
X355812Y599461D01*
X360030D01*
X397579Y561911D01*
Y508089D01*
X375911Y486421D01*
X362000D01*
X361456Y486313D01*
X360995Y486005D01*
X353700Y478710D01*
X353392Y478249D01*
X353284Y477705D01*
Y462201D01*
X353083Y462067D01*
X352586Y461322D01*
X352411Y460444D01*
X352586Y459566D01*
X353083Y458822D01*
X353827Y458325D01*
X354705Y458150D01*
X355583Y458325D01*
X356327Y458822D01*
X356824Y459566D01*
X356999Y460444D01*
X356824Y461322D01*
X356327Y462067D01*
X356126Y462201D01*
Y477116D01*
X362589Y483579D01*
X376500D01*
X377044Y483687D01*
X377505Y483995D01*
X400005Y506495D01*
X400313Y506956D01*
X400421Y507500D01*
X400421Y507500D01*
Y562500D01*
X400313Y563044D01*
X400005Y563505D01*
X361623Y601887D01*
X361162Y602195D01*
X360618Y602303D01*
X355812D01*
X355677Y602504D01*
X354933Y603001D01*
X354302Y603127D01*
Y603637D01*
X354933Y603762D01*
X355677Y604260D01*
X355812Y604461D01*
X361530D01*
X402079Y563911D01*
Y503589D01*
X380411Y481921D01*
X362500D01*
X361956Y481813D01*
X361495Y481505D01*
X357995Y478005D01*
X357687Y477544D01*
X357579Y477000D01*
Y466257D01*
X357378Y466122D01*
X356880Y465378D01*
X356706Y464500D01*
X356880Y463622D01*
X357378Y462878D01*
X358122Y462381D01*
X359000Y462206D01*
X359878Y462381D01*
X360622Y462878D01*
X361120Y463622D01*
X361294Y464500D01*
X361120Y465378D01*
X360622Y466122D01*
X360421Y466257D01*
Y470647D01*
X360563Y470690D01*
X360921Y470768D01*
X361634Y470292D01*
X362512Y470118D01*
X363390Y470292D01*
X363534Y470389D01*
X381412D01*
X382186Y470542D01*
X382842Y470981D01*
X410431Y498569D01*
X410869Y499226D01*
X411023Y500000D01*
Y566000D01*
X410869Y566774D01*
X410431Y567431D01*
X374523Y603338D01*
Y630162D01*
X380838Y636477D01*
X386478D01*
X386622Y636381D01*
X387500Y636206D01*
X388378Y636381D01*
X389122Y636878D01*
X389619Y637622D01*
X389794Y638500D01*
X389619Y639378D01*
X389122Y640122D01*
X388992Y640209D01*
X389144Y640709D01*
X399359D01*
X399377Y640622D01*
X399874Y639878D01*
X400059Y639754D01*
Y612020D01*
X400168Y611476D01*
X400476Y611015D01*
X415079Y596411D01*
Y572270D01*
X414579Y572151D01*
X413878Y572619D01*
X413708Y572653D01*
X390153Y596208D01*
X390120Y596378D01*
X389622Y597122D01*
X388878Y597619D01*
X388000Y597794D01*
X387122Y597619D01*
X386378Y597122D01*
X385880Y596378D01*
X385706Y595500D01*
X385880Y594622D01*
X386378Y593878D01*
X387122Y593381D01*
X387292Y593347D01*
X410847Y569792D01*
X410881Y569622D01*
X411378Y568878D01*
X412122Y568381D01*
X413000Y568206D01*
X413878Y568381D01*
X414579Y568849D01*
X415079Y568730D01*
Y498589D01*
X371911Y455421D01*
X297500D01*
X296956Y455313D01*
X296495Y455005D01*
X290237Y448747D01*
X290000Y448794D01*
X289122Y448619D01*
X288378Y448122D01*
X287880Y447378D01*
X287706Y446500D01*
X287880Y445622D01*
X288378Y444878D01*
X289122Y444381D01*
X290000Y444206D01*
X290878Y444381D01*
X291622Y444878D01*
X292120Y445622D01*
X292294Y446500D01*
X292247Y446737D01*
X298089Y452579D01*
X372500D01*
X373044Y452687D01*
X373505Y452995D01*
X417505Y496995D01*
X417813Y497456D01*
X417921Y498000D01*
Y597000D01*
X417813Y597544D01*
X417505Y598005D01*
X402901Y612608D01*
Y639733D01*
X403118Y639878D01*
X403616Y640622D01*
X403790Y641500D01*
X403616Y642378D01*
X403118Y643122D01*
X402374Y643619D01*
X402204Y643653D01*
X401694Y644163D01*
X401038Y644601D01*
X400264Y644755D01*
X368043D01*
X356208Y656590D01*
X356175Y656760D01*
X355677Y657504D01*
X355565Y657579D01*
X355717Y658079D01*
X370411D01*
X375995Y652495D01*
X376456Y652187D01*
X377000Y652079D01*
X383650D01*
X384193Y652187D01*
X384654Y652495D01*
X387435Y655276D01*
X390575D01*
Y660425D01*
X385425D01*
Y657285D01*
X383061Y654921D01*
X381426D01*
X381075Y655276D01*
Y660425D01*
X377935D01*
X377588Y660772D01*
X377595Y661469D01*
X377622Y661495D01*
X378500Y661320D01*
X379378Y661495D01*
X379498Y661575D01*
X381075D01*
Y666724D01*
X375925D01*
Y663088D01*
X375463Y662897D01*
X375355Y663005D01*
X374894Y663313D01*
X374350Y663421D01*
X355322D01*
X355171Y663921D01*
X355677Y664260D01*
X356175Y665004D01*
X356250Y665382D01*
X351861D01*
X351936Y665004D01*
X352433Y664260D01*
X352940Y663921D01*
X352788Y663421D01*
X351500D01*
X350956Y663313D01*
X350495Y663005D01*
X338844Y651354D01*
X338456Y651673D01*
X338738Y652095D01*
X338892Y652869D01*
Y653504D01*
X339247D01*
Y656250D01*
X350575Y667579D01*
X351882D01*
X352149Y667079D01*
X351936Y666760D01*
X351861Y666382D01*
X356250D01*
X356175Y666760D01*
X355961Y667079D01*
X356229Y667579D01*
X389911D01*
X390266Y667224D01*
X390059Y666724D01*
X385425D01*
Y661575D01*
X387002D01*
X387122Y661495D01*
X388000Y661320D01*
X388878Y661495D01*
X388998Y661575D01*
X390575D01*
Y666209D01*
X391075Y666416D01*
X394579Y662911D01*
Y659257D01*
X394378Y659122D01*
X393881Y658378D01*
X393706Y657500D01*
X393881Y656622D01*
X394378Y655878D01*
X395122Y655381D01*
X396000Y655206D01*
X396878Y655381D01*
X397622Y655878D01*
X398119Y656622D01*
X398294Y657500D01*
X398119Y658378D01*
X397622Y659122D01*
X397421Y659257D01*
Y663500D01*
X397313Y664044D01*
X397005Y664505D01*
X391505Y670005D01*
X391044Y670313D01*
X390500Y670421D01*
D02*
G37*
G36*
X269779Y662213D02*
X266622D01*
Y653445D01*
X269779D01*
Y662213D01*
D02*
G37*
G36*
X265622D02*
X262464D01*
Y653445D01*
X265622D01*
Y662213D01*
D02*
G37*
G36*
X247535D02*
X244378D01*
Y653445D01*
X247535D01*
Y662213D01*
D02*
G37*
G36*
X243378D02*
X240220D01*
Y653445D01*
X243378D01*
Y662213D01*
D02*
G37*
G36*
X412430Y666633D02*
X411266D01*
X411168Y666613D01*
X411067D01*
X409926Y666387D01*
X409834Y666348D01*
X409735Y666328D01*
X408660Y665883D01*
X408577Y665828D01*
X408484Y665789D01*
X407517Y665143D01*
X407446Y665072D01*
X407362Y665016D01*
X406540Y664193D01*
X406484Y664110D01*
X406413Y664039D01*
X405767Y663072D01*
X405728Y662979D01*
X405673Y662895D01*
X405227Y661821D01*
X405208Y661722D01*
X405169Y661629D01*
X404942Y660489D01*
Y660388D01*
X404923Y660290D01*
Y659126D01*
X404942Y659028D01*
Y658927D01*
X405169Y657787D01*
X405208Y657694D01*
X405227Y657595D01*
X405673Y656521D01*
X405728Y656437D01*
X405767Y656344D01*
X406413Y655377D01*
X406484Y655306D01*
X406540Y655223D01*
X407362Y654400D01*
X407446Y654344D01*
X407517Y654273D01*
X408484Y653627D01*
X408577Y653588D01*
X408660Y653533D01*
X409735Y653087D01*
X409834Y653068D01*
X409926Y653029D01*
X411067Y652803D01*
X411168D01*
X411266Y652783D01*
X412430D01*
X412528Y652803D01*
X412628D01*
X413769Y653029D01*
X413862Y653068D01*
X413961Y653087D01*
X415035Y653533D01*
X415119Y653588D01*
X415212Y653627D01*
X416179Y654273D01*
X416250Y654344D01*
X416333Y654400D01*
X417156Y655223D01*
X417212Y655306D01*
X417283Y655377D01*
X417929Y656344D01*
X417968Y656437D01*
X418023Y656521D01*
X418468Y657595D01*
X418488Y657694D01*
X418527Y657787D01*
X418753Y658927D01*
Y659028D01*
X418773Y659126D01*
Y660290D01*
X418753Y660388D01*
Y660489D01*
X418527Y661629D01*
X418488Y661722D01*
X418468Y661821D01*
X418023Y662895D01*
X417968Y662979D01*
X417929Y663072D01*
X417283Y664039D01*
X417212Y664110D01*
X417156Y664193D01*
X416333Y665016D01*
X416250Y665072D01*
X416179Y665143D01*
X415212Y665789D01*
X415119Y665828D01*
X415035Y665883D01*
X413961Y666328D01*
X413862Y666348D01*
X413769Y666387D01*
X412628Y666613D01*
X412528D01*
X412430Y666633D01*
D02*
G37*
G36*
X225734Y666633D02*
X224570D01*
X224472Y666613D01*
X224372D01*
X223231Y666387D01*
X223138Y666348D01*
X223039Y666328D01*
X221965Y665883D01*
X221881Y665828D01*
X221788Y665789D01*
X220821Y665143D01*
X220750Y665072D01*
X220667Y665016D01*
X219844Y664193D01*
X219788Y664110D01*
X219717Y664039D01*
X219071Y663072D01*
X219033Y662979D01*
X218977Y662895D01*
X218532Y661821D01*
X218512Y661722D01*
X218474Y661629D01*
X218247Y660489D01*
Y660388D01*
X218227Y660290D01*
Y659126D01*
X218247Y659028D01*
Y658927D01*
X218474Y657787D01*
X218512Y657694D01*
X218532Y657595D01*
X218977Y656521D01*
X219033Y656437D01*
X219071Y656344D01*
X219717Y655377D01*
X219788Y655306D01*
X219844Y655223D01*
X220667Y654400D01*
X220750Y654344D01*
X220821Y654273D01*
X221788Y653627D01*
X221881Y653588D01*
X221965Y653533D01*
X223039Y653087D01*
X223138Y653068D01*
X223231Y653029D01*
X224372Y652803D01*
X224472D01*
X224570Y652783D01*
X225734D01*
X225832Y652803D01*
X225933D01*
X227074Y653029D01*
X227166Y653068D01*
X227265Y653087D01*
X228340Y653533D01*
X228423Y653588D01*
X228516Y653627D01*
X229483Y654273D01*
X229554Y654344D01*
X229638Y654400D01*
X230460Y655223D01*
X230516Y655306D01*
X230587Y655377D01*
X231233Y656344D01*
X231272Y656437D01*
X231328Y656521D01*
X231773Y657595D01*
X231792Y657694D01*
X231831Y657787D01*
X232058Y658927D01*
Y659028D01*
X232077Y659126D01*
Y660290D01*
X232058Y660388D01*
Y660489D01*
X231831Y661629D01*
X231792Y661722D01*
X231773Y661821D01*
X231328Y662895D01*
X231272Y662979D01*
X231233Y663072D01*
X230587Y664039D01*
X230516Y664110D01*
X230460Y664193D01*
X229638Y665016D01*
X229554Y665072D01*
X229483Y665143D01*
X228516Y665789D01*
X228423Y665828D01*
X228340Y665883D01*
X227265Y666328D01*
X227166Y666348D01*
X227074Y666387D01*
X225933Y666613D01*
X225832D01*
X225734Y666633D01*
D02*
G37*
G36*
X394516Y650179D02*
Y648484D01*
X396210D01*
X396135Y648862D01*
X395638Y649607D01*
X394894Y650104D01*
X394516Y650179D01*
D02*
G37*
G36*
X393516D02*
X393138Y650104D01*
X392393Y649607D01*
X391896Y648862D01*
X391821Y648484D01*
X393516D01*
Y650179D01*
D02*
G37*
G36*
X396210Y647484D02*
X394516D01*
Y645790D01*
X394894Y645865D01*
X395638Y646362D01*
X396135Y647106D01*
X396210Y647484D01*
D02*
G37*
G36*
X393516D02*
X391821D01*
X391896Y647106D01*
X392393Y646362D01*
X393138Y645865D01*
X393516Y645790D01*
Y647484D01*
D02*
G37*
G36*
X415326Y648934D02*
X414448Y648818D01*
X413630Y648480D01*
X412928Y647940D01*
X412389Y647238D01*
X412050Y646420D01*
X411934Y645543D01*
X412050Y644665D01*
X412389Y643847D01*
X412928Y643145D01*
X413630Y642606D01*
X414448Y642267D01*
X415326Y642151D01*
X416203Y642267D01*
X417021Y642606D01*
X417724Y643145D01*
X418262Y643847D01*
X418601Y644665D01*
X418717Y645543D01*
X418601Y646420D01*
X418262Y647238D01*
X417724Y647940D01*
X417021Y648480D01*
X416203Y648818D01*
X415326Y648934D01*
D02*
G37*
G36*
X222019D02*
X221141Y648818D01*
X220323Y648480D01*
X219621Y647940D01*
X219082Y647238D01*
X218743Y646420D01*
X218627Y645543D01*
X218743Y644665D01*
X219082Y643847D01*
X219621Y643145D01*
X220323Y642606D01*
X221141Y642267D01*
X222019Y642151D01*
X222896Y642267D01*
X223714Y642606D01*
X224417Y643145D01*
X224956Y643847D01*
X225294Y644665D01*
X225410Y645543D01*
X225294Y646420D01*
X224956Y647238D01*
X224417Y647940D01*
X223714Y648480D01*
X222896Y648818D01*
X222019Y648934D01*
D02*
G37*
G36*
X326012Y637683D02*
Y635988D01*
X327706D01*
X327631Y636366D01*
X327134Y637110D01*
X326390Y637608D01*
X326012Y637683D01*
D02*
G37*
G36*
X325012D02*
X324634Y637608D01*
X323890Y637110D01*
X323392Y636366D01*
X323317Y635988D01*
X325012D01*
Y637683D01*
D02*
G37*
G36*
X327706Y634988D02*
X326012D01*
Y633294D01*
X326390Y633369D01*
X327134Y633866D01*
X327631Y634610D01*
X327706Y634988D01*
D02*
G37*
G36*
X325012D02*
X323317D01*
X323392Y634610D01*
X323890Y633866D01*
X324634Y633369D01*
X325012Y633294D01*
Y634988D01*
D02*
G37*
G36*
X303500Y634695D02*
Y633000D01*
X305195D01*
X305119Y633378D01*
X304622Y634122D01*
X303878Y634619D01*
X303500Y634695D01*
D02*
G37*
G36*
X302500D02*
X302122Y634619D01*
X301378Y634122D01*
X300881Y633378D01*
X300805Y633000D01*
X302500D01*
Y634695D01*
D02*
G37*
G36*
X221500Y625424D02*
X220572Y625240D01*
X219786Y624714D01*
X219260Y623928D01*
X219075Y623000D01*
X219260Y622072D01*
X219786Y621286D01*
X220572Y620760D01*
X221500Y620576D01*
X222428Y620760D01*
X223214Y621286D01*
X223740Y622072D01*
X223924Y623000D01*
X223740Y623928D01*
X223214Y624714D01*
X222428Y625240D01*
X221500Y625424D01*
D02*
G37*
G36*
X415469Y621684D02*
X414541Y621500D01*
X413754Y620974D01*
X413229Y620188D01*
X413044Y619260D01*
X413229Y618332D01*
X413754Y617545D01*
X414541Y617020D01*
X415469Y616835D01*
X416396Y617020D01*
X417183Y617545D01*
X417709Y618332D01*
X417893Y619260D01*
X417709Y620188D01*
X417183Y620974D01*
X416396Y621500D01*
X415469Y621684D01*
D02*
G37*
G36*
X221531Y616275D02*
X220604Y616090D01*
X219817Y615565D01*
X219291Y614778D01*
X219107Y613850D01*
X219291Y612923D01*
X219817Y612136D01*
X220604Y611610D01*
X221531Y611426D01*
X222459Y611610D01*
X223246Y612136D01*
X223771Y612923D01*
X223956Y613850D01*
X223771Y614778D01*
X223246Y615565D01*
X222459Y616090D01*
X221531Y616275D01*
D02*
G37*
G36*
X415500Y612535D02*
X414572Y612350D01*
X413786Y611825D01*
X413260Y611038D01*
X413075Y610110D01*
X413260Y609182D01*
X413786Y608396D01*
X414572Y607870D01*
X415500Y607686D01*
X416428Y607870D01*
X417214Y608396D01*
X417740Y609182D01*
X417924Y610110D01*
X417740Y611038D01*
X417214Y611825D01*
X416428Y612350D01*
X415500Y612535D01*
D02*
G37*
G36*
X392000Y617294D02*
X391122Y617119D01*
X390378Y616622D01*
X389880Y615878D01*
X389706Y615000D01*
X389880Y614122D01*
X390378Y613378D01*
X391122Y612881D01*
X391292Y612847D01*
X401477Y602662D01*
Y599522D01*
X401380Y599378D01*
X401206Y598500D01*
X401380Y597622D01*
X401878Y596878D01*
X402622Y596381D01*
X403500Y596206D01*
X404378Y596381D01*
X405122Y596878D01*
X405619Y597622D01*
X405794Y598500D01*
X405619Y599378D01*
X405523Y599522D01*
Y603500D01*
X405369Y604274D01*
X404931Y604931D01*
X394153Y615708D01*
X394120Y615878D01*
X393622Y616622D01*
X392878Y617119D01*
X392000Y617294D01*
D02*
G37*
G36*
X351000Y586695D02*
Y585000D01*
X352695D01*
X352620Y585378D01*
X352122Y586122D01*
X351378Y586619D01*
X351000Y586695D01*
D02*
G37*
G36*
X393500Y608794D02*
X392622Y608619D01*
X391878Y608122D01*
X391381Y607378D01*
X391206Y606500D01*
X391381Y605622D01*
X391477Y605478D01*
Y600000D01*
X391631Y599226D01*
X392069Y598569D01*
X405847Y584792D01*
X405880Y584622D01*
X406378Y583878D01*
X407122Y583381D01*
X408000Y583206D01*
X408878Y583381D01*
X409622Y583878D01*
X410119Y584622D01*
X410294Y585500D01*
X410119Y586378D01*
X409622Y587122D01*
X408878Y587619D01*
X408708Y587653D01*
X395523Y600838D01*
Y605478D01*
X395620Y605622D01*
X395794Y606500D01*
X395620Y607378D01*
X395122Y608122D01*
X394378Y608619D01*
X393500Y608794D01*
D02*
G37*
G36*
X352695Y584000D02*
X351000D01*
Y582305D01*
X351378Y582381D01*
X352122Y582878D01*
X352620Y583622D01*
X352695Y584000D01*
D02*
G37*
G36*
X344685Y587858D02*
X343398D01*
Y578500D01*
X344685D01*
Y583079D01*
X348743D01*
X348878Y582878D01*
X349622Y582381D01*
X350000Y582305D01*
Y584500D01*
Y586695D01*
X349622Y586619D01*
X348878Y586122D01*
X348743Y585921D01*
X344685D01*
Y587858D01*
D02*
G37*
G36*
Y577500D02*
X343398D01*
Y568142D01*
X344685D01*
Y577500D01*
D02*
G37*
G36*
X332000Y547294D02*
X331122Y547119D01*
X330378Y546622D01*
X329880Y545878D01*
X329706Y545000D01*
X329880Y544122D01*
X330378Y543378D01*
X331122Y542881D01*
X332000Y542706D01*
X332878Y542881D01*
X333022Y542977D01*
X378574D01*
X379847Y541704D01*
X379880Y541534D01*
X380378Y540789D01*
X381122Y540292D01*
X382000Y540118D01*
X382878Y540292D01*
X383622Y540789D01*
X384120Y541534D01*
X384294Y542412D01*
X384120Y543290D01*
X383622Y544034D01*
X382878Y544531D01*
X382708Y544565D01*
X380842Y546431D01*
X380186Y546869D01*
X379412Y547023D01*
X333022D01*
X332878Y547119D01*
X332000Y547294D01*
D02*
G37*
G36*
X331500Y540794D02*
X330622Y540619D01*
X329878Y540122D01*
X329380Y539378D01*
X329206Y538500D01*
X329380Y537622D01*
X329878Y536878D01*
X330622Y536381D01*
X331500Y536206D01*
X332378Y536381D01*
X332522Y536477D01*
X375074D01*
X379847Y531704D01*
X379880Y531534D01*
X380378Y530789D01*
X381122Y530292D01*
X382000Y530118D01*
X382878Y530292D01*
X383622Y530789D01*
X384120Y531534D01*
X384294Y532412D01*
X384120Y533289D01*
X383622Y534034D01*
X382878Y534531D01*
X382708Y534565D01*
X377342Y539931D01*
X376686Y540369D01*
X375912Y540523D01*
X332522D01*
X332378Y540619D01*
X331500Y540794D01*
D02*
G37*
G36*
X320000Y529294D02*
X319122Y529119D01*
X318378Y528622D01*
X318243Y528421D01*
X305750D01*
X305206Y528313D01*
X304745Y528005D01*
X301237Y524497D01*
X301000Y524544D01*
X300122Y524369D01*
X299378Y523872D01*
X298881Y523128D01*
X298706Y522250D01*
X298881Y521372D01*
X299378Y520628D01*
X300122Y520131D01*
X301000Y519956D01*
X301878Y520131D01*
X302622Y520628D01*
X303119Y521372D01*
X303294Y522250D01*
X303247Y522487D01*
X306339Y525579D01*
X318243D01*
X318378Y525378D01*
X319122Y524881D01*
X320000Y524706D01*
X320878Y524881D01*
X321622Y525378D01*
X322119Y526122D01*
X322294Y527000D01*
X322119Y527878D01*
X321622Y528622D01*
X320878Y529119D01*
X320000Y529294D01*
D02*
G37*
G36*
X331500Y533794D02*
X330622Y533619D01*
X329878Y533122D01*
X329380Y532378D01*
X329206Y531500D01*
X329380Y530622D01*
X329878Y529878D01*
X330622Y529381D01*
X331500Y529206D01*
X332378Y529381D01*
X332522Y529477D01*
X372074D01*
X379847Y521704D01*
X379880Y521534D01*
X380378Y520789D01*
X381122Y520292D01*
X382000Y520118D01*
X382878Y520292D01*
X383622Y520789D01*
X384120Y521534D01*
X384294Y522412D01*
X384120Y523289D01*
X383622Y524034D01*
X382878Y524531D01*
X382708Y524565D01*
X374342Y532931D01*
X373686Y533369D01*
X372912Y533523D01*
X332522D01*
X332378Y533619D01*
X331500Y533794D01*
D02*
G37*
G36*
X362500Y579794D02*
X361622Y579619D01*
X360878Y579122D01*
X360381Y578378D01*
X360206Y577500D01*
X360381Y576622D01*
X360878Y575878D01*
X361622Y575381D01*
X362500Y575206D01*
X363378Y575381D01*
X363522Y575477D01*
X368662D01*
X385977Y558162D01*
Y516838D01*
X383574Y514435D01*
X363534D01*
X363390Y514531D01*
X362512Y514706D01*
X361634Y514531D01*
X360890Y514034D01*
X360392Y513289D01*
X360218Y512412D01*
X360392Y511534D01*
X360890Y510789D01*
X361634Y510292D01*
X362512Y510117D01*
X363390Y510292D01*
X363534Y510389D01*
X384412D01*
X385186Y510542D01*
X385842Y510981D01*
X389431Y514569D01*
X389869Y515226D01*
X390023Y516000D01*
Y559000D01*
X389869Y559774D01*
X389431Y560431D01*
X370931Y578931D01*
X370274Y579369D01*
X369500Y579523D01*
X363522D01*
X363378Y579619D01*
X362500Y579794D01*
D02*
G37*
G36*
X363012Y494606D02*
Y492912D01*
X364706D01*
X364631Y493290D01*
X364134Y494034D01*
X363390Y494531D01*
X363012Y494606D01*
D02*
G37*
G36*
X362012D02*
X361634Y494531D01*
X360890Y494034D01*
X360392Y493290D01*
X360317Y492912D01*
X362012D01*
Y494606D01*
D02*
G37*
G36*
X364706Y491912D02*
X363012D01*
Y490217D01*
X363390Y490292D01*
X364134Y490789D01*
X364631Y491534D01*
X364706Y491912D01*
D02*
G37*
G36*
X362012D02*
X360317D01*
X360392Y491534D01*
X360890Y490789D01*
X361634Y490292D01*
X362012Y490217D01*
Y491912D01*
D02*
G37*
G36*
X274708Y491776D02*
Y490081D01*
X276402D01*
X276327Y490459D01*
X275830Y491203D01*
X275085Y491701D01*
X274708Y491776D01*
D02*
G37*
G36*
X273708D02*
X273330Y491701D01*
X272585Y491203D01*
X272088Y490459D01*
X272013Y490081D01*
X273708D01*
Y491776D01*
D02*
G37*
G36*
X276402Y489081D02*
X274708D01*
Y487387D01*
X275085Y487462D01*
X275830Y487959D01*
X276327Y488703D01*
X276402Y489081D01*
D02*
G37*
G36*
X230953Y486636D02*
X230024Y486514D01*
X229158Y486155D01*
X228415Y485585D01*
X227844Y484841D01*
X227485Y483976D01*
X227363Y483047D01*
X227485Y482118D01*
X227844Y481252D01*
X228415Y480508D01*
X229158Y479938D01*
X230024Y479579D01*
X230953Y479457D01*
X231882Y479579D01*
X232748Y479938D01*
X233491Y480508D01*
X234062Y481252D01*
X234420Y482118D01*
X234543Y483047D01*
X234420Y483976D01*
X234062Y484841D01*
X233491Y485585D01*
X232748Y486155D01*
X231882Y486514D01*
X230953Y486636D01*
D02*
G37*
G36*
X303000Y469794D02*
X302122Y469619D01*
X301978Y469523D01*
X292022D01*
X291878Y469619D01*
X291000Y469794D01*
X290122Y469619D01*
X289378Y469122D01*
X288880Y468378D01*
X288706Y467500D01*
X288880Y466622D01*
X289378Y465878D01*
X290122Y465381D01*
X291000Y465206D01*
X291878Y465381D01*
X292022Y465477D01*
X301978D01*
X302122Y465381D01*
X303000Y465206D01*
X303878Y465381D01*
X304622Y465878D01*
X305119Y466622D01*
X305294Y467500D01*
X305119Y468378D01*
X304622Y469122D01*
X303878Y469619D01*
X303000Y469794D01*
D02*
G37*
G36*
X339500Y460794D02*
X338622Y460619D01*
X338478Y460523D01*
X292500D01*
X291726Y460369D01*
X291069Y459931D01*
X289792Y458653D01*
X289622Y458619D01*
X288878Y458122D01*
X288381Y457378D01*
X288206Y456500D01*
X288381Y455622D01*
X288878Y454878D01*
X289622Y454381D01*
X290500Y454206D01*
X291378Y454381D01*
X292122Y454878D01*
X292619Y455622D01*
X292653Y455792D01*
X293338Y456477D01*
X338478D01*
X338622Y456381D01*
X339500Y456206D01*
X340378Y456381D01*
X341122Y456878D01*
X341619Y457622D01*
X341794Y458500D01*
X341619Y459378D01*
X341122Y460122D01*
X340378Y460619D01*
X339500Y460794D01*
D02*
G37*
G36*
X415500Y451796D02*
X414777Y451700D01*
X414102Y451421D01*
X413523Y450977D01*
X413079Y450398D01*
X412800Y449723D01*
X412704Y449000D01*
X412800Y448277D01*
X413079Y447602D01*
X413523Y447023D01*
X414102Y446579D01*
X414777Y446300D01*
X415500Y446204D01*
X416223Y446300D01*
X416898Y446579D01*
X417477Y447023D01*
X417921Y447602D01*
X418200Y448277D01*
X418296Y449000D01*
X418200Y449723D01*
X417921Y450398D01*
X417477Y450977D01*
X416898Y451421D01*
X416223Y451700D01*
X415500Y451796D01*
D02*
G37*
G36*
X236500Y447794D02*
X235622Y447619D01*
X235478Y447523D01*
X226000D01*
X225226Y447369D01*
X224569Y446931D01*
X220069Y442431D01*
X219631Y441774D01*
X219477Y441000D01*
Y421500D01*
X219631Y420726D01*
X220069Y420069D01*
X224342Y415797D01*
Y379862D01*
X223893Y379641D01*
X223714Y379779D01*
X222896Y380118D01*
X222019Y380233D01*
X221141Y380118D01*
X220323Y379779D01*
X219621Y379240D01*
X219082Y378537D01*
X218743Y377719D01*
X218627Y376842D01*
X218743Y375964D01*
X219082Y375146D01*
X219621Y374444D01*
X220323Y373905D01*
X221141Y373566D01*
X222019Y373451D01*
X222896Y373566D01*
X223714Y373905D01*
X223893Y374043D01*
X224342Y373821D01*
Y359473D01*
X224227Y359300D01*
X224073Y358526D01*
Y339558D01*
X223977Y339413D01*
X223802Y338536D01*
X223977Y337658D01*
X224474Y336913D01*
X225218Y336416D01*
X226096Y336242D01*
X226974Y336416D01*
X227718Y336913D01*
X228216Y337658D01*
X228390Y338536D01*
X228216Y339413D01*
X228119Y339558D01*
Y357849D01*
X228234Y358021D01*
X228388Y358795D01*
Y416635D01*
X228234Y417409D01*
X227796Y418066D01*
X223523Y422338D01*
Y440162D01*
X226838Y443477D01*
X235478D01*
X235622Y443381D01*
X236500Y443206D01*
X237378Y443381D01*
X238122Y443878D01*
X238619Y444622D01*
X238794Y445500D01*
X238619Y446378D01*
X238122Y447122D01*
X237378Y447619D01*
X236500Y447794D01*
D02*
G37*
G36*
X386000Y443294D02*
X385122Y443119D01*
X384978Y443023D01*
X365500D01*
X364726Y442869D01*
X364069Y442431D01*
X355827Y434188D01*
X355389Y433532D01*
X355235Y432758D01*
Y359370D01*
X355138Y359226D01*
X354964Y358348D01*
X355138Y357470D01*
X355636Y356726D01*
X356380Y356228D01*
X357258Y356054D01*
X358136Y356228D01*
X358880Y356726D01*
X359377Y357470D01*
X359552Y358348D01*
X359377Y359226D01*
X359281Y359370D01*
Y431920D01*
X366338Y438977D01*
X384978D01*
X385122Y438881D01*
X386000Y438706D01*
X386878Y438881D01*
X387622Y439378D01*
X388120Y440122D01*
X388294Y441000D01*
X388120Y441878D01*
X387622Y442622D01*
X386878Y443119D01*
X386000Y443294D01*
D02*
G37*
G36*
X242108Y438094D02*
X241230Y437919D01*
X240485Y437422D01*
X239988Y436678D01*
X239862Y436046D01*
X239353D01*
X239227Y436678D01*
X238730Y437422D01*
X237985Y437919D01*
X237108Y438094D01*
X236230Y437919D01*
X235485Y437422D01*
X234988Y436678D01*
X234862Y436046D01*
X234353D01*
X234227Y436678D01*
X233730Y437422D01*
X232985Y437919D01*
X232108Y438094D01*
X231230Y437919D01*
X230485Y437422D01*
X229988Y436678D01*
X229862Y436046D01*
X229353D01*
X229227Y436678D01*
X228730Y437422D01*
X227986Y437919D01*
X227108Y438094D01*
X226230Y437919D01*
X225485Y437422D01*
X224988Y436678D01*
X224814Y435800D01*
X224988Y434922D01*
X225485Y434178D01*
X226230Y433681D01*
X227108Y433506D01*
X227986Y433681D01*
X228730Y434178D01*
X229227Y434922D01*
X229353Y435554D01*
X229862D01*
X229988Y434922D01*
X230485Y434178D01*
X231230Y433681D01*
X232108Y433506D01*
X232985Y433681D01*
X233730Y434178D01*
X234227Y434922D01*
X234353Y435554D01*
X234862D01*
X234988Y434922D01*
X235485Y434178D01*
X236230Y433681D01*
X237108Y433506D01*
X237985Y433681D01*
X238730Y434178D01*
X239227Y434922D01*
X239353Y435554D01*
X239862D01*
X239988Y434922D01*
X240485Y434178D01*
X241230Y433681D01*
X242108Y433506D01*
X242345Y433553D01*
X259579Y416319D01*
Y404189D01*
X259687Y403645D01*
X259995Y403184D01*
X302752Y360427D01*
Y353911D01*
X302290Y353719D01*
X255921Y400089D01*
Y411743D01*
X256122Y411878D01*
X256620Y412622D01*
X256794Y413500D01*
X256620Y414378D01*
X256122Y415122D01*
X255378Y415619D01*
X254500Y415794D01*
X253622Y415619D01*
X252921Y415151D01*
X252421Y415270D01*
Y416000D01*
X252313Y416544D01*
X252005Y417005D01*
X243497Y425513D01*
X243544Y425750D01*
X243370Y426628D01*
X242872Y427372D01*
X242128Y427869D01*
X241250Y428044D01*
X240372Y427869D01*
X239628Y427372D01*
X239130Y426628D01*
X238956Y425750D01*
X239130Y424872D01*
X239628Y424128D01*
X240160Y423772D01*
X240020Y423353D01*
X239981Y423290D01*
X239122Y423119D01*
X238378Y422622D01*
X237880Y421878D01*
X237706Y421000D01*
X237880Y420122D01*
X238378Y419378D01*
X239122Y418881D01*
X240000Y418706D01*
X240237Y418753D01*
X246079Y412911D01*
Y393500D01*
X246187Y392956D01*
X246495Y392495D01*
X264007Y374983D01*
X263761Y374522D01*
X263108Y374652D01*
X262230Y374478D01*
X261485Y373980D01*
X260988Y373236D01*
X260813Y372358D01*
X260988Y371480D01*
X261485Y370736D01*
X261687Y370602D01*
Y369892D01*
X261795Y369349D01*
X262103Y368888D01*
X272753Y358237D01*
X272706Y358000D01*
X272827Y357389D01*
X272367Y357143D01*
X233536Y395974D01*
X233563Y396467D01*
X233730Y396578D01*
X234227Y397322D01*
X234402Y398200D01*
X234227Y399078D01*
X233730Y399822D01*
X232985Y400319D01*
X232108Y400494D01*
X231230Y400319D01*
X230485Y399822D01*
X229988Y399078D01*
X229814Y398200D01*
X229988Y397322D01*
X230485Y396578D01*
X230687Y396443D01*
Y395392D01*
X230795Y394849D01*
X231103Y394388D01*
X257506Y367984D01*
X257260Y367523D01*
X256612Y367652D01*
X255734Y367478D01*
X254989Y366980D01*
X254492Y366236D01*
X254317Y365358D01*
X254492Y364480D01*
X254989Y363736D01*
X255191Y363602D01*
Y348888D01*
X255299Y348345D01*
X255607Y347884D01*
X274753Y328737D01*
X274706Y328500D01*
X274881Y327622D01*
X275378Y326878D01*
X276122Y326380D01*
X277000Y326206D01*
X277878Y326380D01*
X278622Y326878D01*
X279119Y327622D01*
X279294Y328500D01*
X279119Y329378D01*
X278622Y330122D01*
X277878Y330620D01*
X277000Y330794D01*
X276763Y330747D01*
X258033Y349477D01*
Y363602D01*
X258234Y363736D01*
X258731Y364480D01*
X258906Y365358D01*
X258777Y366007D01*
X259238Y366253D01*
X278280Y347210D01*
X278089Y346748D01*
X277563D01*
Y336874D01*
X287437D01*
Y346748D01*
X282762D01*
X274143Y355367D01*
X274389Y355827D01*
X275000Y355706D01*
X275878Y355880D01*
X276622Y356378D01*
X277119Y357122D01*
X277294Y358000D01*
X277119Y358878D01*
X276622Y359622D01*
X275878Y360120D01*
X275000Y360294D01*
X274763Y360247D01*
X264817Y370193D01*
X264730Y370736D01*
X265227Y371480D01*
X265402Y372358D01*
X265272Y373012D01*
X265733Y373258D01*
X298579Y340411D01*
Y311689D01*
X298687Y311145D01*
X298995Y310684D01*
X302752Y306927D01*
Y299063D01*
X312626D01*
Y308937D01*
X304762D01*
X301421Y312278D01*
Y341000D01*
X301313Y341544D01*
X301005Y342005D01*
X248921Y394089D01*
Y413500D01*
X248813Y414044D01*
X248505Y414505D01*
X242247Y420763D01*
X242294Y421000D01*
X242120Y421878D01*
X241622Y422622D01*
X241485Y422714D01*
X241574Y423256D01*
X241689Y423287D01*
X241708Y423282D01*
X249579Y415411D01*
Y396500D01*
X249687Y395956D01*
X249995Y395495D01*
X306268Y339222D01*
Y335937D01*
X302752D01*
Y326063D01*
X312626D01*
Y335937D01*
X309110D01*
Y339811D01*
X309002Y340355D01*
X308694Y340816D01*
X252421Y397089D01*
Y411269D01*
X252921Y411515D01*
X253079Y411393D01*
Y399500D01*
X253187Y398956D01*
X253495Y398495D01*
X311184Y340806D01*
X311645Y340498D01*
X312189Y340390D01*
X350563D01*
Y336874D01*
X360437D01*
Y346748D01*
X350563D01*
Y343232D01*
X312778D01*
X303908Y352101D01*
X304100Y352563D01*
X312626D01*
Y362437D01*
X304762D01*
X262421Y404778D01*
Y416908D01*
X262313Y417451D01*
X262005Y417912D01*
X244355Y435563D01*
X244402Y435800D01*
X244227Y436678D01*
X243730Y437422D01*
X242986Y437919D01*
X242108Y438094D01*
D02*
G37*
G36*
X415500Y439984D02*
X414777Y439888D01*
X414102Y439609D01*
X413523Y439165D01*
X413079Y438586D01*
X412800Y437912D01*
X412704Y437188D01*
X412800Y436465D01*
X413079Y435790D01*
X413523Y435211D01*
X414102Y434767D01*
X414777Y434488D01*
X415500Y434392D01*
X416223Y434488D01*
X416898Y434767D01*
X417477Y435211D01*
X417921Y435790D01*
X418200Y436465D01*
X418296Y437188D01*
X418200Y437912D01*
X417921Y438586D01*
X417477Y439165D01*
X416898Y439609D01*
X416223Y439888D01*
X415500Y439984D01*
D02*
G37*
G36*
X319500Y427695D02*
Y426000D01*
X321195D01*
X321119Y426378D01*
X320622Y427122D01*
X319878Y427619D01*
X319500Y427695D01*
D02*
G37*
G36*
X318500D02*
X318122Y427619D01*
X317378Y427122D01*
X316880Y426378D01*
X316805Y426000D01*
X318500D01*
Y427695D01*
D02*
G37*
G36*
X321195Y425000D02*
X319500D01*
Y423305D01*
X319878Y423381D01*
X320622Y423878D01*
X321119Y424622D01*
X321195Y425000D01*
D02*
G37*
G36*
X318500D02*
X316805D01*
X316880Y424622D01*
X317378Y423878D01*
X318122Y423381D01*
X318500Y423305D01*
Y425000D01*
D02*
G37*
G36*
X278969Y415695D02*
Y414000D01*
X280663D01*
X280588Y414378D01*
X280091Y415122D01*
X279346Y415619D01*
X278969Y415695D01*
D02*
G37*
G36*
X277969D02*
X277591Y415619D01*
X276846Y415122D01*
X276349Y414378D01*
X276274Y414000D01*
X277969D01*
Y415695D01*
D02*
G37*
G36*
X280663Y413000D02*
X278969D01*
Y411305D01*
X279346Y411381D01*
X280091Y411878D01*
X280588Y412622D01*
X280663Y413000D01*
D02*
G37*
G36*
X277969D02*
X276274D01*
X276349Y412622D01*
X276846Y411878D01*
X277591Y411381D01*
X277969Y411305D01*
Y413000D01*
D02*
G37*
G36*
X415547Y404326D02*
X414619Y404142D01*
X413833Y403616D01*
X413307Y402829D01*
X413123Y401902D01*
X413307Y400974D01*
X413833Y400187D01*
X414619Y399662D01*
X415547Y399477D01*
X416475Y399662D01*
X417262Y400187D01*
X417787Y400974D01*
X417972Y401902D01*
X417787Y402829D01*
X417262Y403616D01*
X416475Y404142D01*
X415547Y404326D01*
D02*
G37*
G36*
X415579Y395177D02*
X414651Y394992D01*
X413864Y394466D01*
X413339Y393680D01*
X413154Y392752D01*
X413339Y391824D01*
X413864Y391038D01*
X414651Y390512D01*
X415579Y390327D01*
X416507Y390512D01*
X417293Y391038D01*
X417819Y391824D01*
X418003Y392752D01*
X417819Y393680D01*
X417293Y394466D01*
X416507Y394992D01*
X415579Y395177D01*
D02*
G37*
G36*
X285500Y441794D02*
X284622Y441619D01*
X283878Y441122D01*
X283381Y440378D01*
X283206Y439500D01*
X283381Y438622D01*
X283878Y437878D01*
X284622Y437381D01*
X284792Y437347D01*
X333943Y388195D01*
X334600Y387757D01*
X335374Y387603D01*
X338311D01*
X338455Y387507D01*
X339333Y387332D01*
X340211Y387507D01*
X340955Y388004D01*
X341452Y388748D01*
X341627Y389626D01*
X341452Y390504D01*
X340955Y391248D01*
X340211Y391745D01*
X339333Y391920D01*
X338455Y391745D01*
X338311Y391649D01*
X336212D01*
X287653Y440208D01*
X287619Y440378D01*
X287122Y441122D01*
X286378Y441619D01*
X285500Y441794D01*
D02*
G37*
G36*
X415326Y380233D02*
X414448Y380118D01*
X413630Y379779D01*
X412928Y379240D01*
X412389Y378537D01*
X412050Y377719D01*
X411934Y376842D01*
X412050Y375964D01*
X412389Y375146D01*
X412928Y374444D01*
X413630Y373905D01*
X414448Y373566D01*
X415326Y373451D01*
X416203Y373566D01*
X417021Y373905D01*
X417724Y374444D01*
X418262Y375146D01*
X418601Y375964D01*
X418717Y376842D01*
X418601Y377719D01*
X418262Y378537D01*
X417724Y379240D01*
X417021Y379779D01*
X416203Y380118D01*
X415326Y380233D01*
D02*
G37*
G36*
X248608Y454798D02*
X247730Y454623D01*
X246985Y454126D01*
X246488Y453382D01*
X246314Y452504D01*
X246488Y451626D01*
X246585Y451482D01*
Y437392D01*
X246739Y436618D01*
X247177Y435962D01*
X264477Y418662D01*
Y406000D01*
X264631Y405226D01*
X265069Y404569D01*
X304347Y365292D01*
X304380Y365122D01*
X304878Y364378D01*
X305622Y363880D01*
X306500Y363706D01*
X307378Y363880D01*
X308122Y364378D01*
X308619Y365122D01*
X308794Y366000D01*
X308619Y366878D01*
X308122Y367622D01*
X307378Y368120D01*
X307208Y368153D01*
X268523Y406838D01*
Y419500D01*
X268369Y420274D01*
X267931Y420931D01*
X250631Y438230D01*
Y451482D01*
X250727Y451626D01*
X250902Y452504D01*
X250727Y453382D01*
X250230Y454126D01*
X249485Y454623D01*
X248608Y454798D01*
D02*
G37*
G36*
X336248Y362437D02*
X331811D01*
Y358000D01*
X336248D01*
Y362437D01*
D02*
G37*
G36*
X330811D02*
X326374D01*
Y358000D01*
X330811D01*
Y362437D01*
D02*
G37*
G36*
Y357000D02*
X326374D01*
Y352563D01*
X330811D01*
Y357000D01*
D02*
G37*
G36*
X336248D02*
X331811D01*
Y352563D01*
X334706D01*
X334838Y352063D01*
X334381Y351378D01*
X334305Y351000D01*
X338695D01*
X338619Y351378D01*
X338122Y352122D01*
X337378Y352620D01*
X336500Y352794D01*
X336248Y353001D01*
Y357000D01*
D02*
G37*
G36*
X348500Y412294D02*
X347622Y412119D01*
X346878Y411622D01*
X346380Y410878D01*
X346206Y410000D01*
X346380Y409122D01*
X346477Y408978D01*
Y383838D01*
X338569Y375931D01*
X338131Y375274D01*
X337977Y374500D01*
Y355000D01*
X338131Y354226D01*
X338569Y353569D01*
X341069Y351069D01*
X341726Y350631D01*
X342500Y350477D01*
X344118D01*
X344268Y350377D01*
X345146Y350202D01*
X346024Y350377D01*
X346768Y350874D01*
X347265Y351618D01*
X347440Y352496D01*
X347265Y353374D01*
X346768Y354118D01*
X346024Y354615D01*
X345392Y354741D01*
Y355251D01*
X346024Y355377D01*
X346168Y355473D01*
X348166D01*
X352569Y351069D01*
X353226Y350631D01*
X354000Y350477D01*
X371478D01*
X371622Y350380D01*
X372500Y350206D01*
X373378Y350380D01*
X374122Y350878D01*
X374620Y351622D01*
X374794Y352500D01*
X374620Y353378D01*
X374523Y353522D01*
Y379689D01*
X374369Y380463D01*
X373931Y381119D01*
X367653Y387397D01*
X367619Y387567D01*
X367122Y388311D01*
X366378Y388808D01*
X365500Y388983D01*
X364622Y388808D01*
X363878Y388311D01*
X363381Y387567D01*
X363206Y386689D01*
X363381Y385811D01*
X363878Y385067D01*
X364622Y384570D01*
X364792Y384536D01*
X370477Y378851D01*
Y354523D01*
X354838D01*
X350434Y358927D01*
X349778Y359365D01*
X349004Y359519D01*
X347169D01*
Y371370D01*
X347294Y372000D01*
X347119Y372878D01*
X346622Y373622D01*
X345878Y374119D01*
X345000Y374294D01*
X344122Y374119D01*
X343378Y373622D01*
X342881Y372878D01*
X342706Y372000D01*
X342881Y371122D01*
X343123Y370760D01*
Y358518D01*
X343026Y358374D01*
X342851Y357496D01*
X343026Y356618D01*
X343524Y355874D01*
X344268Y355377D01*
X344899Y355251D01*
Y354741D01*
X344268Y354615D01*
X344129Y354523D01*
X343338D01*
X342023Y355838D01*
Y373662D01*
X349931Y381569D01*
X350369Y382226D01*
X350523Y383000D01*
Y408978D01*
X350620Y409122D01*
X350794Y410000D01*
X350620Y410878D01*
X350122Y411622D01*
X349378Y412119D01*
X348500Y412294D01*
D02*
G37*
G36*
X338695Y350000D02*
X337000D01*
Y348305D01*
X337378Y348380D01*
X338122Y348878D01*
X338619Y349622D01*
X338695Y350000D01*
D02*
G37*
G36*
X336000D02*
X334305D01*
X334381Y349622D01*
X334878Y348878D01*
X335622Y348380D01*
X336000Y348305D01*
Y350000D01*
D02*
G37*
G36*
X395829Y348875D02*
X392376D01*
Y345422D01*
X395829D01*
Y348875D01*
D02*
G37*
G36*
X391376D02*
X387923D01*
Y345422D01*
X391376D01*
Y348875D01*
D02*
G37*
G36*
X395829Y344422D02*
X392376D01*
Y340969D01*
X395829D01*
Y344422D01*
D02*
G37*
G36*
X391376D02*
X387923D01*
Y340969D01*
X391376D01*
Y344422D01*
D02*
G37*
G36*
X259500Y339195D02*
Y337500D01*
X261195D01*
X261120Y337878D01*
X260622Y338622D01*
X259878Y339120D01*
X259500Y339195D01*
D02*
G37*
G36*
X258500D02*
X258122Y339120D01*
X257378Y338622D01*
X256880Y337878D01*
X256805Y337500D01*
X258500D01*
Y339195D01*
D02*
G37*
G36*
X261195Y336500D02*
X259500D01*
Y334805D01*
X259878Y334880D01*
X260622Y335378D01*
X261120Y336122D01*
X261195Y336500D01*
D02*
G37*
G36*
X258500D02*
X256805D01*
X256880Y336122D01*
X257378Y335378D01*
X258122Y334880D01*
X258500Y334805D01*
Y336500D01*
D02*
G37*
G36*
X371500Y431094D02*
X370622Y430919D01*
X369878Y430422D01*
X369380Y429678D01*
X369206Y428800D01*
X369380Y427922D01*
X369477Y427778D01*
Y392500D01*
X369631Y391726D01*
X370069Y391069D01*
X378477Y382662D01*
Y346534D01*
X371194Y339251D01*
X371024Y339217D01*
X370280Y338720D01*
X369783Y337976D01*
X369608Y337098D01*
X369783Y336220D01*
X370280Y335476D01*
X371024Y334979D01*
X371902Y334804D01*
X372780Y334979D01*
X373524Y335476D01*
X374022Y336220D01*
X374055Y336390D01*
X381931Y344265D01*
X382369Y344922D01*
X382523Y345696D01*
Y383500D01*
X382369Y384274D01*
X381931Y384931D01*
X373523Y393338D01*
Y427778D01*
X373620Y427922D01*
X373794Y428800D01*
X373620Y429678D01*
X373122Y430422D01*
X372378Y430919D01*
X371500Y431094D01*
D02*
G37*
G36*
X336248Y335937D02*
X331811D01*
Y331500D01*
X336248D01*
Y335937D01*
D02*
G37*
G36*
X330811D02*
X326374D01*
Y331500D01*
X330811D01*
Y335937D01*
D02*
G37*
G36*
X391876Y339066D02*
X390844Y338930D01*
X389882Y338532D01*
X389057Y337898D01*
X388423Y337072D01*
X388025Y336111D01*
X387889Y335079D01*
X388025Y334047D01*
X388423Y333085D01*
X389057Y332260D01*
X389882Y331626D01*
X390844Y331228D01*
X391876Y331092D01*
X392908Y331228D01*
X393869Y331626D01*
X394695Y332260D01*
X395329Y333085D01*
X395727Y334047D01*
X395863Y335079D01*
X395727Y336111D01*
X395329Y337072D01*
X394695Y337898D01*
X393869Y338532D01*
X392908Y338930D01*
X391876Y339066D01*
D02*
G37*
G36*
X336248Y330500D02*
X331811D01*
Y326063D01*
X336248D01*
Y330500D01*
D02*
G37*
G36*
X330811D02*
X326374D01*
Y326063D01*
X330811D01*
Y330500D01*
D02*
G37*
G36*
X226096Y332239D02*
X225218Y332064D01*
X224474Y331567D01*
X223976Y330823D01*
X223802Y329945D01*
X223976Y329067D01*
X224474Y328323D01*
X225218Y327825D01*
X226096Y327651D01*
X226974Y327825D01*
X227118Y327922D01*
X264217D01*
X267918Y324221D01*
X267672Y323760D01*
X267500Y323794D01*
X266622Y323620D01*
X265878Y323122D01*
X265381Y322378D01*
X265206Y321500D01*
X265253Y321263D01*
X263237Y319247D01*
X263000Y319294D01*
X262122Y319120D01*
X261378Y318622D01*
X260880Y317878D01*
X260706Y317000D01*
X260880Y316122D01*
X261378Y315378D01*
X262122Y314880D01*
X263000Y314706D01*
X263878Y314880D01*
X264622Y315378D01*
X265120Y316122D01*
X265294Y317000D01*
X265247Y317237D01*
X267263Y319253D01*
X267500Y319206D01*
X268378Y319380D01*
X269122Y319878D01*
X269619Y320622D01*
X269794Y321500D01*
X269760Y321672D01*
X270221Y321918D01*
X272347Y319792D01*
X272380Y319622D01*
X272878Y318878D01*
X273622Y318380D01*
X274500Y318206D01*
X275378Y318380D01*
X276122Y318878D01*
X276620Y319622D01*
X276794Y320500D01*
X276620Y321378D01*
X276122Y322122D01*
X275378Y322620D01*
X275208Y322653D01*
X266486Y331375D01*
X265829Y331814D01*
X265055Y331968D01*
X227118D01*
X226974Y332064D01*
X226096Y332239D01*
D02*
G37*
G36*
X396625Y466669D02*
X395747Y466494D01*
X395003Y465997D01*
X394506Y465253D01*
X394331Y464375D01*
X394506Y463497D01*
X395003Y462753D01*
X395747Y462256D01*
X396625Y462081D01*
X396862Y462128D01*
X402079Y456911D01*
Y331589D01*
X391411Y320921D01*
X385257D01*
X385122Y321122D01*
X384838Y321312D01*
X384740Y321977D01*
X384824Y322079D01*
X389500D01*
X390044Y322187D01*
X390505Y322495D01*
X400005Y331995D01*
X400313Y332456D01*
X400421Y333000D01*
Y454500D01*
X400313Y455044D01*
X400005Y455505D01*
X395247Y460263D01*
X395294Y460500D01*
X395120Y461378D01*
X394622Y462122D01*
X393878Y462619D01*
X393000Y462794D01*
X392122Y462619D01*
X391378Y462122D01*
X390880Y461378D01*
X390706Y460500D01*
X390880Y459622D01*
X391378Y458878D01*
X392122Y458381D01*
X393000Y458206D01*
X393237Y458253D01*
X397579Y453911D01*
Y333589D01*
X388911Y324921D01*
X384257D01*
X384122Y325122D01*
X383378Y325620D01*
X382500Y325794D01*
X381622Y325620D01*
X380878Y325122D01*
X380381Y324378D01*
X380206Y323500D01*
X380381Y322622D01*
X380878Y321878D01*
X381534Y321439D01*
X381626Y321355D01*
X381700Y320855D01*
X381381Y320378D01*
X381206Y319500D01*
X381381Y318622D01*
X381878Y317878D01*
X382622Y317380D01*
X383500Y317206D01*
X384378Y317380D01*
X385122Y317878D01*
X385257Y318079D01*
X392000D01*
X392544Y318187D01*
X393005Y318495D01*
X404505Y329995D01*
X404813Y330456D01*
X404921Y331000D01*
Y457500D01*
X404813Y458044D01*
X404505Y458505D01*
X398872Y464138D01*
X398919Y464375D01*
X398745Y465253D01*
X398247Y465997D01*
X397503Y466494D01*
X396625Y466669D01*
D02*
G37*
G36*
X287437Y323126D02*
X283000D01*
Y318689D01*
X287437D01*
Y323126D01*
D02*
G37*
G36*
X360437D02*
X356000D01*
Y318689D01*
X360437D01*
Y323126D01*
D02*
G37*
G36*
X355000D02*
X350563D01*
Y318689D01*
X355000D01*
Y323126D01*
D02*
G37*
G36*
X282000D02*
X277563D01*
Y318689D01*
X282000D01*
Y323126D01*
D02*
G37*
G36*
X360437Y317689D02*
X356000D01*
Y313252D01*
X360437D01*
Y317689D01*
D02*
G37*
G36*
X355000D02*
X350563D01*
Y313252D01*
X355000D01*
Y317689D01*
D02*
G37*
G36*
X287437D02*
X283000D01*
Y313252D01*
X287437D01*
Y317689D01*
D02*
G37*
G36*
X282000D02*
X277563D01*
Y313252D01*
X282000D01*
Y317689D01*
D02*
G37*
G36*
X380837Y309313D02*
Y304917D01*
X383132D01*
Y306583D01*
X383037Y307306D01*
X382758Y307980D01*
X382313Y308559D01*
X381734Y309004D01*
X381060Y309283D01*
X380837Y309313D01*
D02*
G37*
G36*
X346782D02*
Y304917D01*
X349077D01*
Y306583D01*
X348982Y307306D01*
X348703Y307980D01*
X348258Y308559D01*
X347679Y309004D01*
X347005Y309283D01*
X346782Y309313D01*
D02*
G37*
G36*
X294719D02*
Y304917D01*
X297014D01*
Y306583D01*
X296919Y307306D01*
X296640Y307980D01*
X296195Y308559D01*
X295616Y309004D01*
X294942Y309283D01*
X294719Y309313D01*
D02*
G37*
G36*
X260663D02*
Y304917D01*
X262959D01*
Y306583D01*
X262864Y307306D01*
X262584Y307980D01*
X262140Y308559D01*
X261561Y309004D01*
X260887Y309283D01*
X260663Y309313D01*
D02*
G37*
G36*
X293719D02*
X293495Y309283D01*
X292821Y309004D01*
X292242Y308559D01*
X291798Y307980D01*
X291518Y307306D01*
X291423Y306583D01*
Y304917D01*
X293719D01*
Y309313D01*
D02*
G37*
G36*
X259663D02*
X259440Y309283D01*
X258766Y309004D01*
X258187Y308559D01*
X257742Y307980D01*
X257463Y307306D01*
X257368Y306583D01*
Y304917D01*
X259663D01*
Y309313D01*
D02*
G37*
G36*
X379837D02*
X379613Y309283D01*
X378939Y309004D01*
X378360Y308559D01*
X377916Y307980D01*
X377636Y307306D01*
X377541Y306583D01*
Y304917D01*
X379837D01*
Y309313D01*
D02*
G37*
G36*
X345782D02*
X345558Y309283D01*
X344884Y309004D01*
X344305Y308559D01*
X343861Y307980D01*
X343581Y307306D01*
X343486Y306583D01*
Y304917D01*
X345782D01*
Y309313D01*
D02*
G37*
G36*
X336248Y308937D02*
X331811D01*
Y304500D01*
X336248D01*
Y308937D01*
D02*
G37*
G36*
X330811D02*
X326374D01*
Y304500D01*
X330811D01*
Y308937D01*
D02*
G37*
G36*
X374687Y304712D02*
X373836Y304543D01*
X373114Y304061D01*
X372633Y303339D01*
X372463Y302488D01*
X372633Y301637D01*
X373114Y300916D01*
X373836Y300434D01*
X374687Y300264D01*
X375538Y300434D01*
X376259Y300916D01*
X376742Y301637D01*
X376911Y302488D01*
X376742Y303339D01*
X376259Y304061D01*
X375538Y304543D01*
X374687Y304712D01*
D02*
G37*
G36*
X351931D02*
X351080Y304543D01*
X350359Y304061D01*
X349877Y303339D01*
X349707Y302488D01*
X349877Y301637D01*
X350359Y300916D01*
X351080Y300434D01*
X351931Y300264D01*
X352782Y300434D01*
X353504Y300916D01*
X353986Y301637D01*
X354155Y302488D01*
X353986Y303339D01*
X353504Y304061D01*
X352782Y304543D01*
X351931Y304712D01*
D02*
G37*
G36*
X288569D02*
X287718Y304543D01*
X286996Y304061D01*
X286514Y303339D01*
X286345Y302488D01*
X286514Y301637D01*
X286996Y300916D01*
X287718Y300434D01*
X288569Y300264D01*
X289420Y300434D01*
X290141Y300916D01*
X290623Y301637D01*
X290793Y302488D01*
X290623Y303339D01*
X290141Y304061D01*
X289420Y304543D01*
X288569Y304712D01*
D02*
G37*
G36*
X265813D02*
X264962Y304543D01*
X264241Y304061D01*
X263758Y303339D01*
X263589Y302488D01*
X263758Y301637D01*
X264241Y300916D01*
X264962Y300434D01*
X265813Y300264D01*
X266664Y300434D01*
X267386Y300916D01*
X267867Y301637D01*
X268037Y302488D01*
X267867Y303339D01*
X267386Y304061D01*
X266664Y304543D01*
X265813Y304712D01*
D02*
G37*
G36*
X383132Y303917D02*
X380837D01*
Y299522D01*
X381060Y299552D01*
X381734Y299831D01*
X382313Y300275D01*
X382758Y300854D01*
X383037Y301529D01*
X383132Y302252D01*
Y303917D01*
D02*
G37*
G36*
X349077D02*
X346782D01*
Y299522D01*
X347005Y299552D01*
X347679Y299831D01*
X348258Y300275D01*
X348703Y300854D01*
X348982Y301529D01*
X349077Y302252D01*
Y303917D01*
D02*
G37*
G36*
X297014D02*
X294719D01*
Y299522D01*
X294942Y299552D01*
X295616Y299831D01*
X296195Y300275D01*
X296640Y300854D01*
X296919Y301529D01*
X297014Y302252D01*
Y303917D01*
D02*
G37*
G36*
X262959D02*
X260663D01*
Y299522D01*
X260887Y299552D01*
X261561Y299831D01*
X262140Y300275D01*
X262584Y300854D01*
X262864Y301529D01*
X262959Y302252D01*
Y303917D01*
D02*
G37*
G36*
X379837D02*
X377541D01*
Y302252D01*
X377636Y301529D01*
X377916Y300854D01*
X378360Y300275D01*
X378939Y299831D01*
X379613Y299552D01*
X379837Y299522D01*
Y303917D01*
D02*
G37*
G36*
X345782D02*
X343486D01*
Y302252D01*
X343581Y301529D01*
X343861Y300854D01*
X344305Y300275D01*
X344884Y299831D01*
X345558Y299552D01*
X345782Y299522D01*
Y303917D01*
D02*
G37*
G36*
X293719D02*
X291423D01*
Y302252D01*
X291518Y301529D01*
X291798Y300854D01*
X292242Y300275D01*
X292821Y299831D01*
X293495Y299552D01*
X293719Y299522D01*
Y303917D01*
D02*
G37*
G36*
X259663D02*
X257368D01*
Y302252D01*
X257463Y301529D01*
X257742Y300854D01*
X258187Y300275D01*
X258766Y299831D01*
X259440Y299552D01*
X259663Y299522D01*
Y303917D01*
D02*
G37*
G36*
X336248Y303500D02*
X331811D01*
Y299063D01*
X336248D01*
Y303500D01*
D02*
G37*
G36*
X330811D02*
X326374D01*
Y299063D01*
X330811D01*
Y303500D01*
D02*
G37*
G36*
X380837Y292304D02*
Y288500D01*
X383132D01*
Y289575D01*
X383037Y290298D01*
X382758Y290973D01*
X382313Y291552D01*
X381734Y291996D01*
X381060Y292275D01*
X380837Y292304D01*
D02*
G37*
G36*
X346782D02*
Y288500D01*
X349077D01*
Y289575D01*
X348982Y290298D01*
X348703Y290973D01*
X348258Y291552D01*
X347679Y291996D01*
X347005Y292275D01*
X346782Y292304D01*
D02*
G37*
G36*
X294719D02*
Y288500D01*
X297014D01*
Y289575D01*
X296919Y290298D01*
X296640Y290973D01*
X296195Y291552D01*
X295616Y291996D01*
X294942Y292275D01*
X294719Y292304D01*
D02*
G37*
G36*
X260663D02*
Y288500D01*
X262959D01*
Y289575D01*
X262864Y290298D01*
X262584Y290973D01*
X262140Y291552D01*
X261561Y291996D01*
X260887Y292275D01*
X260663Y292304D01*
D02*
G37*
G36*
X379837D02*
X379613Y292275D01*
X378939Y291996D01*
X378360Y291552D01*
X377916Y290973D01*
X377636Y290298D01*
X377541Y289575D01*
Y288500D01*
X379837D01*
Y292304D01*
D02*
G37*
G36*
X345782D02*
X345558Y292275D01*
X344884Y291996D01*
X344305Y291552D01*
X343861Y290973D01*
X343581Y290298D01*
X343486Y289575D01*
Y288500D01*
X345782D01*
Y292304D01*
D02*
G37*
G36*
X293719D02*
X293495Y292275D01*
X292821Y291996D01*
X292242Y291552D01*
X291798Y290973D01*
X291518Y290298D01*
X291423Y289575D01*
Y288500D01*
X293719D01*
Y292304D01*
D02*
G37*
G36*
X259663D02*
X259440Y292275D01*
X258766Y291996D01*
X258187Y291552D01*
X257742Y290973D01*
X257463Y290298D01*
X257368Y289575D01*
Y288500D01*
X259663D01*
Y292304D01*
D02*
G37*
G36*
X383132Y287500D02*
X380837D01*
Y283696D01*
X381060Y283725D01*
X381734Y284004D01*
X382313Y284448D01*
X382758Y285027D01*
X383037Y285702D01*
X383132Y286425D01*
Y287500D01*
D02*
G37*
G36*
X349077D02*
X346782D01*
Y283696D01*
X347005Y283725D01*
X347679Y284004D01*
X348258Y284448D01*
X348703Y285027D01*
X348982Y285702D01*
X349077Y286425D01*
Y287500D01*
D02*
G37*
G36*
X297014D02*
X294719D01*
Y283696D01*
X294942Y283725D01*
X295616Y284004D01*
X296195Y284448D01*
X296640Y285027D01*
X296919Y285702D01*
X297014Y286425D01*
Y287500D01*
D02*
G37*
G36*
X262959D02*
X260663D01*
Y283696D01*
X260887Y283725D01*
X261561Y284004D01*
X262140Y284448D01*
X262584Y285027D01*
X262864Y285702D01*
X262959Y286425D01*
Y287500D01*
D02*
G37*
G36*
X379837D02*
X377541D01*
Y286425D01*
X377636Y285702D01*
X377916Y285027D01*
X378360Y284448D01*
X378939Y284004D01*
X379613Y283725D01*
X379837Y283696D01*
Y287500D01*
D02*
G37*
G36*
X293719D02*
X291423D01*
Y286425D01*
X291518Y285702D01*
X291798Y285027D01*
X292242Y284448D01*
X292821Y284004D01*
X293495Y283725D01*
X293719Y283696D01*
Y287500D01*
D02*
G37*
G36*
X259663D02*
X257368D01*
Y286425D01*
X257463Y285702D01*
X257742Y285027D01*
X258187Y284448D01*
X258766Y284004D01*
X259440Y283725D01*
X259663Y283696D01*
Y287500D01*
D02*
G37*
G36*
X345782D02*
X343486D01*
Y286425D01*
X343581Y285702D01*
X343861Y285027D01*
X344305Y284448D01*
X344884Y284004D01*
X345558Y283725D01*
X345782Y283696D01*
Y287500D01*
D02*
G37*
G36*
X225734Y295760D02*
X224570D01*
X224472Y295740D01*
X224372D01*
X223231Y295513D01*
X223138Y295475D01*
X223039Y295455D01*
X221965Y295010D01*
X221881Y294954D01*
X221788Y294916D01*
X220821Y294269D01*
X220750Y294198D01*
X220667Y294143D01*
X219844Y293320D01*
X219788Y293236D01*
X219717Y293165D01*
X219071Y292198D01*
X219033Y292106D01*
X218977Y292022D01*
X218532Y290947D01*
X218512Y290849D01*
X218474Y290756D01*
X218247Y289615D01*
Y289515D01*
X218227Y289416D01*
Y288253D01*
X218247Y288154D01*
Y288054D01*
X218474Y286913D01*
X218512Y286820D01*
X218532Y286722D01*
X218977Y285647D01*
X219033Y285563D01*
X219071Y285471D01*
X219717Y284504D01*
X219788Y284433D01*
X219844Y284349D01*
X220667Y283526D01*
X220750Y283471D01*
X220821Y283400D01*
X221788Y282753D01*
X221881Y282715D01*
X221965Y282659D01*
X223039Y282214D01*
X223138Y282194D01*
X223231Y282156D01*
X224372Y281929D01*
X224472D01*
X224570Y281909D01*
X225734D01*
X225832Y281929D01*
X225933D01*
X227074Y282156D01*
X227166Y282194D01*
X227265Y282214D01*
X228340Y282659D01*
X228423Y282715D01*
X228516Y282753D01*
X229483Y283400D01*
X229554Y283471D01*
X229638Y283526D01*
X230460Y284349D01*
X230516Y284433D01*
X230587Y284504D01*
X231233Y285471D01*
X231272Y285563D01*
X231328Y285647D01*
X231773Y286722D01*
X231792Y286820D01*
X231831Y286913D01*
X232058Y288054D01*
Y288154D01*
X232077Y288253D01*
Y289416D01*
X232058Y289515D01*
Y289615D01*
X231831Y290756D01*
X231792Y290849D01*
X231773Y290947D01*
X231328Y292022D01*
X231272Y292106D01*
X231233Y292198D01*
X230587Y293165D01*
X230516Y293236D01*
X230460Y293320D01*
X229638Y294143D01*
X229554Y294198D01*
X229483Y294269D01*
X228516Y294916D01*
X228423Y294954D01*
X228340Y295010D01*
X227265Y295455D01*
X227166Y295475D01*
X227074Y295513D01*
X225933Y295740D01*
X225832D01*
X225734Y295760D01*
D02*
G37*
G36*
X412430Y295760D02*
X411266D01*
X411168Y295740D01*
X411067D01*
X409926Y295513D01*
X409834Y295475D01*
X409735Y295455D01*
X408660Y295010D01*
X408577Y294954D01*
X408484Y294916D01*
X407517Y294269D01*
X407446Y294198D01*
X407362Y294143D01*
X406540Y293320D01*
X406484Y293236D01*
X406413Y293165D01*
X405767Y292198D01*
X405728Y292106D01*
X405673Y292022D01*
X405227Y290947D01*
X405208Y290849D01*
X405169Y290756D01*
X404942Y289615D01*
Y289515D01*
X404923Y289416D01*
Y288253D01*
X404942Y288154D01*
Y288054D01*
X405169Y286913D01*
X405208Y286820D01*
X405227Y286722D01*
X405673Y285647D01*
X405728Y285563D01*
X405767Y285471D01*
X406413Y284504D01*
X406484Y284433D01*
X406540Y284349D01*
X407362Y283526D01*
X407446Y283471D01*
X407517Y283400D01*
X408484Y282753D01*
X408577Y282715D01*
X408660Y282659D01*
X409735Y282214D01*
X409834Y282194D01*
X409926Y282156D01*
X411067Y281929D01*
X411168D01*
X411266Y281909D01*
X412430D01*
X412528Y281929D01*
X412628D01*
X413769Y282156D01*
X413862Y282194D01*
X413961Y282214D01*
X415035Y282659D01*
X415119Y282715D01*
X415212Y282753D01*
X416179Y283400D01*
X416250Y283471D01*
X416333Y283526D01*
X417156Y284349D01*
X417212Y284433D01*
X417283Y284504D01*
X417929Y285471D01*
X417968Y285563D01*
X418023Y285647D01*
X418468Y286722D01*
X418488Y286820D01*
X418526Y286913D01*
X418753Y288054D01*
Y288154D01*
X418773Y288253D01*
Y289416D01*
X418753Y289515D01*
Y289615D01*
X418526Y290756D01*
X418488Y290849D01*
X418468Y290947D01*
X418023Y292022D01*
X417968Y292106D01*
X417929Y292198D01*
X417283Y293165D01*
X417212Y293236D01*
X417156Y293320D01*
X416333Y294143D01*
X416250Y294198D01*
X416179Y294269D01*
X415212Y294916D01*
X415119Y294954D01*
X415035Y295010D01*
X413961Y295455D01*
X413862Y295475D01*
X413769Y295513D01*
X412628Y295740D01*
X412528D01*
X412430Y295760D01*
D02*
G37*
%LPD*%
G36*
X292546Y656250D02*
Y653504D01*
X297232D01*
Y652245D01*
X297386Y651471D01*
X297824Y650815D01*
X299569Y649069D01*
X300226Y648631D01*
X301000Y648477D01*
X334500D01*
X335274Y648631D01*
X335696Y648913D01*
X336015Y648524D01*
X333911Y646421D01*
X291628D01*
X287404Y650644D01*
X287452Y650882D01*
X287277Y651760D01*
X286780Y652504D01*
X286035Y653001D01*
X285404Y653127D01*
Y653637D01*
X286035Y653762D01*
X286780Y654260D01*
X287277Y655004D01*
X287452Y655882D01*
X287277Y656760D01*
X286780Y657504D01*
X286667Y657579D01*
X286819Y658079D01*
X290717D01*
X292546Y656250D01*
D02*
G37*
G36*
X290034Y643995D02*
X290495Y643687D01*
X291039Y643579D01*
X334500D01*
X334952Y643669D01*
X335174Y643412D01*
X335247Y643257D01*
X334911Y642921D01*
X290128D01*
X287592Y645457D01*
X287628Y645694D01*
X288160Y645869D01*
X290034Y643995D01*
D02*
G37*
G36*
X283221Y622477D02*
X283076Y622303D01*
X267882D01*
X267338Y622195D01*
X266877Y621887D01*
X234487Y589497D01*
X234250Y589544D01*
X233372Y589369D01*
X232628Y588872D01*
X232523Y588715D01*
X232023Y588867D01*
Y591662D01*
X263338Y622977D01*
X282985D01*
X283221Y622477D01*
D02*
G37*
G36*
X319429Y591561D02*
Y587858D01*
X316574D01*
Y592449D01*
X316420Y593223D01*
X315982Y593879D01*
X313931Y595931D01*
X313274Y596369D01*
X312500Y596523D01*
X301523D01*
Y608802D01*
X301904Y608958D01*
X302023Y608967D01*
X319429Y591561D01*
D02*
G37*
G36*
X312528Y591611D02*
Y587858D01*
X288873D01*
X288681Y588320D01*
X292838Y592477D01*
X311662D01*
X312528Y591611D01*
D02*
G37*
G36*
X256909Y584977D02*
X256378Y584622D01*
X255880Y583878D01*
X255847Y583708D01*
X240069Y567931D01*
X239631Y567274D01*
X239477Y566500D01*
Y549549D01*
X238977Y549397D01*
X238745Y549745D01*
X238543Y549879D01*
Y574034D01*
X240263Y575753D01*
X240500Y575706D01*
X241378Y575881D01*
X242122Y576378D01*
X242619Y577122D01*
X242653Y577292D01*
X250838Y585477D01*
X256757D01*
X256909Y584977D01*
D02*
G37*
G36*
X287567Y586553D02*
Y568142D01*
X287933D01*
Y560943D01*
X275911Y548921D01*
X271257D01*
X271122Y549122D01*
X270378Y549619D01*
X269500Y549794D01*
X268622Y549619D01*
X267878Y549122D01*
X267380Y548378D01*
X267206Y547500D01*
X267380Y546622D01*
X267878Y545878D01*
X268622Y545381D01*
X269454Y545215D01*
X269606Y545147D01*
X269893Y544860D01*
X269850Y544644D01*
X270022Y543777D01*
X270038Y543687D01*
X269752Y543277D01*
X266113D01*
X265979Y543478D01*
X265234Y543976D01*
X264356Y544150D01*
X263478Y543976D01*
X262734Y543478D01*
X262237Y542734D01*
X262062Y541856D01*
X262237Y540978D01*
X262734Y540234D01*
X263478Y539737D01*
X264356Y539562D01*
X265234Y539737D01*
X265979Y540234D01*
X266113Y540435D01*
X267515D01*
X267753Y539935D01*
X267380Y539378D01*
X267206Y538500D01*
X267380Y537622D01*
X267849Y536921D01*
X267730Y536421D01*
X260589D01*
X247421Y549589D01*
Y551743D01*
X247622Y551878D01*
X248119Y552622D01*
X248294Y553500D01*
X248119Y554378D01*
X247622Y555122D01*
X246878Y555619D01*
X246000Y555794D01*
X245122Y555619D01*
X244378Y555122D01*
X244023Y554591D01*
X243523Y554743D01*
Y565662D01*
X258708Y580847D01*
X258878Y580881D01*
X259022Y580977D01*
X270579D01*
Y562757D01*
X270378Y562622D01*
X269881Y561878D01*
X269706Y561000D01*
X269881Y560122D01*
X270378Y559378D01*
X271122Y558881D01*
X272000Y558706D01*
X272878Y558881D01*
X273622Y559378D01*
X274119Y560122D01*
X274294Y561000D01*
X274119Y561878D01*
X273622Y562622D01*
X273421Y562757D01*
Y580977D01*
X280500D01*
X281274Y581131D01*
X281931Y581569D01*
X287105Y586744D01*
X287567Y586553D01*
D02*
G37*
G36*
X321350Y568142D02*
X333203D01*
X333448Y567642D01*
X333276Y567421D01*
X317000D01*
X316456Y567313D01*
X315995Y567005D01*
X303696Y554706D01*
X303541Y554779D01*
X303284Y555001D01*
X303374Y555453D01*
Y568142D01*
X320350D01*
Y578000D01*
X321350D01*
Y568142D01*
D02*
G37*
G36*
X378986Y640209D02*
X378569Y639931D01*
X371069Y632431D01*
X370631Y631774D01*
X370477Y631000D01*
Y602500D01*
X370631Y601726D01*
X371069Y601069D01*
X406977Y565162D01*
Y500838D01*
X380574Y474435D01*
X363534D01*
X363390Y474531D01*
X362512Y474706D01*
X361634Y474531D01*
X360921Y474055D01*
X360563Y474133D01*
X360421Y474176D01*
Y476411D01*
X363089Y479079D01*
X381000D01*
X381544Y479187D01*
X382005Y479495D01*
X404505Y501995D01*
X404813Y502456D01*
X404921Y503000D01*
X404921Y503000D01*
Y564500D01*
X404813Y565044D01*
X404505Y565505D01*
X363123Y606887D01*
X362662Y607195D01*
X362118Y607303D01*
X355812D01*
X355677Y607504D01*
X354933Y608001D01*
X354302Y608127D01*
Y608637D01*
X354933Y608762D01*
X355677Y609260D01*
X356175Y610004D01*
X356349Y610882D01*
X356175Y611760D01*
X355677Y612504D01*
X354933Y613001D01*
X354055Y613176D01*
X353177Y613001D01*
X352433Y612504D01*
X352299Y612303D01*
X351382D01*
X350930Y612213D01*
X350708Y612470D01*
X350635Y612625D01*
X368210Y630200D01*
X368518Y630661D01*
X368626Y631205D01*
Y640709D01*
X378835D01*
X378986Y640209D01*
D02*
G37*
%LPC*%
G36*
X257214Y547908D02*
Y546214D01*
X258908D01*
X258833Y546592D01*
X258336Y547336D01*
X257592Y547833D01*
X257214Y547908D01*
D02*
G37*
G36*
X256214D02*
X255836Y547833D01*
X255092Y547336D01*
X254594Y546592D01*
X254519Y546214D01*
X256214D01*
Y547908D01*
D02*
G37*
G36*
X258908Y545214D02*
X257214D01*
Y543519D01*
X257592Y543594D01*
X258336Y544092D01*
X258833Y544836D01*
X258908Y545214D01*
D02*
G37*
G36*
X256214D02*
X254519D01*
X254594Y544836D01*
X255092Y544092D01*
X255836Y543594D01*
X256214Y543519D01*
Y545214D01*
D02*
G37*
%LPD*%
D10*
X291500Y475500D02*
X307500D01*
X267500Y451500D02*
X291500Y475500D01*
X267500Y433273D02*
Y451500D01*
X305750Y527000D02*
X320000D01*
X401480Y612020D02*
Y641516D01*
Y612020D02*
X416500Y597000D01*
Y498000D02*
Y597000D01*
X372500Y454000D02*
X416500Y498000D01*
X367205Y631205D02*
Y642732D01*
X339748Y603748D02*
X367205Y631205D01*
X394000Y513500D02*
Y560500D01*
X368500Y586000D02*
X394000Y560500D01*
X360500Y586000D02*
X368500D01*
X399000Y507500D02*
Y562500D01*
X360618Y600882D02*
X399000Y562500D01*
X354055Y600882D02*
X360618D01*
X403500Y503000D02*
Y564500D01*
X362118Y605882D02*
X403500Y564500D01*
X354055Y605882D02*
X362118D01*
X290000Y446500D02*
X297500Y454000D01*
X372500D01*
X271973Y428800D02*
X282200D01*
X318500Y392500D01*
Y357094D02*
Y392500D01*
Y357094D02*
X323098Y352496D01*
X281200Y435800D02*
X323061Y393939D01*
X271973Y435800D02*
X281200D01*
X323061Y357534D02*
Y393939D01*
X305000Y462500D02*
X344912Y502412D01*
X287500Y462500D02*
X305000D01*
X271973Y446973D02*
X287500Y462500D01*
X344912Y502412D02*
X362512D01*
X271973Y435800D02*
Y446973D01*
X267500Y433273D02*
X271973Y428800D01*
X256612Y348888D02*
Y365358D01*
Y348888D02*
X277000Y328500D01*
X242108Y435800D02*
X261000Y416908D01*
Y404189D02*
Y416908D01*
Y404189D02*
X307689Y357500D01*
X232108Y395392D02*
X284095Y343406D01*
X282500Y341811D02*
X284095Y343406D01*
X376500Y485000D02*
X399000Y507500D01*
X362000Y485000D02*
X376500D01*
X354705Y477705D02*
X362000Y485000D01*
X381000Y480500D02*
X403500Y503000D01*
X362500Y480500D02*
X381000D01*
X351382Y610882D02*
X354055D01*
X349000Y608500D02*
X351382Y610882D01*
X349000Y593000D02*
Y608500D01*
X356000Y586000D02*
X360500D01*
X349000Y593000D02*
X356000Y586000D01*
X382912Y502412D02*
X394000Y513500D01*
X362512Y502412D02*
X382912D01*
X403500Y331000D02*
Y457500D01*
X392000Y319500D02*
X403500Y331000D01*
X383500Y319500D02*
X392000D01*
X399000Y333000D02*
Y454500D01*
X389500Y323500D02*
X399000Y333000D01*
X382500Y323500D02*
X389500D01*
X393000Y460500D02*
X399000Y454500D01*
X396625Y464375D02*
X403500Y457500D01*
X241250Y425750D02*
X251000Y416000D01*
Y396500D02*
Y416000D01*
X247500Y393500D02*
Y413500D01*
X240000Y421000D02*
X247500Y413500D01*
Y393500D02*
X300000Y341000D01*
X251000Y396500D02*
X307689Y339811D01*
X232108Y395392D02*
Y398200D01*
X354705Y460444D02*
Y477705D01*
X359000Y477000D02*
X362500Y480500D01*
X359000Y464500D02*
Y477000D01*
X237122Y574622D02*
X240500Y578000D01*
X237122Y548122D02*
Y574622D01*
X336598Y568598D02*
Y578000D01*
X334000Y566000D02*
X336598Y568598D01*
X317000Y566000D02*
X334000D01*
X257000Y452500D02*
Y495000D01*
X222500Y529500D02*
X257000Y495000D01*
X222500Y529500D02*
Y593224D01*
X278500Y659500D02*
X291306D01*
X275500Y656500D02*
X278500Y659500D01*
X291306D02*
X294924Y655882D01*
X260000Y535000D02*
X281500D01*
X246000Y549000D02*
X260000Y535000D01*
X246000Y549000D02*
Y553500D01*
X274208Y476494D02*
Y484292D01*
X226000Y532500D02*
X274208Y484292D01*
X300000Y311689D02*
X307689Y304000D01*
X300000Y311689D02*
Y341000D01*
X307689Y331000D02*
Y339811D01*
X254500Y399500D02*
Y413500D01*
Y399500D02*
X312189Y341811D01*
X355500D01*
X396000Y657500D02*
Y663500D01*
X390500Y669000D02*
X396000Y663500D01*
X349987Y669000D02*
X390500D01*
X336869Y655882D02*
X349987Y669000D01*
X324331Y663087D02*
X330551Y656866D01*
X331554D01*
X332538Y655882D01*
X311793Y663087D02*
X318013Y656866D01*
X319016D01*
X320000Y655882D01*
X299255Y663087D02*
X305475Y656866D01*
X306478D01*
X307462Y655882D01*
X263108Y369892D02*
X275000Y358000D01*
X263108Y369892D02*
Y372358D01*
X301000Y522250D02*
X305750Y527000D01*
X341356Y558144D02*
X342500Y557000D01*
X320500Y560500D02*
X357000D01*
X287500Y527500D02*
X320500Y560500D01*
X322644Y558144D02*
X341356D01*
X263000Y317000D02*
X267500Y321500D01*
X226000Y532500D02*
Y587000D01*
X334500Y645000D02*
X351500Y662000D01*
X291039Y645000D02*
X334500D01*
X285157Y650882D02*
X291039Y645000D01*
X351500Y662000D02*
X374350D01*
X353500Y659500D02*
X371000D01*
X335500Y641500D02*
X353500Y659500D01*
X289539Y641500D02*
X335500D01*
X285157Y645882D02*
X289539Y641500D01*
X267882Y620882D02*
X285157D01*
X234250Y587250D02*
X267882Y620882D01*
X308000Y611500D02*
X324000Y595500D01*
Y578000D02*
Y595500D01*
X272068Y591568D02*
Y610068D01*
X277882Y615882D02*
X294118D01*
X272068Y610068D02*
X277882Y615882D01*
X287500Y502909D02*
Y527500D01*
X284453Y499862D02*
X287500Y502909D01*
X376000Y563500D02*
X377500Y562000D01*
X319000Y563500D02*
X376000D01*
X284500Y529000D02*
X319000Y563500D01*
X284500Y522500D02*
Y529000D01*
X284453Y522453D02*
X284500Y522500D01*
X284453Y508587D02*
Y522453D01*
X290500Y496000D02*
Y526000D01*
X285568Y491068D02*
X290500Y496000D01*
X284384Y491068D02*
X285568D01*
X290500Y526000D02*
X322644Y558144D01*
X295654Y557654D02*
Y578000D01*
X279856Y541856D02*
X295654Y557654D01*
X264356Y541856D02*
X279856D01*
X289354Y560354D02*
Y578000D01*
X276500Y547500D02*
X289354Y560354D01*
X269500Y547500D02*
X276500D01*
X292504Y559004D02*
Y578000D01*
X278144Y544644D02*
X292504Y559004D01*
X272144Y544644D02*
X278144D01*
X298803Y556803D02*
Y578000D01*
X280500Y538500D02*
X298803Y556803D01*
X269500Y538500D02*
X280500D01*
X281500Y535000D02*
X301953Y555453D01*
Y578000D01*
X308252D02*
X311402D01*
X305102D02*
X308252D01*
X301953D02*
X305102D01*
X277500Y641000D02*
Y643224D01*
X285157Y650882D01*
X374350Y662000D02*
X378500Y657850D01*
X377000Y653500D02*
X383650D01*
X388000Y657850D01*
X371000Y659500D02*
X377000Y653500D01*
X339748Y578000D02*
Y603748D01*
X277882Y610882D02*
X285157D01*
X275000Y608000D02*
X277882Y610882D01*
X275000Y598500D02*
Y608000D01*
X302500Y551500D02*
X317000Y566000D01*
X327000Y578150D02*
Y603500D01*
Y578150D02*
X327150Y578000D01*
X294500Y492459D02*
Y525500D01*
X324500Y555500D02*
X335500D01*
X294500Y525500D02*
X324500Y555500D01*
X284453Y482412D02*
X294500Y492459D01*
X330299Y609799D02*
X341000Y620500D01*
X330299Y578000D02*
Y609799D01*
X333449Y605449D02*
X354000Y626000D01*
X333449Y578000D02*
Y605449D01*
X222500Y593224D02*
X285157Y655882D01*
X303000Y610000D02*
Y632500D01*
Y610000D02*
X320850Y592150D01*
Y578000D02*
Y592150D01*
X343291Y584500D02*
X350500D01*
X343291Y584000D02*
Y584500D01*
X342898Y578000D02*
Y583606D01*
X343291Y584000D01*
X266500Y631000D02*
X293500D01*
X272000Y561000D02*
Y582500D01*
X272500Y583000D01*
X314551Y578000D02*
X317701D01*
X293500Y631000D02*
X299500Y625000D01*
D32*
X299255Y663087D02*
D03*
Y655882D02*
D03*
X294924Y663087D02*
D03*
Y655882D02*
D03*
X311793Y663087D02*
D03*
Y655882D02*
D03*
X307462Y663087D02*
D03*
Y655882D02*
D03*
X336869Y663087D02*
D03*
Y655882D02*
D03*
X332538Y663087D02*
D03*
Y655882D02*
D03*
X324331Y663087D02*
D03*
Y655882D02*
D03*
X320000Y663087D02*
D03*
Y655882D02*
D03*
D33*
X307689Y331000D02*
D03*
X331311D02*
D03*
X307689Y357500D02*
D03*
X331311D02*
D03*
X307689Y304000D02*
D03*
X331311D02*
D03*
D34*
X282500Y341811D02*
D03*
Y318189D02*
D03*
X355500Y341811D02*
D03*
Y318189D02*
D03*
D35*
X378500Y664150D02*
D03*
Y657850D02*
D03*
X388000Y664150D02*
D03*
Y657850D02*
D03*
D36*
X289354Y578000D02*
D03*
X292504D02*
D03*
X295654D02*
D03*
X298803D02*
D03*
X301953D02*
D03*
X305102D02*
D03*
X308252D02*
D03*
X311402D02*
D03*
X314551D02*
D03*
X317701D02*
D03*
X320850D02*
D03*
X324000D02*
D03*
X327150D02*
D03*
X330299D02*
D03*
X333449D02*
D03*
X336598D02*
D03*
X339748D02*
D03*
X342898D02*
D03*
D37*
X266122Y662713D02*
D03*
X243878D02*
D03*
D38*
X367205Y642732D02*
X400264D01*
X354055Y655882D02*
X367205Y642732D01*
X380000Y638500D02*
X387500D01*
X372500Y631000D02*
X380000Y638500D01*
X372500Y602500D02*
Y631000D01*
X409000Y500000D02*
Y566000D01*
X372500Y602500D02*
X409000Y566000D01*
X388000Y595500D02*
X413000Y570500D01*
X262108Y435800D02*
Y453570D01*
X290949Y482412D01*
X335374Y389626D02*
X339333D01*
X285500Y439500D02*
X335374Y389626D01*
X271500Y422000D02*
X278500D01*
X262108Y431392D02*
Y435800D01*
Y431392D02*
X271500Y422000D01*
X266500Y406000D02*
X306500Y366000D01*
X266500Y406000D02*
Y419500D01*
X248608Y437392D02*
Y452504D01*
Y437392D02*
X266500Y419500D01*
X226000Y445500D02*
X236500D01*
X221500Y441000D02*
X226000Y445500D01*
X292500Y458500D02*
X339500D01*
X290500Y456500D02*
X292500Y458500D01*
X221500Y421500D02*
Y441000D01*
X226096Y338536D02*
Y358526D01*
X226365Y358795D01*
Y416635D01*
X221500Y421500D02*
X226365Y416635D01*
X296037Y487500D02*
X313000D01*
X290949Y482412D02*
X296037Y487500D01*
X265055Y329945D02*
X274500Y320500D01*
X226096Y329945D02*
X265055D01*
X371902Y337098D02*
X380500Y345696D01*
Y383500D01*
X371500Y392500D02*
X380500Y383500D01*
X371500Y392500D02*
Y428800D01*
X345146Y357496D02*
Y371854D01*
X345000Y372000D02*
X345146Y371854D01*
X348500Y383000D02*
Y410000D01*
X340000Y374500D02*
X348500Y383000D01*
X340000Y355000D02*
Y374500D01*
Y355000D02*
X342500Y352500D01*
X345142D02*
X345146Y352496D01*
X342500Y352500D02*
X345142D01*
X365500Y441000D02*
X386000D01*
X357258Y358348D02*
Y432758D01*
X365500Y441000D01*
X354000Y352500D02*
X372500D01*
X349004Y357496D02*
X354000Y352500D01*
X345146Y357496D02*
X349004D01*
X365500Y386689D02*
X372500Y379689D01*
Y352500D02*
Y379689D01*
X268347Y498153D02*
X274361D01*
X241500Y525000D02*
X268347Y498153D01*
X241500Y525000D02*
Y566500D01*
X400264Y642732D02*
X401480Y641516D01*
X388000Y516000D02*
Y559000D01*
X369500Y577500D02*
X388000Y559000D01*
X362500Y577500D02*
X369500D01*
X240500Y578000D02*
X250000Y587500D01*
X277500D01*
X312500Y594500D02*
X314551Y592449D01*
X299500Y594500D02*
X312500D01*
X314551Y578000D02*
Y592449D01*
X393500Y600000D02*
Y606500D01*
Y600000D02*
X408000Y585500D01*
X324500Y650500D02*
X334500D01*
X312000D02*
X324500D01*
X324331Y650669D02*
Y655882D01*
Y650669D02*
X324500Y650500D01*
X301000D02*
X312000D01*
X311793Y650707D02*
Y655882D01*
Y650707D02*
X312000Y650500D01*
X336869Y652869D02*
Y655882D01*
X334500Y650500D02*
X336869Y652869D01*
X299255Y652245D02*
X301000Y650500D01*
X299255Y652245D02*
Y655882D01*
X291000Y467500D02*
X303000D01*
X230000Y592500D02*
X262500Y625000D01*
X230000Y563000D02*
Y592500D01*
X380088Y550500D02*
X382000Y552412D01*
X333500Y550500D02*
X380088D01*
X331500Y552500D02*
X333500Y550500D01*
X403500Y598500D02*
Y603500D01*
X392000Y615000D02*
X403500Y603500D01*
X331500Y531500D02*
X372912D01*
X382000Y522412D01*
X331500Y538500D02*
X375912D01*
X382000Y532412D01*
X332000Y545000D02*
X379412D01*
X382000Y542412D01*
X262500Y625000D02*
X289000D01*
X292500Y621500D01*
X384412Y512412D02*
X388000Y516000D01*
X362512Y512412D02*
X384412D01*
X285157Y595157D02*
Y600882D01*
X277500Y587500D02*
X285157Y595157D01*
X241500Y566500D02*
X258000Y583000D01*
X272500D01*
X280500D01*
X292000Y594500D01*
X299500D01*
Y625000D01*
X362512Y472412D02*
X381412D01*
X409000Y500000D01*
D39*
X391876Y344922D02*
D03*
D40*
Y335079D02*
D03*
D41*
X415500Y449000D02*
D03*
Y437188D02*
D03*
D42*
X415326Y376842D02*
D03*
X222019D02*
D03*
Y645543D02*
D03*
X415326D02*
D03*
D43*
X346282Y288000D02*
D03*
X380337D02*
D03*
X294219D02*
D03*
X260163D02*
D03*
D44*
X346282Y304417D02*
D03*
X380337D02*
D03*
X294219D02*
D03*
X260163D02*
D03*
D45*
X351931Y302488D02*
D03*
X374687D02*
D03*
X288569D02*
D03*
X265813D02*
D03*
D46*
X278469Y413500D02*
D03*
X336500Y350500D02*
D03*
X319000Y425500D02*
D03*
X320000Y527000D02*
D03*
X388000Y595500D02*
D03*
X413000Y570500D02*
D03*
X285500Y439500D02*
D03*
X290000Y446500D02*
D03*
X339333Y389626D02*
D03*
X278500Y422000D02*
D03*
X262108Y435800D02*
D03*
X306500Y366000D02*
D03*
X248608Y452504D02*
D03*
X236500Y445500D02*
D03*
X339500Y458500D02*
D03*
X290500Y456500D02*
D03*
X226096Y338536D02*
D03*
X323098Y352496D02*
D03*
X323061Y357534D02*
D03*
X290949Y482412D02*
D03*
X313000Y487500D02*
D03*
X271973Y435800D02*
D03*
X226096Y329945D02*
D03*
X274500Y320500D02*
D03*
X371902Y337098D02*
D03*
X371500Y428800D02*
D03*
X345000Y372000D02*
D03*
X348500Y410000D02*
D03*
X345146Y352496D02*
D03*
X386000Y441000D02*
D03*
X357258Y358348D02*
D03*
X372500Y352500D02*
D03*
X365500Y386689D02*
D03*
X360500Y586000D02*
D03*
X354055Y610882D02*
D03*
X362512Y502412D02*
D03*
X345146Y357496D02*
D03*
X241250Y425750D02*
D03*
X254500Y413500D02*
D03*
X394016Y647984D02*
D03*
X227108Y435800D02*
D03*
X232108Y398200D02*
D03*
Y435800D02*
D03*
X240000Y421000D02*
D03*
X242108Y435800D02*
D03*
X271973Y428800D02*
D03*
X237108Y435800D02*
D03*
X359000Y464500D02*
D03*
X354705Y460444D02*
D03*
X240500Y578000D02*
D03*
X275500Y656500D02*
D03*
X396000Y657500D02*
D03*
X259000Y337000D02*
D03*
X396625Y464375D02*
D03*
X307500Y475500D02*
D03*
X277000Y328500D02*
D03*
X256612Y365358D02*
D03*
X275000Y358000D02*
D03*
X342500Y557000D02*
D03*
X257000Y452500D02*
D03*
X303000Y467500D02*
D03*
X291000D02*
D03*
X301000Y522250D02*
D03*
X383500Y319500D02*
D03*
X263000Y317000D02*
D03*
X267500Y321500D02*
D03*
X230000Y563000D02*
D03*
X226000Y587000D02*
D03*
X403500Y598500D02*
D03*
X331500Y531500D02*
D03*
X382000Y522412D02*
D03*
X331500Y538500D02*
D03*
X382000Y532412D02*
D03*
X234250Y587250D02*
D03*
X274208Y476494D02*
D03*
X285157Y620882D02*
D03*
X308000Y611500D02*
D03*
X332000Y545000D02*
D03*
X382000Y542412D02*
D03*
X272068Y591568D02*
D03*
X294118Y615882D02*
D03*
X357000Y560500D02*
D03*
X284453Y499862D02*
D03*
X292500Y621500D02*
D03*
X408000Y585500D02*
D03*
X393500Y606500D02*
D03*
X392000Y615000D02*
D03*
X354055Y605882D02*
D03*
X382500Y323500D02*
D03*
X354055Y600882D02*
D03*
X393000Y460500D02*
D03*
X263108Y372358D02*
D03*
X388000Y663614D02*
D03*
X378500D02*
D03*
X377500Y562000D02*
D03*
X284453Y508587D02*
D03*
X284384Y491068D02*
D03*
X264356Y541856D02*
D03*
X269500Y547500D02*
D03*
X272144Y544644D02*
D03*
X269500Y538500D02*
D03*
X246000Y553500D02*
D03*
X277500Y641000D02*
D03*
X285157Y650882D02*
D03*
Y645882D02*
D03*
X354055Y655882D02*
D03*
X401496Y641500D02*
D03*
X302500Y551500D02*
D03*
X275000Y598500D02*
D03*
X285157Y610882D02*
D03*
X327000Y603500D02*
D03*
X362512Y512412D02*
D03*
X362500Y577500D02*
D03*
X335500Y555500D02*
D03*
X284453Y482412D02*
D03*
X341000Y620500D02*
D03*
X354000Y626000D02*
D03*
X331500Y552500D02*
D03*
X382000Y552412D02*
D03*
X285157Y655882D02*
D03*
X237122Y548122D02*
D03*
X285157Y600882D02*
D03*
X354055Y665882D02*
D03*
X325512Y635488D02*
D03*
X285157Y665882D02*
D03*
X303000Y632500D02*
D03*
X350500Y584500D02*
D03*
X256714Y545714D02*
D03*
X274208Y489581D02*
D03*
X362512Y492412D02*
D03*
X274361Y498153D02*
D03*
X240500Y616606D02*
D03*
X258000Y583000D02*
D03*
X266500Y631000D02*
D03*
X272000Y561000D02*
D03*
X299500Y625000D02*
D03*
X362512Y472412D02*
D03*
X387500Y638500D02*
D03*
M02*
