M48
;Layer_Color=9474304
;FILE_FORMAT=2:4
INCH,TZ
;TYPE=PLATED
T1F00S00C0.0140
T3F00S00C0.0276
T4F00S00C0.0354
T5F00S00C0.0472
T6F00S00C0.0512
;TYPE=NON_PLATED
T7F00S00C0.0236
T8F00S00C0.0354
%
T01
X22610Y32994
X22610Y33854
X25900Y33700
X26300Y31700
X26750Y32150
X27450Y32050
X27700Y32850
X27500Y35800
X25661Y36536
X26311Y37236
X25450Y41350
X24000Y42100
X24125Y42575
X24211Y43580
X23711
X23211
X22711
X23650Y44550
X24861Y45250
X25700Y45250
X26211Y43580
X27197
Y42880
X27850Y42200
X27847Y41350
X28550Y43950
X29000Y44650
X29050Y45650
X29100Y46750
X30300
X30650Y36600
X23211Y39820
X31900Y42550
X34850Y41000
X33933Y38963
X34500Y37200
X34515Y35750
Y35250
X33650Y35050
X32310Y35250
X32306Y35753
X35726Y35835
X37250Y35250
X37190Y33710
X38250Y32350
X38350Y31950
X36550Y38669
X37150Y42880
X38600Y44100
X39300Y46050
X39662Y46438
X35900Y46450
X35470Y46044
X33950Y45850
X36251Y47241
Y49241
Y50241
Y51241
X38200Y52241
Y53241
Y54241
Y55241
X37750Y56200
X35700Y56050
X34250Y55700
X33550Y55550
X33150Y55250
X33200Y54500
X33150Y53850
Y53150
X32000Y52700
X31300Y48750
X32700Y60350
X35406Y60588
Y61088
Y60088
X35050Y58450
X36050Y58600
X36250Y57750
X38800Y59550
X39350Y60650
X39200Y61500
X40350Y59850
X40800Y58550
X41300Y57050
X34100Y62050
X30800Y61150
X29412Y61588
X29250Y62150
X28516Y62088
Y61088
Y60088
X27500Y59850
X27207Y59157
X25800Y58300
X24050Y57800
X23425Y58725
X22600Y58700
X23000Y56300
X23712Y54812
X24600Y55350
X25671Y54571
X26436Y54186
X26950Y53850
X27214Y54464
X26950Y54750
X27200Y56100
X30250Y55150
X30100Y52225
X28445Y50859
Y49986
X28438Y49107
X28445Y48241
X29095
X27421Y47649
Y48958
X27436Y49815
X30750Y47550
X24050Y61661
X26650Y63100
X27750Y64100
X28516Y64588
Y65088
Y65588
Y66588
X27550Y65650
X30300Y63250
X29950Y62500
X32551Y63549
X35400Y62600
X35406Y65588
Y66588
X37850Y66361
X38800
X39600Y65750
X39402Y64798
X40150Y64150
X38750Y63850
T03
X41558Y39275
X41555Y40190
X41550Y61011
X41547Y61926
X22150Y62300
X22153Y61385
T04
X39188Y33508
Y34492
T05
X22202Y37684
X41533
X22202Y64554
X41533
T06
X23095Y48305
Y51474
T07
X35193Y30249
X37469
X28857
X26581
T08
X41550Y43719
Y44900
M30
