G04*
G04 #@! TF.GenerationSoftware,Altium Limited,Altium Designer,20.1.7 (139)*
G04*
G04 Layer_Color=32896*
%FSLAX25Y25*%
%MOIN*%
G70*
G04*
G04 #@! TF.SameCoordinates,5ECA0F7F-463D-40B6-9D18-12E9E7DCF4CC*
G04*
G04*
G04 #@! TF.FilePolarity,Positive*
G04*
G01*
G75*
%ADD10C,0.00787*%
%ADD11C,0.01000*%
%ADD13C,0.00500*%
%ADD16C,0.00394*%
%ADD120C,0.00984*%
%ADD121C,0.00600*%
%ADD122C,0.00800*%
%ADD123C,0.00666*%
%ADD124R,0.06445X0.01500*%
G36*
X321670Y580512D02*
X321903Y580483D01*
X322108Y580439D01*
X322312Y580396D01*
X322487Y580337D01*
X322647Y580279D01*
X322778Y580221D01*
X322895Y580148D01*
X323012Y580089D01*
X323099Y580031D01*
X323157Y579987D01*
X323216Y579944D01*
X323259Y579914D01*
X323274Y579900D01*
X323289Y579885D01*
X323420Y579725D01*
X323522Y579565D01*
X323624Y579375D01*
X323697Y579185D01*
X323828Y578806D01*
X323916Y578427D01*
X323945Y578252D01*
X323959Y578092D01*
X323974Y577946D01*
X323989Y577815D01*
X324003Y577713D01*
Y577640D01*
Y577582D01*
Y577567D01*
Y577552D01*
X322253Y577465D01*
X322239Y577684D01*
X322224Y577786D01*
X322210Y577859D01*
X322195Y577931D01*
X322181Y577975D01*
X322166Y578004D01*
Y578019D01*
X322122Y578150D01*
X322078Y578267D01*
X322006Y578369D01*
X321947Y578456D01*
X321801Y578588D01*
X321641Y578690D01*
X321495Y578733D01*
X321379Y578763D01*
X321291Y578777D01*
X321073D01*
X320941Y578763D01*
X320825Y578733D01*
X320737Y578704D01*
X320723Y578690D01*
X320708D01*
X320650Y578646D01*
X320591Y578588D01*
X320504Y578442D01*
X320431Y578267D01*
X320387Y578092D01*
X320358Y577931D01*
X320343Y577786D01*
Y577727D01*
Y577698D01*
Y577669D01*
Y577655D01*
Y577305D01*
Y577159D01*
X320358Y577042D01*
X320373Y576926D01*
X320387Y576838D01*
X320416Y576765D01*
X320431Y576707D01*
X320445Y576678D01*
Y576663D01*
X320475Y576576D01*
X320518Y576503D01*
X320650Y576401D01*
X320795Y576313D01*
X320956Y576255D01*
X321102Y576226D01*
X321233Y576211D01*
X321335Y576196D01*
X322151D01*
Y576065D01*
X322166Y575949D01*
Y575744D01*
Y575599D01*
X322181Y575482D01*
Y575409D01*
Y575365D01*
Y575336D01*
X321947D01*
Y574403D01*
X319964D01*
Y574243D01*
X320460D01*
Y571633D01*
X322370D01*
Y572683D01*
X324236D01*
Y571910D01*
X323682D01*
Y571750D01*
X324236D01*
Y570875D01*
X323420D01*
Y570233D01*
X322531D01*
Y570000D01*
X320154D01*
Y570233D01*
X318856D01*
Y570714D01*
X318127D01*
Y572289D01*
X319090D01*
Y572566D01*
X318127D01*
Y572289D01*
X316830Y572289D01*
Y572566D01*
X318127Y572566D01*
Y574593D01*
X318375D01*
X318536Y574841D01*
X318623Y574943D01*
X318696Y575030D01*
X318754Y575088D01*
X318813Y575147D01*
X318842Y575176D01*
X318856Y575190D01*
Y575876D01*
X318710Y576080D01*
X318594Y576313D01*
X318521Y576561D01*
X318463Y576809D01*
X318433Y577042D01*
X318419Y577130D01*
X318404Y577217D01*
Y577290D01*
Y577348D01*
Y577378D01*
Y577392D01*
Y577713D01*
X318419Y578106D01*
X318463Y578456D01*
X318521Y578748D01*
X318579Y579010D01*
X318638Y579200D01*
X318696Y579346D01*
X318740Y579433D01*
X318754Y579462D01*
X318871Y579652D01*
X319017Y579812D01*
X319177Y579958D01*
X319352Y580089D01*
X319542Y580191D01*
X319746Y580279D01*
X319950Y580352D01*
X320154Y580410D01*
X320343Y580454D01*
X320533Y580483D01*
X320693Y580512D01*
X320854Y580527D01*
X320970Y580541D01*
X321422D01*
X321670Y580512D01*
D02*
G37*
G36*
X314453Y580527D02*
X314847Y580468D01*
X315182Y580396D01*
X315328Y580352D01*
X315459Y580308D01*
X315576Y580250D01*
X315678Y580206D01*
X315765Y580177D01*
X315838Y580133D01*
X315897Y580104D01*
X315940Y580075D01*
X315955Y580060D01*
X315969D01*
X316115Y579929D01*
X316247Y579798D01*
X316349Y579667D01*
X316422Y579565D01*
X316494Y579462D01*
X316538Y579389D01*
X316553Y579346D01*
X316567Y579331D01*
X316699Y578967D01*
X316800Y578588D01*
X316873Y578238D01*
X316917Y577902D01*
X316946Y577742D01*
Y577611D01*
X316961Y577480D01*
X316975Y577378D01*
Y577290D01*
Y577232D01*
Y577188D01*
Y577173D01*
X316859D01*
X316757Y577159D01*
X316640D01*
X316509Y577144D01*
X316349Y577130D01*
X316042Y577115D01*
X315722Y577086D01*
X315576Y577071D01*
X315459Y577057D01*
X315342D01*
X315270Y577042D01*
X315197D01*
X315182Y577057D01*
X315168Y577378D01*
X315138Y577523D01*
X315124Y577655D01*
X315095Y577771D01*
X315080Y577873D01*
X315066Y577931D01*
Y577946D01*
X315022Y578106D01*
X314964Y578238D01*
X314905Y578354D01*
X314847Y578456D01*
X314774Y578544D01*
X314701Y578602D01*
X314555Y578719D01*
X314409Y578777D01*
X314293Y578806D01*
X314220Y578821D01*
X313987D01*
X313812Y578806D01*
X313666Y578763D01*
X313622Y578733D01*
X313578Y578704D01*
X313549Y578690D01*
X313535D01*
X313476Y578631D01*
X313433Y578573D01*
X313360Y578398D01*
X313301Y578194D01*
X313272Y577990D01*
X313243Y577786D01*
X313228Y577625D01*
Y577552D01*
Y577509D01*
Y577480D01*
Y577465D01*
X313243Y577173D01*
X313287Y576911D01*
X313345Y576663D01*
X313418Y576459D01*
X313491Y576284D01*
X313549Y576153D01*
X313593Y576080D01*
X313608Y576051D01*
X313695Y575905D01*
X313797Y575744D01*
X313928Y575569D01*
X314045Y575409D01*
X314176Y575263D01*
X314278Y575147D01*
X314336Y575074D01*
X314366Y575059D01*
Y575045D01*
X315342D01*
Y574884D01*
X315780D01*
Y573470D01*
X316349D01*
Y571662D01*
X316975D01*
Y570000D01*
X313695D01*
Y570160D01*
X311158D01*
Y571808D01*
X313695D01*
Y572566D01*
X314074D01*
Y573120D01*
X313126D01*
Y573733D01*
X313797D01*
Y573864D01*
X313083D01*
X313126Y573733D01*
X311858D01*
Y573864D01*
X313053D01*
X312733Y574185D01*
X312470Y574520D01*
X312222Y574840D01*
X312018Y575161D01*
X311858Y575467D01*
X311712Y575774D01*
X311596Y576051D01*
X311493Y576328D01*
X311420Y576576D01*
X311362Y576794D01*
X311333Y576984D01*
X311304Y577159D01*
X311289Y577290D01*
X311275Y577392D01*
Y577465D01*
Y577480D01*
X311289Y577873D01*
X311318Y578223D01*
X311362Y578529D01*
X311406Y578792D01*
X311464Y579010D01*
X311493Y579083D01*
X311508Y579156D01*
X311523Y579214D01*
X311537Y579258D01*
X311552Y579273D01*
Y579287D01*
X311668Y579506D01*
X311800Y579696D01*
X311960Y579871D01*
X312150Y580016D01*
X312339Y580133D01*
X312558Y580235D01*
X312762Y580323D01*
X312966Y580381D01*
X313170Y580439D01*
X313360Y580468D01*
X313535Y580498D01*
X313695Y580527D01*
X313812D01*
X313914Y580541D01*
X314001D01*
X314453Y580527D01*
D02*
G37*
G36*
X325767Y576255D02*
X325738Y576196D01*
X325709Y576153D01*
X325665Y576109D01*
X325636Y576080D01*
Y576007D01*
X325621Y575963D01*
X325607Y575905D01*
X325592Y575876D01*
X325534D01*
X325519Y576007D01*
X325461Y576124D01*
X325417Y576211D01*
X325403Y576226D01*
Y576240D01*
Y576284D01*
X325476D01*
X325592Y576138D01*
X325607Y576182D01*
X325636Y576240D01*
X325665Y576269D01*
X325680Y576284D01*
X325724D01*
X325767Y576255D01*
D02*
G37*
G36*
X325753Y575672D02*
X325636D01*
Y575380D01*
X325621Y575351D01*
X325549D01*
X325534Y575365D01*
Y575380D01*
Y575672D01*
X325432D01*
Y575759D01*
X325753D01*
Y575672D01*
D02*
G37*
G36*
X332955Y575132D02*
X332212D01*
Y575336D01*
X332955D01*
Y575132D01*
D02*
G37*
G36*
X302818Y573441D02*
X302833Y573426D01*
X302862Y573397D01*
X302920Y573324D01*
X302964Y573237D01*
X302979Y573222D01*
Y573208D01*
X302877D01*
X302833Y573237D01*
X302804Y573280D01*
X302775Y573339D01*
X302760Y573353D01*
X302702Y573295D01*
X302687Y573251D01*
X302673Y573222D01*
Y573208D01*
X302527D01*
X302673Y573441D01*
X302658Y573485D01*
X302614Y573558D01*
X302571Y573616D01*
X302556Y573645D01*
Y573660D01*
X302673D01*
X302687Y573630D01*
X302702Y573587D01*
X302731Y573558D01*
X302745Y573543D01*
X302804Y573616D01*
X302833Y573645D01*
X302862Y573660D01*
X302964D01*
X302818Y573441D01*
D02*
G37*
G36*
X300879Y573907D02*
X300894Y573864D01*
X300952Y573762D01*
X301025Y573674D01*
X301040Y573645D01*
X301054Y573630D01*
Y573558D01*
X300865D01*
Y573455D01*
X300763D01*
Y573558D01*
X300704D01*
Y573645D01*
X300763D01*
Y573922D01*
X300865D01*
X300879Y573907D01*
D02*
G37*
G36*
X294901Y579812D02*
X294741Y579112D01*
X294595Y578456D01*
X294449Y577844D01*
X294318Y577261D01*
X294201Y576736D01*
X294085Y576240D01*
X293983Y575774D01*
X293881Y575351D01*
X293793Y574957D01*
X293720Y574607D01*
X293633Y574287D01*
X293575Y573980D01*
X293502Y573718D01*
X293443Y573470D01*
X293400Y573251D01*
X293356Y573062D01*
X293312Y572887D01*
X293283Y572741D01*
X293254Y572610D01*
X293225Y572508D01*
X293196Y572406D01*
X293181Y572333D01*
X293166Y572274D01*
X293137Y572172D01*
X293123Y572129D01*
Y572099D01*
X293093Y571954D01*
X293064Y571823D01*
X293050Y571706D01*
X293021Y571618D01*
X293006Y571531D01*
X292991Y571458D01*
X292962Y571356D01*
X292933Y571298D01*
Y571269D01*
X292918Y571254D01*
X292160D01*
Y570802D01*
X292846D01*
X292816Y570656D01*
X292787Y570540D01*
X292758Y570437D01*
X292743Y570335D01*
X292700Y570190D01*
X292671Y570102D01*
X292656Y570044D01*
X292641Y570015D01*
X292627Y570000D01*
X290002D01*
Y571895D01*
X289171D01*
Y572960D01*
X289638D01*
Y573339D01*
X289011D01*
Y575176D01*
Y575205D01*
X288997Y575249D01*
X288982Y575336D01*
X288953Y575438D01*
X288938Y575569D01*
X288894Y575715D01*
X288865Y575876D01*
X288822Y576065D01*
X288778Y576255D01*
X288734Y576474D01*
X288632Y576926D01*
X288515Y577407D01*
X288399Y577902D01*
X288297Y578398D01*
X288180Y578879D01*
X288078Y579331D01*
X288034Y579535D01*
X287990Y579725D01*
X287947Y579914D01*
X287918Y580075D01*
X287874Y580206D01*
X287859Y580323D01*
X287830Y580425D01*
X287815Y580498D01*
X287801Y580541D01*
Y580556D01*
X290032D01*
Y580527D01*
X290046Y580483D01*
X290061Y580410D01*
X290075Y580323D01*
X290105Y580235D01*
X290119Y580119D01*
X290177Y579842D01*
X290250Y579521D01*
X290323Y579185D01*
X290396Y578806D01*
X290469Y578442D01*
X290557Y578063D01*
X290629Y577698D01*
X290702Y577363D01*
X290761Y577057D01*
X290790Y576926D01*
X290819Y576809D01*
X290834Y576707D01*
X290863Y576619D01*
X290877Y576546D01*
Y576488D01*
X290892Y576459D01*
Y576444D01*
X290542D01*
Y576036D01*
X290994D01*
Y574607D01*
X291213D01*
Y573164D01*
X291840D01*
Y574141D01*
X292087D01*
Y576036D01*
X292875D01*
Y576444D01*
X292087D01*
Y576036D01*
X291533D01*
Y576444D01*
X292000D01*
X292073Y576809D01*
X292146Y577144D01*
X292204Y577450D01*
X292277Y577757D01*
X292321Y578034D01*
X292379Y578281D01*
X292437Y578529D01*
X292481Y578748D01*
X292525Y578952D01*
X292554Y579142D01*
X292598Y579317D01*
X292627Y579477D01*
X292685Y579754D01*
X292729Y579973D01*
X292758Y580162D01*
X292787Y580294D01*
X292816Y580396D01*
X292831Y580468D01*
Y580512D01*
X292846Y580541D01*
Y580556D01*
X295076D01*
X294901Y579812D01*
D02*
G37*
G36*
X305428Y575511D02*
X305180D01*
Y573135D01*
X303066D01*
Y572799D01*
X301608D01*
Y572099D01*
X303066D01*
Y572799D01*
X305414D01*
Y573135D01*
X306347D01*
Y572799D01*
X305428D01*
Y570029D01*
X305414Y570000D01*
X303066D01*
Y570219D01*
X300631D01*
Y572099D01*
X298488D01*
Y572799D01*
X301608D01*
Y573135D01*
X303066D01*
Y575715D01*
X303343D01*
Y578806D01*
X302920D01*
X302600Y578792D01*
X302337Y578763D01*
X302104Y578733D01*
X301929Y578690D01*
X301783Y578631D01*
X301681Y578602D01*
X301623Y578573D01*
X301608Y578558D01*
X301491Y578471D01*
X301375Y578354D01*
X301287Y578223D01*
X301200Y578077D01*
X301083Y577742D01*
X300996Y577407D01*
X300938Y577086D01*
X300923Y576955D01*
Y576823D01*
X300908Y576721D01*
Y576649D01*
Y576590D01*
Y576576D01*
Y575657D01*
X300631D01*
Y573412D01*
X301608D01*
Y573135D01*
X298488D01*
Y572799D01*
X297511D01*
Y570029D01*
X297497Y570015D01*
X297482Y570000D01*
X295747D01*
X295718Y570015D01*
Y570029D01*
Y575351D01*
X295470D01*
X295455Y575365D01*
X295441Y575380D01*
Y575395D01*
Y580527D01*
X295455Y580556D01*
X297467D01*
X297497Y580541D01*
X297511Y580527D01*
Y575788D01*
X298051D01*
X298065Y575774D01*
Y575759D01*
Y575744D01*
Y575511D01*
X298051Y575482D01*
X297511D01*
Y573135D01*
X298488D01*
Y575657D01*
X298809D01*
Y576109D01*
X298838Y576517D01*
X298867Y576896D01*
X298911Y577246D01*
X298955Y577567D01*
X299013Y577859D01*
X299057Y578121D01*
X299115Y578340D01*
X299173Y578544D01*
X299232Y578719D01*
X299290Y578865D01*
X299334Y578981D01*
X299377Y579069D01*
X299407Y579142D01*
X299421Y579171D01*
X299436Y579185D01*
X299596Y579433D01*
X299771Y579637D01*
X299975Y579827D01*
X300194Y579973D01*
X300413Y580104D01*
X300646Y580221D01*
X300879Y580308D01*
X301113Y580381D01*
X301331Y580439D01*
X301535Y580483D01*
X301725Y580512D01*
X301885Y580541D01*
X302031D01*
X302133Y580556D01*
X305428D01*
Y575511D01*
D02*
G37*
G36*
X309831Y574024D02*
X309904Y574010D01*
X309963Y573980D01*
X309992Y573937D01*
X310035Y573864D01*
Y573849D01*
Y573835D01*
Y573222D01*
X310021Y573149D01*
X309992Y573091D01*
X309948Y573062D01*
X309890Y573033D01*
X309788Y573003D01*
X307090D01*
X306988Y573018D01*
X306915Y573033D01*
X306872Y573076D01*
X306828Y573120D01*
X306799Y573193D01*
Y573208D01*
Y573222D01*
Y573835D01*
X306813Y573907D01*
X306842Y573951D01*
X306944Y574010D01*
X307061Y574039D01*
X309729D01*
X309831Y574024D01*
D02*
G37*
G36*
X335055Y573105D02*
X335069Y573091D01*
Y572756D01*
X335055Y572741D01*
X335040Y572726D01*
X334778D01*
X334763Y572741D01*
Y572756D01*
Y572814D01*
X334967D01*
Y572887D01*
X334821D01*
X334792Y572901D01*
Y572916D01*
Y572974D01*
X334967D01*
Y573033D01*
X334763D01*
Y573091D01*
Y573105D01*
X334778Y573120D01*
X335026D01*
X335055Y573105D01*
D02*
G37*
G36*
X335098Y572551D02*
X335055Y572493D01*
X335026Y572435D01*
X335011Y572406D01*
Y572333D01*
X334996Y572289D01*
X334982Y572231D01*
X334967Y572202D01*
X334909D01*
X334894Y572274D01*
X334880Y572347D01*
X334821Y572464D01*
X334778Y572551D01*
X334749Y572566D01*
Y572581D01*
Y572595D01*
X334763Y572610D01*
X334851D01*
X334880Y572581D01*
X334894Y572537D01*
X334909Y572493D01*
X334924Y572464D01*
X334996Y572551D01*
X335026Y572595D01*
X335055Y572610D01*
X335113D01*
X335098Y572551D01*
D02*
G37*
G36*
X342126Y571823D02*
X342009D01*
Y571983D01*
X341995Y571997D01*
X341980Y572012D01*
X341966Y572027D01*
X341951Y572012D01*
X341936Y571997D01*
X341878Y571925D01*
X341834Y571852D01*
X341805Y571837D01*
Y571823D01*
X341689D01*
X341878Y572114D01*
X341703Y572304D01*
X341820D01*
X341878Y572260D01*
X341922Y572216D01*
X341966Y572172D01*
X341995Y572143D01*
Y572129D01*
X342009D01*
Y572304D01*
X342126D01*
Y571823D01*
D02*
G37*
G36*
X335201Y572070D02*
Y572056D01*
Y571720D01*
X335186Y571691D01*
X335113D01*
Y571910D01*
X335098D01*
X335084Y571837D01*
X335069Y571779D01*
X335055Y571750D01*
X335040Y571720D01*
X335011Y571691D01*
X334967D01*
X334894Y571910D01*
X334880D01*
Y571691D01*
X334821D01*
X334792Y571706D01*
Y571720D01*
Y572056D01*
X334807Y572085D01*
X334894D01*
X334909Y572070D01*
X334924Y572056D01*
X334953Y571968D01*
X334967Y571895D01*
X334982Y571866D01*
Y571852D01*
X335011D01*
X335026Y571925D01*
X335040Y571983D01*
X335055Y572027D01*
X335069Y572056D01*
X335084Y572085D01*
X335171D01*
X335201Y572070D01*
D02*
G37*
G36*
X341514Y571823D02*
X341382D01*
Y571997D01*
X341237D01*
Y571939D01*
X341222Y571895D01*
X341208Y571852D01*
X341178Y571823D01*
X341091D01*
X341105Y571895D01*
X341120Y571954D01*
Y571983D01*
X341135Y572012D01*
X341149Y572041D01*
X341164D01*
X341120Y572099D01*
X341105Y572143D01*
X341091Y572158D01*
X341135Y572245D01*
X341193Y572289D01*
X341237Y572304D01*
X341514D01*
Y571823D01*
D02*
G37*
G36*
X340756Y572289D02*
X340799Y572274D01*
X340858Y572202D01*
X340887Y572114D01*
X340901Y572099D01*
Y572085D01*
X340887Y571997D01*
X340858Y571939D01*
X340828Y571881D01*
X340799Y571852D01*
X340726Y571823D01*
X340639D01*
X340551Y571837D01*
X340522Y571808D01*
X340508Y571793D01*
X340493Y571779D01*
X340464Y571808D01*
X340435Y571823D01*
Y571837D01*
X340449Y571866D01*
X340464Y571881D01*
X340493D01*
Y571895D01*
X340464Y571954D01*
X340435Y571983D01*
Y572012D01*
Y572027D01*
Y572085D01*
X340449Y572158D01*
X340478Y572216D01*
X340522Y572245D01*
X340551Y572274D01*
X340610Y572304D01*
X340697D01*
X340756Y572289D01*
D02*
G37*
G36*
X299932Y571881D02*
X299902Y571764D01*
X299873Y571677D01*
X299844Y571618D01*
X299829Y571589D01*
Y571575D01*
X299815Y571560D01*
X299713D01*
X299669Y571706D01*
X299625Y571808D01*
X299596Y571895D01*
X299582Y571954D01*
X299567Y571997D01*
Y572027D01*
Y572041D01*
X299684D01*
X299713Y571954D01*
X299727Y571881D01*
X299757Y571823D01*
Y571779D01*
X299771Y571750D01*
Y571735D01*
X299786D01*
X299873Y572041D01*
X299975D01*
X299932Y571881D01*
D02*
G37*
G36*
X300442Y571895D02*
X300471Y571779D01*
X300500Y571691D01*
X300529Y571633D01*
Y571604D01*
X300544Y571589D01*
Y571575D01*
Y571560D01*
X300442D01*
X300427Y571618D01*
X300413Y571648D01*
X300383Y571662D01*
X300238D01*
X300223Y571604D01*
X300208Y571575D01*
X300194Y571560D01*
X300106D01*
X300121Y571618D01*
X300136Y571691D01*
X300194Y571852D01*
X300208Y571924D01*
X300238Y571983D01*
X300252Y572027D01*
Y572041D01*
X300383D01*
X300442Y571895D01*
D02*
G37*
G36*
X299392Y571560D02*
X299261D01*
Y572041D01*
X299392D01*
Y571560D01*
D02*
G37*
G36*
X299057D02*
X298853D01*
X298780Y571575D01*
X298721Y571604D01*
X298692Y571633D01*
X298663Y571677D01*
X298634Y571735D01*
Y571764D01*
X298648Y571852D01*
X298663Y571924D01*
X298707Y571968D01*
X298736Y572012D01*
X298823Y572041D01*
X299057D01*
Y571560D01*
D02*
G37*
G36*
X289886Y571385D02*
X289784D01*
Y571546D01*
X289653D01*
Y571487D01*
X289638Y571458D01*
X289623Y571400D01*
X289594Y571385D01*
X289521D01*
Y571443D01*
X289536Y571502D01*
X289550Y571546D01*
X289565Y571575D01*
X289580D01*
X289521Y571691D01*
X289565Y571764D01*
X289609Y571793D01*
X289638Y571808D01*
X289886D01*
Y571385D01*
D02*
G37*
G36*
X333145Y571181D02*
X333130Y571152D01*
X333014D01*
X332911Y571166D01*
X332853Y571210D01*
X332824Y571239D01*
X332809Y571254D01*
X332824Y571298D01*
X332839Y571341D01*
X332853Y571371D01*
X332868Y571385D01*
X332853Y571400D01*
X332839Y571414D01*
X332824D01*
X332853Y571487D01*
X332897Y571531D01*
X332941Y571546D01*
X333145D01*
Y571181D01*
D02*
G37*
G36*
X339677Y571312D02*
Y571239D01*
X339662Y571181D01*
Y571137D01*
X339647Y571108D01*
X339633Y571079D01*
X339618D01*
X339604Y571094D01*
X339589Y571123D01*
Y571181D01*
X339575Y571239D01*
Y571298D01*
Y571356D01*
Y571385D01*
Y571400D01*
Y571414D01*
X339677D01*
Y571312D01*
D02*
G37*
G36*
Y570948D02*
X339575D01*
Y571064D01*
X339677D01*
Y570948D01*
D02*
G37*
G36*
X289886Y570802D02*
X289784D01*
Y570977D01*
X289623D01*
Y571079D01*
X289784D01*
Y571137D01*
X289594D01*
X289580Y571152D01*
Y571166D01*
Y571225D01*
X289886D01*
Y570802D01*
D02*
G37*
G36*
X333145Y570671D02*
X333130Y570642D01*
X333072D01*
X333057Y570656D01*
Y570671D01*
Y570860D01*
X332999Y570787D01*
X332955Y570729D01*
X332926Y570700D01*
X332911Y570671D01*
X332882Y570642D01*
X332824D01*
X332809Y570656D01*
Y570671D01*
Y571035D01*
X332897D01*
Y570787D01*
X332926D01*
X332970Y570875D01*
X332999Y570933D01*
X333028Y570977D01*
X333043Y571006D01*
X333072Y571035D01*
X333145D01*
Y570671D01*
D02*
G37*
G36*
X289886Y570219D02*
X289784D01*
Y570656D01*
X289886D01*
Y570219D01*
D02*
G37*
G36*
X344809Y575336D02*
X346485D01*
Y575118D01*
X344809D01*
Y573776D01*
X344590D01*
Y570000D01*
X343030D01*
Y570219D01*
X339779D01*
Y571516D01*
X339575D01*
Y571764D01*
X342286D01*
Y572420D01*
X342928D01*
Y572639D01*
X342286D01*
Y574811D01*
X339881D01*
Y575336D01*
X340012D01*
X339997Y575365D01*
X339983Y575540D01*
Y575701D01*
Y575847D01*
X339968Y575978D01*
Y576080D01*
Y576167D01*
X339954Y576313D01*
Y576401D01*
Y576459D01*
Y576488D01*
Y576503D01*
X342738D01*
Y578792D01*
X339647D01*
X339618Y578806D01*
X339604Y578821D01*
Y578835D01*
Y580556D01*
X344809D01*
Y575336D01*
D02*
G37*
G36*
X336163Y580498D02*
X336396Y580468D01*
X336615Y580439D01*
X336819Y580396D01*
X337008Y580337D01*
X337183Y580294D01*
X337329Y580235D01*
X337460Y580177D01*
X337577Y580133D01*
X337665Y580075D01*
X337752Y580031D01*
X337810Y580002D01*
X337854Y579973D01*
X337869Y579944D01*
X337883D01*
X338029Y579812D01*
X338146Y579667D01*
X338262Y579506D01*
X338350Y579346D01*
X338496Y579010D01*
X338598Y578675D01*
X338656Y578383D01*
X338670Y578267D01*
X338685Y578150D01*
X338700Y578063D01*
Y577990D01*
Y577946D01*
Y577931D01*
Y577800D01*
X338685Y577509D01*
X338641Y577246D01*
X338583Y576984D01*
X338496Y576751D01*
X338393Y576532D01*
X338292Y576328D01*
X338175Y576138D01*
X338044Y575978D01*
X337927Y575832D01*
X337810Y575701D01*
X337708Y575599D01*
X337606Y575511D01*
X337519Y575438D01*
X337460Y575395D01*
X337417Y575365D01*
X337402Y575351D01*
Y575336D01*
X338393D01*
Y575132D01*
X336352D01*
Y574272D01*
X334705D01*
Y571633D01*
X336906D01*
Y573383D01*
X339050D01*
Y573120D01*
X338423D01*
Y572741D01*
X339050D01*
Y573120D01*
X339735D01*
Y572741D01*
X339050D01*
Y571633D01*
X337942D01*
Y570000D01*
X333247D01*
Y571633D01*
X332649D01*
Y574841D01*
X332955D01*
Y575132D01*
X335390D01*
Y575336D01*
X333553D01*
Y575351D01*
X333742Y575497D01*
X333947Y575642D01*
X334122Y575759D01*
X334296Y575861D01*
X334442Y575934D01*
X334559Y576007D01*
X334632Y576036D01*
X334661Y576051D01*
X334865Y576138D01*
X335040Y576211D01*
X335201Y576284D01*
X335332Y576342D01*
X335448Y576386D01*
X335550Y576444D01*
X335623Y576474D01*
X335696Y576503D01*
X335784Y576561D01*
X335842Y576590D01*
X335871Y576605D01*
X336032Y576678D01*
X336163Y576765D01*
X336279Y576853D01*
X336382Y576940D01*
X336454Y577042D01*
X336527Y577144D01*
X336629Y577334D01*
X336702Y577523D01*
X336731Y577669D01*
X336746Y577727D01*
Y577771D01*
Y577786D01*
Y577800D01*
Y577946D01*
Y578034D01*
X336731Y578121D01*
X336717Y578194D01*
Y578223D01*
X336629Y578413D01*
X336498Y578558D01*
X336352Y578660D01*
X336192Y578733D01*
X336046Y578777D01*
X335915Y578792D01*
X335827Y578806D01*
X335507D01*
X335390Y578792D01*
X335288Y578777D01*
X335084Y578704D01*
X334996Y578660D01*
X334938Y578631D01*
X334894Y578617D01*
X334880Y578602D01*
X334763Y578442D01*
X334676Y578281D01*
X334603Y578121D01*
X334559Y577961D01*
X334530Y577830D01*
X334515Y577727D01*
Y577655D01*
Y577625D01*
X334311D01*
X334063Y577640D01*
X333801Y577655D01*
X333524Y577684D01*
X333276Y577698D01*
X333159D01*
X333057Y577713D01*
X332984D01*
X332926Y577727D01*
X332853D01*
X332868Y578034D01*
X332911Y578340D01*
X332984Y578617D01*
X333057Y578879D01*
X333130Y579083D01*
X333159Y579185D01*
X333203Y579258D01*
X333218Y579317D01*
X333247Y579360D01*
X333261Y579389D01*
Y579404D01*
X333393Y579608D01*
X333538Y579769D01*
X333699Y579929D01*
X333888Y580060D01*
X334078Y580162D01*
X334267Y580250D01*
X334472Y580323D01*
X334661Y580381D01*
X334851Y580439D01*
X335040Y580468D01*
X335201Y580498D01*
X335332Y580512D01*
X335463Y580527D01*
X335900D01*
X336163Y580498D01*
D02*
G37*
G36*
X331949Y574797D02*
X330943D01*
Y574257D01*
X331949D01*
Y573878D01*
Y573514D01*
Y573178D01*
X331935Y572872D01*
Y572595D01*
Y572347D01*
Y572129D01*
Y571925D01*
Y571750D01*
Y571589D01*
Y571473D01*
Y571356D01*
Y571283D01*
Y571225D01*
Y571196D01*
Y571181D01*
Y570642D01*
X331701D01*
Y570000D01*
X330054D01*
Y571385D01*
X330258D01*
Y573033D01*
X329893D01*
Y573966D01*
X329048D01*
X328654Y573980D01*
X327590D01*
Y574593D01*
X325855D01*
Y576386D01*
X326700D01*
Y576896D01*
X325811D01*
Y576867D01*
Y576794D01*
X325826Y576721D01*
Y576634D01*
X325840Y576546D01*
Y576474D01*
X325855Y576415D01*
Y576401D01*
Y576386D01*
X324295D01*
Y576896D01*
X325796D01*
Y577057D01*
X325782Y577203D01*
Y577246D01*
Y577290D01*
Y577319D01*
Y577334D01*
X325796Y577757D01*
X325840Y578150D01*
X325913Y578486D01*
X325971Y578777D01*
X326015Y578894D01*
X326044Y579010D01*
X326088Y579098D01*
X326117Y579171D01*
X326132Y579244D01*
X326161Y579287D01*
X326175Y579302D01*
Y579317D01*
X326321Y579535D01*
X326496Y579725D01*
X326700Y579885D01*
X326934Y580031D01*
X327167Y580148D01*
X327429Y580250D01*
X327692Y580323D01*
X327940Y580396D01*
X328187Y580439D01*
X328435Y580483D01*
X328654Y580498D01*
X328844Y580527D01*
X329004D01*
X329121Y580541D01*
X331949D01*
Y574797D01*
D02*
G37*
%LPC*%
G36*
X314307Y575045D02*
X313535D01*
Y574884D01*
X314468D01*
X314424Y574943D01*
X314380Y574972D01*
X314336Y575030D01*
X314307Y575045D01*
D02*
G37*
G36*
X300865Y573747D02*
Y573645D01*
X300952D01*
X300908Y573703D01*
X300879Y573733D01*
X300865Y573747D01*
D02*
G37*
G36*
X297497Y575788D02*
X296476D01*
Y575482D01*
X297497D01*
Y575788D01*
D02*
G37*
G36*
X341382Y572202D02*
X341237D01*
X341222Y572187D01*
Y572172D01*
Y572158D01*
Y572129D01*
Y572099D01*
X341237Y572085D01*
X341382D01*
Y572202D01*
D02*
G37*
G36*
X340697Y572216D02*
X340683D01*
X340610Y572187D01*
X340566Y572143D01*
X340551Y572099D01*
Y572070D01*
X340566Y572012D01*
Y571983D01*
Y571968D01*
X340610Y571997D01*
X340639Y571983D01*
X340653Y571968D01*
X340668Y571954D01*
Y571939D01*
X340639D01*
Y571910D01*
X340653D01*
X340726Y571925D01*
X340770Y571983D01*
X340785Y572027D01*
Y572041D01*
Y572085D01*
X340770Y572143D01*
X340726Y572187D01*
X340697Y572216D01*
D02*
G37*
G36*
X300340Y571895D02*
X300311D01*
Y571866D01*
X300296Y571808D01*
X300281Y571764D01*
Y571750D01*
X300369D01*
X300354Y571823D01*
X300340Y571866D01*
Y571895D01*
D02*
G37*
G36*
X298925Y571924D02*
X298823D01*
X298780Y571895D01*
X298765Y571866D01*
X298750Y571852D01*
Y571735D01*
X298780Y571691D01*
X298809Y571677D01*
X298823Y571662D01*
X298925D01*
Y571924D01*
D02*
G37*
G36*
X289784Y571735D02*
X289653D01*
X289638Y571720D01*
Y571706D01*
Y571691D01*
Y571677D01*
Y571648D01*
X289653Y571633D01*
X289784D01*
Y571735D01*
D02*
G37*
G36*
X333043Y571458D02*
X332941D01*
Y571429D01*
X332955Y571400D01*
X333043D01*
Y571458D01*
D02*
G37*
G36*
Y571327D02*
X332955D01*
X332926Y571312D01*
Y571298D01*
Y571283D01*
Y571254D01*
X332941Y571239D01*
X333043D01*
Y571327D01*
D02*
G37*
G36*
X344794Y575336D02*
X343934D01*
Y575118D01*
X344794D01*
Y575336D01*
D02*
G37*
G36*
X329893Y578748D02*
X328800D01*
X328625Y578733D01*
X328479Y578719D01*
X328377Y578690D01*
X328304Y578675D01*
X328246Y578646D01*
X328231Y578631D01*
X328217D01*
X328144Y578588D01*
X328071Y578544D01*
X328013Y578471D01*
X327954Y578383D01*
X327881Y578194D01*
X327823Y577990D01*
X327794Y577800D01*
X327765Y577625D01*
Y577567D01*
Y577509D01*
Y577480D01*
Y577465D01*
Y577275D01*
X327779Y577115D01*
X327794Y576955D01*
X327808Y576823D01*
X327823Y576707D01*
X327838Y576605D01*
X327881Y576430D01*
X327940Y576313D01*
X327969Y576240D01*
X327998Y576196D01*
X328013Y576182D01*
X329266D01*
Y575759D01*
X329893D01*
Y578748D01*
D02*
G37*
%LPD*%
D10*
X331366Y347516D02*
X330822Y348265D01*
X329942Y347979D01*
Y347053D01*
X330822Y346767D01*
X331366Y347516D01*
X324673Y344760D02*
X324129Y345509D01*
X323249Y345223D01*
Y344297D01*
X324129Y344011D01*
X324673Y344760D01*
X275021Y548705D02*
X274233D01*
X275021D01*
X391941Y562412D02*
X391154D01*
X391941D01*
X376301Y311622D02*
X375514D01*
X376301D01*
X361339Y665882D02*
X360551D01*
X361339D01*
X255512Y653185D02*
X254724D01*
X255512D01*
X290183Y311622D02*
X289396D01*
X290183D01*
X388994Y392807D02*
X390175D01*
X388994Y388476D02*
X390175D01*
X388994Y400376D02*
X390175D01*
X388994Y396045D02*
X390175D01*
X388998Y403476D02*
X390179D01*
X388998Y407807D02*
X390179D01*
X379083Y384327D02*
Y412673D01*
X378098D02*
X379083D01*
X378098Y384327D02*
X379083D01*
X351917D02*
X352902D01*
X351917Y412673D02*
X352902D01*
X351917Y384327D02*
Y412673D01*
X336287Y330157D02*
Y331339D01*
X331957Y330157D02*
Y331339D01*
X339829Y330157D02*
Y331339D01*
X344159Y330157D02*
Y331339D01*
X359915Y360513D02*
X361096D01*
X359915Y356183D02*
X361096D01*
X359915Y363538D02*
X361096D01*
X359915Y367869D02*
X361096D01*
X359915Y353157D02*
X361096D01*
X359915Y348827D02*
X361096D01*
X359915Y345802D02*
X361096D01*
X359915Y341471D02*
X361096D01*
X325854Y365626D02*
X342390D01*
Y364445D02*
Y365626D01*
X325854Y364445D02*
Y365626D01*
Y344366D02*
Y345547D01*
X342390Y344366D02*
Y345547D01*
X325854Y344366D02*
X342390D01*
X308919Y360513D02*
X310100D01*
X308919Y356183D02*
X310100D01*
X308919Y367869D02*
X310100D01*
X308919Y363538D02*
X310100D01*
X308919Y353157D02*
X310100D01*
X308919Y348827D02*
X310100D01*
X308919Y345802D02*
X310100D01*
X308919Y341471D02*
X310100D01*
X329287Y330157D02*
Y331339D01*
X324957Y330157D02*
Y331339D01*
X332738Y438760D02*
X335494D01*
X332738Y444862D02*
X335494D01*
X332738Y404177D02*
X335494D01*
X332738Y398075D02*
X335494D01*
X302522Y408894D02*
X342876D01*
X302522Y434091D02*
X342876D01*
X374571Y433800D02*
Y439300D01*
X368402Y433800D02*
X374571D01*
X368402D02*
Y439300D01*
X374571D01*
X389734Y431835D02*
X390915D01*
X389734Y436165D02*
X390915D01*
X389734Y428665D02*
X390915D01*
X389734Y424335D02*
X390915D01*
X366835Y659776D02*
Y660957D01*
X371165Y659776D02*
Y660957D01*
X397657Y639335D02*
X398839D01*
X397657Y643665D02*
X398839D01*
X237761Y326106D02*
Y327287D01*
X233431Y326106D02*
Y327287D01*
X228261Y326106D02*
Y327287D01*
X223931Y326106D02*
Y327287D01*
X223931Y341193D02*
Y342374D01*
X228261Y341193D02*
Y342374D01*
X233431Y341193D02*
Y342374D01*
X237761Y341193D02*
Y342374D01*
X287110Y525405D02*
X288291D01*
X287110Y521074D02*
X288291D01*
X274630Y426635D02*
X275811D01*
X274630Y430965D02*
X275811D01*
X274630Y437965D02*
X275811D01*
X274630Y433635D02*
X275811D01*
X274630Y415665D02*
X275811D01*
X274630Y411335D02*
X275811D01*
X274630Y408165D02*
X275811D01*
X274630Y403835D02*
X275811D01*
X274630Y400365D02*
X275811D01*
X274630Y396035D02*
X275811D01*
X273335Y659248D02*
Y660429D01*
X277665Y659248D02*
Y660429D01*
X409988Y441913D02*
Y450181D01*
Y436007D02*
Y438370D01*
Y431677D02*
Y432464D01*
X413925Y429708D02*
X417075D01*
X421012Y431677D02*
Y454511D01*
X413925Y456480D02*
X417075D01*
X409988Y453724D02*
Y454511D01*
X421012Y436007D02*
X426524D01*
Y441125D01*
X421012D02*
X426524D01*
X239442Y455161D02*
Y456343D01*
X243773Y455161D02*
Y456343D01*
X250773Y455161D02*
Y456343D01*
X246442Y455161D02*
Y456343D01*
X259227Y455161D02*
Y456343D01*
X254897Y455161D02*
Y456343D01*
X362256Y467412D02*
X382256D01*
X362256Y567412D02*
X382256D01*
X224925Y556559D02*
Y557740D01*
X220594Y556559D02*
Y557740D01*
X258937Y655980D02*
X262087D01*
X247913D02*
X251063D01*
X258937Y670980D02*
X262087D01*
X247913D02*
X251063D01*
X287110Y506421D02*
X288291D01*
X287110Y510752D02*
X288291D01*
X287110Y497696D02*
X288291D01*
X287110Y502027D02*
X288291D01*
X287110Y488971D02*
X288291D01*
X287110Y493302D02*
X288291D01*
X287110Y480246D02*
X288291D01*
X287110Y484577D02*
X288291D01*
X386144Y290657D02*
Y291839D01*
X390474Y290657D02*
Y291839D01*
X336144Y290657D02*
Y291839D01*
X340474Y290657D02*
Y291839D01*
X242665Y612768D02*
Y613949D01*
X238335Y612768D02*
Y613949D01*
X397642Y635398D02*
X398823D01*
X397642Y631067D02*
X398823D01*
X248126Y556559D02*
Y557740D01*
X243795Y556559D02*
Y557740D01*
X249646Y290658D02*
Y291839D01*
X253977Y290658D02*
Y291839D01*
X300040Y290658D02*
Y291839D01*
X304371Y290658D02*
Y291839D01*
X390165Y659776D02*
Y660957D01*
X385835Y659776D02*
Y660957D01*
X380665Y659776D02*
Y660957D01*
X376335Y659776D02*
Y660957D01*
X259269Y374524D02*
X260450D01*
X259269Y370193D02*
X260450D01*
X259269Y363193D02*
X260450D01*
X259269Y367524D02*
X260450D01*
X281915Y338886D02*
Y340067D01*
X286246Y338886D02*
Y340067D01*
X341713Y563411D02*
X339089Y560787D01*
X340401Y562099D01*
X339089Y563411D01*
X341713Y560787D01*
X331217Y564067D02*
X331873Y564723D01*
X333185D01*
X333841Y564067D01*
Y561443D01*
X333185Y560787D01*
X331873D01*
X331217Y561443D01*
X329905Y560787D02*
X328593D01*
X329249D01*
Y563411D01*
X329905D01*
X325970Y560787D02*
Y564067D01*
Y562755D01*
X326626D01*
X325314D01*
X325970D01*
Y564067D01*
X325314Y564723D01*
X321378Y560787D02*
X322690D01*
X323346Y561443D01*
Y562755D01*
X322690Y563411D01*
X321378D01*
X320722Y562755D01*
Y562099D01*
X323346D01*
X319410Y563411D02*
Y560787D01*
Y562099D01*
X318754Y562755D01*
X318098Y563411D01*
X317442D01*
X315474Y564723D02*
X312850D01*
X314162D01*
Y560787D01*
X309571D02*
X310883D01*
X311539Y561443D01*
Y562755D01*
X310883Y563411D01*
X309571D01*
X308915Y562755D01*
Y562099D01*
X311539D01*
X304979Y563411D02*
X306947D01*
X307603Y562755D01*
Y561443D01*
X306947Y560787D01*
X304979D01*
X303667Y564723D02*
Y560787D01*
Y562755D01*
X303011Y563411D01*
X301699D01*
X301043Y562755D01*
Y560787D01*
X295796Y563411D02*
X293172Y560787D01*
X294484Y562099D01*
X293172Y563411D01*
X295796Y560787D01*
D11*
X258293Y638555D02*
X258146Y639528D01*
X257719Y640414D01*
X257050Y641136D01*
X256199Y641627D01*
X255240Y641846D01*
X254259Y641773D01*
X253343Y641413D01*
X252574Y640800D01*
X252020Y639987D01*
X251730Y639047D01*
Y638064D01*
X252020Y637124D01*
X252574Y636311D01*
X253343Y635698D01*
X254259Y635338D01*
X255240Y635265D01*
X256199Y635484D01*
X257050Y635976D01*
X257719Y636697D01*
X258146Y637583D01*
X258293Y638555D01*
X405876Y336000D02*
Y344000D01*
Y336000D02*
X421376D01*
X405876Y344000D02*
X421376D01*
X421500Y325237D02*
Y354764D01*
X391968Y325237D02*
X421500D01*
X391968D02*
Y331218D01*
X392130Y354764D02*
X421500D01*
X391968Y348785D02*
Y354764D01*
Y338941D02*
Y341059D01*
X421453Y383594D02*
Y411154D01*
X409642D02*
X421453D01*
X409642Y383594D02*
Y411154D01*
Y383594D02*
X421453D01*
X421374Y600953D02*
Y628512D01*
X409563D02*
X421374D01*
X409563Y600953D02*
Y628512D01*
Y600953D02*
X421374D01*
X215500Y531767D02*
X271701D01*
X218354Y473303D02*
X271701D01*
X215500Y514838D02*
X218354Y511984D01*
X215500Y514838D02*
Y531767D01*
X218354Y473303D02*
Y511984D01*
X271701Y473303D02*
Y531767D01*
X259943Y644906D02*
X260793Y644056D01*
X249207Y644070D02*
X250043Y644906D01*
X259943D01*
X249207Y633241D02*
Y644070D01*
Y633241D02*
X250293Y632156D01*
X259893D01*
X260793Y633056D01*
Y644056D01*
X215626Y632157D02*
X227437D01*
Y604598D02*
Y632157D01*
X215626Y604598D02*
X227437D01*
X215626D02*
Y632157D01*
D13*
X270006Y326386D02*
X269514Y327238D01*
X268530D01*
X268037Y326386D01*
X268530Y325533D01*
X269514D01*
X270006Y326386D01*
X322876Y457111D02*
X324426D01*
X322876Y449511D02*
X324426D01*
X322876D02*
Y457111D01*
X322872Y385826D02*
Y393426D01*
Y385826D02*
X324422D01*
X322872Y393426D02*
X324422D01*
X341764Y478807D02*
Y492193D01*
X312236Y478807D02*
Y492193D01*
X320307Y500264D02*
X333693D01*
X320307Y470736D02*
X333693D01*
X274318Y452500D02*
Y456000D01*
X271318Y452500D02*
X274318D01*
X262818D02*
X265818D01*
X262818D02*
Y456000D01*
X275513Y558252D02*
Y572150D01*
X255828Y558252D02*
Y572150D01*
X243108Y363108D02*
X246608D01*
X243108D02*
Y366108D01*
Y371608D02*
Y374608D01*
X246608D01*
X270006Y329746D02*
Y331307D01*
X268614Y328354D02*
X270006Y329746D01*
X267053Y328354D02*
X268614D01*
X270006Y345087D02*
Y348039D01*
X267053D02*
X270006D01*
X250321Y328354D02*
X253274D01*
X250321D02*
Y331307D01*
Y345087D02*
Y348039D01*
X253274D01*
X345711Y277764D02*
X380907D01*
Y283394D01*
Y292606D02*
Y299220D01*
X345711Y277764D02*
Y283394D01*
Y292606D02*
Y299220D01*
X284173Y670567D02*
X355039D01*
Y594976D02*
Y597850D01*
Y668913D02*
Y670567D01*
X284173Y594976D02*
X289075D01*
X350138D02*
X355039D01*
X284173D02*
Y597850D01*
Y668913D02*
Y670567D01*
X273608Y363108D02*
X277108D01*
Y366108D01*
Y371608D02*
Y374608D01*
X273608D02*
X277108D01*
X259593Y292606D02*
Y299220D01*
Y277764D02*
Y283394D01*
X294789Y292606D02*
Y299220D01*
Y277764D02*
Y283394D01*
X259593Y277764D02*
X294789D01*
D16*
X383876Y393791D02*
X395293D01*
X383876Y387492D02*
Y393791D01*
Y387492D02*
X395293D01*
Y393791D01*
X383880Y402492D02*
X395297D01*
Y408791D01*
X383880D02*
X395297D01*
X383880Y402492D02*
Y408791D01*
X337272Y325039D02*
Y336457D01*
X330972D02*
X337272D01*
X330972Y325039D02*
Y336457D01*
Y325039D02*
X337272D01*
X338844D02*
Y336457D01*
Y325039D02*
X345144D01*
Y336457D01*
X338844D02*
X345144D01*
X354797Y361497D02*
X366214D01*
X354797Y355198D02*
Y361497D01*
Y355198D02*
X366214D01*
Y361497D01*
X354797Y354142D02*
X366214D01*
X354797Y347843D02*
Y354142D01*
Y347843D02*
X366214D01*
Y354142D01*
X354797Y346786D02*
X366214D01*
X354797Y340487D02*
Y346786D01*
Y340487D02*
X366214D01*
Y346786D01*
X365850Y654658D02*
Y666075D01*
Y654658D02*
X372150D01*
Y666075D01*
X365850D02*
X372150D01*
X392539Y638350D02*
X403957D01*
Y644650D01*
X392539D02*
X403957D01*
X392539Y638350D02*
Y644650D01*
X238746Y320988D02*
Y332405D01*
X232446D02*
X238746D01*
X232446Y320988D02*
Y332405D01*
Y320988D02*
X238746D01*
X229246D02*
Y332405D01*
X222946D02*
X229246D01*
X222946Y320988D02*
Y332405D01*
Y320988D02*
X229246D01*
X222946Y336075D02*
Y347492D01*
Y336075D02*
X229246D01*
Y347492D01*
X222946D02*
X229246D01*
X232446Y336075D02*
Y347492D01*
Y336075D02*
X238746D01*
Y347492D01*
X232446D02*
X238746D01*
X281992Y526389D02*
X293409D01*
X281992Y520090D02*
Y526389D01*
Y520090D02*
X293409D01*
Y526389D01*
X278000Y665500D02*
Y667468D01*
X277016D01*
X276688Y667140D01*
Y666484D01*
X277016Y666156D01*
X278000D01*
X277344D02*
X276688Y665500D01*
X276032Y667140D02*
X275704Y667468D01*
X275048D01*
X274720Y667140D01*
Y666812D01*
X275048Y666484D01*
X275376D01*
X275048D01*
X274720Y666156D01*
Y665828D01*
X275048Y665500D01*
X275704D01*
X276032Y665828D01*
X274064Y667140D02*
X273736Y667468D01*
X273080D01*
X272752Y667140D01*
Y666812D01*
X273080Y666484D01*
X273408D01*
X273080D01*
X272752Y666156D01*
Y665828D01*
X273080Y665500D01*
X273736D01*
X274064Y665828D01*
X259000Y462000D02*
Y463968D01*
X258016D01*
X257688Y463640D01*
Y462984D01*
X258016Y462656D01*
X259000D01*
X258344D02*
X257688Y462000D01*
X255720Y463968D02*
X257032D01*
Y462984D01*
X256376Y463312D01*
X256048D01*
X255720Y462984D01*
Y462328D01*
X256048Y462000D01*
X256704D01*
X257032Y462328D01*
X265256Y462828D02*
Y464140D01*
X265584Y464468D01*
X266240D01*
X266568Y464140D01*
Y462828D01*
X266240Y462500D01*
X265584D01*
X265912Y463156D02*
X265256Y462500D01*
X265584D02*
X265256Y462828D01*
X264600Y462500D02*
X263944D01*
X264272D01*
Y464468D01*
X264600Y464140D01*
X340468Y479000D02*
X338500D01*
Y480312D01*
X340140Y482280D02*
X340468Y481952D01*
Y481296D01*
X340140Y480968D01*
X339812D01*
X339484Y481296D01*
Y481952D01*
X339156Y482280D01*
X338828D01*
X338500Y481952D01*
Y481296D01*
X338828Y480968D01*
X338500Y482936D02*
Y483592D01*
Y483264D01*
X340468D01*
X340140Y482936D01*
X364860Y445688D02*
X364532Y446016D01*
Y446672D01*
X364860Y447000D01*
X365188D01*
X365516Y446672D01*
Y446016D01*
X365844Y445688D01*
X366172D01*
X366500Y446016D01*
Y446672D01*
X366172Y447000D01*
X364860Y443720D02*
X364532Y444048D01*
Y444704D01*
X364860Y445032D01*
X365188D01*
X365516Y444704D01*
Y444048D01*
X365844Y443720D01*
X366172D01*
X366500Y444048D01*
Y444704D01*
X366172Y445032D01*
X366500Y443064D02*
Y442408D01*
Y442736D01*
X364532D01*
X364860Y443064D01*
X381968Y409000D02*
X380000D01*
Y410312D01*
Y410968D02*
Y411624D01*
Y411296D01*
X381968D01*
X381640Y410968D01*
X396365Y448039D02*
X398005D01*
X398333Y447711D01*
Y447055D01*
X398005Y446728D01*
X396365D01*
X396693Y446071D02*
X396365Y445744D01*
Y445088D01*
X396693Y444760D01*
X397021D01*
X397349Y445088D01*
Y445416D01*
Y445088D01*
X397677Y444760D01*
X398005D01*
X398333Y445088D01*
Y445744D01*
X398005Y446071D01*
X244000Y462000D02*
Y463968D01*
X243016D01*
X242688Y463640D01*
Y462984D01*
X243016Y462656D01*
X244000D01*
X243344D02*
X242688Y462000D01*
X242032D02*
X241376D01*
X241704D01*
Y463968D01*
X242032Y463640D01*
X239080Y463968D02*
X239736Y463640D01*
X240392Y462984D01*
Y462328D01*
X240064Y462000D01*
X239408D01*
X239080Y462328D01*
Y462656D01*
X239408Y462984D01*
X240392D01*
X303258Y368203D02*
X301290D01*
Y367219D01*
X301618Y366892D01*
X302274D01*
X302602Y367219D01*
Y368203D01*
Y367547D02*
X303258Y366892D01*
Y366236D02*
Y365580D01*
Y365908D01*
X301290D01*
X301618Y366236D01*
X303258Y363612D02*
X301290D01*
X302274Y364596D01*
Y363284D01*
X303462Y360848D02*
X301494D01*
Y359864D01*
X301822Y359536D01*
X302478D01*
X302806Y359864D01*
Y360848D01*
Y360192D02*
X303462Y359536D01*
Y358880D02*
Y358224D01*
Y358552D01*
X301494D01*
X301822Y358880D01*
Y357240D02*
X301494Y356912D01*
Y356256D01*
X301822Y355928D01*
X302150D01*
X302478Y356256D01*
Y356584D01*
Y356256D01*
X302806Y355928D01*
X303134D01*
X303462Y356256D01*
Y356912D01*
X303134Y357240D01*
X303258Y352992D02*
X301290D01*
Y352008D01*
X301618Y351680D01*
X302274D01*
X302602Y352008D01*
Y352992D01*
Y352336D02*
X303258Y351680D01*
Y351024D02*
Y350368D01*
Y350696D01*
X301290D01*
X301618Y351024D01*
X303258Y348073D02*
Y349384D01*
X301946Y348073D01*
X301618D01*
X301290Y348400D01*
Y349056D01*
X301618Y349384D01*
X251000Y462000D02*
Y463968D01*
X250016D01*
X249688Y463640D01*
Y462984D01*
X250016Y462656D01*
X251000D01*
X250344D02*
X249688Y462000D01*
X249032D02*
X248376D01*
X248704D01*
Y463968D01*
X249032Y463640D01*
X247392Y462000D02*
X246736D01*
X247064D01*
Y463968D01*
X247392Y463640D01*
X303258Y345203D02*
X301290D01*
Y344220D01*
X301618Y343892D01*
X302274D01*
X302602Y344220D01*
Y345203D01*
Y344548D02*
X303258Y343892D01*
X302930Y343236D02*
X303258Y342908D01*
Y342252D01*
X302930Y341924D01*
X301618D01*
X301290Y342252D01*
Y342908D01*
X301618Y343236D01*
X301946D01*
X302274Y342908D01*
Y341924D01*
X396838Y425000D02*
X398806D01*
Y425984D01*
X398478Y426312D01*
X397822D01*
X397495Y425984D01*
Y425000D01*
Y425656D02*
X396838Y426312D01*
X398806Y426968D02*
Y428280D01*
X398478D01*
X397166Y426968D01*
X396838D01*
Y432433D02*
X398806D01*
Y433417D01*
X398478Y433745D01*
X397822D01*
X397495Y433417D01*
Y432433D01*
Y433089D02*
X396838Y433745D01*
X398806Y435713D02*
X398478Y435057D01*
X397822Y434401D01*
X397166D01*
X396838Y434729D01*
Y435385D01*
X397166Y435713D01*
X397495D01*
X397822Y435385D01*
Y434401D01*
X335994Y364122D02*
Y362482D01*
X335666Y362154D01*
X335010D01*
X334682Y362482D01*
Y364122D01*
X333042Y362154D02*
Y364122D01*
X334026Y363138D01*
X332714D01*
X367161Y363000D02*
X369129D01*
Y363984D01*
X368801Y364312D01*
X368145D01*
X367817Y363984D01*
Y363000D01*
Y363656D02*
X367161Y364312D01*
Y364968D02*
Y365624D01*
Y365296D01*
X369129D01*
X368801Y364968D01*
X369129Y367920D02*
Y366608D01*
X368145D01*
X368473Y367264D01*
Y367592D01*
X368145Y367920D01*
X367489D01*
X367161Y367592D01*
Y366936D01*
X367489Y366608D01*
X396337Y395642D02*
X398305D01*
Y396626D01*
X397976Y396954D01*
X397321D01*
X396992Y396626D01*
Y395642D01*
Y396298D02*
X396337Y396954D01*
Y397610D02*
Y398266D01*
Y397938D01*
X398305D01*
X397976Y397610D01*
Y399250D02*
X398305Y399577D01*
Y400233D01*
X397976Y400561D01*
X396665D01*
X396337Y400233D01*
Y399577D01*
X396665Y399250D01*
X397976D01*
X328661Y322500D02*
Y324468D01*
X327677D01*
X327349Y324140D01*
Y323484D01*
X327677Y323156D01*
X328661D01*
X328005D02*
X327349Y322500D01*
X326694Y324140D02*
X326365Y324468D01*
X325710D01*
X325382Y324140D01*
Y323812D01*
X325710Y323484D01*
X325382Y323156D01*
Y322828D01*
X325710Y322500D01*
X326365D01*
X326694Y322828D01*
Y323156D01*
X326365Y323484D01*
X326694Y323812D01*
Y324140D01*
X326365Y323484D02*
X325710D01*
X420016Y416968D02*
X420672D01*
X421000Y416640D01*
Y415328D01*
X420672Y415000D01*
X420016D01*
X419688Y415328D01*
Y416640D01*
X420016Y416968D01*
X419032Y415000D02*
Y416968D01*
X417720Y415000D01*
Y416968D01*
X417064Y415000D02*
X415752Y416312D01*
X414113Y416968D02*
X414768D01*
X415096Y416640D01*
Y415328D01*
X414768Y415000D01*
X414113D01*
X413785Y415328D01*
Y416640D01*
X414113Y416968D01*
X411817D02*
X413129D01*
Y415984D01*
X412473D01*
X413129D01*
Y415000D01*
X409849Y416968D02*
X411161D01*
Y415984D01*
X410505D01*
X411161D01*
Y415000D01*
X368801Y349812D02*
X369129Y349484D01*
Y348828D01*
X368801Y348500D01*
X367489D01*
X367161Y348828D01*
Y349484D01*
X367489Y349812D01*
X367161Y350468D02*
Y351124D01*
Y350796D01*
X369129D01*
X368801Y350468D01*
X367161Y353420D02*
Y352108D01*
X368473Y353420D01*
X368801D01*
X369129Y353092D01*
Y352436D01*
X368801Y352108D01*
Y357812D02*
X369129Y357484D01*
Y356828D01*
X368801Y356500D01*
X367489D01*
X367161Y356828D01*
Y357484D01*
X367489Y357812D01*
X367161Y358468D02*
Y359124D01*
Y358796D01*
X369129D01*
X368801Y358468D01*
X367161Y360108D02*
Y360764D01*
Y360436D01*
X369129D01*
X368801Y360108D01*
Y342312D02*
X369129Y341984D01*
Y341328D01*
X368801Y341000D01*
X367489D01*
X367161Y341328D01*
Y341984D01*
X367489Y342312D01*
X367161Y342968D02*
Y343624D01*
Y343296D01*
X369129D01*
X368801Y342968D01*
Y344608D02*
X369129Y344936D01*
Y345592D01*
X368801Y345920D01*
X367489D01*
X367161Y345592D01*
Y344936D01*
X367489Y344608D01*
X368801D01*
X397976Y404954D02*
X398305Y404626D01*
Y403970D01*
X397976Y403642D01*
X396665D01*
X396337Y403970D01*
Y404626D01*
X396665Y404954D01*
Y405610D02*
X396337Y405938D01*
Y406594D01*
X396665Y406921D01*
X397976D01*
X398305Y406594D01*
Y405938D01*
X397976Y405610D01*
X397649D01*
X397321Y405938D01*
Y406921D01*
X397976Y389954D02*
X398305Y389626D01*
Y388970D01*
X397976Y388642D01*
X396665D01*
X396337Y388970D01*
Y389626D01*
X396665Y389954D01*
X397976Y390610D02*
X398305Y390938D01*
Y391594D01*
X397976Y391921D01*
X397649D01*
X397321Y391594D01*
X396992Y391921D01*
X396665D01*
X396337Y391594D01*
Y390938D01*
X396665Y390610D01*
X396992D01*
X397321Y390938D01*
X397649Y390610D01*
X397976D01*
X397321Y390938D02*
Y391594D01*
X334849Y324140D02*
X335177Y324468D01*
X335833D01*
X336161Y324140D01*
Y322828D01*
X335833Y322500D01*
X335177D01*
X334849Y322828D01*
X334193Y324468D02*
X332882D01*
Y324140D01*
X334193Y322828D01*
Y322500D01*
X342349Y324140D02*
X342677Y324468D01*
X343333D01*
X343661Y324140D01*
Y322828D01*
X343333Y322500D01*
X342677D01*
X342349Y322828D01*
X340382Y324468D02*
X341038Y324140D01*
X341693Y323484D01*
Y322828D01*
X341366Y322500D01*
X340710D01*
X340382Y322828D01*
Y323156D01*
X340710Y323484D01*
X341693D01*
X225500Y563500D02*
Y565468D01*
X224516D01*
X224188Y565140D01*
Y564484D01*
X224516Y564156D01*
X225500D01*
X224844D02*
X224188Y563500D01*
X223532Y565140D02*
X223204Y565468D01*
X222548D01*
X222220Y565140D01*
Y564812D01*
X222548Y564484D01*
X222876D01*
X222548D01*
X222220Y564156D01*
Y563828D01*
X222548Y563500D01*
X223204D01*
X223532Y563828D01*
X220252Y565468D02*
X221564D01*
Y564484D01*
X220908Y564812D01*
X220580D01*
X220252Y564484D01*
Y563828D01*
X220580Y563500D01*
X221236D01*
X221564Y563828D01*
X341000Y297500D02*
Y299468D01*
X340016D01*
X339688Y299140D01*
Y298484D01*
X340016Y298156D01*
X341000D01*
X340344D02*
X339688Y297500D01*
X337720D02*
X339032D01*
X337720Y298812D01*
Y299140D01*
X338048Y299468D01*
X338704D01*
X339032Y299140D01*
X337064D02*
X336736Y299468D01*
X336080D01*
X335752Y299140D01*
Y298812D01*
X336080Y298484D01*
X336408D01*
X336080D01*
X335752Y298156D01*
Y297828D01*
X336080Y297500D01*
X336736D01*
X337064Y297828D01*
X390500Y297500D02*
Y299468D01*
X389516D01*
X389188Y299140D01*
Y298484D01*
X389516Y298156D01*
X390500D01*
X389844D02*
X389188Y297500D01*
X387220D02*
X388532D01*
X387220Y298812D01*
Y299140D01*
X387548Y299468D01*
X388204D01*
X388532Y299140D01*
X385252Y297500D02*
X386564D01*
X385252Y298812D01*
Y299140D01*
X385580Y299468D01*
X386236D01*
X386564Y299140D01*
X238688Y552828D02*
Y554140D01*
X239016Y554468D01*
X239672D01*
X240000Y554140D01*
Y552828D01*
X239672Y552500D01*
X239016D01*
X239344Y553156D02*
X238688Y552500D01*
X239016D02*
X238688Y552828D01*
X237048Y552500D02*
Y554468D01*
X238032Y553484D01*
X236720D01*
X370188Y668140D02*
X370516Y668468D01*
X371172D01*
X371500Y668140D01*
Y666828D01*
X371172Y666500D01*
X370516D01*
X370188Y666828D01*
X369532Y666500D02*
X368876D01*
X369204D01*
Y668468D01*
X369532Y668140D01*
X367892Y668468D02*
X366580D01*
Y668140D01*
X367892Y666828D01*
Y666500D01*
X294000Y506500D02*
X295968D01*
Y507484D01*
X295640Y507812D01*
X294984D01*
X294656Y507484D01*
Y506500D01*
Y507156D02*
X294000Y507812D01*
Y509452D02*
X295968D01*
X294984Y508468D01*
Y509780D01*
X294000Y489500D02*
X295968D01*
Y490484D01*
X295640Y490812D01*
X294984D01*
X294656Y490484D01*
Y489500D01*
Y490156D02*
X294000Y490812D01*
X295640Y491468D02*
X295968Y491796D01*
Y492452D01*
X295640Y492780D01*
X295312D01*
X294984Y492452D01*
Y492124D01*
Y492452D01*
X294656Y492780D01*
X294328D01*
X294000Y492452D01*
Y491796D01*
X294328Y491468D01*
X294000Y480500D02*
X295968D01*
Y481484D01*
X295640Y481812D01*
X294984D01*
X294656Y481484D01*
Y480500D01*
Y481156D02*
X294000Y481812D01*
Y483780D02*
Y482468D01*
X295312Y483780D01*
X295640D01*
X295968Y483452D01*
Y482796D01*
X295640Y482468D01*
X294000Y498000D02*
X295968D01*
Y498984D01*
X295640Y499312D01*
X294984D01*
X294656Y498984D01*
Y498000D01*
Y498656D02*
X294000Y499312D01*
Y499968D02*
Y500624D01*
Y500296D01*
X295968D01*
X295640Y499968D01*
X254191Y297500D02*
Y299468D01*
X253207D01*
X252879Y299140D01*
Y298484D01*
X253207Y298156D01*
X254191D01*
X253535D02*
X252879Y297500D01*
X250911D02*
X252223D01*
X250911Y298812D01*
Y299140D01*
X251239Y299468D01*
X251895D01*
X252223Y299140D01*
X250255Y299468D02*
X248943D01*
Y299140D01*
X250255Y297828D01*
Y297500D01*
X304691D02*
Y299468D01*
X303707D01*
X303379Y299140D01*
Y298484D01*
X303707Y298156D01*
X304691D01*
X304035D02*
X303379Y297500D01*
X301411D02*
X302723D01*
X301411Y298812D01*
Y299140D01*
X301739Y299468D01*
X302395D01*
X302723Y299140D01*
X299443Y299468D02*
X300099Y299140D01*
X300755Y298484D01*
Y297828D01*
X300427Y297500D01*
X299771D01*
X299443Y297828D01*
Y298156D01*
X299771Y298484D01*
X300755D01*
X262500Y376000D02*
Y377968D01*
X261516D01*
X261188Y377640D01*
Y376984D01*
X261516Y376656D01*
X262500D01*
X261844D02*
X261188Y376000D01*
X259220D02*
X260532D01*
X259220Y377312D01*
Y377640D01*
X259548Y377968D01*
X260204D01*
X260532Y377640D01*
X257252Y377968D02*
X258564D01*
Y376984D01*
X257908Y377312D01*
X257580D01*
X257252Y376984D01*
Y376328D01*
X257580Y376000D01*
X258236D01*
X258564Y376328D01*
X262500Y359500D02*
Y361468D01*
X261516D01*
X261188Y361140D01*
Y360484D01*
X261516Y360156D01*
X262500D01*
X261844D02*
X261188Y359500D01*
X259220D02*
X260532D01*
X259220Y360812D01*
Y361140D01*
X259548Y361468D01*
X260204D01*
X260532Y361140D01*
X257580Y359500D02*
Y361468D01*
X258564Y360484D01*
X257252D01*
X286500Y345500D02*
Y347468D01*
X285516D01*
X285188Y347140D01*
Y346484D01*
X285516Y346156D01*
X286500D01*
X285844D02*
X285188Y345500D01*
X283220D02*
X284532D01*
X283220Y346812D01*
Y347140D01*
X283548Y347468D01*
X284204D01*
X284532Y347140D01*
X282564D02*
X282236Y347468D01*
X281580D01*
X281252Y347140D01*
Y345828D01*
X281580Y345500D01*
X282236D01*
X282564Y345828D01*
Y347140D01*
X245046Y375468D02*
Y376780D01*
X245374Y377108D01*
X246030D01*
X246358Y376780D01*
Y375468D01*
X246030Y375140D01*
X245374D01*
X245702Y375796D02*
X245046Y375140D01*
X245374D02*
X245046Y375468D01*
X244391Y376780D02*
X244062Y377108D01*
X243407D01*
X243078Y376780D01*
Y376452D01*
X243407Y376124D01*
X243735D01*
X243407D01*
X243078Y375796D01*
Y375468D01*
X243407Y375140D01*
X244062D01*
X244391Y375468D01*
X275046D02*
Y376780D01*
X275374Y377108D01*
X276030D01*
X276358Y376780D01*
Y375468D01*
X276030Y375140D01*
X275374D01*
X275702Y375796D02*
X275046Y375140D01*
X275374D02*
X275046Y375468D01*
X273078Y375140D02*
X274391D01*
X273078Y376452D01*
Y376780D01*
X273407Y377108D01*
X274062D01*
X274391Y376780D01*
X236688Y319640D02*
X237016Y319968D01*
X237672D01*
X238000Y319640D01*
Y318328D01*
X237672Y318000D01*
X237016D01*
X236688Y318328D01*
X236032Y318000D02*
X235376D01*
X235704D01*
Y319968D01*
X236032Y319640D01*
X233080Y319968D02*
X233736Y319640D01*
X234392Y318984D01*
Y318328D01*
X234064Y318000D01*
X233408D01*
X233080Y318328D01*
Y318656D01*
X233408Y318984D01*
X234392D01*
X227188Y319640D02*
X227516Y319968D01*
X228172D01*
X228500Y319640D01*
Y318328D01*
X228172Y318000D01*
X227516D01*
X227188Y318328D01*
X226532Y318000D02*
X225876D01*
X226204D01*
Y319968D01*
X226532Y319640D01*
X223580Y319968D02*
X224892D01*
Y318984D01*
X224236Y319312D01*
X223908D01*
X223580Y318984D01*
Y318328D01*
X223908Y318000D01*
X224564D01*
X224892Y318328D01*
X227188Y350140D02*
X227516Y350468D01*
X228172D01*
X228500Y350140D01*
Y348828D01*
X228172Y348500D01*
X227516D01*
X227188Y348828D01*
X226532Y348500D02*
X225876D01*
X226204D01*
Y350468D01*
X226532Y350140D01*
X223908Y348500D02*
Y350468D01*
X224892Y349484D01*
X223580D01*
X236688Y350140D02*
X237016Y350468D01*
X237672D01*
X238000Y350140D01*
Y348828D01*
X237672Y348500D01*
X237016D01*
X236688Y348828D01*
X236032Y348500D02*
X235376D01*
X235704D01*
Y350468D01*
X236032Y350140D01*
X234392D02*
X234064Y350468D01*
X233408D01*
X233080Y350140D01*
Y349812D01*
X233408Y349484D01*
X233736D01*
X233408D01*
X233080Y349156D01*
Y348828D01*
X233408Y348500D01*
X234064D01*
X234392Y348828D01*
X390500Y666500D02*
Y668468D01*
X389516D01*
X389188Y668140D01*
Y667484D01*
X389516Y667156D01*
X390500D01*
X389844D02*
X389188Y666500D01*
X388532D02*
X387876D01*
X388204D01*
Y668468D01*
X388532Y668140D01*
X386892D02*
X386564Y668468D01*
X385908D01*
X385580Y668140D01*
Y667812D01*
X385908Y667484D01*
X385580Y667156D01*
Y666828D01*
X385908Y666500D01*
X386564D01*
X386892Y666828D01*
Y667156D01*
X386564Y667484D01*
X386892Y667812D01*
Y668140D01*
X386564Y667484D02*
X385908D01*
X380500Y666500D02*
Y668468D01*
X379516D01*
X379188Y668140D01*
Y667484D01*
X379516Y667156D01*
X380500D01*
X379844D02*
X379188Y666500D01*
X378532D02*
X377876D01*
X378204D01*
Y668468D01*
X378532Y668140D01*
X376892Y668468D02*
X375580D01*
Y668140D01*
X376892Y666828D01*
Y666500D01*
X295640Y523312D02*
X295968Y522984D01*
Y522328D01*
X295640Y522000D01*
X294328D01*
X294000Y522328D01*
Y522984D01*
X294328Y523312D01*
X294000Y523968D02*
Y524624D01*
Y524296D01*
X295968D01*
X295640Y523968D01*
X323917Y402561D02*
X323589Y402889D01*
Y403545D01*
X323917Y403873D01*
X325229D01*
X325557Y403545D01*
Y402889D01*
X325229Y402561D01*
X323589Y400593D02*
Y401905D01*
X324573D01*
X324245Y401249D01*
Y400921D01*
X324573Y400593D01*
X325229D01*
X325557Y400921D01*
Y401577D01*
X325229Y401905D01*
X324360Y442188D02*
X324032Y442516D01*
Y443172D01*
X324360Y443500D01*
X325672D01*
X326000Y443172D01*
Y442516D01*
X325672Y442188D01*
X326000Y440548D02*
X324032D01*
X325016Y441532D01*
Y440220D01*
X320322Y389999D02*
X319994Y390327D01*
Y390983D01*
X320322Y391311D01*
X321634D01*
X321962Y390983D01*
Y390327D01*
X321634Y389999D01*
X320322Y389343D02*
X319994Y389015D01*
Y388359D01*
X320322Y388031D01*
X320650D01*
X320978Y388359D01*
Y388687D01*
Y388359D01*
X321306Y388031D01*
X321634D01*
X321962Y388359D01*
Y389015D01*
X321634Y389343D01*
X320360Y453688D02*
X320032Y454016D01*
Y454672D01*
X320360Y455000D01*
X321672D01*
X322000Y454672D01*
Y454016D01*
X321672Y453688D01*
X322000Y451720D02*
Y453032D01*
X320688Y451720D01*
X320360D01*
X320032Y452048D01*
Y452704D01*
X320360Y453032D01*
X248500Y563500D02*
Y565468D01*
X247516D01*
X247188Y565140D01*
Y564484D01*
X247516Y564156D01*
X248500D01*
X247844D02*
X247188Y563500D01*
X246532Y565140D02*
X246204Y565468D01*
X245548D01*
X245220Y565140D01*
Y564812D01*
X245548Y564484D01*
X245876D01*
X245548D01*
X245220Y564156D01*
Y563828D01*
X245548Y563500D01*
X246204D01*
X246532Y563828D01*
X243580Y563500D02*
Y565468D01*
X244564Y564484D01*
X243252D01*
X283449Y415500D02*
X281481D01*
Y414516D01*
X281809Y414188D01*
X282465D01*
X282793Y414516D01*
Y415500D01*
Y414844D02*
X283449Y414188D01*
X281809Y413532D02*
X281481Y413204D01*
Y412548D01*
X281809Y412220D01*
X282137D01*
X282465Y412548D01*
Y412876D01*
Y412548D01*
X282793Y412220D01*
X283121D01*
X283449Y412548D01*
Y413204D01*
X283121Y413532D01*
X283449Y410252D02*
Y411564D01*
X282137Y410252D01*
X281809D01*
X281481Y410580D01*
Y411236D01*
X281809Y411564D01*
X283500Y438000D02*
X281532D01*
Y437016D01*
X281860Y436688D01*
X282516D01*
X282844Y437016D01*
Y438000D01*
Y437344D02*
X283500Y436688D01*
X281860Y436032D02*
X281532Y435704D01*
Y435048D01*
X281860Y434720D01*
X282188D01*
X282516Y435048D01*
Y435376D01*
Y435048D01*
X282844Y434720D01*
X283172D01*
X283500Y435048D01*
Y435704D01*
X283172Y436032D01*
X283500Y434064D02*
Y433408D01*
Y433736D01*
X281532D01*
X281860Y434064D01*
X283500Y431500D02*
X281532D01*
Y430516D01*
X281860Y430188D01*
X282516D01*
X282844Y430516D01*
Y431500D01*
Y430844D02*
X283500Y430188D01*
X281860Y429532D02*
X281532Y429204D01*
Y428548D01*
X281860Y428220D01*
X282188D01*
X282516Y428548D01*
Y428876D01*
Y428548D01*
X282844Y428220D01*
X283172D01*
X283500Y428548D01*
Y429204D01*
X283172Y429532D01*
X281860Y427564D02*
X281532Y427236D01*
Y426580D01*
X281860Y426252D01*
X283172D01*
X283500Y426580D01*
Y427236D01*
X283172Y427564D01*
X281860D01*
X283449Y408500D02*
X281481D01*
Y407516D01*
X281809Y407188D01*
X282465D01*
X282793Y407516D01*
Y408500D01*
Y407844D02*
X283449Y407188D01*
Y405220D02*
Y406532D01*
X282137Y405220D01*
X281809D01*
X281481Y405548D01*
Y406204D01*
X281809Y406532D01*
X283121Y404564D02*
X283449Y404236D01*
Y403580D01*
X283121Y403252D01*
X281809D01*
X281481Y403580D01*
Y404236D01*
X281809Y404564D01*
X282137D01*
X282465Y404236D01*
Y403252D01*
X283449Y400700D02*
X281481D01*
Y399716D01*
X281809Y399388D01*
X282465D01*
X282793Y399716D01*
Y400700D01*
Y400044D02*
X283449Y399388D01*
Y397420D02*
Y398732D01*
X282137Y397420D01*
X281809D01*
X281481Y397748D01*
Y398404D01*
X281809Y398732D01*
Y396764D02*
X281481Y396436D01*
Y395780D01*
X281809Y395452D01*
X282137D01*
X282465Y395780D01*
X282793Y395452D01*
X283121D01*
X283449Y395780D01*
Y396436D01*
X283121Y396764D01*
X282793D01*
X282465Y396436D01*
X282137Y396764D01*
X281809D01*
X282465Y396436D02*
Y395780D01*
X404000Y621500D02*
X401001D01*
Y620001D01*
X401501Y619501D01*
X402500D01*
X403000Y620001D01*
Y621500D01*
Y620500D02*
X404000Y619501D01*
X401001Y616502D02*
Y618501D01*
X404000D01*
Y616502D01*
X402500Y618501D02*
Y617501D01*
X401501Y613503D02*
X401001Y614002D01*
Y615002D01*
X401501Y615502D01*
X402001D01*
X402500Y615002D01*
Y614002D01*
X403000Y613503D01*
X403500D01*
X404000Y614002D01*
Y615002D01*
X403500Y615502D01*
X401001Y610504D02*
Y612503D01*
X404000D01*
Y610504D01*
X402500Y612503D02*
Y611503D01*
X401001Y609504D02*
Y607505D01*
Y608504D01*
X404000D01*
X243000Y605000D02*
Y606968D01*
X242016D01*
X241688Y606640D01*
Y605984D01*
X242016Y605656D01*
X243000D01*
X242344D02*
X241688Y605000D01*
X239720D02*
X241032D01*
X239720Y606312D01*
Y606640D01*
X240048Y606968D01*
X240704D01*
X241032Y606640D01*
X239064Y605000D02*
X238408D01*
X238736D01*
Y606968D01*
X239064Y606640D01*
X392000Y635500D02*
X390032D01*
Y634516D01*
X390360Y634188D01*
X391016D01*
X391344Y634516D01*
Y635500D01*
Y634844D02*
X392000Y634188D01*
Y633532D02*
Y632876D01*
Y633204D01*
X390032D01*
X390360Y633532D01*
X391672Y631892D02*
X392000Y631564D01*
Y630908D01*
X391672Y630580D01*
X390360D01*
X390032Y630908D01*
Y631564D01*
X390360Y631892D01*
X390688D01*
X391016Y631564D01*
Y630580D01*
X389860Y642688D02*
X389532Y643016D01*
Y643672D01*
X389860Y644000D01*
X391172D01*
X391500Y643672D01*
Y643016D01*
X391172Y642688D01*
X391500Y642032D02*
Y641376D01*
Y641704D01*
X389532D01*
X389860Y642032D01*
Y640392D02*
X389532Y640064D01*
Y639408D01*
X389860Y639080D01*
X390188D01*
X390516Y639408D01*
X390844Y639080D01*
X391172D01*
X391500Y639408D01*
Y640064D01*
X391172Y640392D01*
X390844D01*
X390516Y640064D01*
X390188Y640392D01*
X389860D01*
X390516Y640064D02*
Y639408D01*
X235499Y613500D02*
X232500D01*
Y614999D01*
X233000Y615499D01*
X233500D01*
X233999Y614999D01*
Y613500D01*
Y614999D01*
X234499Y615499D01*
X234999D01*
X235499Y614999D01*
Y613500D01*
Y617999D02*
Y616999D01*
X234999Y616499D01*
X233000D01*
X232500Y616999D01*
Y617999D01*
X233000Y618498D01*
X234999D01*
X235499Y617999D01*
Y620998D02*
Y619998D01*
X234999Y619498D01*
X233000D01*
X232500Y619998D01*
Y620998D01*
X233000Y621497D01*
X234999D01*
X235499Y620998D01*
Y622497D02*
Y624496D01*
Y623497D01*
X232500D01*
D120*
X333723Y430489D02*
X332985Y430915D01*
Y430063D01*
X333723Y430489D01*
D121*
X265308Y418200D02*
X264459Y417848D01*
X264108Y417000D01*
X264459Y416152D01*
X265308Y415800D01*
X264408Y432000D02*
X265308D01*
X223908Y402000D02*
X224808D01*
X223908D02*
Y432000D01*
X224808D01*
X265308Y418200D02*
Y432000D01*
Y415800D02*
Y418200D01*
Y402000D02*
Y415800D01*
X264408Y402000D02*
X265308D01*
D122*
X384321Y444748D02*
Y447898D01*
X386683D01*
X395344Y444748D02*
Y447898D01*
X392982D02*
X395344D01*
X236766Y555632D02*
X239360D01*
Y558832D01*
X228160Y555632D02*
X230754D01*
X228160D02*
Y558832D01*
D123*
X318600Y466937D02*
Y469070D01*
X341100Y466150D02*
Y468282D01*
X342166Y467216D02*
X340033D01*
D124*
X371533Y437550D02*
D03*
M02*
