G04*
G04 #@! TF.GenerationSoftware,Altium Limited,Altium Designer,20.1.7 (139)*
G04*
G04 Layer_Color=16711935*
%FSLAX25Y25*%
%MOIN*%
G70*
G04*
G04 #@! TF.SameCoordinates,5ECA0F7F-463D-40B6-9D18-12E9E7DCF4CC*
G04*
G04*
G04 #@! TF.FilePolarity,Negative*
G04*
G01*
G75*
%ADD22R,0.06115X0.17335*%
%ADD23R,0.06706X0.06706*%
%ADD24C,0.06706*%
%ADD25C,0.04343*%
%ADD26C,0.00800*%
%ADD27C,0.05524*%
%ADD28O,0.04343X0.07493*%
%ADD29O,0.04343X0.08674*%
%ADD30C,0.03162*%
%ADD31C,0.03300*%
%ADD84R,0.04540X0.05918*%
%ADD85R,0.24422X0.10249*%
%ADD86R,0.05918X0.04540*%
%ADD87R,0.08661X0.12598*%
%ADD88O,0.08674X0.03162*%
%ADD89R,0.08670X0.05520*%
%ADD90R,0.05328X0.07690*%
%ADD91R,0.26391X0.23635*%
%ADD92R,0.08674X0.04540*%
%ADD93R,0.07887X0.08674*%
%ADD94R,0.03950X0.04343*%
%ADD95R,0.02900X0.07900*%
%ADD96O,0.06312X0.03162*%
%ADD97R,0.03950X0.04737*%
%ADD98R,0.07887X0.07887*%
%ADD99R,0.04800X0.05300*%
%ADD100R,0.06706X0.06706*%
%ADD101R,0.08674X0.05524*%
G04:AMPARAMS|DCode=102|XSize=69.81mil|YSize=24.14mil|CornerRadius=6.02mil|HoleSize=0mil|Usage=FLASHONLY|Rotation=90.000|XOffset=0mil|YOffset=0mil|HoleType=Round|Shape=RoundedRectangle|*
%AMROUNDEDRECTD102*
21,1,0.06981,0.01211,0,0,90.0*
21,1,0.05778,0.02414,0,0,90.0*
1,1,0.01204,0.00605,0.02889*
1,1,0.01204,0.00605,-0.02889*
1,1,0.01204,-0.00605,-0.02889*
1,1,0.01204,-0.00605,0.02889*
%
%ADD102ROUNDEDRECTD102*%
%ADD103R,0.07800X0.03800*%
%ADD104R,0.06800X0.04800*%
%ADD105R,0.08800X0.06800*%
%ADD106R,0.05300X0.04800*%
%ADD107R,0.01800X0.04343*%
%ADD108R,0.04343X0.01800*%
%ADD109R,0.13005X0.13005*%
%ADD110R,0.15288X0.05800*%
%ADD111R,0.02756X0.04882*%
%ADD112R,0.01575X0.04882*%
%ADD113R,0.04737X0.06312*%
%ADD114R,0.06706X0.04343*%
%ADD115R,0.04343X0.06706*%
%ADD116R,0.04343X0.04343*%
%ADD117R,0.04934X0.09461*%
%ADD118R,0.04737X0.04934*%
%ADD119R,0.05800X0.14973*%
D22*
X266122Y662713D02*
D03*
X243878D02*
D03*
D23*
X391876Y344922D02*
D03*
D24*
Y335079D02*
D03*
D25*
X415500Y449000D02*
D03*
Y437188D02*
D03*
D26*
X415579Y392752D02*
D03*
X415547Y401902D02*
D03*
X415500Y610110D02*
D03*
X415469Y619260D02*
D03*
X230953Y514740D02*
D03*
Y483047D02*
D03*
X221531Y613850D02*
D03*
X221500Y623000D02*
D03*
D27*
X415326Y376842D02*
D03*
X222019D02*
D03*
Y645543D02*
D03*
X415326D02*
D03*
D28*
X346282Y288000D02*
D03*
X380337D02*
D03*
X294219D02*
D03*
X260163D02*
D03*
D29*
X346282Y304417D02*
D03*
X380337D02*
D03*
X294219D02*
D03*
X260163D02*
D03*
D30*
X351931Y302488D02*
D03*
X374687D02*
D03*
X288569D02*
D03*
X265813D02*
D03*
D31*
X278469Y413500D02*
D03*
X336500Y350500D02*
D03*
X319000Y425500D02*
D03*
X320000Y527000D02*
D03*
X388000Y595500D02*
D03*
X413000Y570500D02*
D03*
X285500Y439500D02*
D03*
X290000Y446500D02*
D03*
X339333Y389626D02*
D03*
X278500Y422000D02*
D03*
X262108Y435800D02*
D03*
X306500Y366000D02*
D03*
X248608Y452504D02*
D03*
X236500Y445500D02*
D03*
X339500Y458500D02*
D03*
X290500Y456500D02*
D03*
X226096Y338536D02*
D03*
X323098Y352496D02*
D03*
X323061Y357534D02*
D03*
X290949Y482412D02*
D03*
X313000Y487500D02*
D03*
X271973Y435800D02*
D03*
X226096Y329945D02*
D03*
X274500Y320500D02*
D03*
X371902Y337098D02*
D03*
X371500Y428800D02*
D03*
X345000Y372000D02*
D03*
X348500Y410000D02*
D03*
X345146Y352496D02*
D03*
X386000Y441000D02*
D03*
X357258Y358348D02*
D03*
X372500Y352500D02*
D03*
X365500Y386689D02*
D03*
X360500Y586000D02*
D03*
X354055Y610882D02*
D03*
X362512Y502412D02*
D03*
X345146Y357496D02*
D03*
X241250Y425750D02*
D03*
X254500Y413500D02*
D03*
X394016Y647984D02*
D03*
X227108Y435800D02*
D03*
X232108Y398200D02*
D03*
Y435800D02*
D03*
X240000Y421000D02*
D03*
X242108Y435800D02*
D03*
X271973Y428800D02*
D03*
X237108Y435800D02*
D03*
X359000Y464500D02*
D03*
X354705Y460444D02*
D03*
X240500Y578000D02*
D03*
X275500Y656500D02*
D03*
X396000Y657500D02*
D03*
X259000Y337000D02*
D03*
X396625Y464375D02*
D03*
X307500Y475500D02*
D03*
X277000Y328500D02*
D03*
X256612Y365358D02*
D03*
X275000Y358000D02*
D03*
X342500Y557000D02*
D03*
X257000Y452500D02*
D03*
X303000Y467500D02*
D03*
X291000D02*
D03*
X301000Y522250D02*
D03*
X383500Y319500D02*
D03*
X263000Y317000D02*
D03*
X267500Y321500D02*
D03*
X230000Y563000D02*
D03*
X226000Y587000D02*
D03*
X403500Y598500D02*
D03*
X331500Y531500D02*
D03*
X382000Y522412D02*
D03*
X331500Y538500D02*
D03*
X382000Y532412D02*
D03*
X234250Y587250D02*
D03*
X274208Y476494D02*
D03*
X285157Y620882D02*
D03*
X308000Y611500D02*
D03*
X332000Y545000D02*
D03*
X382000Y542412D02*
D03*
X272068Y591568D02*
D03*
X294118Y615882D02*
D03*
X357000Y560500D02*
D03*
X284453Y499862D02*
D03*
X292500Y621500D02*
D03*
X408000Y585500D02*
D03*
X393500Y606500D02*
D03*
X392000Y615000D02*
D03*
X354055Y605882D02*
D03*
X382500Y323500D02*
D03*
X354055Y600882D02*
D03*
X393000Y460500D02*
D03*
X263108Y372358D02*
D03*
X388000Y663614D02*
D03*
X378500D02*
D03*
X377500Y562000D02*
D03*
X284453Y508587D02*
D03*
X284384Y491068D02*
D03*
X264356Y541856D02*
D03*
X269500Y547500D02*
D03*
X272144Y544644D02*
D03*
X269500Y538500D02*
D03*
X246000Y553500D02*
D03*
X277500Y641000D02*
D03*
X285157Y650882D02*
D03*
Y645882D02*
D03*
X354055Y655882D02*
D03*
X401496Y641500D02*
D03*
X302500Y551500D02*
D03*
X275000Y598500D02*
D03*
X285157Y610882D02*
D03*
X327000Y603500D02*
D03*
X362512Y512412D02*
D03*
X362500Y577500D02*
D03*
X335500Y555500D02*
D03*
X284453Y482412D02*
D03*
X341000Y620500D02*
D03*
X354000Y626000D02*
D03*
X331500Y552500D02*
D03*
X382000Y552412D02*
D03*
X285157Y655882D02*
D03*
X237122Y548122D02*
D03*
X285157Y600882D02*
D03*
X354055Y665882D02*
D03*
X325512Y635488D02*
D03*
X285157Y665882D02*
D03*
X303000Y632500D02*
D03*
X350500Y584500D02*
D03*
X256714Y545714D02*
D03*
X274208Y489581D02*
D03*
X362512Y492412D02*
D03*
X274361Y498153D02*
D03*
X240500Y616606D02*
D03*
X258000Y583000D02*
D03*
X266500Y631000D02*
D03*
X272000Y561000D02*
D03*
X299500Y625000D02*
D03*
X362512Y472412D02*
D03*
X387500Y638500D02*
D03*
D84*
X392833Y390642D02*
D03*
X386337D02*
D03*
X392833Y398211D02*
D03*
X386337D02*
D03*
X386340Y405642D02*
D03*
X392837D02*
D03*
X363754Y358348D02*
D03*
X357258D02*
D03*
Y365704D02*
D03*
X363754D02*
D03*
Y350992D02*
D03*
X357258D02*
D03*
X363754Y343636D02*
D03*
X357258D02*
D03*
X312758Y358348D02*
D03*
X306262D02*
D03*
X312758Y365704D02*
D03*
X306262D02*
D03*
X312758Y350992D02*
D03*
X306262D02*
D03*
X312758Y343636D02*
D03*
X306262D02*
D03*
X387077Y434000D02*
D03*
X393573D02*
D03*
Y426500D02*
D03*
X387077D02*
D03*
X395000Y641500D02*
D03*
X401496D02*
D03*
X290949Y523240D02*
D03*
X284453D02*
D03*
X271973Y428800D02*
D03*
X278469D02*
D03*
Y435800D02*
D03*
X271973D02*
D03*
X278469Y413500D02*
D03*
X271973D02*
D03*
X278469Y406000D02*
D03*
X271973D02*
D03*
X278469Y398200D02*
D03*
X271973D02*
D03*
X284453Y508587D02*
D03*
X290949D02*
D03*
X284453Y499862D02*
D03*
X290949D02*
D03*
X284453Y491137D02*
D03*
X290949D02*
D03*
X284453Y482412D02*
D03*
X290949D02*
D03*
X401480Y633232D02*
D03*
X394984D02*
D03*
X263108Y372358D02*
D03*
X256612D02*
D03*
Y365358D02*
D03*
X263108D02*
D03*
D85*
X365500Y386689D02*
D03*
Y410311D02*
D03*
D86*
X334122Y327500D02*
D03*
Y333996D02*
D03*
X341994D02*
D03*
Y327500D02*
D03*
X327122D02*
D03*
Y333996D02*
D03*
X369000Y663614D02*
D03*
Y657118D02*
D03*
X235596Y323449D02*
D03*
Y329945D02*
D03*
X226096Y323449D02*
D03*
Y329945D02*
D03*
Y345032D02*
D03*
Y338536D02*
D03*
X235596Y345032D02*
D03*
Y338536D02*
D03*
X275500Y663087D02*
D03*
Y656591D02*
D03*
X241608Y459000D02*
D03*
Y452504D02*
D03*
X248608D02*
D03*
Y459000D02*
D03*
X257062Y452504D02*
D03*
Y459000D02*
D03*
X222760Y553902D02*
D03*
Y560398D02*
D03*
X388309Y294496D02*
D03*
Y288000D02*
D03*
X338309Y294496D02*
D03*
Y288000D02*
D03*
X240500Y610110D02*
D03*
Y616606D02*
D03*
X245961Y553902D02*
D03*
Y560398D02*
D03*
X251812Y294496D02*
D03*
Y288000D02*
D03*
X302206Y294496D02*
D03*
Y288000D02*
D03*
X388000Y657118D02*
D03*
Y663614D02*
D03*
X378500Y657118D02*
D03*
Y663614D02*
D03*
X284081Y342724D02*
D03*
Y336228D02*
D03*
D87*
X334122Y354996D02*
D03*
D88*
X323098Y347496D02*
D03*
Y352496D02*
D03*
Y357496D02*
D03*
Y362496D02*
D03*
X345146Y347496D02*
D03*
Y352496D02*
D03*
Y357496D02*
D03*
Y362496D02*
D03*
D89*
X328315Y453311D02*
D03*
X339337D02*
D03*
X339333Y389626D02*
D03*
X328311D02*
D03*
D90*
X328900Y441811D02*
D03*
X339333D02*
D03*
Y401126D02*
D03*
X328900D02*
D03*
D91*
X314530Y421493D02*
D03*
D92*
X339333Y430489D02*
D03*
X339333Y412497D02*
D03*
D93*
X371500Y444233D02*
D03*
Y428800D02*
D03*
D94*
X389833Y449472D02*
D03*
X386092Y441205D02*
D03*
X393573D02*
D03*
D95*
X262108Y398200D02*
D03*
X257108D02*
D03*
X252108D02*
D03*
X247108D02*
D03*
X242108D02*
D03*
X237108D02*
D03*
X232108D02*
D03*
X227108D02*
D03*
Y435800D02*
D03*
X232108D02*
D03*
X237108D02*
D03*
X242108D02*
D03*
X247108D02*
D03*
X252108D02*
D03*
X257108D02*
D03*
X262108D02*
D03*
D96*
X408020Y434236D02*
D03*
Y440141D02*
D03*
Y451952D02*
D03*
D97*
X411169Y457267D02*
D03*
X419831D02*
D03*
Y428921D02*
D03*
X411169D02*
D03*
D98*
X339106Y473394D02*
D03*
Y497606D02*
D03*
X314894D02*
D03*
Y473394D02*
D03*
D99*
X268568Y451000D02*
D03*
X272068Y459000D02*
D03*
X265068D02*
D03*
D100*
X418303Y383594D02*
D03*
X418697Y411154D02*
D03*
X418224Y600953D02*
D03*
X418618Y628512D02*
D03*
X218382Y604598D02*
D03*
X218776Y632157D02*
D03*
D101*
X408854Y389106D02*
D03*
Y405642D02*
D03*
X408776Y606465D02*
D03*
Y623000D02*
D03*
X228224Y610110D02*
D03*
Y626646D02*
D03*
D102*
X274627Y553902D02*
D03*
X272068D02*
D03*
X269509D02*
D03*
X266950D02*
D03*
X264391D02*
D03*
X261832D02*
D03*
X259273D02*
D03*
X256714D02*
D03*
Y576500D02*
D03*
X259273D02*
D03*
X261832D02*
D03*
X264391D02*
D03*
X266950D02*
D03*
X269509D02*
D03*
X272068D02*
D03*
X274627D02*
D03*
D103*
X274208Y480856D02*
D03*
Y511394D02*
D03*
Y502669D02*
D03*
Y493944D02*
D03*
Y476494D02*
D03*
Y485219D02*
D03*
Y489581D02*
D03*
Y498306D02*
D03*
Y507031D02*
D03*
D104*
X270708Y471694D02*
D03*
D105*
X232808Y472594D02*
D03*
X269708Y529394D02*
D03*
X233108Y533194D02*
D03*
D106*
X241608Y368858D02*
D03*
X249608Y365358D02*
D03*
Y372358D02*
D03*
X270608Y365358D02*
D03*
Y372358D02*
D03*
X278608Y368858D02*
D03*
D107*
X266069Y328000D02*
D03*
X264100D02*
D03*
X262132D02*
D03*
X260163D02*
D03*
X258195D02*
D03*
X256226D02*
D03*
X254258D02*
D03*
Y348394D02*
D03*
X256226D02*
D03*
X258195D02*
D03*
X260163D02*
D03*
X262132D02*
D03*
X264100D02*
D03*
X266069D02*
D03*
D108*
X249967Y332291D02*
D03*
Y334260D02*
D03*
Y336228D02*
D03*
Y338197D02*
D03*
Y340165D02*
D03*
Y342134D02*
D03*
Y344102D02*
D03*
X270360D02*
D03*
Y342134D02*
D03*
Y340165D02*
D03*
Y338197D02*
D03*
Y336228D02*
D03*
Y334260D02*
D03*
Y332291D02*
D03*
D109*
X260163Y338197D02*
D03*
D110*
X362512Y472412D02*
D03*
X382000D02*
D03*
X362512Y482412D02*
D03*
X382000D02*
D03*
X362512Y492412D02*
D03*
X382000D02*
D03*
X362512Y502412D02*
D03*
X382000D02*
D03*
X362512Y512412D02*
D03*
X382000D02*
D03*
X362512Y522412D02*
D03*
X382000D02*
D03*
X362512Y532412D02*
D03*
X382000D02*
D03*
X362512Y542412D02*
D03*
X382000D02*
D03*
X362512Y552412D02*
D03*
X382000D02*
D03*
X362512Y562412D02*
D03*
X382000D02*
D03*
D111*
X350711Y306701D02*
D03*
X353860D02*
D03*
X372758D02*
D03*
X375907D02*
D03*
X289789D02*
D03*
X286640D02*
D03*
X267742D02*
D03*
X264593D02*
D03*
D112*
X356419D02*
D03*
X358388D02*
D03*
X360356D02*
D03*
X362325D02*
D03*
X370199D02*
D03*
X368230D02*
D03*
X366262D02*
D03*
X364293D02*
D03*
X278175D02*
D03*
X280144D02*
D03*
X282112D02*
D03*
X284081D02*
D03*
X276207D02*
D03*
X274238D02*
D03*
X272270D02*
D03*
X270301D02*
D03*
D113*
X230020Y562563D02*
D03*
X237500D02*
D03*
X233760Y553902D02*
D03*
D114*
X285157Y665882D02*
D03*
Y660882D02*
D03*
Y655882D02*
D03*
Y650882D02*
D03*
Y645882D02*
D03*
Y640882D02*
D03*
Y635882D02*
D03*
Y630882D02*
D03*
Y625882D02*
D03*
Y620882D02*
D03*
Y615882D02*
D03*
Y610882D02*
D03*
Y605882D02*
D03*
Y600882D02*
D03*
X354055D02*
D03*
Y605882D02*
D03*
Y610882D02*
D03*
Y615882D02*
D03*
Y620882D02*
D03*
Y625882D02*
D03*
Y630882D02*
D03*
Y635882D02*
D03*
Y640882D02*
D03*
Y645882D02*
D03*
Y650882D02*
D03*
Y655882D02*
D03*
Y660882D02*
D03*
Y665882D02*
D03*
D115*
X292106Y595961D02*
D03*
X297106D02*
D03*
X302106D02*
D03*
X307106D02*
D03*
X312106D02*
D03*
X317106D02*
D03*
X322106D02*
D03*
X327106D02*
D03*
X332106D02*
D03*
X337106D02*
D03*
X342106D02*
D03*
X347106D02*
D03*
D116*
X320000Y641000D02*
D03*
X325512D02*
D03*
X331024D02*
D03*
X320000Y629976D02*
D03*
X325512D02*
D03*
X331024D02*
D03*
X320000Y635488D02*
D03*
X331024D02*
D03*
X325512D02*
D03*
D117*
X249186Y638606D02*
D03*
X260800D02*
D03*
D118*
X255000Y644906D02*
D03*
D119*
Y663500D02*
D03*
M02*
