M48
;Layer_Color=9474304
;FILE_FORMAT=2:4
INCH,TZ
;TYPE=PLATED
T1F00S00C0.0140
T2F00S00C0.0354
T3F00S00C0.0394
T4F00S00C0.0512
%
T01
X79100Y22550
X78950Y30400
X76850Y29902
Y23798
Y22300
Y21798
X73350Y22500
X67900Y25376
X67850Y34650
X66650Y40050
X66350
X66050
X71150Y45981
X74600Y45400
X76100Y44000
X75700Y42650
X76850Y42502
X75750Y37950
X75100Y33700
X77050Y32100
X78981Y31902
Y31402
X80300Y32950
X80750Y33500
X80300Y37700
X80750Y38200
X81150Y38700
X78981Y38713
Y38213
Y37713
X78950Y36700
X78981Y39732
X79000Y43000
X79900
X78981Y45002
Y46022
X78400Y52500
X78400Y52850
X78400Y53200
X82700
Y52850
Y52500
X74050
Y52850
Y53200
X69700
Y52850
Y52500
X71898Y46942
T02
X68505Y43956
X68495Y44744
T03
X68500Y46250
Y47250
Y48250
T04
X70150Y33650
Y34650
Y35650
Y36650
Y37650
Y38650
Y39650
Y40650
Y41650
Y42650
X71150
Y41650
Y40650
Y39650
Y38650
Y37650
Y36650
Y35650
Y34650
Y33650
M30
