G04*
G04 #@! TF.GenerationSoftware,Altium Limited,Altium Designer,20.1.7 (139)*
G04*
G04 Layer_Color=16711935*
%FSLAX25Y25*%
%MOIN*%
G70*
G04*
G04 #@! TF.SameCoordinates,B477E5EB-4298-4D0D-9682-CB7A6047EE2C*
G04*
G04*
G04 #@! TF.FilePolarity,Positive*
G04*
G01*
G75*
%ADD10C,0.00787*%
%ADD61C,0.00394*%
%ADD64C,0.00500*%
G36*
X712180Y446537D02*
Y448337D01*
X709880D01*
Y446537D01*
X712180D01*
D02*
G37*
G36*
X720081Y442837D02*
Y444636D01*
X717780D01*
Y442837D01*
X720081D01*
D02*
G37*
G36*
X720081Y450237D02*
Y452037D01*
X717780D01*
Y450237D01*
X720081D01*
D02*
G37*
D10*
X674209Y400618D02*
X673421D01*
X674209D01*
X784276Y518185D02*
X783488D01*
X784276D01*
X697276D02*
X696488D01*
X697276D01*
X827276D02*
X826488D01*
X827276D01*
X740776D02*
X739988D01*
X740776D01*
X674209Y400382D02*
X673421D01*
X674209D01*
X726429Y426500D02*
X725642D01*
X726429D01*
X784178Y518185D02*
X783391D01*
X784178D01*
X827512D02*
X826724D01*
X827512D01*
X740845D02*
X740058D01*
X740845D01*
X697512D02*
X696724D01*
X697512D01*
D61*
X618539Y412961D02*
X656020D01*
X618539Y388039D02*
Y412961D01*
Y388039D02*
X656020D01*
Y380815D02*
Y388039D01*
Y412961D01*
Y420185D01*
Y388039D02*
X671020Y388000D01*
Y413000D01*
X656020Y412961D02*
X671020Y413000D01*
X771539Y535980D02*
Y573461D01*
X796461D01*
Y535980D02*
Y573461D01*
Y535980D02*
X803685D01*
X771539D02*
X796461D01*
X764315D02*
X771539D01*
X796461D02*
X796500Y520980D01*
X771500D02*
X796500D01*
X771500D02*
X771539Y535980D01*
X684539D02*
Y573461D01*
X709461D01*
Y535980D02*
Y573461D01*
Y535980D02*
X716685D01*
X684539D02*
X709461D01*
X677315D02*
X684539D01*
X709461D02*
X709500Y520980D01*
X684500D02*
X709500D01*
X684500D02*
X684539Y535980D01*
X814539D02*
Y573461D01*
X839461D01*
Y535980D02*
Y573461D01*
Y535980D02*
X846685D01*
X814539D02*
X839461D01*
X807315D02*
X814539D01*
X839461D02*
X839500Y520980D01*
X814500D02*
X839500D01*
X814500D02*
X814539Y535980D01*
X728039D02*
Y573461D01*
X752961D01*
Y535980D02*
Y573461D01*
Y535980D02*
X760185D01*
X728039D02*
X752961D01*
X720815D02*
X728039D01*
X752961D02*
X753000Y520980D01*
X728000D02*
X753000D01*
X728000D02*
X728039Y535980D01*
X618539Y388039D02*
X656020D01*
X618539D02*
Y412961D01*
X656020D01*
Y420185D01*
Y388039D02*
Y412961D01*
Y380815D02*
Y388039D01*
Y412961D02*
X671020Y413000D01*
Y388000D02*
Y413000D01*
X656020Y388039D02*
X671020Y388000D01*
X696744Y331500D02*
X716744D01*
Y431500D01*
X696744D02*
X716744D01*
X696744Y331500D02*
Y431500D01*
X764957Y437574D02*
X772043D01*
X764957Y423542D02*
X772043D01*
X764957D02*
Y437574D01*
X772043Y423542D02*
Y437574D01*
X764957Y374680D02*
X772043D01*
X764957Y360648D02*
X772043D01*
X764957D02*
Y374680D01*
X772043Y360648D02*
Y374680D01*
X764957Y311574D02*
X772043D01*
X764957Y297542D02*
X772043D01*
X764957D02*
Y311574D01*
X772043Y297542D02*
Y311574D01*
X796127Y535980D02*
Y573461D01*
X771206D02*
X796127D01*
X771206Y535980D02*
Y573461D01*
X763982Y535980D02*
X771206D01*
X796127D01*
X803352D01*
X771167Y520980D02*
X771206Y535980D01*
X771167Y520980D02*
X796167D01*
X796127Y535980D02*
X796167Y520980D01*
X839461Y535980D02*
Y573461D01*
X814539D02*
X839461D01*
X814539Y535980D02*
Y573461D01*
X807315Y535980D02*
X814539D01*
X839461D01*
X846685D01*
X814500Y520980D02*
X814539Y535980D01*
X814500Y520980D02*
X839500D01*
X839461Y535980D02*
X839500Y520980D01*
X752794Y535980D02*
Y573461D01*
X727873D02*
X752794D01*
X727873Y535980D02*
Y573461D01*
X720648Y535980D02*
X727873D01*
X752794D01*
X760018D01*
X727833Y520980D02*
X727873Y535980D01*
X727833Y520980D02*
X752833D01*
X752794Y535980D02*
X752833Y520980D01*
X709461Y535980D02*
Y573461D01*
X684539D02*
X709461D01*
X684539Y535980D02*
Y573461D01*
X677315Y535980D02*
X684539D01*
X709461D01*
X716685D01*
X684500Y520980D02*
X684539Y535980D01*
X684500Y520980D02*
X709500D01*
X709461Y535980D02*
X709500Y520980D01*
D64*
X656801Y417445D02*
X659200D01*
Y418645D01*
X658800Y419044D01*
X658000D01*
X657601Y418645D01*
Y417445D01*
X658800Y421444D02*
X659200Y421044D01*
Y420244D01*
X658800Y419844D01*
X657201D01*
X656801Y420244D01*
Y421044D01*
X657201Y421444D01*
X659200Y422243D02*
X656801D01*
Y423443D01*
X657201Y423843D01*
X657601D01*
X658000Y423443D01*
Y422243D01*
Y423443D01*
X658400Y423843D01*
X658800D01*
X659200Y423443D01*
Y422243D01*
Y428641D02*
Y427042D01*
X656801D01*
Y428641D01*
X658000Y427042D02*
Y427842D01*
X659200Y429441D02*
X656801D01*
Y430641D01*
X657201Y431041D01*
X658800D01*
X659200Y430641D01*
Y429441D01*
X658800Y433440D02*
X659200Y433040D01*
Y432240D01*
X658800Y431840D01*
X657201D01*
X656801Y432240D01*
Y433040D01*
X657201Y433440D01*
X658000D01*
Y432640D01*
X659200Y435839D02*
Y434239D01*
X656801D01*
Y435839D01*
X658000Y434239D02*
Y435039D01*
X767055Y535199D02*
Y532800D01*
X765855D01*
X765455Y533200D01*
Y534000D01*
X765855Y534399D01*
X767055D01*
X763056Y533200D02*
X763456Y532800D01*
X764256D01*
X764656Y533200D01*
Y534799D01*
X764256Y535199D01*
X763456D01*
X763056Y534799D01*
X762257Y532800D02*
Y535199D01*
X761057D01*
X760657Y534799D01*
Y534399D01*
X761057Y534000D01*
X762257D01*
X761057D01*
X760657Y533600D01*
Y533200D01*
X761057Y532800D01*
X762257D01*
X755859D02*
X757458D01*
Y535199D01*
X755859D01*
X757458Y534000D02*
X756658D01*
X755059Y532800D02*
Y535199D01*
X753859D01*
X753459Y534799D01*
Y533200D01*
X753859Y532800D01*
X755059D01*
X751060Y533200D02*
X751460Y532800D01*
X752260D01*
X752660Y533200D01*
Y534799D01*
X752260Y535199D01*
X751460D01*
X751060Y534799D01*
Y534000D01*
X751860D01*
X748661Y532800D02*
X750260D01*
Y535199D01*
X748661D01*
X750260Y534000D02*
X749461D01*
X680055Y535199D02*
Y532800D01*
X678855D01*
X678455Y533200D01*
Y534000D01*
X678855Y534399D01*
X680055D01*
X676056Y533200D02*
X676456Y532800D01*
X677256D01*
X677656Y533200D01*
Y534799D01*
X677256Y535199D01*
X676456D01*
X676056Y534799D01*
X675257Y532800D02*
Y535199D01*
X674057D01*
X673657Y534799D01*
Y534399D01*
X674057Y534000D01*
X675257D01*
X674057D01*
X673657Y533600D01*
Y533200D01*
X674057Y532800D01*
X675257D01*
X668859D02*
X670458D01*
Y535199D01*
X668859D01*
X670458Y534000D02*
X669658D01*
X668059Y532800D02*
Y535199D01*
X666859D01*
X666459Y534799D01*
Y533200D01*
X666859Y532800D01*
X668059D01*
X664060Y533200D02*
X664460Y532800D01*
X665260D01*
X665660Y533200D01*
Y534799D01*
X665260Y535199D01*
X664460D01*
X664060Y534799D01*
Y534000D01*
X664860D01*
X661661Y532800D02*
X663261D01*
Y535199D01*
X661661D01*
X663261Y534000D02*
X662461D01*
X810055Y535199D02*
Y532800D01*
X808855D01*
X808455Y533200D01*
Y534000D01*
X808855Y534399D01*
X810055D01*
X806056Y533200D02*
X806456Y532800D01*
X807256D01*
X807656Y533200D01*
Y534799D01*
X807256Y535199D01*
X806456D01*
X806056Y534799D01*
X805257Y532800D02*
Y535199D01*
X804057D01*
X803657Y534799D01*
Y534399D01*
X804057Y534000D01*
X805257D01*
X804057D01*
X803657Y533600D01*
Y533200D01*
X804057Y532800D01*
X805257D01*
X798859D02*
X800458D01*
Y535199D01*
X798859D01*
X800458Y534000D02*
X799658D01*
X798059Y532800D02*
Y535199D01*
X796859D01*
X796459Y534799D01*
Y533200D01*
X796859Y532800D01*
X798059D01*
X794060Y533200D02*
X794460Y532800D01*
X795260D01*
X795660Y533200D01*
Y534799D01*
X795260Y535199D01*
X794460D01*
X794060Y534799D01*
Y534000D01*
X794860D01*
X791661Y532800D02*
X793260D01*
Y535199D01*
X791661D01*
X793260Y534000D02*
X792461D01*
X723555Y535199D02*
Y532800D01*
X722355D01*
X721955Y533200D01*
Y534000D01*
X722355Y534399D01*
X723555D01*
X719556Y533200D02*
X719956Y532800D01*
X720756D01*
X721156Y533200D01*
Y534799D01*
X720756Y535199D01*
X719956D01*
X719556Y534799D01*
X718757Y532800D02*
Y535199D01*
X717557D01*
X717157Y534799D01*
Y534399D01*
X717557Y534000D01*
X718757D01*
X717557D01*
X717157Y533600D01*
Y533200D01*
X717557Y532800D01*
X718757D01*
X712359D02*
X713958D01*
Y535199D01*
X712359D01*
X713958Y534000D02*
X713158D01*
X711559Y532800D02*
Y535199D01*
X710359D01*
X709959Y534799D01*
Y533200D01*
X710359Y532800D01*
X711559D01*
X707560Y533200D02*
X707960Y532800D01*
X708760D01*
X709160Y533200D01*
Y534799D01*
X708760Y535199D01*
X707960D01*
X707560Y534799D01*
Y534000D01*
X708360D01*
X705161Y532800D02*
X706761D01*
Y535199D01*
X705161D01*
X706761Y534000D02*
X705961D01*
X656801Y383555D02*
X659200D01*
Y382355D01*
X658800Y381956D01*
X658000D01*
X657601Y382355D01*
Y383555D01*
X658800Y379556D02*
X659200Y379956D01*
Y380756D01*
X658800Y381156D01*
X657201D01*
X656801Y380756D01*
Y379956D01*
X657201Y379556D01*
X659200Y378757D02*
X656801D01*
Y377557D01*
X657201Y377157D01*
X657601D01*
X658000Y377557D01*
Y378757D01*
Y377557D01*
X658400Y377157D01*
X658800D01*
X659200Y377557D01*
Y378757D01*
Y372359D02*
Y373958D01*
X656801D01*
Y372359D01*
X658000Y373958D02*
Y373158D01*
X659200Y371559D02*
X656801D01*
Y370359D01*
X657201Y369959D01*
X658800D01*
X659200Y370359D01*
Y371559D01*
X658800Y367560D02*
X659200Y367960D01*
Y368760D01*
X658800Y369160D01*
X657201D01*
X656801Y368760D01*
Y367960D01*
X657201Y367560D01*
X658000D01*
Y368360D01*
X659200Y365161D02*
Y366760D01*
X656801D01*
Y365161D01*
X658000Y366760D02*
Y365961D01*
X800612Y535199D02*
Y532800D01*
X801811D01*
X802211Y533200D01*
Y534000D01*
X801811Y534399D01*
X800612D01*
X804610Y533200D02*
X804210Y532800D01*
X803411D01*
X803011Y533200D01*
Y534799D01*
X803411Y535199D01*
X804210D01*
X804610Y534799D01*
X805410Y532800D02*
Y535199D01*
X806610D01*
X807010Y534799D01*
Y534399D01*
X806610Y534000D01*
X805410D01*
X806610D01*
X807010Y533600D01*
Y533200D01*
X806610Y532800D01*
X805410D01*
X811808D02*
X810209D01*
Y535199D01*
X811808D01*
X810209Y534000D02*
X811008D01*
X812608Y532800D02*
Y535199D01*
X813807D01*
X814207Y534799D01*
Y533200D01*
X813807Y532800D01*
X812608D01*
X816607Y533200D02*
X816207Y532800D01*
X815407D01*
X815007Y533200D01*
Y534799D01*
X815407Y535199D01*
X816207D01*
X816607Y534799D01*
Y534000D01*
X815807D01*
X819006Y532800D02*
X817406D01*
Y535199D01*
X819006D01*
X817406Y534000D02*
X818206D01*
X843945Y535199D02*
Y532800D01*
X845145D01*
X845545Y533200D01*
Y534000D01*
X845145Y534399D01*
X843945D01*
X847944Y533200D02*
X847544Y532800D01*
X846744D01*
X846344Y533200D01*
Y534799D01*
X846744Y535199D01*
X847544D01*
X847944Y534799D01*
X848743Y532800D02*
Y535199D01*
X849943D01*
X850343Y534799D01*
Y534399D01*
X849943Y534000D01*
X848743D01*
X849943D01*
X850343Y533600D01*
Y533200D01*
X849943Y532800D01*
X848743D01*
X855141D02*
X853542D01*
Y535199D01*
X855141D01*
X853542Y534000D02*
X854342D01*
X855941Y532800D02*
Y535199D01*
X857141D01*
X857541Y534799D01*
Y533200D01*
X857141Y532800D01*
X855941D01*
X859940Y533200D02*
X859540Y532800D01*
X858740D01*
X858340Y533200D01*
Y534799D01*
X858740Y535199D01*
X859540D01*
X859940Y534799D01*
Y534000D01*
X859140D01*
X862339Y532800D02*
X860740D01*
Y535199D01*
X862339D01*
X860740Y534000D02*
X861539D01*
X757278Y535199D02*
Y532800D01*
X758478D01*
X758878Y533200D01*
Y534000D01*
X758478Y534399D01*
X757278D01*
X761277Y533200D02*
X760877Y532800D01*
X760077D01*
X759678Y533200D01*
Y534799D01*
X760077Y535199D01*
X760877D01*
X761277Y534799D01*
X762077Y532800D02*
Y535199D01*
X763276D01*
X763676Y534799D01*
Y534399D01*
X763276Y534000D01*
X762077D01*
X763276D01*
X763676Y533600D01*
Y533200D01*
X763276Y532800D01*
X762077D01*
X768475D02*
X766875D01*
Y535199D01*
X768475D01*
X766875Y534000D02*
X767675D01*
X769274Y532800D02*
Y535199D01*
X770474D01*
X770874Y534799D01*
Y533200D01*
X770474Y532800D01*
X769274D01*
X773273Y533200D02*
X772873Y532800D01*
X772074D01*
X771674Y533200D01*
Y534799D01*
X772074Y535199D01*
X772873D01*
X773273Y534799D01*
Y534000D01*
X772473D01*
X775672Y532800D02*
X774073D01*
Y535199D01*
X775672D01*
X774073Y534000D02*
X774873D01*
X713945Y535199D02*
Y532800D01*
X715145D01*
X715545Y533200D01*
Y534000D01*
X715145Y534399D01*
X713945D01*
X717944Y533200D02*
X717544Y532800D01*
X716744D01*
X716344Y533200D01*
Y534799D01*
X716744Y535199D01*
X717544D01*
X717944Y534799D01*
X718743Y532800D02*
Y535199D01*
X719943D01*
X720343Y534799D01*
Y534399D01*
X719943Y534000D01*
X718743D01*
X719943D01*
X720343Y533600D01*
Y533200D01*
X719943Y532800D01*
X718743D01*
X725141D02*
X723542D01*
Y535199D01*
X725141D01*
X723542Y534000D02*
X724342D01*
X725941Y532800D02*
Y535199D01*
X727141D01*
X727541Y534799D01*
Y533200D01*
X727141Y532800D01*
X725941D01*
X729940Y533200D02*
X729540Y532800D01*
X728740D01*
X728340Y533200D01*
Y534799D01*
X728740Y535199D01*
X729540D01*
X729940Y534799D01*
Y534000D01*
X729140D01*
X732339Y532800D02*
X730739D01*
Y535199D01*
X732339D01*
X730739Y534000D02*
X731539D01*
M02*
