G04*
G04 #@! TF.GenerationSoftware,Altium Limited,Altium Designer,20.1.7 (139)*
G04*
G04 Layer_Color=32896*
%FSLAX25Y25*%
%MOIN*%
G70*
G04*
G04 #@! TF.SameCoordinates,B477E5EB-4298-4D0D-9682-CB7A6047EE2C*
G04*
G04*
G04 #@! TF.FilePolarity,Positive*
G04*
G01*
G75*
%ADD10C,0.00787*%
%ADD11C,0.01000*%
%ADD58C,0.00500*%
%ADD59C,0.00591*%
%ADD60C,0.00984*%
%ADD61C,0.00394*%
D10*
X674209Y400618D02*
X673421D01*
X674209D01*
X726429Y426500D02*
X725642D01*
X726429D01*
X784178Y518185D02*
X783391D01*
X784178D01*
X827512D02*
X826724D01*
X827512D01*
X740845D02*
X740058D01*
X740845D01*
X697512D02*
X696724D01*
X697512D01*
X656020Y393413D02*
Y396563D01*
Y404437D02*
Y407587D01*
X671020Y393413D02*
Y396563D01*
Y404437D02*
Y407587D01*
X675555Y243232D02*
X682445D01*
Y256815D01*
X675555D02*
X682445D01*
X675555Y243232D02*
Y256815D01*
X664555Y243232D02*
X671445D01*
Y256815D01*
X664555D02*
X671445D01*
X664555Y243232D02*
Y256815D01*
X722031Y456366D02*
Y463256D01*
X708449D02*
X722031D01*
X708449Y456366D02*
Y463256D01*
Y456366D02*
X722031D01*
X708449Y465972D02*
Y472862D01*
Y465972D02*
X722031D01*
Y472862D01*
X708449D02*
X722031D01*
X696744Y431500D02*
X716744D01*
X696744Y331500D02*
X716744D01*
X852358Y196484D02*
Y200028D01*
Y205539D02*
Y210264D01*
Y215382D02*
Y225618D01*
Y230736D02*
Y235461D01*
Y240972D02*
Y244516D01*
X769681D02*
X852358D01*
X769681Y240579D02*
Y244516D01*
Y196484D02*
X852358D01*
X769681D02*
Y200421D01*
X791386Y412972D02*
X864614D01*
Y472421D01*
X791386D02*
X864614D01*
X791386Y412972D02*
Y422815D01*
Y462579D02*
Y472421D01*
X791386Y350079D02*
X864614D01*
Y409528D01*
X791386D02*
X864614D01*
X791386Y350079D02*
Y359921D01*
Y399685D02*
Y409528D01*
X791386Y286972D02*
X864614D01*
Y346421D01*
X791386D02*
X864614D01*
X791386Y286972D02*
Y296815D01*
Y336579D02*
Y346421D01*
X823555Y492469D02*
X830445D01*
Y506051D01*
X823555D02*
X830445D01*
X823555Y492469D02*
Y506051D01*
X776580Y535980D02*
X779730D01*
X787604D02*
X790753D01*
X776580Y520980D02*
X779730D01*
X787604D02*
X790753D01*
X819913Y535980D02*
X823063D01*
X830937D02*
X834087D01*
X819913Y520980D02*
X823063D01*
X830937D02*
X834087D01*
X733247Y535980D02*
X736396D01*
X744270D02*
X747420D01*
X733247Y520980D02*
X736396D01*
X744270D02*
X747420D01*
X689913Y535980D02*
X693063D01*
X700937D02*
X704087D01*
X689913Y520980D02*
X693063D01*
X700937D02*
X704087D01*
D11*
X670600Y367500D02*
X670453Y368473D01*
X670027Y369359D01*
X669357Y370080D01*
X668506Y370572D01*
X667547Y370791D01*
X666566Y370717D01*
X665650Y370358D01*
X664881Y369745D01*
X664327Y368932D01*
X664037Y367992D01*
Y367008D01*
X664327Y366068D01*
X664881Y365255D01*
X665650Y364642D01*
X666566Y364283D01*
X667547Y364209D01*
X668506Y364428D01*
X669357Y364920D01*
X670027Y365641D01*
X670453Y366527D01*
X670600Y367500D01*
X689176Y436657D02*
X689991Y437230D01*
X690726Y437901D01*
X691371Y438659D01*
X691915Y439493D01*
X692350Y440389D01*
X692668Y441332D01*
X692864Y442308D01*
X692936Y443301D01*
X692882Y444296D01*
X692702Y445275D01*
X692401Y446224D01*
X691982Y447127D01*
X691453Y447970D01*
X690822Y448740D01*
X690098Y449424D01*
X689294Y450011D01*
X688422Y450492D01*
X687497Y450859D01*
X686532Y451106D01*
X685544Y451230D01*
X684549Y451228D01*
X683561Y451100D01*
X682598Y450849D01*
X681674Y450478D01*
X680804Y449994D01*
X680002Y449404D01*
X679281Y448717D01*
X678653Y447945D01*
X678127Y447099D01*
X677712Y446195D01*
X677414Y445244D01*
X677239Y444264D01*
X677189Y443270D01*
X677264Y442277D01*
X677465Y441302D01*
X677786Y440360D01*
X678225Y439466D01*
X678772Y438634D01*
X679420Y437878D01*
X680158Y437210D01*
X680975Y436641D01*
X787293Y499650D02*
X787146Y500623D01*
X786720Y501509D01*
X786050Y502230D01*
X785198Y502722D01*
X784239Y502941D01*
X783259Y502867D01*
X782343Y502508D01*
X781574Y501895D01*
X781020Y501082D01*
X780730Y500142D01*
Y499158D01*
X781020Y498218D01*
X781574Y497405D01*
X782343Y496792D01*
X783259Y496433D01*
X784239Y496359D01*
X785198Y496578D01*
X786050Y497070D01*
X786720Y497791D01*
X787146Y498677D01*
X787293Y499650D01*
X743793D02*
X743646Y500623D01*
X743220Y501509D01*
X742550Y502230D01*
X741699Y502722D01*
X740739Y502941D01*
X739759Y502867D01*
X738843Y502508D01*
X738074Y501895D01*
X737520Y501082D01*
X737230Y500142D01*
Y499158D01*
X737520Y498218D01*
X738074Y497405D01*
X738843Y496792D01*
X739759Y496433D01*
X740739Y496359D01*
X741699Y496578D01*
X742550Y497070D01*
X743220Y497791D01*
X743646Y498677D01*
X743793Y499650D01*
X700293D02*
X700146Y500623D01*
X699719Y501509D01*
X699050Y502230D01*
X698199Y502722D01*
X697239Y502941D01*
X696259Y502867D01*
X695343Y502508D01*
X694574Y501895D01*
X694020Y501082D01*
X693730Y500142D01*
Y499158D01*
X694020Y498218D01*
X694574Y497405D01*
X695343Y496792D01*
X696259Y496433D01*
X697239Y496359D01*
X698199Y496578D01*
X699050Y497070D01*
X699719Y497791D01*
X700146Y498677D01*
X700293Y499650D01*
X661800Y361700D02*
X672800D01*
X660900Y362600D02*
X661800Y361700D01*
X660900Y362600D02*
Y372200D01*
X661986Y373286D01*
X672814D01*
X673650Y362550D02*
Y372450D01*
X672814Y373286D02*
X673650Y372450D01*
X672800Y361700D02*
X673650Y362550D01*
X664945Y257815D02*
X670945D01*
X680975Y436689D02*
X689176D01*
X789793Y494150D02*
Y505150D01*
X788893Y493250D02*
X789793Y494150D01*
X779293Y493250D02*
X788893D01*
X778207Y494336D02*
X779293Y493250D01*
X778207Y494336D02*
Y505164D01*
X779043Y506000D02*
X788943D01*
X778207Y505164D02*
X779043Y506000D01*
X788943D02*
X789793Y505150D01*
X746293Y494150D02*
Y505150D01*
X745393Y493250D02*
X746293Y494150D01*
X735793Y493250D02*
X745393D01*
X734707Y494336D02*
X735793Y493250D01*
X734707Y494336D02*
Y505164D01*
X735543Y506000D02*
X745443D01*
X734707Y505164D02*
X735543Y506000D01*
X745443D02*
X746293Y505150D01*
X702793Y494150D02*
Y505150D01*
X701893Y493250D02*
X702793Y494150D01*
X692293Y493250D02*
X701893D01*
X691207Y494336D02*
X692293Y493250D01*
X691207Y494336D02*
Y505164D01*
X692043Y506000D02*
X701943D01*
X691207Y505164D02*
X692043Y506000D01*
X701943D02*
X702793Y505150D01*
X684999Y452500D02*
Y456499D01*
X686999Y454499D02*
X683000D01*
D58*
X680006Y482502D02*
X679037Y482209D01*
X678101Y481822D01*
X677208Y481346D01*
X676366Y480784D01*
X675583Y480142D01*
X674867Y479427D01*
X674224Y478645D01*
X673661Y477803D01*
X673183Y476910D01*
X672796Y475975D01*
X672502Y475007D01*
X672304Y474014D01*
X672205Y473006D01*
Y471994D01*
X672304Y470986D01*
X672502Y469993D01*
X672796Y469025D01*
X673183Y468089D01*
X673661Y467197D01*
X674224Y466355D01*
X674867Y465573D01*
X675583Y464858D01*
X676366Y464216D01*
X677208Y463654D01*
X678101Y463178D01*
X679037Y462791D01*
X680006Y462498D01*
X680000Y457500D02*
X690000D01*
X680000D02*
Y462500D01*
Y482500D02*
Y487500D01*
X690000D01*
Y457500D02*
Y487500D01*
X680000Y462500D02*
Y482500D01*
X712480Y441687D02*
X715980D01*
X712480D02*
Y444687D01*
Y450187D02*
Y453187D01*
X715980D01*
X772300Y439931D02*
Y441481D01*
X764700Y439931D02*
Y441481D01*
X772300D01*
Y377037D02*
Y378587D01*
X764700Y377037D02*
Y378587D01*
X772300D01*
Y313931D02*
Y315481D01*
X764700Y313931D02*
Y315481D01*
X772300D01*
D59*
X847634Y239397D02*
Y237035D01*
Y239397D02*
X846059Y237035D01*
Y239397D02*
Y237035D01*
X843720Y238835D02*
X843833Y239060D01*
X844058Y239285D01*
X844283Y239397D01*
X844732D01*
X844957Y239285D01*
X845182Y239060D01*
X845295Y238835D01*
X845407Y238497D01*
Y237935D01*
X845295Y237598D01*
X845182Y237373D01*
X844957Y237148D01*
X844732Y237035D01*
X844283D01*
X844058Y237148D01*
X843833Y237373D01*
X843720Y237598D01*
X847634Y229555D02*
Y227193D01*
Y229555D02*
X846059Y227193D01*
Y229555D02*
Y227193D01*
X843720Y228992D02*
X843833Y229217D01*
X844058Y229442D01*
X844283Y229555D01*
X844732D01*
X844957Y229442D01*
X845182Y229217D01*
X845295Y228992D01*
X845407Y228655D01*
Y228093D01*
X845295Y227755D01*
X845182Y227530D01*
X844957Y227305D01*
X844732Y227193D01*
X844283D01*
X844058Y227305D01*
X843833Y227530D01*
X843720Y227755D01*
X847634Y213807D02*
Y211445D01*
Y213807D02*
X846059Y211445D01*
Y213807D02*
Y211445D01*
X843720Y213244D02*
X843833Y213469D01*
X844058Y213694D01*
X844283Y213807D01*
X844732D01*
X844957Y213694D01*
X845182Y213469D01*
X845295Y213244D01*
X845407Y212907D01*
Y212345D01*
X845295Y212007D01*
X845182Y211782D01*
X844957Y211557D01*
X844732Y211445D01*
X844283D01*
X844058Y211557D01*
X843833Y211782D01*
X843720Y212007D01*
X845835Y201209D02*
X846734Y203570D01*
X847634Y201209D01*
X847297Y201996D02*
X846172D01*
X845283Y203570D02*
Y201209D01*
Y203570D02*
X843709Y201209D01*
Y203570D02*
Y201209D01*
X842269Y203570D02*
Y201209D01*
X843057Y203570D02*
X841482D01*
X777274Y237598D02*
X777161Y237373D01*
X776936Y237148D01*
X776711Y237036D01*
X776261D01*
X776037Y237148D01*
X775811Y237373D01*
X775699Y237598D01*
X775587Y237936D01*
Y238498D01*
X775699Y238835D01*
X775811Y239060D01*
X776037Y239285D01*
X776261Y239398D01*
X776711D01*
X776936Y239285D01*
X777161Y239060D01*
X777274Y238835D01*
Y238498D01*
X776711D02*
X777274D01*
X777813Y237036D02*
Y239398D01*
Y237036D02*
X779388Y239398D01*
Y237036D02*
Y239398D01*
X780040Y237036D02*
Y239398D01*
Y237036D02*
X780827D01*
X781165Y237148D01*
X781390Y237373D01*
X781502Y237598D01*
X781614Y237936D01*
Y238498D01*
X781502Y238835D01*
X781390Y239060D01*
X781165Y239285D01*
X780827Y239398D01*
X780040D01*
X777274Y232480D02*
X777161Y232255D01*
X776936Y232030D01*
X776711Y231918D01*
X776261D01*
X776037Y232030D01*
X775811Y232255D01*
X775699Y232480D01*
X775587Y232818D01*
Y233380D01*
X775699Y233717D01*
X775811Y233942D01*
X776037Y234167D01*
X776261Y234279D01*
X776711D01*
X776936Y234167D01*
X777161Y233942D01*
X777274Y233717D01*
Y233380D01*
X776711D02*
X777274D01*
X778488Y231918D02*
X778263Y232030D01*
X778038Y232255D01*
X777926Y232480D01*
X777813Y232818D01*
Y233380D01*
X777926Y233717D01*
X778038Y233942D01*
X778263Y234167D01*
X778488Y234279D01*
X778938D01*
X779163Y234167D01*
X779388Y233942D01*
X779500Y233717D01*
X779613Y233380D01*
Y232818D01*
X779500Y232480D01*
X779388Y232255D01*
X779163Y232030D01*
X778938Y231918D01*
X778488D01*
X780164D02*
Y234279D01*
Y231918D02*
X780951D01*
X781288Y232030D01*
X781513Y232255D01*
X781626Y232480D01*
X781738Y232818D01*
Y233380D01*
X781626Y233717D01*
X781513Y233942D01*
X781288Y234167D01*
X780951Y234279D01*
X780164D01*
X782379Y232480D02*
Y232368D01*
X782492Y232143D01*
X782604Y232030D01*
X782829Y231918D01*
X783279D01*
X783504Y232030D01*
X783616Y232143D01*
X783729Y232368D01*
Y232593D01*
X783616Y232818D01*
X783391Y233155D01*
X782267Y234279D01*
X783841D01*
X777274Y227362D02*
X777161Y227137D01*
X776936Y226912D01*
X776711Y226800D01*
X776261D01*
X776037Y226912D01*
X775811Y227137D01*
X775699Y227362D01*
X775587Y227699D01*
Y228262D01*
X775699Y228599D01*
X775811Y228824D01*
X776037Y229049D01*
X776261Y229161D01*
X776711D01*
X776936Y229049D01*
X777161Y228824D01*
X777274Y228599D01*
Y228262D01*
X776711D02*
X777274D01*
X778488Y226800D02*
X778263Y226912D01*
X778038Y227137D01*
X777926Y227362D01*
X777813Y227699D01*
Y228262D01*
X777926Y228599D01*
X778038Y228824D01*
X778263Y229049D01*
X778488Y229161D01*
X778938D01*
X779163Y229049D01*
X779388Y228824D01*
X779500Y228599D01*
X779613Y228262D01*
Y227699D01*
X779500Y227362D01*
X779388Y227137D01*
X779163Y226912D01*
X778938Y226800D01*
X778488D01*
X780164D02*
Y229161D01*
Y226800D02*
X780951D01*
X781288Y226912D01*
X781513Y227137D01*
X781626Y227362D01*
X781738Y227699D01*
Y228262D01*
X781626Y228599D01*
X781513Y228824D01*
X781288Y229049D01*
X780951Y229161D01*
X780164D01*
X782267Y227250D02*
X782492Y227137D01*
X782829Y226800D01*
Y229161D01*
X775587Y222075D02*
Y224437D01*
Y222075D02*
X776486Y224437D01*
X777386Y222075D02*
X776486Y224437D01*
X777386Y222075D02*
Y224437D01*
X778735Y222075D02*
X778511Y222188D01*
X778286Y222413D01*
X778173Y222638D01*
X778061Y222975D01*
Y223537D01*
X778173Y223875D01*
X778286Y224100D01*
X778511Y224324D01*
X778735Y224437D01*
X779185D01*
X779410Y224324D01*
X779635Y224100D01*
X779748Y223875D01*
X779860Y223537D01*
Y222975D01*
X779748Y222638D01*
X779635Y222413D01*
X779410Y222188D01*
X779185Y222075D01*
X778735D01*
X781986Y222413D02*
X781761Y222188D01*
X781423Y222075D01*
X780973D01*
X780636Y222188D01*
X780411Y222413D01*
Y222638D01*
X780524Y222863D01*
X780636Y222975D01*
X780861Y223088D01*
X781536Y223312D01*
X781761Y223425D01*
X781873Y223537D01*
X781986Y223762D01*
Y224100D01*
X781761Y224324D01*
X781423Y224437D01*
X780973D01*
X780636Y224324D01*
X780411Y224100D01*
X782514Y222075D02*
Y224437D01*
X777161Y217295D02*
X776936Y217070D01*
X776599Y216957D01*
X776149D01*
X775811Y217070D01*
X775587Y217295D01*
Y217519D01*
X775699Y217744D01*
X775811Y217857D01*
X776037Y217969D01*
X776711Y218194D01*
X776936Y218307D01*
X777049Y218419D01*
X777161Y218644D01*
Y218982D01*
X776936Y219206D01*
X776599Y219319D01*
X776149D01*
X775811Y219206D01*
X775587Y218982D01*
X779377Y217519D02*
X779264Y217295D01*
X779039Y217070D01*
X778814Y216957D01*
X778364D01*
X778139Y217070D01*
X777915Y217295D01*
X777802Y217519D01*
X777690Y217857D01*
Y218419D01*
X777802Y218757D01*
X777915Y218982D01*
X778139Y219206D01*
X778364Y219319D01*
X778814D01*
X779039Y219206D01*
X779264Y218982D01*
X779377Y218757D01*
X780040Y216957D02*
Y219319D01*
X781614Y216957D02*
X780040Y218532D01*
X780602Y217969D02*
X781614Y219319D01*
X777274Y212401D02*
X777161Y212176D01*
X776936Y211952D01*
X776711Y211839D01*
X776261D01*
X776037Y211952D01*
X775811Y212176D01*
X775699Y212401D01*
X775587Y212739D01*
Y213301D01*
X775699Y213638D01*
X775811Y213863D01*
X776037Y214088D01*
X776261Y214201D01*
X776711D01*
X776936Y214088D01*
X777161Y213863D01*
X777274Y213638D01*
X779511Y212176D02*
X779287Y211952D01*
X778949Y211839D01*
X778499D01*
X778162Y211952D01*
X777937Y212176D01*
Y212401D01*
X778050Y212626D01*
X778162Y212739D01*
X778387Y212851D01*
X779062Y213076D01*
X779287Y213189D01*
X779399Y213301D01*
X779511Y213526D01*
Y213863D01*
X779287Y214088D01*
X778949Y214201D01*
X778499D01*
X778162Y214088D01*
X777937Y213863D01*
X780040Y211839D02*
Y214201D01*
Y211839D02*
X781614Y214201D01*
Y211839D02*
Y214201D01*
X777274Y207283D02*
X777161Y207058D01*
X776936Y206833D01*
X776711Y206721D01*
X776261D01*
X776037Y206833D01*
X775811Y207058D01*
X775699Y207283D01*
X775587Y207621D01*
Y208183D01*
X775699Y208520D01*
X775811Y208745D01*
X776037Y208970D01*
X776261Y209083D01*
X776711D01*
X776936Y208970D01*
X777161Y208745D01*
X777274Y208520D01*
Y208183D01*
X776711D02*
X777274D01*
X778488Y206721D02*
X778263Y206833D01*
X778038Y207058D01*
X777926Y207283D01*
X777813Y207621D01*
Y208183D01*
X777926Y208520D01*
X778038Y208745D01*
X778263Y208970D01*
X778488Y209083D01*
X778938D01*
X779163Y208970D01*
X779388Y208745D01*
X779500Y208520D01*
X779613Y208183D01*
Y207621D01*
X779500Y207283D01*
X779388Y207058D01*
X779163Y206833D01*
X778938Y206721D01*
X778488D01*
X780164D02*
Y209083D01*
Y206721D02*
X780951D01*
X781288Y206833D01*
X781513Y207058D01*
X781626Y207283D01*
X781738Y207621D01*
Y208183D01*
X781626Y208520D01*
X781513Y208745D01*
X781288Y208970D01*
X780951Y209083D01*
X780164D01*
X782942Y206721D02*
X782604Y206833D01*
X782379Y207171D01*
X782267Y207733D01*
Y208070D01*
X782379Y208633D01*
X782604Y208970D01*
X782942Y209083D01*
X783167D01*
X783504Y208970D01*
X783729Y208633D01*
X783841Y208070D01*
Y207733D01*
X783729Y207171D01*
X783504Y206833D01*
X783167Y206721D01*
X782942D01*
X775587Y201603D02*
X776486Y203965D01*
X777386Y201603D02*
X776486Y203965D01*
X779377Y202165D02*
X779264Y201940D01*
X779039Y201715D01*
X778814Y201603D01*
X778364D01*
X778139Y201715D01*
X777915Y201940D01*
X777802Y202165D01*
X777690Y202503D01*
Y203065D01*
X777802Y203402D01*
X777915Y203627D01*
X778139Y203852D01*
X778364Y203965D01*
X778814D01*
X779039Y203852D01*
X779264Y203627D01*
X779377Y203402D01*
X781727Y202165D02*
X781614Y201940D01*
X781390Y201715D01*
X781165Y201603D01*
X780715D01*
X780490Y201715D01*
X780265Y201940D01*
X780153Y202165D01*
X780040Y202503D01*
Y203065D01*
X780153Y203402D01*
X780265Y203627D01*
X780490Y203852D01*
X780715Y203965D01*
X781165D01*
X781390Y203852D01*
X781614Y203627D01*
X781727Y203402D01*
X798078Y459393D02*
X798191Y459730D01*
Y459056D01*
X798078Y459393D01*
X797854Y459168D01*
X797516Y459056D01*
X797291D01*
X796954Y459168D01*
X796729Y459393D01*
X796616Y459618D01*
X796504Y459955D01*
Y460518D01*
X796616Y460855D01*
X796729Y461080D01*
X796954Y461305D01*
X797291Y461417D01*
X797516D01*
X797854Y461305D01*
X798078Y461080D01*
X797291Y459056D02*
X797066Y459168D01*
X796841Y459393D01*
X796729Y459618D01*
X796616Y459955D01*
Y460518D01*
X796729Y460855D01*
X796841Y461080D01*
X797066Y461305D01*
X797291Y461417D01*
X798078Y460518D02*
Y461417D01*
X798191Y460518D02*
Y461417D01*
X797741Y460518D02*
X798528D01*
X799169Y459056D02*
Y461417D01*
X799282Y459056D02*
X800631Y461192D01*
X799282Y459281D02*
X800631Y461417D01*
Y459056D02*
Y461417D01*
X798832Y459056D02*
X799282D01*
X800294D02*
X800969D01*
X798832Y461417D02*
X799507D01*
X801598Y459056D02*
Y461417D01*
X801711Y459056D02*
Y461417D01*
X801261Y459056D02*
X802386D01*
X802723Y459168D01*
X802948Y459393D01*
X803061Y459618D01*
X803173Y459955D01*
Y460518D01*
X803061Y460855D01*
X802948Y461080D01*
X802723Y461305D01*
X802386Y461417D01*
X801261D01*
X802386Y459056D02*
X802611Y459168D01*
X802835Y459393D01*
X802948Y459618D01*
X803061Y459955D01*
Y460518D01*
X802948Y460855D01*
X802835Y461080D01*
X802611Y461305D01*
X802386Y461417D01*
X796841Y453937D02*
Y456299D01*
X796954Y453937D02*
Y456299D01*
X796504Y453937D02*
X797291D01*
X796504Y456299D02*
X797291D01*
X798056Y453937D02*
Y456299D01*
X798168Y453937D02*
Y456299D01*
X797718Y453937D02*
X799068D01*
X799405Y454050D01*
X799518Y454162D01*
X799630Y454387D01*
Y454612D01*
X799518Y454837D01*
X799405Y454950D01*
X799068Y455062D01*
X798168D01*
X799068Y453937D02*
X799293Y454050D01*
X799405Y454162D01*
X799518Y454387D01*
Y454612D01*
X799405Y454837D01*
X799293Y454950D01*
X799068Y455062D01*
X797718Y456299D02*
X798506D01*
X798731Y455062D02*
X798956Y455175D01*
X799068Y455287D01*
X799405Y456074D01*
X799518Y456187D01*
X799630D01*
X799743Y456074D01*
X798956Y455175D02*
X799068Y455400D01*
X799293Y456187D01*
X799405Y456299D01*
X799630D01*
X799743Y456074D01*
Y455962D01*
X800834Y453937D02*
X800496Y454050D01*
X800271Y454275D01*
X800159Y454500D01*
X800047Y454950D01*
Y455287D01*
X800159Y455737D01*
X800271Y455962D01*
X800496Y456187D01*
X800834Y456299D01*
X801059D01*
X801396Y456187D01*
X801621Y455962D01*
X801733Y455737D01*
X801846Y455287D01*
Y454950D01*
X801733Y454500D01*
X801621Y454275D01*
X801396Y454050D01*
X801059Y453937D01*
X800834D01*
X800609Y454050D01*
X800384Y454275D01*
X800271Y454500D01*
X800159Y454950D01*
Y455287D01*
X800271Y455737D01*
X800384Y455962D01*
X800609Y456187D01*
X800834Y456299D01*
X801059D02*
X801284Y456187D01*
X801509Y455962D01*
X801621Y455737D01*
X801733Y455287D01*
Y454950D01*
X801621Y454500D01*
X801509Y454275D01*
X801284Y454050D01*
X801059Y453937D01*
X800496Y456074D02*
Y455962D01*
X800609Y455737D01*
X800834Y455624D01*
X800946D01*
X801171Y455737D01*
X801284Y455962D01*
X801396Y456749D01*
X801509Y456861D01*
X801733D01*
X801846Y456637D01*
Y456524D01*
X801284Y455962D02*
X801396Y456412D01*
X801509Y456637D01*
X801621Y456749D01*
X801733D01*
X801846Y456637D01*
X796841Y448819D02*
Y451181D01*
X796954Y448819D02*
X797629Y450844D01*
X796841Y448819D02*
X797629Y451181D01*
X798416Y448819D02*
X797629Y451181D01*
X798416Y448819D02*
Y451181D01*
X798528Y448819D02*
Y451181D01*
X796504Y448819D02*
X796954D01*
X798416D02*
X798866D01*
X796504Y451181D02*
X797179D01*
X798078D02*
X798866D01*
X799473Y448819D02*
Y451181D01*
X799585Y448819D02*
Y451181D01*
X799135Y448819D02*
X799923D01*
X799135Y451181D02*
X799923D01*
X801812Y449157D02*
X801925Y448819D01*
Y449494D01*
X801812Y449157D01*
X801587Y448932D01*
X801250Y448819D01*
X800912D01*
X800575Y448932D01*
X800350Y449157D01*
Y449382D01*
X800463Y449607D01*
X800575Y449719D01*
X800800Y449832D01*
X801475Y450057D01*
X801700Y450169D01*
X801925Y450394D01*
X800350Y449382D02*
X800575Y449607D01*
X800800Y449719D01*
X801475Y449944D01*
X801700Y450057D01*
X801812Y450169D01*
X801925Y450394D01*
Y450844D01*
X801700Y451069D01*
X801362Y451181D01*
X801025D01*
X800688Y451069D01*
X800463Y450844D01*
X800350Y450506D01*
Y451181D01*
X800463Y450844D01*
X802611Y448819D02*
Y451181D01*
X802723Y448819D02*
Y451181D01*
X802273Y448819D02*
X803061D01*
X802273Y451181D02*
X803061D01*
X796841Y444095D02*
Y446457D01*
X796954Y444095D02*
X797629Y446119D01*
X796841Y444095D02*
X797629Y446457D01*
X798416Y444095D02*
X797629Y446457D01*
X798416Y444095D02*
Y446457D01*
X798528Y444095D02*
Y446457D01*
X796504Y444095D02*
X796954D01*
X798416D02*
X798866D01*
X796504Y446457D02*
X797179D01*
X798078D02*
X798866D01*
X799923Y444095D02*
X799585Y444207D01*
X799361Y444432D01*
X799248Y444657D01*
X799135Y445107D01*
Y445444D01*
X799248Y445894D01*
X799361Y446119D01*
X799585Y446344D01*
X799923Y446457D01*
X800148D01*
X800485Y446344D01*
X800710Y446119D01*
X800823Y445894D01*
X800935Y445444D01*
Y445107D01*
X800823Y444657D01*
X800710Y444432D01*
X800485Y444207D01*
X800148Y444095D01*
X799923D01*
X799698Y444207D01*
X799473Y444432D01*
X799361Y444657D01*
X799248Y445107D01*
Y445444D01*
X799361Y445894D01*
X799473Y446119D01*
X799698Y446344D01*
X799923Y446457D01*
X800148D02*
X800373Y446344D01*
X800597Y446119D01*
X800710Y445894D01*
X800823Y445444D01*
Y445107D01*
X800710Y444657D01*
X800597Y444432D01*
X800373Y444207D01*
X800148Y444095D01*
X802723Y444432D02*
X802835Y444095D01*
Y444770D01*
X802723Y444432D01*
X802498Y444207D01*
X802161Y444095D01*
X801823D01*
X801486Y444207D01*
X801261Y444432D01*
Y444657D01*
X801373Y444882D01*
X801486Y444995D01*
X801711Y445107D01*
X802386Y445332D01*
X802611Y445444D01*
X802835Y445670D01*
X801261Y444657D02*
X801486Y444882D01*
X801711Y444995D01*
X802386Y445220D01*
X802611Y445332D01*
X802723Y445444D01*
X802835Y445670D01*
Y446119D01*
X802611Y446344D01*
X802273Y446457D01*
X801936D01*
X801598Y446344D01*
X801373Y446119D01*
X801261Y445782D01*
Y446457D01*
X801373Y446119D01*
X803522Y444095D02*
Y446457D01*
X803634Y444095D02*
Y446457D01*
X803184Y444095D02*
X803971D01*
X803184Y446457D02*
X803971D01*
X797966Y439314D02*
X798078Y438977D01*
Y439652D01*
X797966Y439314D01*
X797741Y439089D01*
X797404Y438977D01*
X797066D01*
X796729Y439089D01*
X796504Y439314D01*
Y439539D01*
X796616Y439764D01*
X796729Y439877D01*
X796954Y439989D01*
X797629Y440214D01*
X797854Y440326D01*
X798078Y440551D01*
X796504Y439539D02*
X796729Y439764D01*
X796954Y439877D01*
X797629Y440101D01*
X797854Y440214D01*
X797966Y440326D01*
X798078Y440551D01*
Y441001D01*
X797854Y441226D01*
X797516Y441339D01*
X797179D01*
X796841Y441226D01*
X796616Y441001D01*
X796504Y440664D01*
Y441339D01*
X796616Y441001D01*
X800002Y439314D02*
X800114Y439652D01*
Y438977D01*
X800002Y439314D01*
X799777Y439089D01*
X799439Y438977D01*
X799214D01*
X798877Y439089D01*
X798652Y439314D01*
X798539Y439539D01*
X798427Y439877D01*
Y440439D01*
X798539Y440776D01*
X798652Y441001D01*
X798877Y441226D01*
X799214Y441339D01*
X799439D01*
X799777Y441226D01*
X800002Y441001D01*
X800114Y440776D01*
X799214Y438977D02*
X798989Y439089D01*
X798764Y439314D01*
X798652Y439539D01*
X798539Y439877D01*
Y440439D01*
X798652Y440776D01*
X798764Y441001D01*
X798989Y441226D01*
X799214Y441339D01*
X800789Y438977D02*
Y441339D01*
X800901Y438977D02*
Y441339D01*
X802363Y438977D02*
X800901Y440439D01*
X801464Y439989D02*
X802363Y441339D01*
X801351Y439989D02*
X802251Y441339D01*
X800451Y438977D02*
X801239D01*
X801913D02*
X802588D01*
X800451Y441339D02*
X801239D01*
X801913D02*
X802588D01*
X798078Y434196D02*
X798191Y434534D01*
Y433859D01*
X798078Y434196D01*
X797854Y433971D01*
X797516Y433859D01*
X797291D01*
X796954Y433971D01*
X796729Y434196D01*
X796616Y434421D01*
X796504Y434759D01*
Y435321D01*
X796616Y435658D01*
X796729Y435883D01*
X796954Y436108D01*
X797291Y436221D01*
X797516D01*
X797854Y436108D01*
X798078Y435883D01*
X798191Y435658D01*
X797291Y433859D02*
X797066Y433971D01*
X796841Y434196D01*
X796729Y434421D01*
X796616Y434759D01*
Y435321D01*
X796729Y435658D01*
X796841Y435883D01*
X797066Y436108D01*
X797291Y436221D01*
X799990Y434196D02*
X800103Y433859D01*
Y434534D01*
X799990Y434196D01*
X799765Y433971D01*
X799428Y433859D01*
X799091D01*
X798753Y433971D01*
X798528Y434196D01*
Y434421D01*
X798641Y434646D01*
X798753Y434759D01*
X798978Y434871D01*
X799653Y435096D01*
X799878Y435208D01*
X800103Y435433D01*
X798528Y434421D02*
X798753Y434646D01*
X798978Y434759D01*
X799653Y434983D01*
X799878Y435096D01*
X799990Y435208D01*
X800103Y435433D01*
Y435883D01*
X799878Y436108D01*
X799540Y436221D01*
X799203D01*
X798866Y436108D01*
X798641Y435883D01*
X798528Y435546D01*
Y436221D01*
X798641Y435883D01*
X800789Y433859D02*
Y436221D01*
X800901Y433859D02*
X802251Y435996D01*
X800901Y434084D02*
X802251Y436221D01*
Y433859D02*
Y436221D01*
X800451Y433859D02*
X800901D01*
X801913D02*
X802588D01*
X800451Y436221D02*
X801126D01*
X798078Y429078D02*
X798191Y429415D01*
Y428741D01*
X798078Y429078D01*
X797854Y428853D01*
X797516Y428741D01*
X797291D01*
X796954Y428853D01*
X796729Y429078D01*
X796616Y429303D01*
X796504Y429640D01*
Y430203D01*
X796616Y430540D01*
X796729Y430765D01*
X796954Y430990D01*
X797291Y431102D01*
X797516D01*
X797854Y430990D01*
X798078Y430765D01*
X798191Y430540D01*
X797291Y428741D02*
X797066Y428853D01*
X796841Y429078D01*
X796729Y429303D01*
X796616Y429640D01*
Y430203D01*
X796729Y430540D01*
X796841Y430765D01*
X797066Y430990D01*
X797291Y431102D01*
X798866Y428741D02*
Y431102D01*
X798978Y428741D02*
Y431102D01*
X799653Y429415D02*
Y430315D01*
X798528Y428741D02*
X800328D01*
Y429415D01*
X800215Y428741D01*
X798978Y429865D02*
X799653D01*
X798528Y431102D02*
X800328D01*
Y430428D01*
X800215Y431102D01*
X796729Y423623D02*
X797516Y425984D01*
X796841Y423623D02*
X797516Y425647D01*
X798303Y423623D02*
X797516Y425984D01*
X796504Y423623D02*
X797179D01*
X797854D02*
X798528D01*
X800406Y423960D02*
X800519Y424297D01*
Y423623D01*
X800406Y423960D01*
X800181Y423735D01*
X799844Y423623D01*
X799619D01*
X799282Y423735D01*
X799057Y423960D01*
X798944Y424185D01*
X798832Y424522D01*
Y425085D01*
X798944Y425422D01*
X799057Y425647D01*
X799282Y425872D01*
X799619Y425984D01*
X799844D01*
X800181Y425872D01*
X800406Y425647D01*
X800519Y425422D01*
X799619Y423623D02*
X799394Y423735D01*
X799169Y423960D01*
X799057Y424185D01*
X798944Y424522D01*
Y425085D01*
X799057Y425422D01*
X799169Y425647D01*
X799394Y425872D01*
X799619Y425984D01*
X802431Y423960D02*
X802543Y424297D01*
Y423623D01*
X802431Y423960D01*
X802206Y423735D01*
X801868Y423623D01*
X801643D01*
X801306Y423735D01*
X801081Y423960D01*
X800969Y424185D01*
X800856Y424522D01*
Y425085D01*
X800969Y425422D01*
X801081Y425647D01*
X801306Y425872D01*
X801643Y425984D01*
X801868D01*
X802206Y425872D01*
X802431Y425647D01*
X802543Y425422D01*
X801643Y423623D02*
X801418Y423735D01*
X801194Y423960D01*
X801081Y424185D01*
X800969Y424522D01*
Y425085D01*
X801081Y425422D01*
X801194Y425647D01*
X801418Y425872D01*
X801643Y425984D01*
X798078Y396499D02*
X798191Y396837D01*
Y396162D01*
X798078Y396499D01*
X797854Y396274D01*
X797516Y396162D01*
X797291D01*
X796954Y396274D01*
X796729Y396499D01*
X796616Y396724D01*
X796504Y397062D01*
Y397624D01*
X796616Y397961D01*
X796729Y398186D01*
X796954Y398411D01*
X797291Y398524D01*
X797516D01*
X797854Y398411D01*
X798078Y398186D01*
X797291Y396162D02*
X797066Y396274D01*
X796841Y396499D01*
X796729Y396724D01*
X796616Y397062D01*
Y397624D01*
X796729Y397961D01*
X796841Y398186D01*
X797066Y398411D01*
X797291Y398524D01*
X798078Y397624D02*
Y398524D01*
X798191Y397624D02*
Y398524D01*
X797741Y397624D02*
X798528D01*
X799169Y396162D02*
Y398524D01*
X799282Y396162D02*
X800631Y398299D01*
X799282Y396387D02*
X800631Y398524D01*
Y396162D02*
Y398524D01*
X798832Y396162D02*
X799282D01*
X800294D02*
X800969D01*
X798832Y398524D02*
X799507D01*
X801598Y396162D02*
Y398524D01*
X801711Y396162D02*
Y398524D01*
X801261Y396162D02*
X802386D01*
X802723Y396274D01*
X802948Y396499D01*
X803061Y396724D01*
X803173Y397062D01*
Y397624D01*
X803061Y397961D01*
X802948Y398186D01*
X802723Y398411D01*
X802386Y398524D01*
X801261D01*
X802386Y396162D02*
X802611Y396274D01*
X802836Y396499D01*
X802948Y396724D01*
X803061Y397062D01*
Y397624D01*
X802948Y397961D01*
X802836Y398186D01*
X802611Y398411D01*
X802386Y398524D01*
X796841Y391044D02*
Y393406D01*
X796954Y391044D02*
Y393406D01*
X796504Y391044D02*
X797291D01*
X796504Y393406D02*
X797291D01*
X798056Y391044D02*
Y393406D01*
X798168Y391044D02*
Y393406D01*
X797719Y391044D02*
X799068D01*
X799405Y391156D01*
X799518Y391269D01*
X799630Y391494D01*
Y391719D01*
X799518Y391944D01*
X799405Y392056D01*
X799068Y392168D01*
X798168D01*
X799068Y391044D02*
X799293Y391156D01*
X799405Y391269D01*
X799518Y391494D01*
Y391719D01*
X799405Y391944D01*
X799293Y392056D01*
X799068Y392168D01*
X797719Y393406D02*
X798506D01*
X798731Y392168D02*
X798956Y392281D01*
X799068Y392393D01*
X799405Y393181D01*
X799518Y393293D01*
X799630D01*
X799743Y393181D01*
X798956Y392281D02*
X799068Y392506D01*
X799293Y393293D01*
X799405Y393406D01*
X799630D01*
X799743Y393181D01*
Y393068D01*
X800834Y391044D02*
X800496Y391156D01*
X800271Y391381D01*
X800159Y391606D01*
X800047Y392056D01*
Y392393D01*
X800159Y392843D01*
X800271Y393068D01*
X800496Y393293D01*
X800834Y393406D01*
X801059D01*
X801396Y393293D01*
X801621Y393068D01*
X801733Y392843D01*
X801846Y392393D01*
Y392056D01*
X801733Y391606D01*
X801621Y391381D01*
X801396Y391156D01*
X801059Y391044D01*
X800834D01*
X800609Y391156D01*
X800384Y391381D01*
X800271Y391606D01*
X800159Y392056D01*
Y392393D01*
X800271Y392843D01*
X800384Y393068D01*
X800609Y393293D01*
X800834Y393406D01*
X801059D02*
X801284Y393293D01*
X801509Y393068D01*
X801621Y392843D01*
X801733Y392393D01*
Y392056D01*
X801621Y391606D01*
X801509Y391381D01*
X801284Y391156D01*
X801059Y391044D01*
X800496Y393181D02*
Y393068D01*
X800609Y392843D01*
X800834Y392731D01*
X800946D01*
X801171Y392843D01*
X801284Y393068D01*
X801396Y393855D01*
X801509Y393968D01*
X801733D01*
X801846Y393743D01*
Y393631D01*
X801284Y393068D02*
X801396Y393518D01*
X801509Y393743D01*
X801621Y393855D01*
X801733D01*
X801846Y393743D01*
X796841Y385926D02*
Y388287D01*
X796954Y385926D02*
X797629Y387950D01*
X796841Y385926D02*
X797629Y388287D01*
X798416Y385926D02*
X797629Y388287D01*
X798416Y385926D02*
Y388287D01*
X798528Y385926D02*
Y388287D01*
X796504Y385926D02*
X796954D01*
X798416D02*
X798866D01*
X796504Y388287D02*
X797179D01*
X798078D02*
X798866D01*
X799473Y385926D02*
Y388287D01*
X799585Y385926D02*
Y388287D01*
X799136Y385926D02*
X799923D01*
X799136Y388287D02*
X799923D01*
X801812Y386263D02*
X801925Y385926D01*
Y386600D01*
X801812Y386263D01*
X801587Y386038D01*
X801250Y385926D01*
X800912D01*
X800575Y386038D01*
X800350Y386263D01*
Y386488D01*
X800463Y386713D01*
X800575Y386825D01*
X800800Y386938D01*
X801475Y387163D01*
X801700Y387275D01*
X801925Y387500D01*
X800350Y386488D02*
X800575Y386713D01*
X800800Y386825D01*
X801475Y387050D01*
X801700Y387163D01*
X801812Y387275D01*
X801925Y387500D01*
Y387950D01*
X801700Y388175D01*
X801362Y388287D01*
X801025D01*
X800688Y388175D01*
X800463Y387950D01*
X800350Y387613D01*
Y388287D01*
X800463Y387950D01*
X802611Y385926D02*
Y388287D01*
X802723Y385926D02*
Y388287D01*
X802273Y385926D02*
X803061D01*
X802273Y388287D02*
X803061D01*
X796841Y381201D02*
Y383563D01*
X796954Y381201D02*
X797629Y383226D01*
X796841Y381201D02*
X797629Y383563D01*
X798416Y381201D02*
X797629Y383563D01*
X798416Y381201D02*
Y383563D01*
X798528Y381201D02*
Y383563D01*
X796504Y381201D02*
X796954D01*
X798416D02*
X798866D01*
X796504Y383563D02*
X797179D01*
X798078D02*
X798866D01*
X799923Y381201D02*
X799585Y381314D01*
X799361Y381539D01*
X799248Y381764D01*
X799136Y382213D01*
Y382551D01*
X799248Y383001D01*
X799361Y383226D01*
X799585Y383451D01*
X799923Y383563D01*
X800148D01*
X800485Y383451D01*
X800710Y383226D01*
X800823Y383001D01*
X800935Y382551D01*
Y382213D01*
X800823Y381764D01*
X800710Y381539D01*
X800485Y381314D01*
X800148Y381201D01*
X799923D01*
X799698Y381314D01*
X799473Y381539D01*
X799361Y381764D01*
X799248Y382213D01*
Y382551D01*
X799361Y383001D01*
X799473Y383226D01*
X799698Y383451D01*
X799923Y383563D01*
X800148D02*
X800373Y383451D01*
X800598Y383226D01*
X800710Y383001D01*
X800823Y382551D01*
Y382213D01*
X800710Y381764D01*
X800598Y381539D01*
X800373Y381314D01*
X800148Y381201D01*
X802723Y381539D02*
X802835Y381201D01*
Y381876D01*
X802723Y381539D01*
X802498Y381314D01*
X802161Y381201D01*
X801823D01*
X801486Y381314D01*
X801261Y381539D01*
Y381764D01*
X801373Y381989D01*
X801486Y382101D01*
X801711Y382213D01*
X802386Y382438D01*
X802611Y382551D01*
X802835Y382776D01*
X801261Y381764D02*
X801486Y381989D01*
X801711Y382101D01*
X802386Y382326D01*
X802611Y382438D01*
X802723Y382551D01*
X802835Y382776D01*
Y383226D01*
X802611Y383451D01*
X802273Y383563D01*
X801936D01*
X801598Y383451D01*
X801373Y383226D01*
X801261Y382888D01*
Y383563D01*
X801373Y383226D01*
X803522Y381201D02*
Y383563D01*
X803634Y381201D02*
Y383563D01*
X803184Y381201D02*
X803971D01*
X803184Y383563D02*
X803971D01*
X797966Y376421D02*
X798078Y376083D01*
Y376758D01*
X797966Y376421D01*
X797741Y376196D01*
X797404Y376083D01*
X797066D01*
X796729Y376196D01*
X796504Y376421D01*
Y376645D01*
X796616Y376870D01*
X796729Y376983D01*
X796954Y377095D01*
X797629Y377320D01*
X797854Y377433D01*
X798078Y377658D01*
X796504Y376645D02*
X796729Y376870D01*
X796954Y376983D01*
X797629Y377208D01*
X797854Y377320D01*
X797966Y377433D01*
X798078Y377658D01*
Y378108D01*
X797854Y378332D01*
X797516Y378445D01*
X797179D01*
X796841Y378332D01*
X796616Y378108D01*
X796504Y377770D01*
Y378445D01*
X796616Y378108D01*
X800002Y376421D02*
X800114Y376758D01*
Y376083D01*
X800002Y376421D01*
X799777Y376196D01*
X799439Y376083D01*
X799214D01*
X798877Y376196D01*
X798652Y376421D01*
X798539Y376645D01*
X798427Y376983D01*
Y377545D01*
X798539Y377883D01*
X798652Y378108D01*
X798877Y378332D01*
X799214Y378445D01*
X799439D01*
X799777Y378332D01*
X800002Y378108D01*
X800114Y377883D01*
X799214Y376083D02*
X798989Y376196D01*
X798764Y376421D01*
X798652Y376645D01*
X798539Y376983D01*
Y377545D01*
X798652Y377883D01*
X798764Y378108D01*
X798989Y378332D01*
X799214Y378445D01*
X800789Y376083D02*
Y378445D01*
X800901Y376083D02*
Y378445D01*
X802363Y376083D02*
X800901Y377545D01*
X801464Y377095D02*
X802363Y378445D01*
X801351Y377095D02*
X802251Y378445D01*
X800451Y376083D02*
X801239D01*
X801913D02*
X802588D01*
X800451Y378445D02*
X801239D01*
X801913D02*
X802588D01*
X798078Y371303D02*
X798191Y371640D01*
Y370965D01*
X798078Y371303D01*
X797854Y371078D01*
X797516Y370965D01*
X797291D01*
X796954Y371078D01*
X796729Y371303D01*
X796616Y371527D01*
X796504Y371865D01*
Y372427D01*
X796616Y372764D01*
X796729Y372989D01*
X796954Y373214D01*
X797291Y373327D01*
X797516D01*
X797854Y373214D01*
X798078Y372989D01*
X798191Y372764D01*
X797291Y370965D02*
X797066Y371078D01*
X796841Y371303D01*
X796729Y371527D01*
X796616Y371865D01*
Y372427D01*
X796729Y372764D01*
X796841Y372989D01*
X797066Y373214D01*
X797291Y373327D01*
X799990Y371303D02*
X800103Y370965D01*
Y371640D01*
X799990Y371303D01*
X799765Y371078D01*
X799428Y370965D01*
X799091D01*
X798753Y371078D01*
X798528Y371303D01*
Y371527D01*
X798641Y371752D01*
X798753Y371865D01*
X798978Y371977D01*
X799653Y372202D01*
X799878Y372315D01*
X800103Y372540D01*
X798528Y371527D02*
X798753Y371752D01*
X798978Y371865D01*
X799653Y372090D01*
X799878Y372202D01*
X799990Y372315D01*
X800103Y372540D01*
Y372989D01*
X799878Y373214D01*
X799540Y373327D01*
X799203D01*
X798866Y373214D01*
X798641Y372989D01*
X798528Y372652D01*
Y373327D01*
X798641Y372989D01*
X800789Y370965D02*
Y373327D01*
X800901Y370965D02*
X802251Y373102D01*
X800901Y371190D02*
X802251Y373327D01*
Y370965D02*
Y373327D01*
X800451Y370965D02*
X800901D01*
X801913D02*
X802588D01*
X800451Y373327D02*
X801126D01*
X798078Y366184D02*
X798191Y366522D01*
Y365847D01*
X798078Y366184D01*
X797854Y365960D01*
X797516Y365847D01*
X797291D01*
X796954Y365960D01*
X796729Y366184D01*
X796616Y366409D01*
X796504Y366747D01*
Y367309D01*
X796616Y367646D01*
X796729Y367871D01*
X796954Y368096D01*
X797291Y368209D01*
X797516D01*
X797854Y368096D01*
X798078Y367871D01*
X798191Y367646D01*
X797291Y365847D02*
X797066Y365960D01*
X796841Y366184D01*
X796729Y366409D01*
X796616Y366747D01*
Y367309D01*
X796729Y367646D01*
X796841Y367871D01*
X797066Y368096D01*
X797291Y368209D01*
X798866Y365847D02*
Y368209D01*
X798978Y365847D02*
Y368209D01*
X799653Y366522D02*
Y367422D01*
X798528Y365847D02*
X800328D01*
Y366522D01*
X800215Y365847D01*
X798978Y366972D02*
X799653D01*
X798528Y368209D02*
X800328D01*
Y367534D01*
X800215Y368209D01*
X796729Y360729D02*
X797516Y363091D01*
X796841Y360729D02*
X797516Y362753D01*
X798303Y360729D02*
X797516Y363091D01*
X796504Y360729D02*
X797179D01*
X797854D02*
X798528D01*
X800406Y361066D02*
X800519Y361404D01*
Y360729D01*
X800406Y361066D01*
X800181Y360841D01*
X799844Y360729D01*
X799619D01*
X799282Y360841D01*
X799057Y361066D01*
X798944Y361291D01*
X798832Y361629D01*
Y362191D01*
X798944Y362528D01*
X799057Y362753D01*
X799282Y362978D01*
X799619Y363091D01*
X799844D01*
X800181Y362978D01*
X800406Y362753D01*
X800519Y362528D01*
X799619Y360729D02*
X799394Y360841D01*
X799169Y361066D01*
X799057Y361291D01*
X798944Y361629D01*
Y362191D01*
X799057Y362528D01*
X799169Y362753D01*
X799394Y362978D01*
X799619Y363091D01*
X802431Y361066D02*
X802543Y361404D01*
Y360729D01*
X802431Y361066D01*
X802206Y360841D01*
X801868Y360729D01*
X801643D01*
X801306Y360841D01*
X801081Y361066D01*
X800969Y361291D01*
X800856Y361629D01*
Y362191D01*
X800969Y362528D01*
X801081Y362753D01*
X801306Y362978D01*
X801643Y363091D01*
X801868D01*
X802206Y362978D01*
X802431Y362753D01*
X802543Y362528D01*
X801643Y360729D02*
X801418Y360841D01*
X801194Y361066D01*
X801081Y361291D01*
X800969Y361629D01*
Y362191D01*
X801081Y362528D01*
X801194Y362753D01*
X801418Y362978D01*
X801643Y363091D01*
X798078Y333393D02*
X798191Y333730D01*
Y333056D01*
X798078Y333393D01*
X797854Y333168D01*
X797516Y333056D01*
X797291D01*
X796954Y333168D01*
X796729Y333393D01*
X796616Y333618D01*
X796504Y333955D01*
Y334518D01*
X796616Y334855D01*
X796729Y335080D01*
X796954Y335305D01*
X797291Y335417D01*
X797516D01*
X797854Y335305D01*
X798078Y335080D01*
X797291Y333056D02*
X797066Y333168D01*
X796841Y333393D01*
X796729Y333618D01*
X796616Y333955D01*
Y334518D01*
X796729Y334855D01*
X796841Y335080D01*
X797066Y335305D01*
X797291Y335417D01*
X798078Y334518D02*
Y335417D01*
X798191Y334518D02*
Y335417D01*
X797741Y334518D02*
X798528D01*
X799169Y333056D02*
Y335417D01*
X799282Y333056D02*
X800631Y335192D01*
X799282Y333281D02*
X800631Y335417D01*
Y333056D02*
Y335417D01*
X798832Y333056D02*
X799282D01*
X800294D02*
X800969D01*
X798832Y335417D02*
X799507D01*
X801598Y333056D02*
Y335417D01*
X801711Y333056D02*
Y335417D01*
X801261Y333056D02*
X802386D01*
X802723Y333168D01*
X802948Y333393D01*
X803061Y333618D01*
X803173Y333955D01*
Y334518D01*
X803061Y334855D01*
X802948Y335080D01*
X802723Y335305D01*
X802386Y335417D01*
X801261D01*
X802386Y333056D02*
X802611Y333168D01*
X802835Y333393D01*
X802948Y333618D01*
X803061Y333955D01*
Y334518D01*
X802948Y334855D01*
X802835Y335080D01*
X802611Y335305D01*
X802386Y335417D01*
X796841Y327938D02*
Y330299D01*
X796954Y327938D02*
Y330299D01*
X796504Y327938D02*
X797291D01*
X796504Y330299D02*
X797291D01*
X798056Y327938D02*
Y330299D01*
X798168Y327938D02*
Y330299D01*
X797718Y327938D02*
X799068D01*
X799405Y328050D01*
X799518Y328162D01*
X799630Y328387D01*
Y328612D01*
X799518Y328837D01*
X799405Y328950D01*
X799068Y329062D01*
X798168D01*
X799068Y327938D02*
X799293Y328050D01*
X799405Y328162D01*
X799518Y328387D01*
Y328612D01*
X799405Y328837D01*
X799293Y328950D01*
X799068Y329062D01*
X797718Y330299D02*
X798506D01*
X798731Y329062D02*
X798956Y329175D01*
X799068Y329287D01*
X799405Y330074D01*
X799518Y330187D01*
X799630D01*
X799743Y330074D01*
X798956Y329175D02*
X799068Y329399D01*
X799293Y330187D01*
X799405Y330299D01*
X799630D01*
X799743Y330074D01*
Y329962D01*
X800834Y327938D02*
X800496Y328050D01*
X800271Y328275D01*
X800159Y328500D01*
X800047Y328950D01*
Y329287D01*
X800159Y329737D01*
X800271Y329962D01*
X800496Y330187D01*
X800834Y330299D01*
X801059D01*
X801396Y330187D01*
X801621Y329962D01*
X801733Y329737D01*
X801846Y329287D01*
Y328950D01*
X801733Y328500D01*
X801621Y328275D01*
X801396Y328050D01*
X801059Y327938D01*
X800834D01*
X800609Y328050D01*
X800384Y328275D01*
X800271Y328500D01*
X800159Y328950D01*
Y329287D01*
X800271Y329737D01*
X800384Y329962D01*
X800609Y330187D01*
X800834Y330299D01*
X801059D02*
X801284Y330187D01*
X801509Y329962D01*
X801621Y329737D01*
X801733Y329287D01*
Y328950D01*
X801621Y328500D01*
X801509Y328275D01*
X801284Y328050D01*
X801059Y327938D01*
X800496Y330074D02*
Y329962D01*
X800609Y329737D01*
X800834Y329624D01*
X800946D01*
X801171Y329737D01*
X801284Y329962D01*
X801396Y330749D01*
X801509Y330861D01*
X801733D01*
X801846Y330637D01*
Y330524D01*
X801284Y329962D02*
X801396Y330412D01*
X801509Y330637D01*
X801621Y330749D01*
X801733D01*
X801846Y330637D01*
X796841Y322819D02*
Y325181D01*
X796954Y322819D02*
X797629Y324844D01*
X796841Y322819D02*
X797629Y325181D01*
X798416Y322819D02*
X797629Y325181D01*
X798416Y322819D02*
Y325181D01*
X798528Y322819D02*
Y325181D01*
X796504Y322819D02*
X796954D01*
X798416D02*
X798866D01*
X796504Y325181D02*
X797179D01*
X798078D02*
X798866D01*
X799473Y322819D02*
Y325181D01*
X799585Y322819D02*
Y325181D01*
X799135Y322819D02*
X799923D01*
X799135Y325181D02*
X799923D01*
X801812Y323157D02*
X801925Y322819D01*
Y323494D01*
X801812Y323157D01*
X801587Y322932D01*
X801250Y322819D01*
X800912D01*
X800575Y322932D01*
X800350Y323157D01*
Y323382D01*
X800463Y323607D01*
X800575Y323719D01*
X800800Y323832D01*
X801475Y324057D01*
X801700Y324169D01*
X801925Y324394D01*
X800350Y323382D02*
X800575Y323607D01*
X800800Y323719D01*
X801475Y323944D01*
X801700Y324057D01*
X801812Y324169D01*
X801925Y324394D01*
Y324844D01*
X801700Y325069D01*
X801362Y325181D01*
X801025D01*
X800688Y325069D01*
X800463Y324844D01*
X800350Y324506D01*
Y325181D01*
X800463Y324844D01*
X802611Y322819D02*
Y325181D01*
X802723Y322819D02*
Y325181D01*
X802273Y322819D02*
X803061D01*
X802273Y325181D02*
X803061D01*
X796841Y318095D02*
Y320457D01*
X796954Y318095D02*
X797629Y320119D01*
X796841Y318095D02*
X797629Y320457D01*
X798416Y318095D02*
X797629Y320457D01*
X798416Y318095D02*
Y320457D01*
X798528Y318095D02*
Y320457D01*
X796504Y318095D02*
X796954D01*
X798416D02*
X798866D01*
X796504Y320457D02*
X797179D01*
X798078D02*
X798866D01*
X799923Y318095D02*
X799585Y318208D01*
X799361Y318432D01*
X799248Y318657D01*
X799135Y319107D01*
Y319444D01*
X799248Y319894D01*
X799361Y320119D01*
X799585Y320344D01*
X799923Y320457D01*
X800148D01*
X800485Y320344D01*
X800710Y320119D01*
X800823Y319894D01*
X800935Y319444D01*
Y319107D01*
X800823Y318657D01*
X800710Y318432D01*
X800485Y318208D01*
X800148Y318095D01*
X799923D01*
X799698Y318208D01*
X799473Y318432D01*
X799361Y318657D01*
X799248Y319107D01*
Y319444D01*
X799361Y319894D01*
X799473Y320119D01*
X799698Y320344D01*
X799923Y320457D01*
X800148D02*
X800373Y320344D01*
X800597Y320119D01*
X800710Y319894D01*
X800823Y319444D01*
Y319107D01*
X800710Y318657D01*
X800597Y318432D01*
X800373Y318208D01*
X800148Y318095D01*
X802723Y318432D02*
X802835Y318095D01*
Y318770D01*
X802723Y318432D01*
X802498Y318208D01*
X802161Y318095D01*
X801823D01*
X801486Y318208D01*
X801261Y318432D01*
Y318657D01*
X801373Y318882D01*
X801486Y318995D01*
X801711Y319107D01*
X802386Y319332D01*
X802611Y319444D01*
X802835Y319670D01*
X801261Y318657D02*
X801486Y318882D01*
X801711Y318995D01*
X802386Y319220D01*
X802611Y319332D01*
X802723Y319444D01*
X802835Y319670D01*
Y320119D01*
X802611Y320344D01*
X802273Y320457D01*
X801936D01*
X801598Y320344D01*
X801373Y320119D01*
X801261Y319782D01*
Y320457D01*
X801373Y320119D01*
X803522Y318095D02*
Y320457D01*
X803634Y318095D02*
Y320457D01*
X803184Y318095D02*
X803971D01*
X803184Y320457D02*
X803971D01*
X797966Y313314D02*
X798078Y312977D01*
Y313652D01*
X797966Y313314D01*
X797741Y313089D01*
X797404Y312977D01*
X797066D01*
X796729Y313089D01*
X796504Y313314D01*
Y313539D01*
X796616Y313764D01*
X796729Y313877D01*
X796954Y313989D01*
X797629Y314214D01*
X797854Y314326D01*
X798078Y314551D01*
X796504Y313539D02*
X796729Y313764D01*
X796954Y313877D01*
X797629Y314102D01*
X797854Y314214D01*
X797966Y314326D01*
X798078Y314551D01*
Y315001D01*
X797854Y315226D01*
X797516Y315339D01*
X797179D01*
X796841Y315226D01*
X796616Y315001D01*
X796504Y314664D01*
Y315339D01*
X796616Y315001D01*
X800002Y313314D02*
X800114Y313652D01*
Y312977D01*
X800002Y313314D01*
X799777Y313089D01*
X799439Y312977D01*
X799214D01*
X798877Y313089D01*
X798652Y313314D01*
X798539Y313539D01*
X798427Y313877D01*
Y314439D01*
X798539Y314776D01*
X798652Y315001D01*
X798877Y315226D01*
X799214Y315339D01*
X799439D01*
X799777Y315226D01*
X800002Y315001D01*
X800114Y314776D01*
X799214Y312977D02*
X798989Y313089D01*
X798764Y313314D01*
X798652Y313539D01*
X798539Y313877D01*
Y314439D01*
X798652Y314776D01*
X798764Y315001D01*
X798989Y315226D01*
X799214Y315339D01*
X800789Y312977D02*
Y315339D01*
X800901Y312977D02*
Y315339D01*
X802363Y312977D02*
X800901Y314439D01*
X801464Y313989D02*
X802363Y315339D01*
X801351Y313989D02*
X802251Y315339D01*
X800451Y312977D02*
X801239D01*
X801913D02*
X802588D01*
X800451Y315339D02*
X801239D01*
X801913D02*
X802588D01*
X798078Y308196D02*
X798191Y308534D01*
Y307859D01*
X798078Y308196D01*
X797854Y307971D01*
X797516Y307859D01*
X797291D01*
X796954Y307971D01*
X796729Y308196D01*
X796616Y308421D01*
X796504Y308758D01*
Y309321D01*
X796616Y309658D01*
X796729Y309883D01*
X796954Y310108D01*
X797291Y310221D01*
X797516D01*
X797854Y310108D01*
X798078Y309883D01*
X798191Y309658D01*
X797291Y307859D02*
X797066Y307971D01*
X796841Y308196D01*
X796729Y308421D01*
X796616Y308758D01*
Y309321D01*
X796729Y309658D01*
X796841Y309883D01*
X797066Y310108D01*
X797291Y310221D01*
X799990Y308196D02*
X800103Y307859D01*
Y308534D01*
X799990Y308196D01*
X799765Y307971D01*
X799428Y307859D01*
X799091D01*
X798753Y307971D01*
X798528Y308196D01*
Y308421D01*
X798641Y308646D01*
X798753Y308758D01*
X798978Y308871D01*
X799653Y309096D01*
X799878Y309208D01*
X800103Y309433D01*
X798528Y308421D02*
X798753Y308646D01*
X798978Y308758D01*
X799653Y308983D01*
X799878Y309096D01*
X799990Y309208D01*
X800103Y309433D01*
Y309883D01*
X799878Y310108D01*
X799540Y310221D01*
X799203D01*
X798866Y310108D01*
X798641Y309883D01*
X798528Y309546D01*
Y310221D01*
X798641Y309883D01*
X800789Y307859D02*
Y310221D01*
X800901Y307859D02*
X802251Y309996D01*
X800901Y308084D02*
X802251Y310221D01*
Y307859D02*
Y310221D01*
X800451Y307859D02*
X800901D01*
X801913D02*
X802588D01*
X800451Y310221D02*
X801126D01*
X798078Y303078D02*
X798191Y303415D01*
Y302741D01*
X798078Y303078D01*
X797854Y302853D01*
X797516Y302741D01*
X797291D01*
X796954Y302853D01*
X796729Y303078D01*
X796616Y303303D01*
X796504Y303640D01*
Y304203D01*
X796616Y304540D01*
X796729Y304765D01*
X796954Y304990D01*
X797291Y305102D01*
X797516D01*
X797854Y304990D01*
X798078Y304765D01*
X798191Y304540D01*
X797291Y302741D02*
X797066Y302853D01*
X796841Y303078D01*
X796729Y303303D01*
X796616Y303640D01*
Y304203D01*
X796729Y304540D01*
X796841Y304765D01*
X797066Y304990D01*
X797291Y305102D01*
X798866Y302741D02*
Y305102D01*
X798978Y302741D02*
Y305102D01*
X799653Y303415D02*
Y304315D01*
X798528Y302741D02*
X800328D01*
Y303415D01*
X800215Y302741D01*
X798978Y303865D02*
X799653D01*
X798528Y305102D02*
X800328D01*
Y304428D01*
X800215Y305102D01*
X796729Y297623D02*
X797516Y299984D01*
X796841Y297623D02*
X797516Y299647D01*
X798303Y297623D02*
X797516Y299984D01*
X796504Y297623D02*
X797179D01*
X797854D02*
X798528D01*
X800406Y297960D02*
X800519Y298297D01*
Y297623D01*
X800406Y297960D01*
X800181Y297735D01*
X799844Y297623D01*
X799619D01*
X799282Y297735D01*
X799057Y297960D01*
X798944Y298185D01*
X798832Y298522D01*
Y299085D01*
X798944Y299422D01*
X799057Y299647D01*
X799282Y299872D01*
X799619Y299984D01*
X799844D01*
X800181Y299872D01*
X800406Y299647D01*
X800519Y299422D01*
X799619Y297623D02*
X799394Y297735D01*
X799169Y297960D01*
X799057Y298185D01*
X798944Y298522D01*
Y299085D01*
X799057Y299422D01*
X799169Y299647D01*
X799394Y299872D01*
X799619Y299984D01*
X802431Y297960D02*
X802543Y298297D01*
Y297623D01*
X802431Y297960D01*
X802206Y297735D01*
X801868Y297623D01*
X801643D01*
X801306Y297735D01*
X801081Y297960D01*
X800969Y298185D01*
X800856Y298522D01*
Y299085D01*
X800969Y299422D01*
X801081Y299647D01*
X801306Y299872D01*
X801643Y299984D01*
X801868D01*
X802206Y299872D01*
X802431Y299647D01*
X802543Y299422D01*
X801643Y297623D02*
X801418Y297735D01*
X801194Y297960D01*
X801081Y298185D01*
X800969Y298522D01*
Y299085D01*
X801081Y299422D01*
X801194Y299647D01*
X801418Y299872D01*
X801643Y299984D01*
D60*
X818944Y441376D02*
X819225Y442220D01*
Y440533D01*
X818944Y441376D01*
X818382Y440814D01*
X817538Y440533D01*
X816976D01*
X816133Y440814D01*
X815570Y441376D01*
X815289Y441938D01*
X815008Y442782D01*
Y444188D01*
X815289Y445031D01*
X815570Y445594D01*
X816133Y446156D01*
X816976Y446437D01*
X817538D01*
X818382Y446156D01*
X818944Y445594D01*
X816976Y440533D02*
X816414Y440814D01*
X815851Y441376D01*
X815570Y441938D01*
X815289Y442782D01*
Y444188D01*
X815570Y445031D01*
X815851Y445594D01*
X816414Y446156D01*
X816976Y446437D01*
X818944Y444188D02*
Y446437D01*
X819225Y444188D02*
Y446437D01*
X818101Y444188D02*
X820069D01*
X822796Y440533D02*
Y446437D01*
X823077Y440533D02*
Y446437D01*
X821109Y440533D02*
X820828Y442220D01*
Y440533D01*
X825045D01*
Y442220D01*
X824764Y440533D01*
X821952Y446437D02*
X823921D01*
X826170Y441657D02*
X826451Y441938D01*
X826170Y442220D01*
X825889Y441938D01*
Y441657D01*
X826170Y441095D01*
X826451Y440814D01*
X827294Y440533D01*
X828419D01*
X829262Y440814D01*
X829544Y441095D01*
X829825Y441657D01*
Y442220D01*
X829544Y442782D01*
X828700Y443344D01*
X827294Y443907D01*
X826732Y444188D01*
X826170Y444750D01*
X825889Y445594D01*
Y446437D01*
X828419Y440533D02*
X828981Y440814D01*
X829262Y441095D01*
X829544Y441657D01*
Y442220D01*
X829262Y442782D01*
X828419Y443344D01*
X827294Y443907D01*
X825889Y445875D02*
X826170Y445594D01*
X826732D01*
X828138Y446156D01*
X828981D01*
X829544Y445875D01*
X829825Y445594D01*
Y445031D01*
X826732Y445594D02*
X828138Y446437D01*
X829262D01*
X829544Y446156D01*
X829825Y445594D01*
X833508Y441095D02*
Y446437D01*
X835195Y444750D02*
X830696D01*
X833789Y440533D01*
Y446437D01*
X832664D02*
X834632D01*
X836854Y440533D02*
Y446437D01*
X837135Y440533D02*
X838822Y445594D01*
X836854Y440533D02*
X838822Y446437D01*
X840790Y440533D02*
X838822Y446437D01*
X840790Y440533D02*
Y446437D01*
X841071Y440533D02*
Y446437D01*
X836010Y440533D02*
X837135D01*
X840790D02*
X841914D01*
X836010Y446437D02*
X837697D01*
X839946D02*
X841914D01*
X843433Y440533D02*
Y446437D01*
X843714Y440533D02*
Y446437D01*
X842589Y440533D02*
X844557D01*
X842589Y446437D02*
X844557D01*
X846469Y440533D02*
Y446437D01*
X846750Y440533D02*
X850124Y445875D01*
X846750Y441095D02*
X850124Y446437D01*
Y440533D02*
Y446437D01*
X845626Y440533D02*
X846750D01*
X849281D02*
X850968D01*
X845626Y446437D02*
X847313D01*
X852542Y440533D02*
Y446437D01*
X852823Y440533D02*
Y446437D01*
X851699Y440533D02*
X853667D01*
X851699Y446437D02*
X853667D01*
X818944Y378483D02*
X819225Y379326D01*
Y377639D01*
X818944Y378483D01*
X818382Y377920D01*
X817538Y377639D01*
X816976D01*
X816133Y377920D01*
X815570Y378483D01*
X815289Y379045D01*
X815008Y379888D01*
Y381294D01*
X815289Y382138D01*
X815570Y382700D01*
X816133Y383262D01*
X816976Y383543D01*
X817538D01*
X818382Y383262D01*
X818944Y382700D01*
X816976Y377639D02*
X816414Y377920D01*
X815851Y378483D01*
X815570Y379045D01*
X815289Y379888D01*
Y381294D01*
X815570Y382138D01*
X815851Y382700D01*
X816414Y383262D01*
X816976Y383543D01*
X818944Y381294D02*
Y383543D01*
X819225Y381294D02*
Y383543D01*
X818101Y381294D02*
X820069D01*
X822796Y377639D02*
Y383543D01*
X823077Y377639D02*
Y383543D01*
X821109Y377639D02*
X820828Y379326D01*
Y377639D01*
X825045D01*
Y379326D01*
X824764Y377639D01*
X821952Y383543D02*
X823921D01*
X826170Y378764D02*
X826451Y379045D01*
X826170Y379326D01*
X825889Y379045D01*
Y378764D01*
X826170Y378201D01*
X826451Y377920D01*
X827294Y377639D01*
X828419D01*
X829262Y377920D01*
X829544Y378201D01*
X829825Y378764D01*
Y379326D01*
X829544Y379888D01*
X828700Y380451D01*
X827294Y381013D01*
X826732Y381294D01*
X826170Y381856D01*
X825889Y382700D01*
Y383543D01*
X828419Y377639D02*
X828981Y377920D01*
X829262Y378201D01*
X829544Y378764D01*
Y379326D01*
X829262Y379888D01*
X828419Y380451D01*
X827294Y381013D01*
X825889Y382981D02*
X826170Y382700D01*
X826732D01*
X828138Y383262D01*
X828981D01*
X829544Y382981D01*
X829825Y382700D01*
Y382138D01*
X826732Y382700D02*
X828138Y383543D01*
X829262D01*
X829544Y383262D01*
X829825Y382700D01*
X833508Y378201D02*
Y383543D01*
X835195Y381856D02*
X830696D01*
X833789Y377639D01*
Y383543D01*
X832664D02*
X834632D01*
X836854Y377639D02*
Y383543D01*
X837135Y377639D02*
X838822Y382700D01*
X836854Y377639D02*
X838822Y383543D01*
X840790Y377639D02*
X838822Y383543D01*
X840790Y377639D02*
Y383543D01*
X841071Y377639D02*
Y383543D01*
X836010Y377639D02*
X837135D01*
X840790D02*
X841914D01*
X836010Y383543D02*
X837697D01*
X839946D02*
X841914D01*
X843433Y377639D02*
Y383543D01*
X843714Y377639D02*
Y383543D01*
X842589Y377639D02*
X844557D01*
X842589Y383543D02*
X844557D01*
X846469Y377639D02*
Y383543D01*
X846750Y377639D02*
X850124Y382981D01*
X846750Y378201D02*
X850124Y383543D01*
Y377639D02*
Y383543D01*
X845626Y377639D02*
X846750D01*
X849281D02*
X850968D01*
X845626Y383543D02*
X847313D01*
X852542Y377639D02*
Y383543D01*
X852823Y377639D02*
Y383543D01*
X851699Y377639D02*
X853667D01*
X851699Y383543D02*
X853667D01*
X818944Y315376D02*
X819225Y316220D01*
Y314533D01*
X818944Y315376D01*
X818382Y314814D01*
X817538Y314533D01*
X816976D01*
X816133Y314814D01*
X815570Y315376D01*
X815289Y315938D01*
X815008Y316782D01*
Y318188D01*
X815289Y319031D01*
X815570Y319594D01*
X816133Y320156D01*
X816976Y320437D01*
X817538D01*
X818382Y320156D01*
X818944Y319594D01*
X816976Y314533D02*
X816414Y314814D01*
X815851Y315376D01*
X815570Y315938D01*
X815289Y316782D01*
Y318188D01*
X815570Y319031D01*
X815851Y319594D01*
X816414Y320156D01*
X816976Y320437D01*
X818944Y318188D02*
Y320437D01*
X819225Y318188D02*
Y320437D01*
X818101Y318188D02*
X820069D01*
X822796Y314533D02*
Y320437D01*
X823077Y314533D02*
Y320437D01*
X821109Y314533D02*
X820828Y316220D01*
Y314533D01*
X825045D01*
Y316220D01*
X824764Y314533D01*
X821952Y320437D02*
X823921D01*
X826170Y315657D02*
X826451Y315938D01*
X826170Y316220D01*
X825889Y315938D01*
Y315657D01*
X826170Y315095D01*
X826451Y314814D01*
X827294Y314533D01*
X828419D01*
X829262Y314814D01*
X829544Y315095D01*
X829825Y315657D01*
Y316220D01*
X829544Y316782D01*
X828700Y317344D01*
X827294Y317907D01*
X826732Y318188D01*
X826170Y318750D01*
X825889Y319594D01*
Y320437D01*
X828419Y314533D02*
X828981Y314814D01*
X829262Y315095D01*
X829544Y315657D01*
Y316220D01*
X829262Y316782D01*
X828419Y317344D01*
X827294Y317907D01*
X825889Y319875D02*
X826170Y319594D01*
X826732D01*
X828138Y320156D01*
X828981D01*
X829544Y319875D01*
X829825Y319594D01*
Y319031D01*
X826732Y319594D02*
X828138Y320437D01*
X829262D01*
X829544Y320156D01*
X829825Y319594D01*
X833508Y315095D02*
Y320437D01*
X835195Y318750D02*
X830696D01*
X833789Y314533D01*
Y320437D01*
X832664D02*
X834632D01*
X836854Y314533D02*
Y320437D01*
X837135Y314533D02*
X838822Y319594D01*
X836854Y314533D02*
X838822Y320437D01*
X840790Y314533D02*
X838822Y320437D01*
X840790Y314533D02*
Y320437D01*
X841071Y314533D02*
Y320437D01*
X836010Y314533D02*
X837135D01*
X840790D02*
X841914D01*
X836010Y320437D02*
X837697D01*
X839946D02*
X841914D01*
X843433Y314533D02*
Y320437D01*
X843714Y314533D02*
Y320437D01*
X842589Y314533D02*
X844557D01*
X842589Y320437D02*
X844557D01*
X846469Y314533D02*
Y320437D01*
X846750Y314533D02*
X850124Y319875D01*
X846750Y315095D02*
X850124Y320437D01*
Y314533D02*
Y320437D01*
X845626Y314533D02*
X846750D01*
X849281D02*
X850968D01*
X845626Y320437D02*
X847313D01*
X852542Y314533D02*
Y320437D01*
X852823Y314533D02*
Y320437D01*
X851699Y314533D02*
X853667D01*
X851699Y320437D02*
X853667D01*
D61*
X670500Y259000D02*
Y260968D01*
X669516D01*
X669188Y260640D01*
Y259984D01*
X669516Y259656D01*
X670500D01*
X669844D02*
X669188Y259000D01*
X668532Y260312D02*
X667220Y259000D01*
X667876Y259656D01*
X667220Y260312D01*
X668532Y259000D01*
X666564D02*
X665908D01*
X666236D01*
Y260968D01*
X666564Y260640D01*
X723128Y458311D02*
X725096D01*
Y459295D01*
X724768Y459623D01*
X724112D01*
X723784Y459295D01*
Y458311D01*
Y458967D02*
X723128Y459623D01*
X725096Y461591D02*
Y460279D01*
X724112D01*
X724440Y460935D01*
Y461263D01*
X724112Y461591D01*
X723456D01*
X723128Y461263D01*
Y460607D01*
X723456Y460279D01*
X723128Y467917D02*
X725096D01*
Y468901D01*
X724768Y469229D01*
X724112D01*
X723784Y468901D01*
Y467917D01*
Y468573D02*
X723128Y469229D01*
X724768Y469885D02*
X725096Y470213D01*
Y470869D01*
X724768Y471197D01*
X724440D01*
X724112Y470869D01*
Y470541D01*
Y470869D01*
X723784Y471197D01*
X723456D01*
X723128Y470869D01*
Y470213D01*
X723456Y469885D01*
X680000Y258000D02*
Y259968D01*
X679016D01*
X678688Y259640D01*
Y258984D01*
X679016Y258656D01*
X680000D01*
X679344D02*
X678688Y258000D01*
X678032D02*
X677376D01*
X677704D01*
Y259968D01*
X678032Y259640D01*
X722956Y451623D02*
X724268D01*
X724596Y451295D01*
Y450639D01*
X724268Y450311D01*
X722956D01*
X722628Y450639D01*
Y451295D01*
X723284Y450967D02*
X722628Y451623D01*
Y451295D02*
X722956Y451623D01*
X722628Y452279D02*
Y452935D01*
Y452607D01*
X724596D01*
X724268Y452279D01*
X687098Y435405D02*
Y433437D01*
X686115D01*
X685786Y433765D01*
Y435077D01*
X686115Y435405D01*
X687098D01*
X683819Y433437D02*
X685131D01*
X683819Y434749D01*
Y435077D01*
X684147Y435405D01*
X684802D01*
X685131Y435077D01*
M02*
