G04*
G04 #@! TF.GenerationSoftware,Altium Limited,Altium Designer,20.1.7 (139)*
G04*
G04 Layer_Physical_Order=2*
G04 Layer_Color=16711680*
%FSLAX25Y25*%
%MOIN*%
G70*
G04*
G04 #@! TF.SameCoordinates,B477E5EB-4298-4D0D-9682-CB7A6047EE2C*
G04*
G04*
G04 #@! TF.FilePolarity,Positive*
G04*
G01*
G75*
%ADD10C,0.00787*%
%ADD24R,0.16535X0.05315*%
%ADD25R,0.05000X0.14173*%
%ADD26R,0.05315X0.16535*%
%ADD27R,0.03937X0.04134*%
%ADD28R,0.04134X0.08661*%
%ADD29R,0.14173X0.05000*%
%ADD30C,0.01968*%
%ADD31C,0.01500*%
%ADD32C,0.03937*%
%ADD33C,0.07600*%
G04:AMPARAMS|DCode=34|XSize=78.74mil|YSize=62.99mil|CornerRadius=0mil|HoleSize=0mil|Usage=FLASHONLY|Rotation=0.000|XOffset=0mil|YOffset=0mil|HoleType=Round|Shape=Octagon|*
%AMOCTAGOND34*
4,1,8,0.03937,-0.01575,0.03937,0.01575,0.02362,0.03150,-0.02362,0.03150,-0.03937,0.01575,-0.03937,-0.01575,-0.02362,-0.03150,0.02362,-0.03150,0.03937,-0.01575,0.0*
%
%ADD34OCTAGOND34*%

%ADD35O,0.07874X0.06299*%
%ADD36R,0.05906X0.05906*%
%ADD37C,0.02500*%
%ADD38R,0.04134X0.03937*%
%ADD39R,0.08661X0.04134*%
%ADD40R,0.05906X0.05118*%
%ADD41R,0.04500X0.04000*%
%ADD42R,0.05118X0.05906*%
%ADD43R,0.14488X0.05000*%
%ADD44R,0.04720X0.07870*%
%ADD45O,0.05843X0.03937*%
%ADD46O,0.09843X0.03150*%
%ADD47O,0.07874X0.03543*%
G36*
X681729Y537002D02*
X682221Y536980D01*
X682221Y536502D01*
Y528213D01*
X685878D01*
X689535D01*
Y536502D01*
X690027Y537002D01*
X693295D01*
X693500Y536587D01*
X693500Y536502D01*
Y520413D01*
X694006D01*
Y506000D01*
X694031Y505805D01*
Y505031D01*
X691686D01*
Y500200D01*
X694253D01*
Y502933D01*
X699733D01*
Y500200D01*
X702300D01*
Y505031D01*
X699968D01*
Y505805D01*
X699994Y506000D01*
Y520413D01*
X700500D01*
Y536502D01*
X700705Y537002D01*
X703973Y537002D01*
X704465Y536980D01*
X704465Y536502D01*
Y528213D01*
X708122D01*
X708122D01*
X711779D01*
Y536502D01*
X712271Y537002D01*
X725063Y537002D01*
X725554Y536980D01*
X725554Y536502D01*
Y528213D01*
X729211D01*
Y527713D01*
X729378D01*
Y528213D01*
X733035D01*
Y536502D01*
X733527Y537002D01*
X736628D01*
X736833Y536587D01*
X736833Y536502D01*
Y520413D01*
X737506D01*
Y506000D01*
X737532Y505805D01*
Y505031D01*
X735186D01*
Y500200D01*
X737753D01*
Y502933D01*
X743233D01*
Y500200D01*
X745800D01*
Y505031D01*
X743469D01*
Y505805D01*
X743494Y506000D01*
Y520413D01*
X743833D01*
Y536502D01*
X744038Y537002D01*
X747307D01*
X747798Y536980D01*
X747798Y536502D01*
Y528213D01*
X751455D01*
Y527713D01*
X751622D01*
X751622D01*
Y528213D01*
X755279D01*
Y536502D01*
X755771Y537002D01*
X768396Y537002D01*
X768887Y536980D01*
X768887Y536502D01*
Y528213D01*
X772545D01*
Y527713D01*
X772878D01*
Y528213D01*
X776535D01*
Y536502D01*
X777027Y537002D01*
X779961D01*
X780167Y536587D01*
X780167Y536502D01*
Y520413D01*
X781006D01*
Y506000D01*
X781032Y505805D01*
Y505031D01*
X778686D01*
Y500200D01*
X781253D01*
Y502933D01*
X786733D01*
Y500200D01*
X789300D01*
Y505031D01*
X786969D01*
Y505805D01*
X786994Y506000D01*
Y520413D01*
X787167D01*
Y536502D01*
X787372Y537002D01*
X790640D01*
X791131Y536980D01*
X791131Y536502D01*
Y528213D01*
X794789D01*
Y527713D01*
X795122D01*
X795122D01*
Y528213D01*
X798779D01*
Y536502D01*
X799271Y537002D01*
X811729Y537002D01*
X812220Y536980D01*
X812220Y536502D01*
Y528213D01*
X815878D01*
X819535D01*
Y536502D01*
X820027Y537002D01*
X823295D01*
X823500Y536587D01*
X823500Y536502D01*
Y520413D01*
X824006D01*
Y506559D01*
X823047D01*
Y499579D01*
X823047Y499441D01*
Y499079D01*
X823047Y498941D01*
Y491961D01*
X824006D01*
Y222000D01*
X824108Y221225D01*
X824407Y220503D01*
X824883Y219883D01*
X844099Y200666D01*
X844720Y200190D01*
X845442Y199891D01*
X846216Y199789D01*
X855280D01*
X856054Y199891D01*
X856777Y200190D01*
X857397Y200666D01*
X857872Y201286D01*
X858172Y202009D01*
X858274Y202783D01*
X858172Y203558D01*
X857872Y204280D01*
X857397Y204901D01*
X856777Y205376D01*
X856054Y205676D01*
X855280Y205778D01*
X847457D01*
X829994Y223240D01*
Y491961D01*
X830953D01*
Y498941D01*
X830953Y499079D01*
Y499441D01*
X830953Y499579D01*
Y506559D01*
X829994D01*
Y520413D01*
X830500D01*
Y536502D01*
X830705Y537002D01*
X833973D01*
X834465Y536980D01*
X834465Y536502D01*
Y528213D01*
X838122D01*
X838122D01*
X841780D01*
Y536502D01*
X842271Y537002D01*
X847500Y537002D01*
X848001Y537002D01*
X848002Y537002D01*
X848003Y537002D01*
X848005Y537002D01*
X848501Y537001D01*
X849130Y537001D01*
X851362Y536720D01*
X853543Y536164D01*
X855637Y535340D01*
X857612Y534262D01*
X859437Y532947D01*
X861085Y531414D01*
X862529Y529688D01*
X863746Y527796D01*
X864719Y525767D01*
X865431Y523633D01*
X865873Y521426D01*
X865954Y520304D01*
X865954D01*
X865966Y520267D01*
X865984Y520192D01*
X865996Y520116D01*
X866002Y520039D01*
Y520000D01*
X866002Y158042D01*
X866002Y157542D01*
X866001Y157087D01*
X866000Y156344D01*
X865690Y154007D01*
X865078Y151730D01*
X864174Y149552D01*
X862994Y147511D01*
X861558Y145642D01*
X859890Y143975D01*
X858020Y142541D01*
X855978Y141362D01*
X853800Y140460D01*
X851523Y139850D01*
X849185Y139541D01*
X848007Y139541D01*
X848004Y139541D01*
X671873D01*
X671795Y139547D01*
X671718Y139559D01*
X671642Y139577D01*
X671605Y139589D01*
X670671Y139606D01*
X668818Y139845D01*
X667003Y140287D01*
X665247Y140927D01*
X663573Y141756D01*
X661999Y142764D01*
X660547Y143939D01*
X659233Y145267D01*
X658073Y146732D01*
X657081Y148316D01*
X656270Y149999D01*
X655649Y151761D01*
X655438Y152671D01*
X655438Y152671D01*
X655438Y152671D01*
X655112Y153037D01*
X655058Y153139D01*
X654998Y153377D01*
Y153500D01*
X654998Y385229D01*
X655499Y385720D01*
X663787D01*
Y389378D01*
Y393035D01*
X655499D01*
X655020Y393035D01*
X654998Y393527D01*
Y396795D01*
X655499Y397000D01*
X671587D01*
Y397506D01*
X675760D01*
X678506Y394760D01*
Y371740D01*
X677253Y370487D01*
X673650D01*
X673455Y370461D01*
X672681D01*
Y372807D01*
X667850D01*
Y370240D01*
X670583D01*
Y364760D01*
X667850D01*
Y362193D01*
X672681D01*
Y364524D01*
X673455D01*
X673650Y364499D01*
X678493D01*
X679268Y364601D01*
X679990Y364900D01*
X680610Y365376D01*
X683617Y368383D01*
X684093Y369003D01*
X684392Y369725D01*
X684494Y370500D01*
Y396000D01*
X684392Y396775D01*
X684217Y397198D01*
X684093Y397497D01*
X683617Y398117D01*
X679117Y402617D01*
X678497Y403093D01*
X677775Y403392D01*
X677000Y403494D01*
X676750Y403461D01*
X676500Y403494D01*
X671587D01*
Y404000D01*
X655499D01*
X655413Y404000D01*
X654998Y404205D01*
X654998Y407473D01*
X655499Y407965D01*
X663787D01*
Y411622D01*
Y415279D01*
X655499D01*
X655020Y415279D01*
X654998Y415771D01*
Y433628D01*
X654998Y433795D01*
X655054Y434215D01*
X655069Y434265D01*
X655113Y434370D01*
X655218Y434569D01*
X655348Y434763D01*
X655289Y434704D01*
X655262Y434653D01*
X655283Y434693D01*
X655289Y434704D01*
X655627Y435043D01*
X657862Y437278D01*
X658026Y437388D01*
X658208Y437463D01*
X658401Y437501D01*
X675998D01*
Y449999D01*
X655801D01*
X655433Y450151D01*
X655151Y450433D01*
X654998Y450801D01*
Y458699D01*
X655151Y459067D01*
X655433Y459349D01*
X655801Y459502D01*
X675498D01*
Y486498D01*
X657901D01*
X657708Y486537D01*
X657526Y486613D01*
X657362Y486722D01*
X655222Y488862D01*
X655113Y489026D01*
X655037Y489208D01*
X654998Y489401D01*
Y519000D01*
Y520179D01*
X655306Y522517D01*
X655916Y524795D01*
X656818Y526973D01*
X657996Y529016D01*
X659431Y530888D01*
X661097Y532556D01*
X662967Y533993D01*
X665008Y535173D01*
X667186Y536077D01*
X669463Y536690D01*
X671800Y537000D01*
X672979Y537002D01*
X672982Y537002D01*
X672987Y537002D01*
X672992Y537002D01*
X672997Y537002D01*
X673000D01*
X681729Y537002D01*
D02*
G37*
%LPC*%
G36*
X841780Y527213D02*
X838622D01*
Y518445D01*
X841780D01*
Y527213D01*
D02*
G37*
G36*
X837622D02*
X834465D01*
Y518445D01*
X837622D01*
Y527213D01*
D02*
G37*
G36*
X819535D02*
X816378D01*
Y518445D01*
X819535D01*
Y527213D01*
D02*
G37*
G36*
X815378D02*
X812220D01*
Y518445D01*
X815378D01*
Y527213D01*
D02*
G37*
G36*
X798779D02*
X795622D01*
Y518445D01*
X798779D01*
Y527213D01*
D02*
G37*
G36*
X794289D02*
X791131D01*
Y518445D01*
X794289D01*
Y527213D01*
D02*
G37*
G36*
X776535D02*
X773378D01*
Y518445D01*
X776535D01*
Y527213D01*
D02*
G37*
G36*
X772045D02*
X768887D01*
Y518445D01*
X772045D01*
Y527213D01*
D02*
G37*
G36*
X755279D02*
X752122D01*
Y518445D01*
X755279D01*
Y527213D01*
D02*
G37*
G36*
X750955D02*
X747798D01*
Y518445D01*
X750955D01*
Y527213D01*
D02*
G37*
G36*
X733035D02*
X729878D01*
Y518445D01*
X733035D01*
Y527213D01*
D02*
G37*
G36*
X728711D02*
X725554D01*
Y518445D01*
X728711D01*
Y527213D01*
D02*
G37*
G36*
X711779D02*
X708622D01*
Y518445D01*
X711779D01*
Y527213D01*
D02*
G37*
G36*
X707622D02*
X704465D01*
Y518445D01*
X707622D01*
Y527213D01*
D02*
G37*
G36*
X689535D02*
X686378D01*
Y518445D01*
X689535D01*
Y527213D01*
D02*
G37*
G36*
X685378D02*
X682221D01*
Y518445D01*
X685378D01*
Y527213D01*
D02*
G37*
G36*
X667734Y530633D02*
X666571D01*
X666472Y530614D01*
X666371D01*
X665231Y530386D01*
X665138Y530348D01*
X665039Y530329D01*
X663965Y529883D01*
X663881Y529828D01*
X663788Y529789D01*
X662821Y529143D01*
X662750Y529072D01*
X662667Y529016D01*
X661844Y528194D01*
X661788Y528110D01*
X661717Y528039D01*
X661071Y527072D01*
X661032Y526979D01*
X660977Y526896D01*
X660532Y525821D01*
X660512Y525722D01*
X660473Y525630D01*
X660247Y524488D01*
Y524388D01*
X660227Y524290D01*
Y523126D01*
X660247Y523028D01*
Y522927D01*
X660473Y521786D01*
X660512Y521694D01*
X660532Y521595D01*
X660977Y520520D01*
X661032Y520437D01*
X661071Y520344D01*
X661717Y519377D01*
X661788Y519306D01*
X661844Y519222D01*
X662667Y518400D01*
X662750Y518344D01*
X662821Y518273D01*
X663788Y517627D01*
X663881Y517588D01*
X663965Y517533D01*
X665039Y517087D01*
X665138Y517068D01*
X665231Y517029D01*
X666372Y516803D01*
X666472D01*
X666571Y516783D01*
X667734D01*
X667832Y516803D01*
X667933D01*
X669074Y517029D01*
X669166Y517068D01*
X669265Y517087D01*
X670340Y517533D01*
X670423Y517588D01*
X670516Y517627D01*
X671483Y518273D01*
X671554Y518344D01*
X671638Y518400D01*
X672460Y519222D01*
X672516Y519306D01*
X672587Y519377D01*
X673233Y520344D01*
X673272Y520437D01*
X673327Y520520D01*
X673773Y521595D01*
X673792Y521694D01*
X673831Y521786D01*
X674058Y522927D01*
Y523028D01*
X674077Y523126D01*
Y524290D01*
X674058Y524388D01*
Y524488D01*
X673831Y525630D01*
X673792Y525722D01*
X673773Y525821D01*
X673327Y526896D01*
X673272Y526979D01*
X673233Y527072D01*
X672587Y528039D01*
X672516Y528110D01*
X672460Y528194D01*
X671638Y529016D01*
X671554Y529072D01*
X671483Y529143D01*
X670516Y529789D01*
X670423Y529828D01*
X670340Y529883D01*
X669265Y530329D01*
X669166Y530348D01*
X669074Y530386D01*
X667933Y530614D01*
X667832D01*
X667734Y530633D01*
D02*
G37*
G36*
X854430Y530633D02*
X853266D01*
X853168Y530614D01*
X853067D01*
X851926Y530386D01*
X851834Y530348D01*
X851735Y530329D01*
X850660Y529883D01*
X850577Y529827D01*
X850484Y529789D01*
X849517Y529143D01*
X849446Y529072D01*
X849362Y529016D01*
X848540Y528194D01*
X848484Y528110D01*
X848413Y528039D01*
X847767Y527072D01*
X847728Y526979D01*
X847672Y526895D01*
X847227Y525821D01*
X847208Y525722D01*
X847169Y525629D01*
X846942Y524488D01*
Y524388D01*
X846923Y524290D01*
Y523126D01*
X846942Y523028D01*
Y522927D01*
X847169Y521786D01*
X847208Y521694D01*
X847227Y521595D01*
X847672Y520520D01*
X847728Y520437D01*
X847767Y520344D01*
X848413Y519377D01*
X848484Y519306D01*
X848540Y519222D01*
X849362Y518400D01*
X849446Y518344D01*
X849517Y518273D01*
X850484Y517627D01*
X850577Y517588D01*
X850660Y517533D01*
X851735Y517087D01*
X851834Y517068D01*
X851926Y517029D01*
X853067Y516803D01*
X853168D01*
X853266Y516783D01*
X854430D01*
X854528Y516803D01*
X854628D01*
X855769Y517029D01*
X855862Y517068D01*
X855961Y517087D01*
X857035Y517533D01*
X857119Y517588D01*
X857212Y517627D01*
X858179Y518273D01*
X858250Y518344D01*
X858333Y518400D01*
X859156Y519222D01*
X859212Y519306D01*
X859283Y519377D01*
X859929Y520344D01*
X859968Y520437D01*
X860023Y520520D01*
X860468Y521595D01*
X860488Y521694D01*
X860526Y521786D01*
X860753Y522927D01*
Y523028D01*
X860773Y523126D01*
Y524290D01*
X860753Y524388D01*
Y524488D01*
X860526Y525630D01*
X860488Y525722D01*
X860468Y525821D01*
X860023Y526895D01*
X859968Y526979D01*
X859929Y527072D01*
X859283Y528039D01*
X859212Y528110D01*
X859156Y528194D01*
X858333Y529016D01*
X858250Y529072D01*
X858179Y529143D01*
X857212Y529789D01*
X857119Y529827D01*
X857035Y529883D01*
X855961Y530329D01*
X855862Y530348D01*
X855769Y530386D01*
X854628Y530614D01*
X854528D01*
X854430Y530633D01*
D02*
G37*
G36*
X792867Y505031D02*
X790300D01*
Y500200D01*
X792867D01*
Y505031D01*
D02*
G37*
G36*
X777686D02*
X775119D01*
Y500200D01*
X777686D01*
Y505031D01*
D02*
G37*
G36*
X749367D02*
X746800D01*
Y500200D01*
X749367D01*
Y505031D01*
D02*
G37*
G36*
X734186D02*
X731619D01*
Y500200D01*
X734186D01*
Y505031D01*
D02*
G37*
G36*
X705867D02*
X703300D01*
Y500200D01*
X705867D01*
Y505031D01*
D02*
G37*
G36*
X690686D02*
X688119D01*
Y500200D01*
X690686D01*
Y505031D01*
D02*
G37*
G36*
X792867Y499200D02*
X790300D01*
Y494369D01*
X792867D01*
Y499200D01*
D02*
G37*
G36*
X789300D02*
X786733D01*
Y494369D01*
X789300D01*
Y499200D01*
D02*
G37*
G36*
X781253D02*
X778686D01*
Y494369D01*
X781253D01*
Y499200D01*
D02*
G37*
G36*
X777686D02*
X775119D01*
Y494369D01*
X777686D01*
Y499200D01*
D02*
G37*
G36*
X749367D02*
X746800D01*
Y494369D01*
X749367D01*
Y499200D01*
D02*
G37*
G36*
X745800D02*
X743233D01*
Y494369D01*
X745800D01*
Y499200D01*
D02*
G37*
G36*
X737753D02*
X735186D01*
Y494369D01*
X737753D01*
Y499200D01*
D02*
G37*
G36*
X734186D02*
X731619D01*
Y494369D01*
X734186D01*
Y499200D01*
D02*
G37*
G36*
X705867D02*
X703300D01*
Y494369D01*
X705867D01*
Y499200D01*
D02*
G37*
G36*
X702300D02*
X699733D01*
Y494369D01*
X702300D01*
Y499200D01*
D02*
G37*
G36*
X694253D02*
X691686D01*
Y494369D01*
X694253D01*
Y499200D01*
D02*
G37*
G36*
X690686D02*
X688119D01*
Y494369D01*
X690686D01*
Y499200D01*
D02*
G37*
G36*
X715421Y473370D02*
X715059D01*
X714921Y473370D01*
X707941D01*
Y471023D01*
X707500D01*
X706726Y470869D01*
X706069Y470431D01*
X687225Y451587D01*
X682089D01*
X680014Y449512D01*
Y445362D01*
X681823Y443553D01*
X681802Y442906D01*
X681302Y442522D01*
X680637Y441656D01*
X680219Y440646D01*
X680076Y439563D01*
X680219Y438480D01*
X680637Y437470D01*
X681302Y436603D01*
X682169Y435938D01*
X683179Y435520D01*
X684262Y435378D01*
X685837D01*
X686920Y435520D01*
X687929Y435938D01*
X688796Y436603D01*
X689461Y437470D01*
X689464Y437477D01*
X702793D01*
X703568Y437631D01*
X704224Y438069D01*
X710591Y444437D01*
X714230D01*
Y450437D01*
X707730D01*
Y447298D01*
X701955Y441523D01*
X689516D01*
X689461Y441656D01*
X688796Y442522D01*
X688207Y442975D01*
X688137Y443601D01*
X688148Y443622D01*
X689888Y445362D01*
Y448527D01*
X707479Y466118D01*
X707941Y465927D01*
Y465465D01*
X714921D01*
X715059Y465465D01*
X715421D01*
X715559Y465465D01*
X722539D01*
Y473370D01*
X715559D01*
X715421Y473370D01*
D02*
G37*
G36*
X791976Y463012D02*
X790311D01*
Y460717D01*
X794706D01*
X794677Y460940D01*
X794397Y461614D01*
X793953Y462193D01*
X793374Y462638D01*
X792700Y462917D01*
X791976Y463012D01*
D02*
G37*
G36*
X789311D02*
X787646D01*
X786922Y462917D01*
X786248Y462638D01*
X785669Y462193D01*
X785225Y461614D01*
X784945Y460940D01*
X784916Y460717D01*
X789311D01*
Y463012D01*
D02*
G37*
G36*
X689776Y472000D02*
X680224D01*
X680324Y471247D01*
X680807Y470079D01*
X681577Y469077D01*
X682579Y468307D01*
X683747Y467824D01*
X684289Y467752D01*
Y467248D01*
X683747Y467176D01*
X682579Y466693D01*
X681577Y465923D01*
X680807Y464921D01*
X680324Y463753D01*
X680159Y462500D01*
X680324Y461247D01*
X680807Y460079D01*
X681577Y459077D01*
X682579Y458307D01*
X683747Y457824D01*
X685000Y457659D01*
X686253Y457824D01*
X687421Y458307D01*
X688423Y459077D01*
X689193Y460079D01*
X689677Y461247D01*
X689841Y462500D01*
X689677Y463753D01*
X689193Y464921D01*
X688423Y465923D01*
X687421Y466693D01*
X686253Y467176D01*
X685711Y467248D01*
Y467752D01*
X686253Y467824D01*
X687421Y468307D01*
X688423Y469077D01*
X689193Y470079D01*
X689677Y471247D01*
X689776Y472000D01*
D02*
G37*
G36*
X685000Y487341D02*
X683747Y487177D01*
X682579Y486693D01*
X681577Y485923D01*
X680807Y484921D01*
X680324Y483753D01*
X680159Y482500D01*
X680324Y481247D01*
X680807Y480079D01*
X681577Y479077D01*
X682579Y478307D01*
X683747Y477823D01*
X684289Y477752D01*
Y477248D01*
X683747Y477177D01*
X682579Y476693D01*
X681577Y475923D01*
X680807Y474921D01*
X680324Y473753D01*
X680224Y473000D01*
X689776D01*
X689677Y473753D01*
X689193Y474921D01*
X688423Y475923D01*
X687421Y476693D01*
X686253Y477177D01*
X685711Y477248D01*
Y477752D01*
X686253Y477823D01*
X687421Y478307D01*
X688423Y479077D01*
X689193Y480079D01*
X689358Y480477D01*
X732662D01*
X743977Y469162D01*
Y455022D01*
X743881Y454878D01*
X743706Y454000D01*
X743881Y453122D01*
X744378Y452378D01*
X745122Y451881D01*
X746000Y451706D01*
X746878Y451881D01*
X747622Y452378D01*
X748119Y453122D01*
X748294Y454000D01*
X748119Y454878D01*
X748023Y455022D01*
Y470000D01*
X747869Y470774D01*
X747431Y471431D01*
X734931Y483931D01*
X734274Y484369D01*
X733500Y484523D01*
X689358D01*
X689193Y484921D01*
X688423Y485923D01*
X687421Y486693D01*
X686253Y487177D01*
X685000Y487341D01*
D02*
G37*
G36*
X715421Y463764D02*
X715059D01*
X714921Y463764D01*
X707941D01*
Y455858D01*
X714921D01*
X715059Y455858D01*
X715421D01*
X715559Y455858D01*
X716957D01*
Y453937D01*
X715730D01*
Y447937D01*
X722230D01*
Y453937D01*
X721003D01*
Y455858D01*
X722539D01*
Y463764D01*
X715559D01*
X715421Y463764D01*
D02*
G37*
G36*
X794706Y459717D02*
X789811D01*
X784916D01*
X784945Y459493D01*
X785225Y458819D01*
X785669Y458240D01*
X786090Y457917D01*
X786129Y457800D01*
Y457436D01*
X786090Y457320D01*
X785669Y456996D01*
X785225Y456418D01*
X784945Y455743D01*
X784850Y455020D01*
X784945Y454296D01*
X785225Y453622D01*
X785669Y453043D01*
X785940Y452835D01*
Y452205D01*
X785669Y451997D01*
X785225Y451417D01*
X784945Y450743D01*
X784850Y450020D01*
X784945Y449296D01*
X785225Y448622D01*
X785669Y448043D01*
X785940Y447835D01*
Y447205D01*
X785669Y446996D01*
X785521Y446804D01*
X784219D01*
X779762Y451262D01*
X779183Y451649D01*
X778500Y451784D01*
X752500D01*
X752500Y451784D01*
X751817Y451649D01*
X751238Y451262D01*
X728261Y428284D01*
X724732D01*
Y430000D01*
X715453D01*
Y430453D01*
X707547D01*
Y422547D01*
X715453D01*
Y423000D01*
X724732D01*
Y424716D01*
X729000D01*
X729683Y424852D01*
X730262Y425238D01*
X753239Y448216D01*
X777761D01*
X782219Y443758D01*
X782797Y443371D01*
X783480Y443235D01*
X785521D01*
X785669Y443043D01*
X785940Y442835D01*
Y442205D01*
X785669Y441996D01*
X785521Y441804D01*
X783219D01*
X778262Y446762D01*
X777683Y447149D01*
X777000Y447284D01*
X757000D01*
X756317Y447149D01*
X755738Y446762D01*
X755738Y446762D01*
X727261Y418284D01*
X724732D01*
Y420000D01*
X715453D01*
Y420453D01*
X707547D01*
Y412547D01*
X715453D01*
Y413000D01*
X724732D01*
Y414716D01*
X728000D01*
X728683Y414852D01*
X729262Y415238D01*
X757739Y443716D01*
X776261D01*
X781219Y438758D01*
X781798Y438371D01*
X782480Y438235D01*
X782480Y438235D01*
X785521D01*
X785669Y438043D01*
X785940Y437835D01*
Y437205D01*
X785669Y436997D01*
X785225Y436417D01*
X784945Y435743D01*
X784850Y435020D01*
X784945Y434296D01*
X785225Y433622D01*
X785669Y433043D01*
X785940Y432835D01*
Y432205D01*
X785669Y431996D01*
X785225Y431418D01*
X784945Y430743D01*
X784850Y430020D01*
X784945Y429296D01*
X785225Y428622D01*
X785669Y428043D01*
X785840Y427912D01*
X785859Y427378D01*
X785507Y427043D01*
X771860D01*
Y429955D01*
X765140D01*
Y420085D01*
X766477D01*
Y401338D01*
X749569Y384431D01*
X749131Y383774D01*
X748977Y383000D01*
Y361500D01*
Y338022D01*
X748881Y337878D01*
X748706Y337000D01*
X748881Y336122D01*
X748977Y335978D01*
Y313000D01*
X749131Y312226D01*
X749569Y311569D01*
X760599Y300540D01*
X761255Y300101D01*
X762030Y299947D01*
X765140D01*
Y294085D01*
X771860D01*
Y296997D01*
X785729D01*
X786248Y296599D01*
X786922Y296319D01*
X787646Y296224D01*
X791976D01*
X792700Y296319D01*
X793374Y296599D01*
X793953Y297043D01*
X794397Y297622D01*
X794677Y298296D01*
X794772Y299020D01*
X794677Y299743D01*
X794397Y300417D01*
X793953Y300996D01*
X793682Y301205D01*
Y301835D01*
X793953Y302043D01*
X794397Y302622D01*
X794677Y303296D01*
X794772Y304020D01*
X794677Y304743D01*
X794397Y305417D01*
X793953Y305996D01*
X793682Y306205D01*
Y306835D01*
X793953Y307043D01*
X794397Y307622D01*
X794677Y308296D01*
X794772Y309020D01*
X794677Y309743D01*
X794397Y310418D01*
X793953Y310997D01*
X793682Y311205D01*
Y311835D01*
X793953Y312043D01*
X794397Y312622D01*
X794677Y313296D01*
X794772Y314020D01*
X794677Y314743D01*
X794397Y315418D01*
X793953Y315997D01*
X793682Y316205D01*
Y316835D01*
X793953Y317043D01*
X794397Y317622D01*
X794677Y318296D01*
X794772Y319020D01*
X794677Y319743D01*
X794397Y320417D01*
X793953Y320996D01*
X793682Y321205D01*
Y321835D01*
X793953Y322043D01*
X794380Y322599D01*
X810079D01*
Y241089D01*
X798392Y229401D01*
X774002D01*
X773683Y229817D01*
X773178Y230204D01*
X773143Y230472D01*
Y230488D01*
X773178Y230757D01*
X773683Y231144D01*
X774096Y231682D01*
X774355Y232308D01*
X774443Y232980D01*
X774355Y233652D01*
X774096Y234279D01*
X773683Y234817D01*
X773178Y235204D01*
X773143Y235472D01*
Y235488D01*
X773178Y235757D01*
X773683Y236144D01*
X774096Y236682D01*
X774355Y237308D01*
X774378Y237480D01*
X768500D01*
X762622D01*
X762645Y237308D01*
X762904Y236682D01*
X763317Y236144D01*
X763822Y235757D01*
X763857Y235488D01*
Y235472D01*
X763822Y235204D01*
X763317Y234817D01*
X762998Y234401D01*
X747108D01*
X687421Y294089D01*
Y329656D01*
X690765Y333000D01*
X697547D01*
Y332547D01*
X705453D01*
Y340453D01*
X697547D01*
Y340000D01*
X688756D01*
Y335010D01*
X684995Y331249D01*
X684687Y330788D01*
X684579Y330244D01*
Y293500D01*
X684687Y292956D01*
X684995Y292495D01*
X745515Y231976D01*
X745976Y231667D01*
X746520Y231559D01*
X762998D01*
X763317Y231144D01*
X763822Y230757D01*
X763857Y230488D01*
Y230472D01*
X763822Y230204D01*
X763317Y229817D01*
X762904Y229279D01*
X762645Y228653D01*
X762557Y227980D01*
X762645Y227308D01*
X762904Y226682D01*
X763317Y226144D01*
X763822Y225757D01*
X763857Y225488D01*
Y225472D01*
X763822Y225204D01*
X763317Y224817D01*
X762904Y224279D01*
X762645Y223653D01*
X762557Y222980D01*
X762645Y222308D01*
X762904Y221682D01*
X763317Y221144D01*
X763822Y220757D01*
X763857Y220488D01*
Y220472D01*
X763822Y220204D01*
X763317Y219817D01*
X762904Y219279D01*
X762645Y218653D01*
X762557Y217980D01*
X762645Y217308D01*
X762904Y216682D01*
X763317Y216144D01*
X763822Y215757D01*
X763857Y215488D01*
Y215472D01*
X763822Y215204D01*
X763317Y214817D01*
X762998Y214401D01*
X760608D01*
X683921Y291089D01*
Y346411D01*
X690510Y353000D01*
X697547D01*
Y352547D01*
X705453D01*
Y360453D01*
X697547D01*
Y360000D01*
X688756D01*
Y355265D01*
X681495Y348005D01*
X681187Y347544D01*
X681142Y347315D01*
X680632D01*
X680619Y347378D01*
X680122Y348122D01*
X679378Y348620D01*
X678500Y348794D01*
X677622Y348620D01*
X676878Y348122D01*
X676381Y347378D01*
X676206Y346500D01*
X676381Y345622D01*
X676878Y344878D01*
X677079Y344743D01*
Y288500D01*
X677187Y287956D01*
X677495Y287495D01*
X758015Y206976D01*
X758476Y206667D01*
X759020Y206559D01*
X762998D01*
X763317Y206144D01*
X763822Y205757D01*
X763857Y205488D01*
Y205472D01*
X763822Y205204D01*
X763560Y205003D01*
X756358D01*
X735653Y225708D01*
X735619Y225878D01*
X735122Y226622D01*
X734378Y227119D01*
X733500Y227294D01*
X732622Y227119D01*
X731878Y226622D01*
X731381Y225878D01*
X731206Y225000D01*
X731381Y224122D01*
X731878Y223378D01*
X732622Y222881D01*
X732792Y222847D01*
X754089Y201550D01*
X754745Y201111D01*
X755520Y200957D01*
X763560D01*
X763855Y200731D01*
X764481Y200472D01*
X765154Y200383D01*
X771846D01*
X772519Y200472D01*
X773145Y200731D01*
X773683Y201144D01*
X774096Y201682D01*
X774355Y202308D01*
X774443Y202980D01*
X774355Y203653D01*
X774096Y204279D01*
X773683Y204817D01*
X773178Y205204D01*
X773143Y205472D01*
Y205488D01*
X773178Y205757D01*
X773683Y206144D01*
X774096Y206682D01*
X774355Y207308D01*
X774443Y207980D01*
X774355Y208652D01*
X774096Y209279D01*
X773683Y209817D01*
X773178Y210204D01*
X773143Y210472D01*
Y210488D01*
X773178Y210757D01*
X773683Y211144D01*
X774096Y211682D01*
X774355Y212308D01*
X774443Y212980D01*
X774355Y213652D01*
X774096Y214279D01*
X773683Y214817D01*
X773178Y215204D01*
X773143Y215472D01*
Y215488D01*
X773178Y215757D01*
X773683Y216144D01*
X774002Y216559D01*
X783480D01*
X784024Y216668D01*
X784485Y216975D01*
X790763Y223253D01*
X791000Y223206D01*
X791878Y223380D01*
X792622Y223878D01*
X793119Y224622D01*
X793294Y225500D01*
X793183Y226059D01*
X793554Y226559D01*
X798980D01*
X799524Y226667D01*
X799985Y226975D01*
X812505Y239495D01*
X812813Y239956D01*
X812921Y240500D01*
Y324020D01*
Y385243D01*
X813122Y385378D01*
X813619Y386122D01*
X813794Y387000D01*
X813619Y387878D01*
X813122Y388622D01*
X812921Y388757D01*
Y439500D01*
X812813Y440044D01*
X812505Y440505D01*
X801985Y451024D01*
X801524Y451333D01*
X800980Y451441D01*
X794380D01*
X793953Y451997D01*
X793682Y452205D01*
Y452835D01*
X793953Y453043D01*
X794397Y453622D01*
X794677Y454296D01*
X794772Y455020D01*
X794677Y455743D01*
X794397Y456418D01*
X793953Y456996D01*
X793532Y457320D01*
X793493Y457436D01*
Y457800D01*
X793532Y457917D01*
X793953Y458240D01*
X794397Y458819D01*
X794677Y459493D01*
X794706Y459717D01*
D02*
G37*
G36*
X722230Y446937D02*
X719480D01*
Y444437D01*
X722230D01*
Y446937D01*
D02*
G37*
G36*
X718480D02*
X715730D01*
Y444437D01*
X718480D01*
Y446937D01*
D02*
G37*
G36*
X722230Y443437D02*
X719480D01*
Y440937D01*
X722230D01*
Y443437D01*
D02*
G37*
G36*
X718480D02*
X715730D01*
Y440937D01*
X718480D01*
Y443437D01*
D02*
G37*
G36*
X771860Y440977D02*
X769000D01*
Y436542D01*
X771860D01*
Y440977D01*
D02*
G37*
G36*
X768000D02*
X765140D01*
Y436542D01*
X768000D01*
Y440977D01*
D02*
G37*
G36*
X771860Y435542D02*
X769000D01*
Y431107D01*
X771860D01*
Y435542D01*
D02*
G37*
G36*
X768000D02*
X765140D01*
Y431107D01*
X768000D01*
Y435542D01*
D02*
G37*
G36*
X705453Y430453D02*
X697547D01*
Y430000D01*
X688756D01*
Y423000D01*
X697547D01*
Y422547D01*
X705453D01*
Y430453D01*
D02*
G37*
G36*
Y420453D02*
X697547D01*
Y420000D01*
X688756D01*
Y413000D01*
X697547D01*
Y412547D01*
X705453D01*
Y420453D01*
D02*
G37*
G36*
X664787Y415279D02*
Y412122D01*
X673555D01*
Y415279D01*
X664787D01*
D02*
G37*
G36*
X761000Y442294D02*
X760122Y442119D01*
X759378Y441622D01*
X758881Y440878D01*
X758763Y440286D01*
X726761Y408284D01*
X724732D01*
Y410000D01*
X715453D01*
Y410453D01*
X707547D01*
Y402547D01*
X715453D01*
Y403000D01*
X724732D01*
Y404716D01*
X727500D01*
X728183Y404851D01*
X728762Y405238D01*
X761286Y437763D01*
X761878Y437881D01*
X762622Y438378D01*
X763119Y439122D01*
X763294Y440000D01*
X763119Y440878D01*
X762622Y441622D01*
X761878Y442119D01*
X761000Y442294D01*
D02*
G37*
G36*
X673555Y411122D02*
X664787D01*
Y407965D01*
X673555D01*
Y411122D01*
D02*
G37*
G36*
X705453Y410453D02*
X697547D01*
Y410000D01*
X688756D01*
Y403000D01*
X697547D01*
Y402547D01*
X705453D01*
Y410453D01*
D02*
G37*
G36*
X715453Y400453D02*
X707547D01*
Y392547D01*
X715453D01*
Y393000D01*
X724732D01*
Y400000D01*
X715453D01*
Y400453D01*
D02*
G37*
G36*
X705453D02*
X697547D01*
Y400000D01*
X688756D01*
Y393000D01*
X697547D01*
Y392547D01*
X705453D01*
Y400453D01*
D02*
G37*
G36*
X664787Y393035D02*
Y389878D01*
X673555D01*
Y393035D01*
X664787D01*
D02*
G37*
G36*
X673555Y388878D02*
X664787D01*
Y385720D01*
X673555D01*
Y388878D01*
D02*
G37*
G36*
X715453Y390453D02*
X707547D01*
Y382547D01*
X715453D01*
Y383000D01*
X724732D01*
Y390000D01*
X715453D01*
Y390453D01*
D02*
G37*
G36*
X705453D02*
X697547D01*
Y390000D01*
X688756D01*
Y383000D01*
X697547D01*
Y382547D01*
X705453D01*
Y390453D01*
D02*
G37*
G36*
X672681Y376374D02*
X667850D01*
Y373807D01*
X672681D01*
Y376374D01*
D02*
G37*
G36*
X666850D02*
X662019D01*
Y373807D01*
X666850D01*
Y376374D01*
D02*
G37*
G36*
X715453Y380453D02*
X707547D01*
Y372547D01*
X715453D01*
Y373000D01*
X724732D01*
Y380000D01*
X715453D01*
Y380453D01*
D02*
G37*
G36*
X705453D02*
X697547D01*
Y380000D01*
X688756D01*
Y373000D01*
X697547D01*
Y372547D01*
X705453D01*
Y380453D01*
D02*
G37*
G36*
X666850Y372807D02*
X662019D01*
Y370240D01*
X666850D01*
Y372807D01*
D02*
G37*
G36*
X715453Y370453D02*
X707547D01*
Y362547D01*
X715453D01*
Y363000D01*
X724732D01*
Y370000D01*
X715453D01*
Y370453D01*
D02*
G37*
G36*
X705453D02*
X697547D01*
Y370000D01*
X688756D01*
Y363000D01*
X697547D01*
Y362547D01*
X705453D01*
Y370453D01*
D02*
G37*
G36*
X666850Y364760D02*
X662019D01*
Y362193D01*
X666850D01*
Y364760D01*
D02*
G37*
G36*
X672681Y361193D02*
X667850D01*
Y358626D01*
X672681D01*
Y361193D01*
D02*
G37*
G36*
X666850D02*
X662019D01*
Y358626D01*
X666850D01*
Y361193D01*
D02*
G37*
G36*
X724732Y360000D02*
X716988D01*
Y357000D01*
X724732D01*
Y360000D01*
D02*
G37*
G36*
X711000Y360453D02*
X707547D01*
Y357000D01*
X711000D01*
Y360453D01*
D02*
G37*
G36*
X724732Y356000D02*
X716988D01*
Y353000D01*
X724732D01*
Y356000D01*
D02*
G37*
G36*
X715453Y360453D02*
X712000D01*
Y356500D01*
Y352547D01*
X715453D01*
Y353000D01*
X715988D01*
Y356500D01*
Y360000D01*
X715453D01*
Y360453D01*
D02*
G37*
G36*
X711000Y356000D02*
X707547D01*
Y352547D01*
X711000D01*
Y356000D01*
D02*
G37*
G36*
X715453Y350453D02*
X707547D01*
Y342547D01*
X715453D01*
Y343000D01*
X724732D01*
Y350000D01*
X715453D01*
Y350453D01*
D02*
G37*
G36*
X705453D02*
X697547D01*
Y350000D01*
X688756D01*
Y343000D01*
X697547D01*
Y342547D01*
X705453D01*
Y350453D01*
D02*
G37*
G36*
X757000Y428794D02*
X756122Y428619D01*
X755378Y428122D01*
X754881Y427378D01*
X754847Y427208D01*
X737069Y409431D01*
X736631Y408774D01*
X736477Y408000D01*
Y349338D01*
X725662Y338523D01*
X724732D01*
Y340000D01*
X715453D01*
Y340453D01*
X707547D01*
Y332547D01*
X715453D01*
Y333000D01*
X724732D01*
Y334477D01*
X726500D01*
X727274Y334631D01*
X727931Y335069D01*
X739931Y347069D01*
X740369Y347726D01*
X740523Y348500D01*
Y407162D01*
X757708Y424347D01*
X757878Y424381D01*
X758622Y424878D01*
X759119Y425622D01*
X759294Y426500D01*
X759119Y427378D01*
X758622Y428122D01*
X757878Y428619D01*
X757000Y428794D01*
D02*
G37*
G36*
X671953Y257323D02*
X668500D01*
Y254264D01*
X671953D01*
Y257323D01*
D02*
G37*
G36*
X667500D02*
X664047D01*
Y254264D01*
X667500D01*
Y257323D01*
D02*
G37*
G36*
X682953D02*
X675047D01*
Y250342D01*
X675047Y250205D01*
Y249843D01*
X675047Y249705D01*
Y248307D01*
X671953D01*
Y249705D01*
X671953Y249843D01*
Y250205D01*
X671953Y250342D01*
Y253264D01*
X668000D01*
X664047D01*
Y250342D01*
X664047Y250205D01*
Y249843D01*
X664047Y249705D01*
Y242724D01*
X671953D01*
Y244260D01*
X675047D01*
Y242724D01*
X682953D01*
Y249705D01*
X682953Y249843D01*
Y250205D01*
X682953Y250342D01*
Y257323D01*
D02*
G37*
G36*
X771846Y240577D02*
X769000D01*
Y238480D01*
X774378D01*
X774355Y238652D01*
X774096Y239279D01*
X773683Y239817D01*
X773145Y240229D01*
X772519Y240489D01*
X771846Y240577D01*
D02*
G37*
G36*
X768000D02*
X765154D01*
X764481Y240489D01*
X763855Y240229D01*
X763317Y239817D01*
X762904Y239279D01*
X762645Y238652D01*
X762622Y238480D01*
X768000D01*
Y240577D01*
D02*
G37*
G36*
X855280Y241211D02*
X853374D01*
X852599Y241109D01*
X851877Y240809D01*
X851257Y240334D01*
X850781Y239714D01*
X850482Y238991D01*
X850380Y238216D01*
X850482Y237442D01*
X850781Y236719D01*
X851257Y236099D01*
X851877Y235624D01*
X852599Y235324D01*
X853374Y235222D01*
X855280D01*
X856054Y235324D01*
X856777Y235624D01*
X857397Y236099D01*
X857872Y236719D01*
X858172Y237442D01*
X858274Y238216D01*
X858172Y238991D01*
X857872Y239714D01*
X857397Y240334D01*
X856777Y240809D01*
X856054Y241109D01*
X855280Y241211D01*
D02*
G37*
G36*
Y231211D02*
X853374D01*
X852599Y231109D01*
X851877Y230809D01*
X851257Y230334D01*
X850781Y229714D01*
X850482Y228992D01*
X850380Y228217D01*
X850482Y227442D01*
X850781Y226719D01*
X851257Y226099D01*
X851877Y225623D01*
X852599Y225324D01*
X853374Y225222D01*
X855280D01*
X856054Y225324D01*
X856777Y225623D01*
X857397Y226099D01*
X857872Y226719D01*
X858172Y227442D01*
X858274Y228217D01*
X858172Y228992D01*
X857872Y229714D01*
X857397Y230334D01*
X856777Y230809D01*
X856054Y231109D01*
X855280Y231211D01*
D02*
G37*
G36*
X855280Y215778D02*
X853374D01*
X852599Y215676D01*
X851877Y215376D01*
X851257Y214901D01*
X850781Y214281D01*
X850482Y213558D01*
X850380Y212784D01*
X850482Y212009D01*
X850781Y211286D01*
X851257Y210666D01*
X851877Y210191D01*
X852599Y209891D01*
X853374Y209789D01*
X855280D01*
X856054Y209891D01*
X856777Y210191D01*
X857397Y210666D01*
X857872Y211286D01*
X858172Y212009D01*
X858274Y212784D01*
X858172Y213558D01*
X857872Y214281D01*
X857397Y214901D01*
X856777Y215376D01*
X856054Y215676D01*
X855280Y215778D01*
D02*
G37*
G36*
X854430Y159760D02*
X853266D01*
X853168Y159740D01*
X853067D01*
X851926Y159513D01*
X851834Y159475D01*
X851735Y159455D01*
X850660Y159010D01*
X850577Y158954D01*
X850484Y158916D01*
X849517Y158269D01*
X849446Y158198D01*
X849362Y158143D01*
X848540Y157320D01*
X848484Y157237D01*
X848413Y157166D01*
X847767Y156198D01*
X847728Y156105D01*
X847672Y156022D01*
X847227Y154947D01*
X847208Y154849D01*
X847169Y154756D01*
X846942Y153615D01*
Y153515D01*
X846923Y153416D01*
Y152253D01*
X846942Y152154D01*
Y152054D01*
X847169Y150913D01*
X847208Y150820D01*
X847227Y150722D01*
X847672Y149647D01*
X847728Y149564D01*
X847767Y149471D01*
X848413Y148503D01*
X848484Y148433D01*
X848540Y148349D01*
X849362Y147527D01*
X849446Y147471D01*
X849517Y147400D01*
X850484Y146753D01*
X850577Y146715D01*
X850660Y146659D01*
X851735Y146214D01*
X851834Y146194D01*
X851926Y146156D01*
X853067Y145929D01*
X853168D01*
X853266Y145909D01*
X854430D01*
X854528Y145929D01*
X854628D01*
X855769Y146156D01*
X855862Y146194D01*
X855961Y146214D01*
X857035Y146659D01*
X857119Y146715D01*
X857212Y146753D01*
X858179Y147400D01*
X858250Y147471D01*
X858333Y147527D01*
X859156Y148349D01*
X859212Y148433D01*
X859283Y148503D01*
X859929Y149471D01*
X859968Y149564D01*
X860023Y149647D01*
X860468Y150722D01*
X860488Y150820D01*
X860526Y150913D01*
X860753Y152054D01*
Y152154D01*
X860773Y152253D01*
Y153416D01*
X860753Y153515D01*
Y153615D01*
X860526Y154756D01*
X860488Y154849D01*
X860468Y154947D01*
X860023Y156022D01*
X859968Y156105D01*
X859929Y156198D01*
X859283Y157166D01*
X859212Y157237D01*
X859156Y157320D01*
X858333Y158143D01*
X858250Y158198D01*
X858179Y158269D01*
X857212Y158916D01*
X857119Y158954D01*
X857035Y159010D01*
X855961Y159455D01*
X855862Y159475D01*
X855769Y159513D01*
X854628Y159740D01*
X854528D01*
X854430Y159760D01*
D02*
G37*
G36*
X667734Y159760D02*
X666571D01*
X666472Y159740D01*
X666372D01*
X665231Y159513D01*
X665138Y159475D01*
X665039Y159455D01*
X663965Y159010D01*
X663881Y158954D01*
X663788Y158916D01*
X662821Y158269D01*
X662750Y158198D01*
X662667Y158143D01*
X661844Y157320D01*
X661788Y157237D01*
X661717Y157166D01*
X661071Y156198D01*
X661032Y156105D01*
X660977Y156022D01*
X660532Y154947D01*
X660512Y154849D01*
X660474Y154756D01*
X660247Y153615D01*
Y153515D01*
X660227Y153416D01*
Y152253D01*
X660247Y152154D01*
Y152054D01*
X660474Y150913D01*
X660512Y150820D01*
X660532Y150722D01*
X660977Y149647D01*
X661032Y149564D01*
X661071Y149471D01*
X661717Y148503D01*
X661788Y148433D01*
X661844Y148349D01*
X662667Y147526D01*
X662750Y147471D01*
X662821Y147400D01*
X663788Y146753D01*
X663881Y146715D01*
X663965Y146659D01*
X665039Y146214D01*
X665138Y146194D01*
X665231Y146156D01*
X666372Y145929D01*
X666472D01*
X666571Y145909D01*
X667734D01*
X667832Y145929D01*
X667933D01*
X669074Y146156D01*
X669166Y146194D01*
X669265Y146214D01*
X670340Y146659D01*
X670423Y146715D01*
X670516Y146753D01*
X671483Y147400D01*
X671554Y147471D01*
X671638Y147526D01*
X672460Y148349D01*
X672516Y148433D01*
X672587Y148503D01*
X673233Y149471D01*
X673272Y149564D01*
X673327Y149647D01*
X673773Y150722D01*
X673792Y150820D01*
X673831Y150913D01*
X674058Y152054D01*
Y152154D01*
X674077Y152253D01*
Y153416D01*
X674058Y153515D01*
Y153615D01*
X673831Y154756D01*
X673792Y154849D01*
X673773Y154947D01*
X673327Y156022D01*
X673272Y156105D01*
X673233Y156198D01*
X672587Y157166D01*
X672516Y157237D01*
X672460Y157320D01*
X671638Y158143D01*
X671554Y158198D01*
X671483Y158269D01*
X670516Y158916D01*
X670423Y158954D01*
X670340Y159010D01*
X669265Y159455D01*
X669166Y159475D01*
X669074Y159513D01*
X667933Y159740D01*
X667832D01*
X667734Y159760D01*
D02*
G37*
%LPD*%
G36*
X810079Y438911D02*
Y388757D01*
X809878Y388622D01*
X809688Y388338D01*
X809022Y388241D01*
X808921Y388324D01*
Y437500D01*
X808813Y438044D01*
X808505Y438505D01*
X800985Y446025D01*
X800524Y446333D01*
X799980Y446441D01*
X794380D01*
X793953Y446996D01*
X793682Y447205D01*
Y447835D01*
X793953Y448043D01*
X794380Y448599D01*
X800392D01*
X810079Y438911D01*
D02*
G37*
G36*
Y380676D02*
Y336324D01*
X809978Y336241D01*
X809312Y336338D01*
X809122Y336622D01*
X808921Y336757D01*
Y380243D01*
X809122Y380378D01*
X809312Y380662D01*
X809978Y380759D01*
X810079Y380676D01*
D02*
G37*
G36*
X806079Y436911D02*
Y383757D01*
X805878Y383622D01*
X805381Y382878D01*
X805206Y382000D01*
X805381Y381122D01*
X805878Y380378D01*
X806079Y380243D01*
Y336757D01*
X805878Y336622D01*
X805381Y335878D01*
X805206Y335000D01*
X805381Y334122D01*
X805878Y333378D01*
X806622Y332880D01*
X807500Y332706D01*
X808378Y332880D01*
X809122Y333378D01*
X809312Y333662D01*
X809978Y333759D01*
X810079Y333676D01*
Y325441D01*
X794380D01*
X793953Y325996D01*
X793682Y326205D01*
Y326835D01*
X793953Y327043D01*
X794397Y327622D01*
X794677Y328296D01*
X794772Y329020D01*
X794677Y329743D01*
X794397Y330417D01*
X793953Y330996D01*
X793532Y331320D01*
X793493Y331436D01*
Y331800D01*
X793532Y331917D01*
X793953Y332240D01*
X794397Y332819D01*
X794677Y333493D01*
X794706Y333717D01*
X789811D01*
X784916D01*
X784945Y333493D01*
X785225Y332819D01*
X785669Y332240D01*
X786090Y331917D01*
X786129Y331800D01*
Y331436D01*
X786090Y331320D01*
X785669Y330996D01*
X785225Y330417D01*
X784945Y329743D01*
X784850Y329020D01*
X784945Y328296D01*
X785225Y327622D01*
X785669Y327043D01*
X785940Y326835D01*
Y326205D01*
X785669Y325996D01*
X785225Y325417D01*
X784945Y324743D01*
X784850Y324020D01*
X784945Y323296D01*
X785225Y322622D01*
X785669Y322043D01*
X785940Y321835D01*
Y321205D01*
X785669Y320996D01*
X785225Y320417D01*
X784945Y319743D01*
X784850Y319020D01*
X784945Y318296D01*
X785225Y317622D01*
X785669Y317043D01*
X785940Y316835D01*
Y316205D01*
X785669Y315997D01*
X785225Y315418D01*
X784945Y314743D01*
X784850Y314020D01*
X784945Y313296D01*
X785225Y312622D01*
X785669Y312043D01*
X785940Y311835D01*
Y311205D01*
X785669Y310997D01*
X785243Y310441D01*
X783069D01*
X772747Y320763D01*
X772794Y321000D01*
X772619Y321878D01*
X772122Y322622D01*
X771378Y323119D01*
X770500Y323294D01*
X769622Y323119D01*
X768878Y322622D01*
X768381Y321878D01*
X768206Y321000D01*
X768381Y320122D01*
X768878Y319378D01*
X769622Y318881D01*
X770500Y318706D01*
X770737Y318753D01*
X781475Y308015D01*
X781937Y307707D01*
X782480Y307599D01*
X785243D01*
X785669Y307043D01*
X785940Y306835D01*
Y306205D01*
X785669Y305996D01*
X785225Y305417D01*
X784945Y304743D01*
X784850Y304020D01*
X784945Y303296D01*
X785225Y302622D01*
X785669Y302043D01*
X785840Y301912D01*
X785859Y301378D01*
X785507Y301043D01*
X771860D01*
Y303955D01*
X767320D01*
X767124Y303994D01*
X762868D01*
X753023Y313838D01*
Y335978D01*
X753119Y336122D01*
X753294Y337000D01*
X753119Y337878D01*
X753023Y338022D01*
Y360103D01*
X765140D01*
Y357191D01*
X771860D01*
Y360103D01*
X785729D01*
X786248Y359705D01*
X786922Y359426D01*
X787646Y359330D01*
X791976D01*
X792700Y359426D01*
X793374Y359705D01*
X793953Y360149D01*
X794397Y360728D01*
X794677Y361403D01*
X794772Y362126D01*
X794677Y362850D01*
X794397Y363524D01*
X793953Y364103D01*
X793682Y364311D01*
Y364941D01*
X793953Y365149D01*
X794397Y365728D01*
X794677Y366403D01*
X794772Y367126D01*
X794677Y367850D01*
X794397Y368524D01*
X793953Y369103D01*
X793682Y369311D01*
Y369941D01*
X793953Y370149D01*
X794397Y370728D01*
X794677Y371403D01*
X794772Y372126D01*
X794677Y372850D01*
X794397Y373524D01*
X793953Y374103D01*
X793682Y374311D01*
Y374941D01*
X793953Y375149D01*
X794397Y375728D01*
X794677Y376402D01*
X794772Y377126D01*
X794677Y377850D01*
X794397Y378524D01*
X793953Y379103D01*
X793682Y379311D01*
Y379941D01*
X793953Y380149D01*
X794397Y380728D01*
X794677Y381402D01*
X794772Y382126D01*
X794677Y382850D01*
X794397Y383524D01*
X793953Y384103D01*
X793682Y384311D01*
Y384941D01*
X793953Y385149D01*
X794397Y385728D01*
X794677Y386403D01*
X794772Y387126D01*
X794677Y387850D01*
X794397Y388524D01*
X793953Y389103D01*
X793682Y389311D01*
Y389941D01*
X793953Y390149D01*
X794397Y390728D01*
X794677Y391403D01*
X794772Y392126D01*
X794677Y392850D01*
X794397Y393524D01*
X793953Y394103D01*
X793532Y394426D01*
X793493Y394542D01*
Y394907D01*
X793532Y395023D01*
X793953Y395346D01*
X794397Y395925D01*
X794677Y396599D01*
X794706Y396823D01*
X789811D01*
X784916D01*
X784945Y396599D01*
X785225Y395925D01*
X785669Y395346D01*
X786090Y395023D01*
X786129Y394907D01*
Y394542D01*
X786090Y394426D01*
X785669Y394103D01*
X785225Y393524D01*
X784945Y392850D01*
X784850Y392126D01*
X784945Y391403D01*
X785225Y390728D01*
X785669Y390149D01*
X785940Y389941D01*
Y389311D01*
X785669Y389103D01*
X785225Y388524D01*
X784945Y387850D01*
X784850Y387126D01*
X784945Y386403D01*
X785225Y385728D01*
X785669Y385149D01*
X785940Y384941D01*
Y384311D01*
X785669Y384103D01*
X785225Y383524D01*
X784945Y382850D01*
X784850Y382126D01*
X784945Y381402D01*
X785225Y380728D01*
X785669Y380149D01*
X785940Y379941D01*
Y379311D01*
X785669Y379103D01*
X785225Y378524D01*
X784945Y377850D01*
X784850Y377126D01*
X784945Y376402D01*
X785225Y375728D01*
X785669Y375149D01*
X785940Y374941D01*
Y374311D01*
X785669Y374103D01*
X785243Y373547D01*
X782963D01*
X776005Y380505D01*
X775544Y380813D01*
X775000Y380921D01*
X759257D01*
X759122Y381122D01*
X758378Y381620D01*
X757500Y381794D01*
X756622Y381620D01*
X755878Y381122D01*
X755381Y380378D01*
X755206Y379500D01*
X755381Y378622D01*
X755878Y377878D01*
X756622Y377380D01*
X757500Y377206D01*
X758378Y377380D01*
X759122Y377878D01*
X759257Y378079D01*
X765140D01*
Y373648D01*
X768500D01*
X771860D01*
Y378079D01*
X774411D01*
X781369Y371121D01*
X781830Y370813D01*
X782374Y370705D01*
X785243D01*
X785669Y370149D01*
X785940Y369941D01*
Y369311D01*
X785669Y369103D01*
X785225Y368524D01*
X784945Y367850D01*
X784850Y367126D01*
X784945Y366403D01*
X785225Y365728D01*
X785669Y365149D01*
X785840Y365018D01*
X785859Y364485D01*
X785507Y364149D01*
X771860D01*
Y367061D01*
X765140D01*
Y364149D01*
X753023D01*
Y382162D01*
X769931Y399069D01*
X770369Y399726D01*
X770523Y400500D01*
Y420085D01*
X771860D01*
Y422997D01*
X785729D01*
X786248Y422599D01*
X786922Y422319D01*
X787646Y422224D01*
X791976D01*
X792700Y422319D01*
X793374Y422599D01*
X793953Y423043D01*
X794397Y423622D01*
X794677Y424296D01*
X794772Y425020D01*
X794677Y425743D01*
X794397Y426417D01*
X793953Y426997D01*
X793682Y427205D01*
Y427835D01*
X793953Y428043D01*
X794397Y428622D01*
X794677Y429296D01*
X794772Y430020D01*
X794677Y430743D01*
X794397Y431418D01*
X793953Y431996D01*
X793682Y432205D01*
Y432835D01*
X793953Y433043D01*
X794380Y433599D01*
X796892D01*
X797579Y432911D01*
Y431757D01*
X797378Y431622D01*
X796881Y430878D01*
X796706Y430000D01*
X796881Y429122D01*
X797378Y428378D01*
X798122Y427881D01*
X799000Y427706D01*
X799878Y427881D01*
X800622Y428378D01*
X800812Y428662D01*
X801478Y428759D01*
X801579Y428676D01*
Y378757D01*
X801378Y378622D01*
X800881Y377878D01*
X800706Y377000D01*
X800881Y376122D01*
X801378Y375378D01*
X801579Y375243D01*
Y331257D01*
X801378Y331122D01*
X800881Y330378D01*
X800706Y329500D01*
X800881Y328622D01*
X801378Y327878D01*
X802122Y327380D01*
X803000Y327206D01*
X803878Y327380D01*
X804622Y327878D01*
X805119Y328622D01*
X805294Y329500D01*
X805119Y330378D01*
X804622Y331122D01*
X804421Y331257D01*
Y375243D01*
X804622Y375378D01*
X805119Y376122D01*
X805294Y377000D01*
X805119Y377878D01*
X804622Y378622D01*
X804421Y378757D01*
Y436500D01*
X804313Y437044D01*
X804005Y437505D01*
X800485Y441024D01*
X800024Y441332D01*
X799480Y441441D01*
X794380D01*
X793953Y441996D01*
X793682Y442205D01*
Y442835D01*
X793953Y443043D01*
X794380Y443599D01*
X799392D01*
X806079Y436911D01*
D02*
G37*
G36*
X788817Y226059D02*
X788706Y225500D01*
X788753Y225263D01*
X782892Y219401D01*
X774002D01*
X773683Y219817D01*
X773178Y220204D01*
X773143Y220472D01*
Y220488D01*
X773178Y220757D01*
X773683Y221144D01*
X774096Y221682D01*
X774355Y222308D01*
X774443Y222980D01*
X774355Y223653D01*
X774096Y224279D01*
X773683Y224817D01*
X773178Y225204D01*
X773143Y225472D01*
Y225488D01*
X773178Y225757D01*
X773683Y226144D01*
X774002Y226559D01*
X788446D01*
X788817Y226059D01*
D02*
G37*
G36*
X681079Y345176D02*
Y290500D01*
X681187Y289956D01*
X681495Y289495D01*
X759015Y211976D01*
X759476Y211667D01*
X760020Y211559D01*
X762998D01*
X763317Y211144D01*
X763822Y210757D01*
X763857Y210488D01*
Y210472D01*
X763822Y210204D01*
X763317Y209817D01*
X762998Y209401D01*
X759608D01*
X679921Y289089D01*
Y344743D01*
X680122Y344878D01*
X680312Y345162D01*
X680978Y345259D01*
X681079Y345176D01*
D02*
G37*
%LPC*%
G36*
X791976Y400118D02*
X790311D01*
Y397823D01*
X794706D01*
X794677Y398046D01*
X794397Y398721D01*
X793953Y399300D01*
X793374Y399744D01*
X792700Y400023D01*
X791976Y400118D01*
D02*
G37*
G36*
X789311D02*
X787646D01*
X786922Y400023D01*
X786248Y399744D01*
X785669Y399300D01*
X785225Y398721D01*
X784945Y398046D01*
X784916Y397823D01*
X789311D01*
Y400118D01*
D02*
G37*
G36*
X771860Y372648D02*
X769000D01*
Y368213D01*
X771860D01*
Y372648D01*
D02*
G37*
G36*
X768000D02*
X765140D01*
Y368213D01*
X768000D01*
Y372648D01*
D02*
G37*
G36*
X791976Y337012D02*
X790311D01*
Y334717D01*
X794706D01*
X794677Y334940D01*
X794397Y335614D01*
X793953Y336193D01*
X793374Y336638D01*
X792700Y336917D01*
X791976Y337012D01*
D02*
G37*
G36*
X789311D02*
X787646D01*
X786922Y336917D01*
X786248Y336638D01*
X785669Y336193D01*
X785225Y335614D01*
X784945Y334940D01*
X784916Y334717D01*
X789311D01*
Y337012D01*
D02*
G37*
G36*
X771860Y314977D02*
X769000D01*
Y310542D01*
X771860D01*
Y314977D01*
D02*
G37*
G36*
X768000D02*
X765140D01*
Y310542D01*
X768000D01*
Y314977D01*
D02*
G37*
G36*
X771860Y309542D02*
X769000D01*
Y305107D01*
X771860D01*
Y309542D01*
D02*
G37*
G36*
X768000D02*
X765140D01*
Y305107D01*
X768000D01*
Y309542D01*
D02*
G37*
%LPD*%
D10*
X789831Y445000D02*
X789850Y445020D01*
X692000Y356500D02*
X697000D01*
X682500Y347000D02*
X692000Y356500D01*
X682500Y290500D02*
Y347000D01*
X746520Y232980D02*
X768500D01*
X686000Y293500D02*
X746520Y232980D01*
X686000Y293500D02*
Y330244D01*
X760020Y212980D02*
X768500D01*
X682500Y290500D02*
X760020Y212980D01*
X692256Y336500D02*
X697000D01*
X686000Y330244D02*
X692256Y336500D01*
X678500Y288500D02*
Y346500D01*
Y288500D02*
X759020Y207980D01*
X768500D01*
Y217980D02*
X783480D01*
X791000Y225500D01*
X811500Y324020D02*
Y387000D01*
Y240500D02*
Y324020D01*
X789811D02*
X811500D01*
X768500Y227980D02*
X798980D01*
X811500Y240500D01*
X782480Y309020D02*
X789811D01*
X770500Y321000D02*
X782480Y309020D01*
X782374Y372126D02*
X789811D01*
X775000Y379500D02*
X782374Y372126D01*
X757500Y379500D02*
X775000D01*
X789811Y435020D02*
X797480D01*
X799000Y433500D01*
Y430000D02*
Y433500D01*
X807500Y335000D02*
Y382000D01*
X803000Y377000D02*
Y436500D01*
Y329500D02*
Y377000D01*
X807500Y382000D02*
Y437500D01*
X811500Y387000D02*
Y439500D01*
X799480Y440020D02*
X803000Y436500D01*
X799980Y445020D02*
X807500Y437500D01*
X789811Y440020D02*
X799480D01*
X789850Y445020D02*
X799980D01*
X789811D02*
X789831Y445000D01*
X800980Y450020D02*
X811500Y439500D01*
X789811Y450020D02*
X800980D01*
D24*
X664287Y389378D02*
D03*
Y411622D02*
D03*
D03*
Y389378D02*
D03*
D25*
X783667Y528500D02*
D03*
X827000D02*
D03*
X740333D02*
D03*
X697000D02*
D03*
D26*
X795122Y527713D02*
D03*
X772878D02*
D03*
X708122D02*
D03*
X685878D02*
D03*
X838122D02*
D03*
X815878D02*
D03*
X751622D02*
D03*
X729378D02*
D03*
X772545D02*
D03*
X794789D02*
D03*
X815878D02*
D03*
X838122D02*
D03*
X729211D02*
D03*
X751455D02*
D03*
X685878D02*
D03*
X708122D02*
D03*
D27*
X784000Y506000D02*
D03*
X740500D02*
D03*
X697000D02*
D03*
D28*
X789800Y499700D02*
D03*
X778186D02*
D03*
X746300D02*
D03*
X734686D02*
D03*
X702800D02*
D03*
X691186D02*
D03*
D29*
X663500Y400500D02*
D03*
D30*
X738500Y408000D02*
X757000Y426500D01*
X751000Y337000D02*
Y361500D01*
Y313000D02*
Y337000D01*
X726500Y336500D02*
X738500Y348500D01*
Y408000D01*
X716488Y336500D02*
X726500D01*
X685049Y439563D02*
X685112Y439500D01*
X710730Y447437D02*
X710980D01*
X702793Y439500D02*
X710730Y447437D01*
X685112Y439500D02*
X702793D01*
X718980Y450937D02*
Y459811D01*
X707500Y469000D02*
X711083D01*
X685937Y447437D02*
X707500Y469000D01*
X684951Y447437D02*
X685937D01*
X711083Y469000D02*
X711500Y469417D01*
X733500Y482500D02*
X746000Y470000D01*
Y454000D02*
Y470000D01*
X685000Y482500D02*
X733500D01*
X711500Y336500D02*
X716488D01*
X697000Y416500D02*
X701500D01*
X733500Y225000D02*
X755520Y202980D01*
X768500D01*
X751000Y361500D02*
Y383000D01*
X751626Y362126D02*
X768500D01*
X751000Y361500D02*
X751626Y362126D01*
X768500Y299020D02*
Y300595D01*
X767124Y301970D02*
X768500Y300595D01*
X762030Y301970D02*
X767124D01*
X751000Y313000D02*
X762030Y301970D01*
X751000Y383000D02*
X768500Y400500D01*
Y425020D01*
X668000Y246284D02*
X679000D01*
X768500Y299020D02*
X789811D01*
X768500Y299020D02*
X768500Y299020D01*
Y362126D02*
X789811D01*
X768500Y362126D02*
X768500Y362126D01*
Y425020D02*
X789811D01*
X768500Y425020D02*
X768500Y425020D01*
D31*
X727500Y406500D02*
X761000Y440000D01*
X716488Y406500D02*
X727500D01*
X778500Y450000D02*
X783480Y445020D01*
X752500Y450000D02*
X778500D01*
X729000Y426500D02*
X752500Y450000D01*
X777000Y445500D02*
X782480Y440020D01*
X757000Y445500D02*
X777000D01*
X728000Y416500D02*
X757000Y445500D01*
X783480Y445020D02*
X789811D01*
X716488Y416500D02*
X728000D01*
X716488Y426500D02*
X729000D01*
X782480Y440020D02*
X789811D01*
D32*
X673650Y367493D02*
X678493D01*
X681500Y370500D01*
Y396000D01*
X677000Y400500D02*
X681500Y396000D01*
X663500Y400500D02*
X676500D01*
X846216Y202783D02*
X854327D01*
X827000Y222000D02*
Y495520D01*
Y222000D02*
X846216Y202783D01*
X827000Y503000D02*
X827000Y503000D01*
X827000Y506000D02*
Y528500D01*
X784000Y506000D02*
Y528167D01*
X783667Y528500D02*
X784000Y528167D01*
X740500Y506000D02*
Y528333D01*
X740333Y528500D02*
X740500Y528333D01*
X697000Y506000D02*
Y528500D01*
D33*
X685000Y462500D02*
D03*
Y472500D02*
D03*
Y482500D02*
D03*
D34*
X684951Y447437D02*
D03*
D35*
X685049Y439563D02*
D03*
D36*
X701500Y426500D02*
D03*
X711500D02*
D03*
X701500Y416500D02*
D03*
X711500D02*
D03*
X701500Y406500D02*
D03*
X711500D02*
D03*
X701500Y396500D02*
D03*
X711500D02*
D03*
X701500Y386500D02*
D03*
X711500D02*
D03*
X701500Y376500D02*
D03*
X711500D02*
D03*
X701500Y366500D02*
D03*
X711500D02*
D03*
X701500Y356500D02*
D03*
X711500D02*
D03*
X701500Y346500D02*
D03*
X711500D02*
D03*
X701500Y336500D02*
D03*
X711500D02*
D03*
D37*
X718980Y469417D02*
D03*
X757000Y426500D02*
D03*
X768500Y425020D02*
D03*
X761000Y440000D02*
D03*
X711500Y459811D02*
D03*
X746000Y454000D02*
D03*
X789811Y460217D02*
D03*
X768500Y237980D02*
D03*
X660500Y400500D02*
D03*
X666500D02*
D03*
X663500D02*
D03*
X827000Y525000D02*
D03*
Y532000D02*
D03*
Y528500D02*
D03*
X697000Y525000D02*
D03*
Y532000D02*
D03*
Y528500D02*
D03*
X740500Y525000D02*
D03*
Y528500D02*
D03*
Y532000D02*
D03*
X784000Y525000D02*
D03*
X784000Y528500D02*
D03*
X784000Y532000D02*
D03*
X751000Y337000D02*
D03*
X789811Y397323D02*
D03*
X768500Y299020D02*
D03*
X733500Y225000D02*
D03*
X679000Y253764D02*
D03*
X678500Y346500D02*
D03*
X791000Y225500D02*
D03*
X768500Y217980D02*
D03*
Y223000D02*
D03*
X789500Y304000D02*
D03*
X770500Y321000D02*
D03*
X757500Y379500D02*
D03*
X789500Y367000D02*
D03*
X799000Y430000D02*
D03*
X790000D02*
D03*
X807500Y335000D02*
D03*
X803000Y377000D02*
D03*
X811500Y387000D02*
D03*
X803000Y329500D02*
D03*
X807500Y382000D02*
D03*
X789811Y314020D02*
D03*
Y319020D02*
D03*
X789811Y377126D02*
D03*
Y382126D02*
D03*
Y387126D02*
D03*
X789811Y450020D02*
D03*
D38*
X673650Y367493D02*
D03*
D39*
X667350Y361693D02*
D03*
Y373307D02*
D03*
D40*
X679000Y253764D02*
D03*
Y246284D02*
D03*
X668000Y253764D02*
D03*
Y246284D02*
D03*
X827000Y503000D02*
D03*
Y495520D02*
D03*
D41*
X710980Y447437D02*
D03*
X718980Y443937D02*
D03*
Y450937D02*
D03*
D42*
X711500Y459811D02*
D03*
X718980D02*
D03*
Y469417D02*
D03*
X711500D02*
D03*
D43*
X716488Y426500D02*
D03*
X697000D02*
D03*
X716488Y416500D02*
D03*
X697000D02*
D03*
X716488Y406500D02*
D03*
X697000D02*
D03*
X716488Y396500D02*
D03*
X697000D02*
D03*
X716488Y386500D02*
D03*
X697000D02*
D03*
X716488Y376500D02*
D03*
X697000D02*
D03*
X716488Y366500D02*
D03*
X697000D02*
D03*
X716488Y356500D02*
D03*
X697000D02*
D03*
X716488Y346500D02*
D03*
X697000D02*
D03*
X716488Y336500D02*
D03*
X697000D02*
D03*
D44*
X768500Y436042D02*
D03*
Y425020D02*
D03*
Y373148D02*
D03*
Y362126D02*
D03*
Y310042D02*
D03*
Y299020D02*
D03*
D45*
X854327Y202783D02*
D03*
Y212784D02*
D03*
X854327Y228217D02*
D03*
Y238216D02*
D03*
D46*
X768500Y202980D02*
D03*
Y207980D02*
D03*
Y212980D02*
D03*
Y217980D02*
D03*
Y222980D02*
D03*
Y227980D02*
D03*
Y232980D02*
D03*
Y237980D02*
D03*
D47*
X789811Y460217D02*
D03*
Y455020D02*
D03*
Y435020D02*
D03*
Y440020D02*
D03*
Y430020D02*
D03*
Y425020D02*
D03*
Y445020D02*
D03*
Y450020D02*
D03*
X789811Y397323D02*
D03*
Y392126D02*
D03*
Y372126D02*
D03*
Y377126D02*
D03*
Y367126D02*
D03*
Y362126D02*
D03*
Y382126D02*
D03*
Y387126D02*
D03*
X789811Y334216D02*
D03*
Y329020D02*
D03*
Y309020D02*
D03*
Y314020D02*
D03*
Y304020D02*
D03*
Y299020D02*
D03*
Y319020D02*
D03*
Y324020D02*
D03*
M02*
