G04*
G04 #@! TF.GenerationSoftware,Altium Limited,Altium Designer,20.1.7 (139)*
G04*
G04 Layer_Color=8388736*
%FSLAX25Y25*%
%MOIN*%
G70*
G04*
G04 #@! TF.SameCoordinates,B477E5EB-4298-4D0D-9682-CB7A6047EE2C*
G04*
G04*
G04 #@! TF.FilePolarity,Negative*
G04*
G01*
G75*
%ADD13R,0.17335X0.06115*%
%ADD14R,0.05800X0.14973*%
%ADD15R,0.06115X0.17335*%
%ADD16R,0.04737X0.04934*%
%ADD17R,0.04934X0.09461*%
%ADD18R,0.14973X0.05800*%
%ADD19C,0.08400*%
G04:AMPARAMS|DCode=20|XSize=86.74mil|YSize=70.99mil|CornerRadius=0mil|HoleSize=0mil|Usage=FLASHONLY|Rotation=0.000|XOffset=0mil|YOffset=0mil|HoleType=Round|Shape=Octagon|*
%AMOCTAGOND20*
4,1,8,0.04337,-0.01775,0.04337,0.01775,0.02562,0.03550,-0.02562,0.03550,-0.04337,0.01775,-0.04337,-0.01775,-0.02562,-0.03550,0.02562,-0.03550,0.04337,-0.01775,0.0*
%
%ADD20OCTAGOND20*%

%ADD21O,0.08674X0.07099*%
%ADD22R,0.06706X0.06706*%
%ADD23C,0.03300*%
D13*
X664287Y389378D02*
D03*
Y411622D02*
D03*
D03*
Y389378D02*
D03*
D14*
X784000Y528500D02*
D03*
X697000D02*
D03*
X827000D02*
D03*
X740500D02*
D03*
D15*
X795122Y527713D02*
D03*
X772878D02*
D03*
X708122D02*
D03*
X685878D02*
D03*
X838122D02*
D03*
X815878D02*
D03*
X751622D02*
D03*
X729378D02*
D03*
X772545D02*
D03*
X794789D02*
D03*
X815878D02*
D03*
X838122D02*
D03*
X729211D02*
D03*
X751455D02*
D03*
X685878D02*
D03*
X708122D02*
D03*
D16*
X784000Y506000D02*
D03*
X697000D02*
D03*
X740500D02*
D03*
D17*
X778200Y499700D02*
D03*
X789814D02*
D03*
X691200D02*
D03*
X702814D02*
D03*
X734700D02*
D03*
X746314D02*
D03*
D18*
X663500Y400500D02*
D03*
D19*
X685000Y462500D02*
D03*
Y472500D02*
D03*
Y482500D02*
D03*
D20*
X684951Y447437D02*
D03*
D21*
X685049Y439563D02*
D03*
D22*
X701500Y426500D02*
D03*
X711500D02*
D03*
X701500Y416500D02*
D03*
X711500D02*
D03*
X701500Y406500D02*
D03*
X711500D02*
D03*
X701500Y396500D02*
D03*
X711500D02*
D03*
X701500Y386500D02*
D03*
X711500D02*
D03*
X701500Y376500D02*
D03*
X711500D02*
D03*
X701500Y366500D02*
D03*
X711500D02*
D03*
X701500Y356500D02*
D03*
X711500D02*
D03*
X701500Y346500D02*
D03*
X711500D02*
D03*
X701500Y336500D02*
D03*
X711500D02*
D03*
D23*
X718980Y469417D02*
D03*
X757000Y426500D02*
D03*
X768500Y425020D02*
D03*
X761000Y440000D02*
D03*
X711500Y459811D02*
D03*
X746000Y454000D02*
D03*
X789811Y460217D02*
D03*
X768500Y237980D02*
D03*
X660500Y400500D02*
D03*
X666500D02*
D03*
X663500D02*
D03*
X827000Y525000D02*
D03*
Y532000D02*
D03*
Y528500D02*
D03*
X697000Y525000D02*
D03*
Y532000D02*
D03*
Y528500D02*
D03*
X740500Y525000D02*
D03*
Y528500D02*
D03*
Y532000D02*
D03*
X784000Y525000D02*
D03*
X784000Y528500D02*
D03*
X784000Y532000D02*
D03*
X751000Y337000D02*
D03*
X789811Y397323D02*
D03*
X768500Y299020D02*
D03*
X733500Y225000D02*
D03*
X679000Y253764D02*
D03*
X678500Y346500D02*
D03*
X791000Y225500D02*
D03*
X768500Y217980D02*
D03*
Y223000D02*
D03*
X789500Y304000D02*
D03*
X770500Y321000D02*
D03*
X757500Y379500D02*
D03*
X789500Y367000D02*
D03*
X799000Y430000D02*
D03*
X790000D02*
D03*
X807500Y335000D02*
D03*
X803000Y377000D02*
D03*
X811500Y387000D02*
D03*
X803000Y329500D02*
D03*
X807500Y382000D02*
D03*
X789811Y314020D02*
D03*
Y319020D02*
D03*
X789811Y377126D02*
D03*
Y382126D02*
D03*
Y387126D02*
D03*
X789811Y450020D02*
D03*
M02*
